<?xml version="1.0" encoding="utf-8"?>
<!-- Generator: Adobe Illustrator 15.1.0, SVG Export Plug-In . SVG Version: 6.00 Build 0)  -->
<!DOCTYPE svg PUBLIC "-//W3C//DTD SVG 1.1//EN" "http://www.w3.org/Graphics/SVG/1.1/DTD/svg11.dtd">
<svg version="1.1" id="Layer_1" xmlns="http://www.w3.org/2000/svg" xmlns:xlink="http://www.w3.org/1999/xlink" x="0px" y="0px"
	 width="197px" height="34.947px" viewBox="206.515 160.256 197 34.947" enable-background="new 206.515 160.256 197 34.947"
	 xml:space="preserve">
<g>
	<path fill="#FFFFFF" d="M211.941,171.475h-2.227v8.487h-2.865c0,0,0-19.361,0-19.493h2.865v8.062h2.227v-8.062h2.864v19.493h-2.864
		V171.475z"/>
	<path fill="#FFFFFF" d="M216.926,160.469h2.864v19.493h-2.864V160.469z"/>
	<path fill="#FFFFFF" d="M220.903,163.413v-2.944h8.275v2.944h-2.706v16.549h-2.863v-16.549H220.903z"/>
	<path fill="#FFFFFF" d="M237.929,160.257c3.448-0.08,4.004,2.997,4.004,5.171l-2.811,0.265c0-1.3-0.186-2.811-1.14-2.811
		c-0.743,0.027-0.981,0.822-0.981,1.937c0,1.326,1.14,2.811,2.254,4.428c1.327,1.99,2.679,3.925,2.679,6.021
		c0,2.599-0.849,4.906-3.978,4.906c-3.687,0-4.164-2.785-4.164-5.676l2.811-0.265c0,1.618,0.159,3.315,1.353,3.315
		c0.849,0,1.167-0.929,1.167-2.148c0-1.3-1.22-2.865-2.307-4.509c-1.353-1.989-2.625-3.978-2.625-6.073
		C234.19,162.697,235.224,160.31,237.929,160.257z"/>
	<path fill="#FFFFFF" d="M247.105,180.174c-3.846,0-3.819-4.217-3.819-4.217v-11.483c0,0-0.027-4.217,3.819-4.217
		c3.845,0,3.819,4.217,3.819,4.217v11.483C250.924,175.957,250.95,180.174,247.105,180.174z M247.105,163.042
		c-1.008,0-0.954,1.432-0.954,1.432v11.483c0,0-0.054,1.433,0.954,1.433s0.955-1.433,0.955-1.433v-11.483
		C248.059,164.474,248.113,163.042,247.105,163.042z"/>
	<path fill="#FFFFFF" d="M255.883,169.804l-0.239-0.901h-0.159v0.901v10.158h-2.625v-19.493h2.545l2.785,10.158l0.239,0.901h0.159
		v-0.901v-10.158h2.625v19.493h-2.545L255.883,169.804z"/>
	<path fill="#FFFFFF" d="M267.923,167.471v-2.997c0,0,0.053-1.432-0.955-1.432c-1.008,0-0.955,1.432-0.955,1.432v11.722
		c0,0-0.053,1.432,0.955,1.432s0.955-1.432,0.955-1.432v-3.528h-1.14v-2.414h4.004v9.707h-1.697l-0.345-0.929
		c-0.53,0.663-1.326,1.14-2.228,1.14c-3.633,0-3.368-4.216-3.368-4.216v-11.483c0,0-0.027-4.216,3.819-4.216
		s3.819,4.216,3.819,4.216v2.997L267.923,167.471L267.923,167.471z"/>
	<path fill="#FFFFFF" d="M276.435,160.257c3.447-0.08,4.004,2.997,4.004,5.171l-2.811,0.265c0-1.3-0.186-2.811-1.14-2.811
		c-0.743,0.027-0.981,0.822-0.981,1.937c0,1.326,1.14,2.811,2.254,4.428c1.326,1.99,2.679,3.925,2.679,6.021
		c0,2.599-0.849,4.906-3.978,4.906c-3.687,0-4.164-2.785-4.164-5.676l2.811-0.265c0,1.618,0.16,3.315,1.353,3.315
		c0.849,0,1.167-0.929,1.167-2.148c0-1.3-1.221-2.865-2.308-4.509c-1.353-1.989-2.626-3.978-2.626-6.073
		C272.695,162.697,273.73,160.31,276.435,160.257z"/>
	<path fill="#FF6633" d="M288.315,179.962h-2.254V160.47h2.254c5.304,0.026,5.702,2.122,5.702,9.759
		C294.017,177.84,293.619,179.936,288.315,179.962z M288.925,177.098c2.016,0,2.147-0.504,2.122-6.896
		c0.026-6.365-0.106-6.869-2.122-6.869V177.098z"/>
	<path fill="#FF6633" d="M295.926,160.469h6.551v2.944h-3.687v5.119h2.652v3.13h-2.652v5.356h3.687v2.944h-6.551V160.469z"/>
	<path fill="#FF6633" d="M311.52,173.279v2.678c0,0,0.027,4.217-3.819,4.217c-3.845,0-3.819-4.217-3.819-4.217v-11.483
		c0,0-0.027-4.217,3.819-4.217c3.847,0,3.819,4.217,3.819,4.217v2.679h-2.679v-2.679c0,0,0.106-1.432-1.087-1.432
		c-1.008,0-1.008,1.432-1.008,1.432v11.483c0,0,0,1.433,1.008,1.433c1.193,0,1.087-1.433,1.087-1.433v-2.678H311.52z"/>
	<path fill="#FF6633" d="M316.876,180.174c-3.845,0-3.818-4.217-3.818-4.217v-11.483c0,0-0.026-4.217,3.818-4.217
		c3.846,0,3.818,4.217,3.818,4.217v11.483C320.694,175.957,320.722,180.174,316.876,180.174z M316.876,163.042
		c-1.007,0-0.954,1.432-0.954,1.432v11.483c0,0-0.053,1.433,0.954,1.433c1.008,0,0.955-1.433,0.955-1.433v-11.483
		C317.831,164.474,317.884,163.042,316.876,163.042z"/>
	<path fill="#FF6633" d="M325.654,169.804l-0.239-0.901h-0.159v0.901v10.158h-2.625v-19.493h2.546l2.784,10.158l0.239,0.901h0.158
		v-0.901v-10.158h2.625v19.493h-2.546L325.654,169.804z"/>
	<path fill="#FF6633" d="M336.659,160.257c3.448-0.08,4.005,2.997,4.005,5.171l-2.812,0.265c0-1.3-0.186-2.811-1.14-2.811
		c-0.743,0.027-0.981,0.822-0.981,1.937c0,1.326,1.14,2.811,2.254,4.428c1.326,1.99,2.679,3.925,2.679,6.021
		c0,2.599-0.849,4.906-3.979,4.906c-3.686,0-4.163-2.785-4.163-5.676l2.811-0.265c0,1.618,0.159,3.315,1.353,3.315
		c0.849,0,1.166-0.929,1.166-2.148c0-1.3-1.219-2.865-2.307-4.509c-1.353-1.989-2.626-3.978-2.626-6.073
		C332.92,162.697,333.954,160.31,336.659,160.257z"/>
	<path fill="#FF6633" d="M341.193,163.413v-2.944h8.274v2.944h-2.705v16.549h-2.863v-16.549H341.193z"/>
	<path fill="#FF6633" d="M355.7,179.962l-1.485-8.221h-0.769v8.221h-2.865V160.47h2.865c3.395,0,4.879,1.963,4.879,5.623
		c0,1.936-0.504,3.687-1.591,4.429l1.83,9.441H355.7z M353.446,163.307v5.782c0.796,0,2.121-0.106,2.121-2.891
		S354.242,163.307,353.446,163.307z"/>
	<path fill="#FF6633" d="M367.768,160.469v15.488c0,0,0.025,4.217-3.82,4.217c-3.844,0-3.817-4.217-3.817-4.217v-15.488h2.863
		v15.488c0,0-0.054,1.433,0.954,1.433c1.009,0,0.956-1.433,0.956-1.433v-15.488H367.768z"/>
	<path fill="#FF6633" d="M377.313,173.279v2.678c0,0,0.027,4.217-3.819,4.217c-3.845,0-3.817-4.217-3.817-4.217v-11.483
		c0,0-0.027-4.217,3.817-4.217c3.847,0,3.819,4.217,3.819,4.217v2.679h-2.679v-2.679c0,0,0.106-1.432-1.087-1.432
		c-1.008,0-1.008,1.432-1.008,1.432v11.483c0,0,0,1.433,1.008,1.433c1.193,0,1.087-1.433,1.087-1.433v-2.678H377.313z"/>
	<path fill="#FF6633" d="M378.028,163.413v-2.944h8.275v2.944h-2.705v16.549h-2.864v-16.549H378.028z"/>
	<path fill="#FF6633" d="M387.418,160.469h6.55v2.944h-3.686v5.119h2.651v3.13h-2.651v5.356h3.686v2.944h-6.55V160.469z"/>
	<path fill="#FF6633" d="M397.812,179.962h-2.254V160.47h2.254c5.306,0.026,5.702,2.122,5.702,9.759
		C403.515,177.84,403.117,179.936,397.812,179.962z M398.423,177.098c2.016,0,2.148-0.504,2.122-6.896
		c0.026-6.365-0.106-6.869-2.122-6.869V177.098z"/>
</g>
<g>
	<path fill="#FFFFFF" d="M209.73,193.312h-2.308v-0.454l0.757-0.151v-4.085h-0.984l-0.189,0.756h-0.492v-1.361h4.124v1.361h-0.492
		l-0.189-0.756h-0.983v4.085l0.756,0.151L209.73,193.312L209.73,193.312z"/>
	<path fill="#FFFFFF" d="M212.255,189.771c0.234-0.196,0.764-0.545,1.324-0.545c0.832,0,1.21,0.529,1.21,1.361v2.119l0.567,0.188
		v0.417h-1.815v-0.417l0.492-0.181v-2.05c0-0.529-0.167-0.794-0.658-0.794c-0.644,0-1.12,0.604-1.12,0.604v2.231l0.492,0.189v0.416
		h-1.891v-0.416l0.643-0.189v-4.614l-0.643-0.151v-0.416l1.399-0.038V189.771L212.255,189.771z"/>
	<path fill="#FFFFFF" d="M216.632,191.42c0,0.832,0.446,1.361,1.097,1.361c0.756,0,1.271-0.416,1.271-0.416l0.264,0.394
		c0,0-0.703,0.628-1.611,0.628c-1.21,0-1.815-0.795-1.815-2.043c0-1.209,0.756-2.118,1.854-2.118c1.097,0,1.588,0.644,1.588,1.777
		c0,0.19-0.038,0.401-0.038,0.401L216.632,191.42z M218.478,190.853c0-0.566-0.22-1.036-0.825-1.036
		c-0.605,0-0.946,0.47-0.991,1.036H218.478z"/>
	<path fill="#FFFFFF" d="M221.872,189.944h0.9l0.159-1.173h0.605l-0.159,1.173h1.097l0.159-1.173h0.605l-0.159,1.173h0.84v0.491
		h-0.907l-0.144,1.098h0.862v0.492h-0.93l-0.167,1.286h-0.605l0.167-1.286h-1.097l-0.166,1.286h-0.605l0.166-1.286h-0.809v-0.492
		h0.877l0.144-1.098h-0.832L221.872,189.944L221.872,189.944z M223.166,191.532h1.097l0.144-1.097h-1.097L223.166,191.532z"/>
	<path fill="#FFFFFF" d="M230.046,193.312h-3.094v-0.644h1.165v-3.782l-1.286,0.832l-0.317-0.545l1.762-1.157h0.635v4.652h1.135
		L230.046,193.312L230.046,193.312z"/>
	<path fill="#FFFFFF" d="M233.168,192.555c0,0,0.34,0.204,0.832,0.189c0.553-0.008,1.165-0.272,1.157-0.81
		c-0.022-1.165-2.701-0.659-2.73-2.488c-0.015-1.06,0.848-1.491,1.792-1.507c0.719-0.014,1.596,0.304,1.596,0.304l-0.038,1.285
		h-0.491l-0.257-0.809c0,0-0.386-0.144-0.802-0.137c-0.681,0.008-1.014,0.356-1.006,0.734c0.022,1.15,2.701,0.711,2.723,2.414
		c0.023,1.134-0.915,1.641-1.974,1.664c-0.794,0.007-1.559-0.312-1.559-0.312v-1.323h0.605L233.168,192.555z"/>
	<path fill="#FFFFFF" d="M240.367,191.231c0,1.286-0.756,2.156-1.891,2.156c-1.135,0-1.815-0.682-1.815-2.043
		c0-1.286,0.794-2.118,1.929-2.118C239.724,189.226,240.367,190.02,240.367,191.231z M237.455,191.307
		c0,0.908,0.303,1.475,1.059,1.475s1.059-0.528,1.059-1.512c0-0.832-0.265-1.438-1.021-1.438S237.455,190.322,237.455,191.307z"/>
	<path fill="#FFFFFF" d="M244.707,192.706l0.643,0.15v0.416l-1.248,0.039l-0.076-0.53c-0.182,0.159-0.779,0.606-1.399,0.606
		c-0.832,0-1.21-0.522-1.21-1.354v-2.126l-0.643-0.15v-0.417l1.399-0.038v2.654c0,0.53,0.189,0.788,0.681,0.788
		c0.643,0,1.097-0.599,1.097-0.599v-2.239l-0.643-0.151v-0.416l1.399-0.037V192.706z"/>
	<path fill="#FFFFFF" d="M247.11,189.854c0.19-0.212,0.628-0.628,1.142-0.628c0.378,0,0.681,0.113,0.681,0.113l-0.038,1.097h-0.492
		l-0.113-0.565c-0.568,0-0.93,0.37-1.097,0.589v2.247l0.756,0.188v0.417h-2.156v-0.417l0.643-0.188v-2.8l-0.643-0.151v-0.416
		l1.248-0.037L247.11,189.854z"/>
	<path fill="#FFFFFF" d="M251.988,190.551l-0.114-0.644c0,0-0.302-0.075-0.681-0.075c-0.719,0-1.135,0.454-1.135,1.399
		c0,1.021,0.454,1.55,1.173,1.55s1.172-0.453,1.172-0.453l0.265,0.453c0,0-0.681,0.606-1.513,0.606c-1.248,0-1.891-0.795-1.891-2.08
		c0-1.211,0.756-2.08,1.967-2.08c0.681,0,1.286,0.302,1.286,0.302l-0.038,1.021H251.988L251.988,190.551z"/>
	<path fill="#FFFFFF" d="M253.869,191.42c0,0.832,0.446,1.361,1.097,1.361c0.756,0,1.271-0.416,1.271-0.416l0.265,0.394
		c0,0-0.704,0.628-1.611,0.628c-1.21,0-1.815-0.795-1.815-2.043c0-1.209,0.756-2.118,1.854-2.118s1.588,0.644,1.588,1.777
		c0,0.19-0.038,0.401-0.038,0.401L253.869,191.42z M255.715,190.853c0-0.566-0.219-1.036-0.825-1.036
		c-0.605,0-0.946,0.47-0.991,1.036H255.715z"/>
	<path fill="#FFFFFF" d="M259.638,189.339v-0.453c0-0.908,0.492-1.476,1.399-1.476c0.719,0,1.135,0.265,1.135,0.265v0.946h-0.53
		l-0.113-0.606c0,0-0.189-0.038-0.454-0.038c-0.529,0-0.681,0.303-0.681,0.757v0.605h0.999l-0.023,0.567h-0.976v2.799l0.733,0.189
		v0.416h-2.133v-0.416l0.643-0.189v-2.799h-0.681v-0.492L259.638,189.339z"/>
	<path fill="#FFFFFF" d="M265.718,191.231c0,1.286-0.756,2.156-1.891,2.156c-1.135,0-1.816-0.682-1.816-2.043
		c0-1.286,0.794-2.118,1.929-2.118C265.076,189.226,265.718,190.02,265.718,191.231z M262.806,191.307
		c0,0.908,0.303,1.475,1.059,1.475c0.757,0,1.059-0.528,1.059-1.512c0-0.832-0.265-1.438-1.021-1.438
		C263.146,189.832,262.806,190.322,262.806,191.307z"/>
	<path fill="#FFFFFF" d="M267.592,189.854c0.189-0.212,0.628-0.628,1.142-0.628c0.378,0,0.681,0.113,0.681,0.113l-0.038,1.097
		h-0.492l-0.114-0.565c-0.567,0-0.93,0.37-1.097,0.589v2.247l0.756,0.188v0.417h-2.156v-0.417l0.643-0.188v-2.8l-0.643-0.151v-0.416
		l1.249-0.037L267.592,189.854z"/>
	<path fill="#FFFFFF" d="M273.596,193.312h-2.156v-0.454l0.643-0.151v-4.085l-0.643-0.151v-0.416l2.156-0.038v0.454l-0.719,0.151
		v1.664h2.535v-1.664l-0.719-0.151v-0.416l2.156-0.039v0.454l-0.643,0.151v4.085l0.643,0.15v0.455h-2.156v-0.455l0.719-0.15v-1.814
		h-2.535v1.814l0.719,0.15V193.312L273.596,193.312z"/>
	<path fill="#FFFFFF" d="M278.805,192.706l0.567,0.188v0.417h-1.967v-0.417l0.643-0.188v-2.8l-0.643-0.151v-0.416l1.399-0.037
		V192.706z M278.39,187.523c0.302,0,0.492,0.151,0.492,0.53c0,0.34-0.265,0.528-0.492,0.528c-0.302,0-0.492-0.188-0.492-0.528
		C277.898,187.713,278.124,187.523,278.39,187.523z"/>
	<path fill="#FFFFFF" d="M281.254,189.339h1.097v0.567h-1.097v2.43c0,0.347,0.166,0.46,0.379,0.46c0.182,0,0.393-0.082,0.59-0.188
		l0.204,0.401c-0.34,0.249-0.681,0.378-1.059,0.378c-0.454,0-0.87-0.25-0.87-1.097v-2.384h-0.756v-0.491l0.756-0.076v-0.953
		l0.756-0.151L281.254,189.339L281.254,189.339z"/>
	<path fill="#FFFFFF" d="M285.511,192.555c0,0,0.34,0.204,0.832,0.189c0.552-0.008,1.165-0.272,1.157-0.81
		c-0.023-1.165-2.701-0.659-2.731-2.488c-0.015-1.06,0.848-1.491,1.793-1.507c0.719-0.014,1.596,0.304,1.596,0.304l-0.038,1.285
		h-0.491l-0.257-0.809c0,0-0.386-0.144-0.802-0.137c-0.681,0.008-1.014,0.356-1.006,0.734c0.023,1.15,2.701,0.711,2.724,2.414
		c0.023,1.134-0.915,1.641-1.975,1.664c-0.794,0.007-1.558-0.312-1.558-0.312v-1.323h0.605L285.511,192.555z"/>
	<path fill="#FFFFFF" d="M292.71,191.231c0,1.286-0.756,2.156-1.891,2.156s-1.816-0.682-1.816-2.043
		c0-1.286,0.794-2.118,1.929-2.118C292.068,189.226,292.71,190.02,292.71,191.231z M289.798,191.307c0,0.908,0.303,1.475,1.06,1.475
		c0.756,0,1.059-0.528,1.059-1.512c0-0.832-0.265-1.438-1.021-1.438C290.139,189.832,289.798,190.322,289.798,191.307z"/>
	<path fill="#FFFFFF" d="M294.584,189.839c0.182-0.159,0.779-0.612,1.407-0.612c0.832,0,1.21,0.528,1.21,1.361v2.118l0.567,0.189
		v0.416h-1.816v-0.416l0.491-0.189v-2.042c0-0.529-0.189-0.794-0.681-0.794c-0.643,0-1.097,0.604-1.097,0.604v2.231l0.492,0.189
		v0.416h-1.891v-0.416l0.643-0.189v-2.799l-0.643-0.15v-0.417l1.249-0.038L294.584,189.839z"/>
	<path fill="#FFFFFF" d="M302.185,189.755l-0.734,0.107c0,0,0.204,0.272,0.204,0.763c0,1.021-0.681,1.476-1.665,1.476
		c-0.34,0-0.567-0.067-0.567-0.067l-0.038,0.711h1.172c0.983,0,1.513,0.378,1.513,1.098c0,0.832-0.643,1.361-1.967,1.361
		c-1.059,0-1.815-0.265-1.815-1.097c0-0.681,0.794-0.945,0.794-0.945s-0.455-0.039-0.455-0.432c0-0.25,0.394-0.854,0.394-0.854
		s-0.583-0.266-0.583-1.173c0-0.983,0.681-1.476,1.665-1.476c0.491,0,0.756,0.145,0.756,0.145l1.324-0.031L302.185,189.755
		L302.185,189.755z M299.537,193.312c0,0-0.492,0.227-0.492,0.681c0,0.528,0.454,0.643,1.173,0.643c0.757,0,1.135-0.228,1.135-0.719
		c0-0.492-0.378-0.605-0.984-0.605L299.537,193.312L299.537,193.312z M299.196,190.663c0,0.528,0.265,0.908,0.832,0.908
		c0.605,0,0.87-0.265,0.87-0.908c0-0.567-0.265-0.908-0.832-0.908C299.461,189.755,299.196,190.059,299.196,190.663z"/>
	<path fill="#FFFFFF" d="M304.066,189.755l-0.567,0.077l0.643,2.799l0.991-3.292l0.718-0.113l0.938,3.405l0.605-2.761l-0.529-0.115
		v-0.416l1.701-0.037v0.453l-0.438,0.075l-0.923,3.48h-0.87l-0.719-2.346l-0.182-0.727l-0.159,0.727l-0.719,2.346h-0.87
		l-0.946-3.442l-0.378-0.113v-0.416l1.702-0.038v0.454H304.066z"/>
	<path fill="#FFFFFF" d="M310.175,189.854c0.189-0.212,0.629-0.628,1.144-0.628c0.377,0,0.681,0.113,0.681,0.113l-0.039,1.097
		h-0.491l-0.114-0.565c-0.567,0-0.931,0.37-1.097,0.589v2.247l0.756,0.188v0.417h-2.156v-0.417l0.644-0.188v-2.8l-0.644-0.151
		v-0.416l1.249-0.037L310.175,189.854z"/>
	<path fill="#FFFFFF" d="M313.729,192.706l0.567,0.188v0.417h-1.967v-0.417l0.643-0.188v-2.8l-0.643-0.151v-0.416l1.398-0.037
		L313.729,192.706L313.729,192.706z M313.312,187.523c0.303,0,0.492,0.151,0.492,0.53c0,0.34-0.266,0.528-0.492,0.528
		c-0.303,0-0.492-0.188-0.492-0.528C312.82,187.713,313.048,187.523,313.312,187.523z"/>
	<path fill="#FFFFFF" d="M316.178,189.339h1.097v0.567h-1.097v2.43c0,0.347,0.167,0.46,0.379,0.46c0.181,0,0.393-0.082,0.589-0.188
		l0.205,0.401c-0.341,0.249-0.681,0.378-1.06,0.378c-0.453,0-0.869-0.25-0.869-1.097v-2.384h-0.758v-0.491l0.758-0.076v-0.953
		l0.755-0.151L316.178,189.339L316.178,189.339z"/>
	<path fill="#FFFFFF" d="M319.157,192.706l0.566,0.188v0.417h-1.966v-0.417l0.643-0.188v-2.8l-0.643-0.151v-0.416l1.398-0.037
		L319.157,192.706L319.157,192.706z M318.741,187.523c0.302,0,0.491,0.151,0.491,0.53c0,0.34-0.265,0.528-0.491,0.528
		c-0.303,0-0.492-0.188-0.492-0.528C318.249,187.713,318.476,187.523,318.741,187.523z"/>
	<path fill="#FFFFFF" d="M321.562,189.839c0.182-0.159,0.779-0.612,1.407-0.612c0.831,0,1.209,0.528,1.209,1.361v2.118l0.567,0.189
		v0.416h-1.815v-0.416l0.492-0.189v-2.042c0-0.529-0.188-0.794-0.682-0.794c-0.643,0-1.097,0.604-1.097,0.604v2.231l0.492,0.189
		v0.416h-1.892v-0.416l0.644-0.189v-2.799l-0.644-0.15v-0.417l1.248-0.038L321.562,189.839z"/>
	<path fill="#FFFFFF" d="M329.161,189.755l-0.733,0.107c0,0,0.203,0.272,0.203,0.763c0,1.021-0.681,1.476-1.664,1.476
		c-0.34,0-0.567-0.067-0.567-0.067l-0.038,0.711h1.173c0.983,0,1.513,0.378,1.513,1.098c0,0.832-0.643,1.361-1.968,1.361
		c-1.059,0-1.815-0.265-1.815-1.097c0-0.681,0.795-0.945,0.795-0.945s-0.453-0.039-0.453-0.432c0-0.25,0.394-0.854,0.394-0.854
		s-0.583-0.266-0.583-1.173c0-0.983,0.681-1.476,1.664-1.476c0.492,0,0.757,0.145,0.757,0.145l1.323-0.031L329.161,189.755
		L329.161,189.755z M326.514,193.312c0,0-0.491,0.227-0.491,0.681c0,0.528,0.453,0.643,1.172,0.643c0.757,0,1.135-0.228,1.135-0.719
		c0-0.492-0.378-0.605-0.983-0.605L326.514,193.312L326.514,193.312z M326.174,190.663c0,0.528,0.265,0.908,0.832,0.908
		c0.604,0,0.869-0.265,0.869-0.908c0-0.567-0.265-0.908-0.832-0.908C326.438,189.755,326.174,190.059,326.174,190.663z"/>
	<path fill="#FFFFFF" d="M331.034,192.857l0.621-0.144l1.723-4.66l0.758-0.038l1.679,4.698l0.628,0.144v0.454h-2.193v-0.454
		l0.703-0.144l-0.287-0.84h-1.968l-0.295,0.84l0.712,0.144v0.454h-2.08V192.857z M332.903,191.268h1.558l-0.764-2.275
		L332.903,191.268z"/>
	<path fill="#FFFFFF" d="M338.051,189.839c0.183-0.159,0.78-0.612,1.407-0.612c0.832,0,1.211,0.528,1.211,1.361v2.118l0.566,0.189
		v0.416h-1.814v-0.416l0.491-0.189v-2.042c0-0.529-0.189-0.794-0.681-0.794c-0.643,0-1.097,0.604-1.097,0.604v2.231l0.491,0.189
		v0.416h-1.891v-0.416l0.643-0.189v-2.799l-0.643-0.15v-0.417l1.248-0.038L338.051,189.839z"/>
	<path fill="#FFFFFF" d="M343.457,189.226c0.878,0,1.399,0.303,1.399,1.173v2.308l0.605,0.15v0.416l-1.173,0.039l-0.159-0.53
		c-0.257,0.258-0.711,0.606-1.24,0.606c-0.719,0-1.134-0.417-1.134-1.135c0-0.87,0.681-1.173,1.739-1.173h0.605v-0.605
		c0-0.453-0.264-0.681-0.719-0.681c-0.454,0-0.765,0.113-0.765,0.113l-0.105,0.567h-0.491l-0.038-0.946
		C341.982,189.528,342.814,189.226,343.457,189.226z M343.571,191.571c-0.757,0-1.045,0.189-1.045,0.643
		c0,0.341,0.212,0.567,0.553,0.567c0.567,0,1.021-0.605,1.021-0.605v-0.604H343.571L343.571,191.571z"/>
	<path fill="#FFFFFF" d="M347.245,192.706l0.757,0.188v0.417h-2.171v-0.417l0.644-0.188v-4.615l-0.644-0.151v-0.416l1.414-0.037
		V192.706L347.245,192.706z"/>
	<path fill="#FFFFFF" d="M349.846,189.755l-0.529,0.077l0.908,2.646l0.833-2.609l-0.529-0.114v-0.416l1.792-0.038v0.453
		l-0.491,0.076l-1.074,2.995c-0.4,1.053-0.795,2.301-2.043,2.301c-0.188,0-0.483-0.039-0.483-0.039l0.067-0.528h0.379
		c0.528,0,0.869-0.5,1.202-1.233l-1.354-3.458l-0.454-0.113v-0.417l1.778-0.037v0.455H349.846z"/>
	<path fill="#FFFFFF" d="M353.188,192.101l0.084,0.651c0,0,0.303,0.083,0.665,0.067c0.454-0.015,0.848-0.145,0.831-0.597
		c-0.029-0.832-2.087-0.439-2.109-1.802c-0.015-0.794,0.583-1.18,1.385-1.195c0.598-0.007,1.293,0.229,1.293,0.229l-0.022,1.02
		h-0.492l-0.121-0.59c0,0-0.311-0.105-0.65-0.091c-0.348,0.015-0.65,0.121-0.636,0.507c0.03,0.824,2.088,0.491,2.11,1.777
		c0.015,0.87-0.727,1.278-1.596,1.309c-0.643,0.03-1.264-0.167-1.264-0.167l-0.007-1.119L353.188,192.101L353.188,192.101z"/>
	<path fill="#FFFFFF" d="M357.527,192.706l0.568,0.188v0.417h-1.968v-0.417l0.643-0.188v-2.8l-0.643-0.151v-0.416l1.399-0.037
		V192.706L357.527,192.706z M357.111,187.523c0.303,0,0.492,0.151,0.492,0.53c0,0.34-0.265,0.528-0.492,0.528
		c-0.302,0-0.49-0.188-0.49-0.528C356.621,187.713,356.847,187.523,357.111,187.523z"/>
	<path fill="#FFFFFF" d="M359.19,192.101l0.084,0.651c0,0,0.303,0.083,0.665,0.067c0.454-0.015,0.848-0.145,0.832-0.597
		c-0.03-0.832-2.087-0.439-2.11-1.802c-0.015-0.794,0.583-1.18,1.385-1.195c0.598-0.007,1.293,0.229,1.293,0.229l-0.022,1.02h-0.492
		l-0.121-0.59c0,0-0.311-0.105-0.65-0.091c-0.348,0.015-0.65,0.121-0.636,0.507c0.031,0.824,2.088,0.491,2.11,1.777
		c0.015,0.87-0.726,1.278-1.596,1.309c-0.643,0.03-1.264-0.167-1.264-0.167l-0.007-1.119L359.19,192.101L359.19,192.101z"/>
	<path fill="#FFFFFF" d="M365.565,189.226c0.878,0,1.399,0.303,1.399,1.173v2.308l0.605,0.15v0.416l-1.173,0.039l-0.158-0.53
		c-0.259,0.258-0.712,0.606-1.241,0.606c-0.719,0-1.135-0.417-1.135-1.135c0-0.87,0.681-1.173,1.741-1.173h0.604v-0.605
		c0-0.453-0.265-0.681-0.719-0.681c-0.453,0-0.764,0.113-0.764,0.113l-0.106,0.567h-0.492l-0.037-0.946
		C364.091,189.528,364.923,189.226,365.565,189.226z M365.68,191.571c-0.757,0-1.045,0.189-1.045,0.643
		c0,0.341,0.212,0.567,0.553,0.567c0.567,0,1.021-0.605,1.021-0.605v-0.604H365.68L365.68,191.571z"/>
	<path fill="#FFFFFF" d="M369.368,189.839c0.182-0.159,0.779-0.612,1.407-0.612c0.832,0,1.21,0.528,1.21,1.361v2.118l0.567,0.189
		v0.416h-1.815v-0.416l0.492-0.189v-2.042c0-0.529-0.189-0.794-0.681-0.794c-0.644,0-1.099,0.604-1.099,0.604v2.231l0.492,0.189
		v0.416h-1.891v-0.416l0.643-0.189v-2.799l-0.643-0.15v-0.417l1.249-0.038L369.368,189.839z"/>
	<path fill="#FFFFFF" d="M376.552,192.706l0.643,0.15v0.416l-1.286,0.039l-0.061-0.432c-0.219,0.22-0.612,0.507-1.188,0.507
		c-1.097,0-1.588-0.795-1.588-1.967c0-1.287,0.643-2.194,2.005-2.194c0.279,0,0.522,0.053,0.719,0.121v-1.256l-0.644-0.151v-0.416
		l1.399-0.037V192.706L376.552,192.706z M375.796,189.983c0,0-0.265-0.151-0.795-0.151c-0.878,0-1.134,0.681-1.134,1.513
		s0.265,1.437,0.945,1.437c0.643,0,0.983-0.566,0.983-0.566V189.983z"/>
	<path fill="#FFFFFF" d="M382.32,193.312h-2.307v-0.454l0.757-0.151v-4.085h-0.984l-0.188,0.756h-0.492v-1.361h4.123v1.361h-0.492
		l-0.188-0.756h-0.984v4.085l0.757,0.151V193.312L382.32,193.312z"/>
	<path fill="#FFFFFF" d="M384.875,189.854c0.189-0.212,0.629-0.628,1.143-0.628c0.378,0,0.681,0.113,0.681,0.113l-0.038,1.097
		h-0.491l-0.113-0.565c-0.567,0-0.931,0.37-1.098,0.589v2.247l0.756,0.188v0.417h-2.155v-0.417l0.643-0.188v-2.8l-0.643-0.151
		v-0.416l1.248-0.037L384.875,189.854z"/>
	<path fill="#FFFFFF" d="M387.824,191.42c0,0.832,0.447,1.361,1.098,1.361c0.756,0,1.271-0.416,1.271-0.416l0.265,0.394
		c0,0-0.704,0.628-1.612,0.628c-1.21,0-1.814-0.795-1.814-2.043c0-1.209,0.756-2.118,1.854-2.118c1.097,0,1.588,0.644,1.588,1.777
		c0,0.19-0.039,0.401-0.039,0.401L387.824,191.42z M389.67,190.853c0-0.566-0.219-1.036-0.825-1.036
		c-0.605,0-0.945,0.47-0.991,1.036H389.67z"/>
	<path fill="#FFFFFF" d="M392.308,189.839c0.182-0.159,0.779-0.612,1.407-0.612c0.832,0,1.21,0.528,1.21,1.361v2.118l0.567,0.189
		v0.416h-1.815v-0.416l0.492-0.189v-2.042c0-0.529-0.189-0.794-0.681-0.794c-0.644,0-1.099,0.604-1.099,0.604v2.231l0.492,0.189
		v0.416h-1.891v-0.416l0.643-0.189v-2.799l-0.643-0.15v-0.417l1.249-0.038L392.308,189.839z"/>
	<path fill="#FFFFFF" d="M399.491,192.706l0.643,0.15v0.416l-1.286,0.039l-0.061-0.432c-0.219,0.22-0.612,0.507-1.188,0.507
		c-1.097,0-1.588-0.795-1.588-1.967c0-1.287,0.643-2.194,2.005-2.194c0.279,0,0.522,0.053,0.719,0.121v-1.256l-0.644-0.151v-0.416
		l1.399-0.037V192.706L399.491,192.706z M398.735,189.983c0,0-0.265-0.151-0.795-0.151c-0.877,0-1.134,0.681-1.134,1.513
		s0.265,1.437,0.945,1.437c0.643,0,0.983-0.566,0.983-0.566V189.983z"/>
	<path fill="#FFFFFF" d="M401.153,192.101l0.083,0.651c0,0,0.303,0.083,0.666,0.067c0.453-0.015,0.848-0.145,0.831-0.597
		c-0.029-0.832-2.087-0.439-2.109-1.802c-0.016-0.794,0.583-1.18,1.385-1.195c0.597-0.007,1.292,0.229,1.292,0.229l-0.021,1.02
		h-0.491l-0.122-0.59c0,0-0.311-0.105-0.65-0.091c-0.348,0.015-0.65,0.121-0.635,0.507c0.03,0.824,2.087,0.491,2.109,1.777
		c0.015,0.87-0.726,1.278-1.596,1.309c-0.643,0.03-1.263-0.167-1.263-0.167l-0.008-1.119L401.153,192.101L401.153,192.101z"/>
</g>
</svg>
