<?xml version="1.0" encoding="utf-8"?>
<!-- Generator: Adobe Illustrator 15.1.0, SVG Export Plug-In . SVG Version: 6.00 Build 0)  -->
<!DOCTYPE svg PUBLIC "-//W3C//DTD SVG 1.1//EN" "http://www.w3.org/Graphics/SVG/1.1/DTD/svg11.dtd">
<svg version="1.1" id="Layer_1" xmlns="http://www.w3.org/2000/svg" xmlns:xlink="http://www.w3.org/1999/xlink" x="0px" y="0px"
	 width="122px" height="37.607px" viewBox="29 8.939 122 37.607" enable-background="new 29 8.939 122 37.607" xml:space="preserve"
	>
<g id="Layer_1_1_">
	<g>
		<g>
			<path fill="#FFFFFF" d="M61.307,23.542h3.204v21.803h-3.204V23.542z"/>
			<path fill="#FFFFFF" d="M72.193,45.345L70.146,31.64l-0.118-0.92H69.85v0.92v13.705h-2.966V23.542h3.916l1.898,9.968l0.148,1.156
				h0.06l0.148-1.156l1.898-9.968h3.916v21.803h-2.966V31.64v-0.92h-0.179l-0.118,0.92l-2.047,13.705H72.193z"/>
			<path fill="#FFFFFF" d="M86.548,45.345L84.501,31.64l-0.119-0.92h-0.178v0.92v13.705h-2.966V23.542h3.916l1.898,9.968
				l0.148,1.156h0.06l0.148-1.156l1.898-9.968h3.915v21.803h-2.965V31.64v-0.92h-0.178l-0.119,0.92l-2.048,13.705H86.548z"/>
			<path fill="#FFFFFF" d="M95.594,23.542h7.326v3.292h-4.122v5.726h2.965v3.5h-2.965v5.992h4.122v3.293h-7.326V23.542z"/>
			<path fill="#FFFFFF" d="M110.425,45.345l-1.661-9.196h-0.86v9.196h-3.204V23.542h3.204c3.798,0,5.458,2.195,5.458,6.289
				c0,2.164-0.563,4.123-1.779,4.954l2.046,10.561L110.425,45.345L110.425,45.345z M107.903,26.717v6.466
				c0.891,0,2.373-0.118,2.373-3.232S108.794,26.717,107.903,26.717z"/>
			<path fill="#FFFFFF" d="M119.382,23.304c3.856-0.089,4.479,3.353,4.479,5.785l-3.146,0.297c0-1.454-0.207-3.145-1.274-3.145
				c-0.832,0.03-1.098,0.919-1.098,2.166c0,1.482,1.275,3.144,2.521,4.954c1.483,2.224,2.996,4.39,2.996,6.733
				c0,2.907-0.95,5.487-4.45,5.487c-4.122,0-4.656-3.114-4.656-6.348l3.145-0.297c0,1.81,0.177,3.708,1.512,3.708
				c0.95,0,1.306-1.038,1.306-2.402c0-1.454-1.363-3.204-2.581-5.043c-1.512-2.225-2.937-4.449-2.937-6.793
				C115.199,26.034,116.356,23.365,119.382,23.304z"/>
			<path fill="#FFFFFF" d="M125.58,23.542h3.204v21.803h-3.204V23.542z"/>
			<path fill="#FFFFFF" d="M135.22,45.582c-4.301,0-4.271-4.717-4.271-4.717V28.021c0,0-0.028-4.717,4.271-4.717
				c4.301,0,4.272,4.717,4.272,4.717v12.844C139.492,40.865,139.521,45.582,135.22,45.582z M135.22,26.42
				c-1.127,0-1.067,1.601-1.067,1.601v12.844c0,0-0.06,1.603,1.067,1.603s1.068-1.603,1.068-1.603V28.021
				C136.288,28.021,136.347,26.42,135.22,26.42z"/>
			<path fill="#FFFFFF" d="M145.038,33.984l-0.268-1.008h-0.179v1.008v11.361h-2.937V23.542h2.849l3.114,11.36l0.267,1.009h0.179
				v-1.009v-11.36H151v21.803h-2.848L145.038,33.984z"/>
		</g>
	</g>
	<g>
		<g>
			<path fill="#FFFFFF" d="M63.16,16.326h-0.689v2.624h-0.886c0,0,0-5.985,0-6.026h0.886v2.493h0.689v-2.492h0.885v6.026H63.16
				V16.326z"/>
			<path fill="#FFFFFF" d="M65.995,12.924h0.885v6.026h-0.885V12.924z"/>
			<path fill="#FFFFFF" d="M68.52,13.834v-0.91h2.558v0.91h-0.836v5.116h-0.886v-5.116H68.52z"/>
			<path fill="#FFFFFF" d="M76.373,12.859c1.066-0.024,1.239,0.926,1.239,1.598l-0.869,0.082c0-0.401-0.058-0.869-0.353-0.869
				c-0.23,0.008-0.303,0.254-0.303,0.598c0,0.41,0.352,0.87,0.696,1.37c0.41,0.615,0.829,1.214,0.829,1.861
				c0,0.804-0.263,1.517-1.229,1.517c-1.14,0-1.288-0.861-1.288-1.754l0.869-0.083c0,0.5,0.049,1.025,0.418,1.025
				c0.262,0,0.36-0.287,0.36-0.664c0-0.402-0.377-0.885-0.713-1.394c-0.418-0.615-0.812-1.229-0.812-1.877
				C75.217,13.613,75.537,12.875,76.373,12.859z"/>
			<path fill="#FFFFFF" d="M80.503,19.016c-1.188,0-1.18-1.304-1.18-1.304v-3.55c0,0-0.008-1.303,1.18-1.303
				c1.189,0,1.181,1.303,1.181,1.303v3.55C81.684,17.712,81.693,19.016,80.503,19.016z M80.503,13.719
				c-0.311,0-0.295,0.443-0.295,0.443v3.55c0,0-0.017,0.443,0.295,0.443c0.312,0,0.295-0.443,0.295-0.443v-3.55
				C80.799,14.162,80.815,13.719,80.503,13.719z"/>
			<path fill="#FFFFFF" d="M84.512,15.81l-0.074-0.279H84.39v0.279v3.14h-0.812v-6.026h0.787l0.861,3.14l0.074,0.279h0.049v-0.279
				v-3.14h0.812v6.026h-0.787L84.512,15.81z"/>
			<path fill="#FFFFFF" d="M89.528,15.089v-0.927c0,0,0.016-0.443-0.295-0.443c-0.311,0-0.295,0.443-0.295,0.443v3.624
				c0,0-0.017,0.443,0.295,0.443c0.312,0,0.295-0.443,0.295-0.443v-1.091h-0.353v-0.746h1.239v3H89.89l-0.106-0.287
				c-0.164,0.205-0.41,0.353-0.689,0.353c-1.123,0-1.041-1.304-1.041-1.304v-3.55c0,0-0.008-1.303,1.181-1.303
				c1.189,0,1.181,1.303,1.181,1.303v0.927H89.528z"/>
			<path fill="#FFFFFF" d="M93.455,12.859c1.065-0.024,1.237,0.926,1.237,1.598l-0.868,0.082c0-0.401-0.058-0.869-0.354-0.869
				c-0.229,0.008-0.303,0.254-0.303,0.598c0,0.41,0.352,0.87,0.697,1.37c0.409,0.615,0.827,1.214,0.827,1.861
				c0,0.804-0.262,1.517-1.229,1.517c-1.14,0-1.286-0.861-1.286-1.754l0.868-0.083c0,0.5,0.049,1.025,0.418,1.025
				c0.263,0,0.361-0.287,0.361-0.664c0-0.402-0.377-0.885-0.713-1.394c-0.419-0.615-0.812-1.229-0.812-1.877
				C92.298,13.613,92.618,12.875,93.455,12.859z"/>
			<path fill="#FFFFFF" d="M99.717,18.95h-0.696v-6.026h0.696c1.64,0.008,1.763,0.656,1.763,3.018
				C101.479,18.295,101.356,18.942,99.717,18.95z M99.904,18.065c0.624,0,0.665-0.156,0.657-2.133
				c0.008-1.967-0.033-2.124-0.657-2.124V18.065z"/>
			<path fill="#FFFFFF" d="M103.364,12.924h2.025v0.91h-1.141v1.583h0.821v0.967h-0.821v1.657h1.141v0.91h-2.025V12.924z"/>
			<path fill="#FFFFFF" d="M109.479,16.884v0.828c0,0,0.008,1.304-1.181,1.304s-1.181-1.304-1.181-1.304v-3.55
				c0,0-0.008-1.303,1.181-1.303s1.181,1.303,1.181,1.303v0.828h-0.829v-0.828c0,0,0.033-0.443-0.336-0.443
				c-0.311,0-0.311,0.443-0.311,0.443v3.55c0,0,0,0.443,0.311,0.443c0.369,0,0.336-0.443,0.336-0.443v-0.828H109.479z"/>
			<path fill="#FFFFFF" d="M112.43,19.016c-1.188,0-1.181-1.304-1.181-1.304v-3.55c0,0-0.008-1.303,1.181-1.303
				c1.189,0,1.181,1.303,1.181,1.303v3.55C113.61,17.712,113.619,19.016,112.43,19.016z M112.43,13.719
				c-0.312,0-0.295,0.443-0.295,0.443v3.55c0,0-0.017,0.443,0.295,0.443s0.296-0.443,0.296-0.443v-3.55
				C112.726,14.162,112.741,13.719,112.43,13.719z"/>
			<path fill="#FFFFFF" d="M116.438,15.81l-0.073-0.279h-0.049v0.279v3.14h-0.812v-6.026h0.787l0.862,3.14l0.073,0.279h0.049v-0.279
				v-3.14h0.812v6.026h-0.788L116.438,15.81z"/>
			<path fill="#FFFFFF" d="M121.136,12.859c1.065-0.024,1.237,0.926,1.237,1.598l-0.868,0.082c0-0.401-0.059-0.869-0.354-0.869
				c-0.229,0.008-0.303,0.254-0.303,0.598c0,0.41,0.352,0.87,0.696,1.37c0.41,0.615,0.828,1.214,0.828,1.861
				c0,0.804-0.263,1.517-1.229,1.517c-1.14,0-1.287-0.861-1.287-1.754l0.868-0.083c0,0.5,0.05,1.025,0.419,1.025
				c0.262,0,0.361-0.287,0.361-0.664c0-0.402-0.378-0.885-0.714-1.394c-0.418-0.615-0.812-1.229-0.812-1.877
				C119.979,13.613,120.299,12.875,121.136,12.859z"/>
			<path fill="#FFFFFF" d="M123.831,13.834v-0.91h2.559v0.91h-0.837v5.116h-0.886v-5.116H123.831z"/>
			<path fill="#FFFFFF" d="M129.61,18.95l-0.459-2.542h-0.238v2.542h-0.886v-6.026h0.886c1.05,0,1.509,0.607,1.509,1.737
				c0,0.599-0.155,1.141-0.492,1.37l0.565,2.919H129.61z M128.913,13.801v1.787c0.246,0,0.656-0.032,0.656-0.893
				S129.159,13.801,128.913,13.801z"/>
			<path fill="#FFFFFF" d="M134.636,12.924v4.788c0,0,0.008,1.304-1.182,1.304c-1.188,0-1.181-1.304-1.181-1.304v-4.788h0.886v4.788
				c0,0-0.016,0.443,0.295,0.443c0.312,0,0.296-0.443,0.296-0.443v-4.788H134.636z"/>
			<path fill="#FFFFFF" d="M138.882,16.884v0.828c0,0,0.008,1.304-1.182,1.304c-1.188,0-1.181-1.304-1.181-1.304v-3.55
				c0,0-0.008-1.303,1.181-1.303c1.189,0,1.182,1.303,1.182,1.303v0.828h-0.828v-0.828c0,0,0.031-0.443-0.337-0.443
				c-0.312,0-0.312,0.443-0.312,0.443v3.55c0,0,0,0.443,0.312,0.443c0.368,0,0.337-0.443,0.337-0.443v-0.828H138.882z"/>
			<path fill="#FFFFFF" d="M140.396,13.834v-0.91h2.558v0.91h-0.837v5.116h-0.886v-5.116H140.396z"/>
			<path fill="#FFFFFF" d="M144.594,12.924h2.025v0.91h-1.14v1.583h0.819v0.967h-0.819v1.657h1.14v0.91h-2.025V12.924z"/>
			<path fill="#FFFFFF" d="M149.102,18.95h-0.697v-6.026h0.697c1.64,0.008,1.763,0.656,1.763,3.018
				C150.864,18.295,150.742,18.942,149.102,18.95z M149.291,18.065c0.622,0,0.664-0.156,0.655-2.133
				c0.009-1.967-0.032-2.124-0.655-2.124V18.065z"/>
		</g>
	</g>
	<g>
		<g>
			<g>
				<path fill="#FF6633" d="M56.236,30.796v1.625h-0.015c-0.079,3.418-1.425,6.635-3.831,9.081c-0.354,0.358-0.726,0.689-1.109,1
					c0.268-0.229,0.533-0.464,0.785-0.72c2.397-2.438,3.716-5.659,3.716-9.075c0-0.048-0.006-0.096-0.008-0.145
					c0.002-0.048,0.008-0.095,0.008-0.142v-5.28c0-0.251-0.454-0.251-0.454,0v5.28h-0.017c-0.076,3.178-1.33,6.168-3.569,8.443
					c-0.333,0.337-0.681,0.647-1.042,0.938c0.244-0.21,0.486-0.425,0.718-0.658c2.227-2.265,3.454-5.262,3.454-8.438
					c0-0.048-0.006-0.096-0.008-0.145c0-0.048,0.008-0.095,0.008-0.142V28.96c0-0.251-0.455-0.251-0.455,0v3.461h-0.014
					c-0.078,2.938-1.239,5.7-3.31,7.807c-0.309,0.315-0.637,0.603-0.973,0.874c0.219-0.19,0.441-0.382,0.648-0.593
					c2.06-2.097,3.194-4.865,3.194-7.801c0-0.049-0.007-0.097-0.007-0.146c0.001-0.047,0.007-0.093,0.007-0.141V23.31
					c0-0.251-0.454-0.251-0.454,0v9.11l0,0h-0.016c-0.078,2.699-1.147,5.235-3.048,7.17c-0.289,0.292-0.595,0.561-0.906,0.813
					c0.195-0.171,0.395-0.344,0.582-0.533c1.892-1.924,2.934-4.467,2.934-7.164c0-0.048-0.008-0.097-0.008-0.146
					c0.002-0.046,0.008-0.093,0.008-0.14V18.386c0-0.251-0.456-0.251-0.456,0V32.42l0,0h-0.016
					c-0.077,2.458-1.053,4.769-2.788,6.532c-0.264,0.266-0.539,0.51-0.823,0.74c0.169-0.15,0.339-0.298,0.498-0.46
					c1.724-1.753,2.674-4.07,2.674-6.526c0-0.049-0.007-0.098-0.007-0.147c0-0.046,0.005-0.092,0.005-0.138V20.039
					c0-0.251-0.454-0.251-0.454,0V32.42l0,0h-0.015c-0.076,2.219-0.96,4.304-2.528,5.895c-0.238,0.243-0.491,0.466-0.753,0.678
					c0.146-0.129,0.292-0.257,0.431-0.396c1.554-1.582,2.411-3.672,2.411-5.889c0-0.048-0.008-0.098-0.008-0.146
					c0.001-0.047,0.008-0.094,0.008-0.141V18.386v-0.995c0-0.252-0.454-0.252-0.454,0v0.995V32.42l0,0h-0.016
					c-0.076,1.979-0.868,3.836-2.265,5.257c-0.218,0.222-0.45,0.424-0.688,0.615c0.124-0.109,0.248-0.216,0.363-0.335
					c1.387-1.41,2.152-3.275,2.152-5.251c0-0.049-0.007-0.097-0.009-0.146c0.002-0.046,0.009-0.093,0.009-0.14V32.42V18.386v-2.135
					c0-0.251-0.456-0.251-0.456,0v2.135V32.42H49.86c-0.077,1.738-0.776,3.37-2.006,4.619c-0.196,0.201-0.405,0.383-0.622,0.558
					c0.101-0.091,0.205-0.18,0.299-0.276c1.22-1.239,1.891-2.878,1.891-4.614c0-0.048-0.007-0.097-0.007-0.146
					c0-0.047,0.007-0.093,0.007-0.141V18.386v-2.454v-1.753c0-0.252-0.454-0.252-0.454,0v1.753v2.454V32.42l0,0H48.95
					c-0.074,1.498-0.682,2.903-1.742,3.981c-0.177,0.181-0.366,0.343-0.56,0.498c0.078-0.072,0.16-0.141,0.236-0.218
					c1.05-1.066,1.627-2.479,1.627-3.976c0-0.048-0.006-0.097-0.007-0.146c0.001-0.047,0.007-0.093,0.007-0.141v-1.654v-3.214
					v-9.166v-2.454v-0.376c0-0.251-0.454-0.251-0.454,0v0.376v2.454v9.165v3.214v1.654l0,0h-0.034
					c-0.074,1.258-0.571,2.44-1.464,3.346c-0.977,0.991-2.28,1.543-3.671,1.555c-1.393,0.011-2.707-0.521-3.699-1.499
					c-0.907-0.894-1.442-2.06-1.535-3.315c0-0.03,0.009-0.058,0.011-0.086h-0.031V18.386v-2.454v-0.376c0-0.251-0.455-0.251-0.455,0
					v0.376v2.454v14.035c0,0.045,0.006,0.09,0.008,0.136c-0.001,0.05-0.008,0.1-0.008,0.149l0,0c0,1.531,0.602,2.964,1.692,4.036
					c0.066,0.065,0.137,0.122,0.204,0.184c-0.181-0.143-0.357-0.293-0.524-0.457c-1.104-1.086-1.734-2.514-1.81-4.049h-0.017V18.386
					v-2.454v-1.753c0-0.252-0.454-0.252-0.454,0v1.753v2.454v14.035c0,0.045,0.006,0.092,0.007,0.137
					c-0.001,0.05-0.007,0.099-0.007,0.148l0,0c0,1.777,0.698,3.44,1.964,4.685c0.085,0.085,0.179,0.162,0.269,0.241
					c-0.203-0.162-0.401-0.33-0.589-0.516c-1.279-1.257-2.005-2.916-2.083-4.696h-0.016V18.386v-1.921c0-0.25-0.453-0.25-0.453,0
					v1.921V32.42l0,0c0,0.001,0,0.003,0,0.005c0,0.043,0.004,0.086,0.006,0.13c-0.001,0.051-0.007,0.101-0.007,0.151
					c0,2.021,0.792,3.915,2.234,5.332c0.108,0.106,0.224,0.202,0.337,0.302c-0.226-0.18-0.446-0.369-0.655-0.574
					c-1.454-1.432-2.276-3.32-2.354-5.346h-0.019V18.386v-1.002c0-0.251-0.454-0.251-0.454,0v1.002v14.035
					c0,0.049,0.007,0.098,0.007,0.146c-0.002,0.046-0.007,0.092-0.007,0.139l0,0c0,2.268,0.89,4.391,2.507,5.98
					c0.129,0.129,0.269,0.244,0.405,0.362c-0.251-0.198-0.494-0.408-0.725-0.636c-1.629-1.603-2.548-3.721-2.626-5.992h-0.015
					V19.892c0-0.251-0.454-0.251-0.454,0V32.42v0.001c0,0.046,0.005,0.091,0.006,0.138c-0.001,0.049-0.006,0.099-0.006,0.147
					c0,2.513,0.986,4.866,2.776,6.628c0.153,0.15,0.316,0.288,0.478,0.426c-0.274-0.218-0.542-0.447-0.797-0.699
					c-1.803-1.774-2.818-4.124-2.896-6.641h-0.018V18.386v-0.01c0-0.251-0.454-0.251-0.454,0v0.01V32.42l0,0
					c0,0.046,0.007,0.093,0.007,0.139c0,0.049-0.007,0.099-0.007,0.147c0,2.758,1.083,5.342,3.048,7.276
					c0.178,0.174,0.366,0.332,0.553,0.491c-0.3-0.237-0.593-0.491-0.871-0.765c-1.978-1.947-3.089-4.527-3.168-7.289H32.18v-9.035
					c0-0.251-0.454-0.251-0.454,0v9.036l0,0c0,0.047,0.007,0.093,0.007,0.139c-0.002,0.05-0.007,0.099-0.007,0.146
					c0,3.004,1.179,5.817,3.319,7.925c0.201,0.197,0.412,0.375,0.624,0.555c-0.325-0.259-0.641-0.531-0.942-0.828
					c-2.154-2.12-3.362-4.929-3.439-7.937h-0.016V28.96c0-0.251-0.454-0.23-0.454,0.02v3.441c0,0.047,0.006,0.093,0.007,0.139
					c0,0.049-0.007,0.098-0.007,0.146c0,0.001,0,0.001,0,0.001c0,3.248,1.275,6.293,3.591,8.572
					c0.223,0.219,0.458,0.418,0.693,0.617c-0.35-0.277-0.688-0.571-1.013-0.891c-2.327-2.291-3.631-5.33-3.71-8.585h-0.015v-5.274
					c0-0.251-0.456-0.251-0.456,0v5.276c0,0.047,0.006,0.093,0.007,0.138c0,0.049-0.007,0.099-0.007,0.146c0,0.001,0,0.001,0,0.001
					c0,3.495,1.373,6.769,3.863,9.221c0.245,0.241,0.503,0.459,0.762,0.678c-0.371-0.296-0.734-0.611-1.08-0.952
					c-2.504-2.463-3.904-5.733-3.983-9.232h-0.017v-1.641c0-0.251-0.454-0.251-0.454,0v1.642c0,0.046,0.006,0.092,0.006,0.138
					c0,0.048-0.006,0.097-0.006,0.146c0,3.741,1.467,7.245,4.133,9.868c5.442,5.355,14.226,5.285,19.581-0.155
					c2.564-2.606,3.977-6.055,3.977-9.71c0-0.048-0.007-0.097-0.007-0.146c0-0.047,0.007-0.095,0.007-0.142v-1.625
					C56.69,30.544,56.236,30.544,56.236,30.796z M45.37,45.546c-0.037,0.007-0.074,0.014-0.11,0.021
					c-3.122,0.565-6.405,0.018-9.217-1.641c-0.065-0.071-0.092-0.17-0.041-0.258c0.062-0.108,0.203-0.146,0.31-0.082
					c0.14,0.081,0.286,0.145,0.426,0.22c0.102,0.055,0.207,0.108,0.311,0.16c0.28,0.141,0.562,0.271,0.849,0.389
					c0.101,0.042,0.206,0.081,0.308,0.121c0.292,0.111,0.586,0.216,0.885,0.306c0.103,0.03,0.205,0.057,0.307,0.085
					c0.303,0.083,0.606,0.159,0.913,0.221c0.104,0.02,0.211,0.034,0.318,0.053c0.302,0.052,0.606,0.1,0.912,0.13
					c0.122,0.013,0.243,0.017,0.365,0.025c0.289,0.021,0.579,0.04,0.869,0.041c0.025,0,0.047,0.003,0.071,0.003
					c0.321,0,0.641-0.014,0.962-0.037c0.121-0.01,0.242-0.026,0.363-0.039c0.269-0.028,0.539-0.063,0.807-0.108
					c0.13-0.022,0.262-0.044,0.391-0.07c0.374-0.074,0.743-0.158,1.109-0.266c0.065-0.019,0.128-0.039,0.196-0.059
					c0.331-0.103,0.659-0.217,0.982-0.347c0.045-0.019,0.092-0.033,0.138-0.052c0.319-0.134,0.635-0.283,0.945-0.443
					c0.137-0.07,0.272-0.144,0.406-0.219c0.068-0.038,0.137-0.072,0.206-0.111c0.105-0.064,0.245-0.027,0.311,0.082
					c0.057,0.1,0.023,0.222-0.067,0.29c-0.064,0.038-0.129,0.08-0.194,0.116c-0.145,0.082-0.291,0.162-0.439,0.237
					c-0.278,0.144-0.56,0.277-0.844,0.4c-0.066,0.027-0.131,0.058-0.198,0.085c-0.345,0.142-0.696,0.263-1.05,0.376
					c-0.071,0.022-0.145,0.044-0.218,0.065C46.228,45.365,45.8,45.465,45.37,45.546z M36.46,42.883
					c0.064-0.109,0.204-0.146,0.311-0.082c0.101,0.059,0.21,0.1,0.314,0.155c0.226,0.124,0.458,0.234,0.689,0.343
					c0.193,0.091,0.384,0.188,0.582,0.268c0.38,0.151,0.767,0.281,1.158,0.393c0.222,0.063,0.445,0.111,0.669,0.162
					c0.226,0.051,0.452,0.097,0.679,0.135c0.229,0.038,0.458,0.073,0.689,0.099c0.264,0.028,0.529,0.041,0.794,0.052
					c0.167,0.007,0.332,0.023,0.498,0.023c0.141,0,0.282-0.016,0.42-0.021c0.302-0.011,0.602-0.026,0.903-0.059
					c0.196-0.022,0.388-0.054,0.581-0.085c0.294-0.047,0.586-0.105,0.877-0.173c0.162-0.039,0.322-0.074,0.481-0.119
					c0.453-0.128,0.901-0.272,1.338-0.455c0.006-0.001,0.011-0.005,0.015-0.007c0.451-0.188,0.889-0.409,1.319-0.655
					c0.036-0.021,0.074-0.033,0.11-0.054c0.11-0.064,0.248-0.027,0.311,0.082c0.058,0.1,0.025,0.224-0.067,0.291
					c-0.062,0.035-0.12,0.074-0.181,0.109c-0.136,0.076-0.271,0.148-0.408,0.22c-0.257,0.132-0.517,0.255-0.78,0.369
					c-0.063,0.027-0.127,0.056-0.189,0.082c-0.322,0.131-0.647,0.245-0.975,0.35c-0.072,0.022-0.143,0.043-0.212,0.063
					c-0.395,0.115-0.793,0.21-1.195,0.285c-0.033,0.007-0.065,0.014-0.1,0.019c-2.909,0.527-5.97,0.018-8.588-1.53
					C36.438,43.072,36.409,42.971,36.46,42.883z M36.918,42.098c0.063-0.108,0.202-0.146,0.311-0.082
					c0.1,0.058,0.205,0.098,0.307,0.152c0.196,0.106,0.395,0.202,0.593,0.295c0.212,0.099,0.422,0.2,0.638,0.284
					c0.326,0.128,0.657,0.242,0.994,0.337c0.21,0.061,0.421,0.106,0.634,0.154c0.204,0.045,0.407,0.087,0.612,0.122
					c0.214,0.035,0.43,0.068,0.647,0.091c0.237,0.026,0.477,0.037,0.717,0.048c0.158,0.006,0.317,0.021,0.475,0.021
					c0.13,0,0.26-0.014,0.392-0.019c0.276-0.011,0.555-0.023,0.831-0.055c0.179-0.02,0.355-0.049,0.532-0.077
					c0.276-0.044,0.551-0.098,0.823-0.163c0.144-0.035,0.291-0.065,0.435-0.106c0.859-0.24,1.692-0.589,2.485-1.039
					c0.029-0.017,0.061-0.028,0.091-0.045c0.109-0.064,0.248-0.027,0.311,0.081c0.06,0.103,0.025,0.228-0.069,0.295
					c-0.033,0.019-0.064,0.039-0.097,0.057C47.757,42.92,46.89,43.278,46,43.531c-0.15,0.042-0.3,0.077-0.452,0.114
					c-0.286,0.067-0.573,0.123-0.863,0.171c-0.177,0.028-0.353,0.06-0.529,0.08c-0.357,0.041-0.716,0.062-1.074,0.069
					c-0.25,0.006-0.498-0.004-0.746-0.015c-0.231-0.01-0.461-0.021-0.691-0.045c-0.23-0.024-0.459-0.057-0.688-0.094
					c-0.209-0.034-0.417-0.078-0.623-0.124c-0.226-0.05-0.452-0.095-0.676-0.158c-0.372-0.106-0.737-0.23-1.099-0.374
					c-0.21-0.084-0.415-0.186-0.623-0.283c-0.2-0.094-0.401-0.19-0.599-0.297c-0.127-0.068-0.249-0.144-0.374-0.217
					C36.894,42.288,36.866,42.187,36.918,42.098z M37.378,41.314c0.064-0.109,0.202-0.146,0.311-0.082
					c0.068,0.04,0.14,0.066,0.208,0.104c0.259,0.144,0.525,0.274,0.792,0.394c0.092,0.04,0.18,0.089,0.271,0.126
					c0.358,0.147,0.723,0.268,1.091,0.371c0.13,0.037,0.263,0.066,0.394,0.097c0.264,0.064,0.53,0.117,0.797,0.159
					c0.141,0.022,0.282,0.045,0.424,0.062c0.33,0.037,0.662,0.059,0.993,0.064c0.061,0,0.123,0.008,0.183,0.008
					c0.009,0,0.017,0,0.026,0c0.019,0,0.04,0,0.059,0c0.388-0.002,0.769-0.032,1.146-0.078c0.093-0.012,0.184-0.028,0.275-0.043
					c0.334-0.049,0.668-0.113,0.999-0.197c0.074-0.019,0.148-0.037,0.22-0.057c0.838-0.23,1.639-0.565,2.391-1.001
					c0.006-0.004,0.01-0.006,0.016-0.009c0.109-0.065,0.247-0.027,0.311,0.081c0.06,0.104,0.024,0.231-0.072,0.299
					c-0.026,0.014-0.05,0.029-0.076,0.044c-0.763,0.438-1.567,0.771-2.396,1.005c-0.13,0.037-0.262,0.067-0.393,0.099
					c-0.273,0.067-0.548,0.119-0.824,0.164c-0.155,0.024-0.309,0.053-0.465,0.071c-0.35,0.04-0.703,0.062-1.058,0.068
					c-0.202,0.002-0.405-0.009-0.608-0.017c-0.221-0.011-0.441-0.021-0.661-0.043c-0.208-0.022-0.414-0.052-0.62-0.086
					c-0.199-0.031-0.395-0.073-0.592-0.116c-0.204-0.045-0.408-0.086-0.607-0.144c-0.345-0.099-0.685-0.213-1.02-0.348
					c-0.191-0.074-0.374-0.166-0.56-0.254c-0.19-0.088-0.381-0.181-0.568-0.281c-0.114-0.062-0.224-0.13-0.337-0.195
					C37.356,41.508,37.325,41.404,37.378,41.314z M37.835,40.527c0.063-0.108,0.201-0.146,0.311-0.082
					c0.063,0.038,0.13,0.062,0.195,0.098c0.232,0.128,0.469,0.245,0.708,0.352c0.086,0.039,0.17,0.085,0.257,0.121
					c0.326,0.133,0.66,0.243,0.995,0.339c0.116,0.032,0.23,0.057,0.345,0.085c0.249,0.06,0.499,0.108,0.749,0.148
					c0.123,0.02,0.242,0.039,0.365,0.054c0.318,0.036,0.64,0.059,0.96,0.062c0.042,0.001,0.082,0.006,0.122,0.006h0.002
					c0.025,0,0.05,0,0.076,0c0.355-0.003,0.706-0.031,1.052-0.073c0.072-0.009,0.141-0.022,0.21-0.033
					c0.321-0.046,0.641-0.106,0.955-0.187c0.056-0.016,0.114-0.029,0.169-0.045c0.772-0.211,1.51-0.519,2.202-0.921h0.001
					c0.108-0.064,0.248-0.026,0.31,0.082c0.063,0.108,0.027,0.246-0.081,0.31l0,0c0,0-0.002,0.002-0.003,0.002
					c-0.733,0.426-1.509,0.744-2.305,0.964c-0.06,0.017-0.122,0.031-0.183,0.047c-0.328,0.085-0.66,0.147-0.995,0.197
					c-0.074,0.011-0.149,0.026-0.226,0.036c-0.39,0.048-0.783,0.075-1.176,0.075h-0.01c-0.042,0-0.082-0.004-0.122-0.005
					c-0.338-0.005-0.675-0.027-1.01-0.066c-0.128-0.015-0.257-0.036-0.385-0.056c-0.262-0.041-0.522-0.093-0.782-0.156
					c-0.122-0.028-0.245-0.056-0.365-0.09c-0.353-0.101-0.702-0.215-1.043-0.355c-0.09-0.037-0.177-0.084-0.267-0.124
					c-0.254-0.112-0.502-0.235-0.749-0.372c-0.078-0.043-0.153-0.09-0.23-0.137C37.811,40.732,37.781,40.621,37.835,40.527z
					 M38.292,39.742c0.063-0.109,0.2-0.146,0.31-0.081c0.062,0.035,0.128,0.06,0.19,0.094c0.194,0.106,0.39,0.202,0.587,0.292
					c0.095,0.042,0.184,0.093,0.277,0.13c0.292,0.119,0.587,0.217,0.887,0.301c0.108,0.031,0.216,0.055,0.325,0.081
					c0.22,0.053,0.441,0.097,0.662,0.132c0.112,0.017,0.223,0.036,0.337,0.049c0.287,0.033,0.577,0.054,0.866,0.056
					c0.037,0,0.073,0.006,0.108,0.006h0.005c0.02,0,0.042,0,0.065-0.001c0.321-0.002,0.638-0.027,0.953-0.065
					c0.062-0.009,0.123-0.02,0.184-0.028c0.292-0.043,0.583-0.1,0.869-0.173c0.05-0.013,0.099-0.024,0.146-0.038
					c0.698-0.191,1.366-0.469,1.991-0.833c0,0,0.001-0.001,0.003-0.001c0.108-0.065,0.248-0.027,0.31,0.081
					c0.064,0.108,0.027,0.246-0.081,0.311c-0.001,0.001-0.003,0.003-0.006,0.004c-0.664,0.386-1.366,0.675-2.086,0.874
					c-0.059,0.016-0.115,0.029-0.173,0.045c-0.293,0.074-0.591,0.132-0.888,0.176c-0.074,0.012-0.148,0.025-0.22,0.034
					c-0.351,0.043-0.703,0.068-1.055,0.069c-0.006,0-0.011,0-0.016,0c-0.051,0-0.101-0.007-0.153-0.008
					c-0.29-0.004-0.579-0.023-0.866-0.057c-0.125-0.015-0.248-0.034-0.373-0.054c-0.228-0.035-0.454-0.081-0.681-0.136
					c-0.117-0.027-0.236-0.054-0.352-0.087c-0.315-0.09-0.627-0.192-0.933-0.317c-0.096-0.039-0.186-0.088-0.281-0.131
					c-0.214-0.097-0.427-0.2-0.636-0.315c-0.075-0.043-0.147-0.088-0.221-0.132C38.271,39.948,38.237,39.837,38.292,39.742z
					 M38.75,38.958c0.063-0.109,0.203-0.146,0.312-0.081c0.06,0.033,0.123,0.058,0.183,0.09c0.155,0.085,0.315,0.163,0.475,0.235
					c0.113,0.052,0.225,0.106,0.338,0.153c0.239,0.096,0.48,0.177,0.725,0.247c0.107,0.03,0.216,0.054,0.323,0.079
					c0.184,0.044,0.367,0.08,0.552,0.109c0.11,0.019,0.219,0.037,0.328,0.049c0.241,0.027,0.482,0.044,0.723,0.048
					c0.046,0,0.091,0.006,0.137,0.006c0.004,0,0.009,0,0.014,0c0.014,0,0.03,0,0.046,0c0.286-0.002,0.567-0.025,0.847-0.059
					c0.059-0.007,0.117-0.02,0.175-0.027c0.259-0.039,0.518-0.088,0.771-0.154c0.042-0.011,0.085-0.021,0.125-0.033
					c0.626-0.17,1.224-0.42,1.784-0.746c0.105-0.061,0.243-0.026,0.307,0.082c0.063,0.108,0.027,0.247-0.081,0.312
					c-0.599,0.349-1.232,0.609-1.883,0.79c-0.048,0.013-0.099,0.025-0.147,0.037c-0.266,0.068-0.537,0.121-0.807,0.161
					c-0.064,0.01-0.126,0.021-0.189,0.029c-0.31,0.038-0.62,0.059-0.931,0.061c-0.073,0-0.143-0.007-0.217-0.009
					c-0.247-0.005-0.495-0.02-0.742-0.048c-0.09-0.012-0.179-0.023-0.267-0.037c-0.243-0.037-0.485-0.085-0.728-0.145
					c-0.07-0.017-0.142-0.031-0.213-0.051c-0.297-0.083-0.593-0.183-0.882-0.301c-0.074-0.029-0.142-0.067-0.215-0.101
					c-0.202-0.09-0.403-0.188-0.599-0.298c-0.069-0.037-0.135-0.079-0.202-0.119C38.728,39.167,38.695,39.054,38.75,38.958z
					 M39.208,38.172c0.064-0.109,0.205-0.146,0.312-0.082c0.054,0.031,0.114,0.054,0.168,0.083c0.126,0.069,0.254,0.131,0.382,0.19
					c0.124,0.058,0.245,0.115,0.371,0.163c0.191,0.075,0.385,0.142,0.58,0.198c0.103,0.029,0.205,0.052,0.308,0.076
					c0.152,0.035,0.303,0.066,0.456,0.09c0.103,0.017,0.206,0.034,0.309,0.046c0.196,0.021,0.392,0.033,0.587,0.038
					c0.056,0.001,0.108,0.009,0.163,0.009c0,0,0.009,0,0.013,0c0.013,0,0.027,0,0.04,0c0.249-0.002,0.494-0.021,0.737-0.051
					c0.053-0.007,0.106-0.017,0.158-0.024c0.226-0.033,0.45-0.076,0.674-0.134c0.036-0.009,0.074-0.018,0.111-0.028
					c0.549-0.148,1.075-0.368,1.567-0.654c0.107-0.06,0.242-0.024,0.305,0.083c0.062,0.108,0.025,0.248-0.082,0.311
					c-0.531,0.31-1.093,0.541-1.672,0.7c-0.035,0.01-0.073,0.019-0.11,0.028c-0.242,0.062-0.485,0.108-0.731,0.146
					c-0.053,0.006-0.105,0.018-0.158,0.024c-0.273,0.033-0.548,0.052-0.824,0.054c-0.051,0.001-0.102-0.004-0.154-0.004
					c-0.251-0.005-0.503-0.019-0.754-0.05c-0.035-0.004-0.068-0.01-0.104-0.015c-0.271-0.037-0.542-0.091-0.809-0.159
					c-0.019-0.007-0.039-0.01-0.057-0.015c-0.281-0.076-0.556-0.171-0.827-0.281c-0.058-0.024-0.113-0.056-0.171-0.08
					c-0.183-0.082-0.364-0.172-0.542-0.269c-0.062-0.035-0.124-0.072-0.182-0.109C39.186,38.385,39.152,38.269,39.208,38.172z
					 M39.667,37.387c0.064-0.109,0.201-0.146,0.311-0.082c0.052,0.03,0.108,0.052,0.161,0.08c0.09,0.049,0.182,0.093,0.275,0.137
					c0.135,0.063,0.272,0.125,0.413,0.179c0.146,0.055,0.294,0.107,0.442,0.15c0.089,0.025,0.182,0.045,0.271,0.066
					c0.129,0.031,0.262,0.057,0.394,0.079c0.086,0.013,0.173,0.027,0.259,0.036c0.184,0.021,0.367,0.033,0.55,0.036
					c0.033,0.001,0.066,0.005,0.099,0.005h0.001c0.017,0,0.032,0,0.046,0c0.218-0.002,0.435-0.019,0.649-0.045
					c0.03-0.004,0.06-0.01,0.091-0.015c0.215-0.03,0.43-0.071,0.64-0.127c0.016-0.004,0.031-0.007,0.045-0.012
					c0.484-0.128,0.945-0.319,1.377-0.571c0.107-0.058,0.24-0.023,0.302,0.083c0.062,0.107,0.026,0.247-0.081,0.311
					c-0.468,0.272-0.964,0.477-1.473,0.615c-0.02,0.006-0.042,0.011-0.063,0.016c-0.224,0.059-0.451,0.103-0.68,0.135
					c-0.034,0.005-0.068,0.013-0.104,0.017c-0.243,0.03-0.488,0.046-0.735,0.048c-0.036,0-0.072-0.004-0.108-0.004
					c-0.233-0.003-0.464-0.015-0.695-0.044c-0.016-0.002-0.031-0.004-0.048-0.007c-0.519-0.07-1.03-0.206-1.52-0.409
					c-0.012-0.004-0.023-0.011-0.035-0.015c-0.198-0.084-0.391-0.185-0.58-0.29c-0.048-0.026-0.093-0.055-0.142-0.084
					C39.645,37.608,39.61,37.487,39.667,37.387z"/>
				<path fill="#FF6633" d="M32.861,17.618c0.125,0,0.227-0.101,0.227-0.227v-1.14c0-0.251-0.454-0.251-0.454,0v1.14
					C32.634,17.517,32.737,17.618,32.861,17.618z"/>
				<path fill="#FF6633" d="M31.954,22.679c0.125,0,0.227-0.101,0.227-0.227v-2.413c0-0.251-0.454-0.251-0.454,0v2.413
					C31.726,22.579,31.828,22.679,31.954,22.679z"/>
				<path fill="#FF6633" d="M31.954,19.423c0.125,0,0.227-0.102,0.227-0.227v-0.53c0-0.251-0.454-0.251-0.454,0v0.53
					C31.726,19.32,31.828,19.423,31.954,19.423z"/>
				<path fill="#FF6633" d="M37.369,14.888c0.125,0,0.228-0.101,0.228-0.227v-0.529c0-0.251-0.455-0.251-0.455,0v0.529
					C37.142,14.786,37.244,14.888,37.369,14.888z"/>
				<path fill="#FF6633" d="M39.195,12.5c0.125,0,0.226-0.102,0.226-0.228v-0.53c0-0.251-0.454-0.251-0.454,0v0.53
					C38.968,12.398,39.069,12.5,39.195,12.5z"/>
				<path fill="#FF6633" d="M41.922,11.437c0.125,0,0.226-0.101,0.226-0.227V9.773c0-0.251-0.453-0.251-0.453,0v1.437
					C41.695,11.336,41.796,11.437,41.922,11.437z"/>
				<path fill="#FF6633" d="M43.74,11.437c0.125,0,0.228-0.101,0.228-0.227V9.773c0-0.251-0.455-0.251-0.455,0v1.437
					C43.512,11.336,43.614,11.437,43.74,11.437z"/>
				<path fill="#FF6633" d="M44.648,12.93c0.125,0,0.227-0.102,0.227-0.227v-1.437c0-0.251-0.454-0.251-0.454,0v1.437
					C44.421,12.828,44.523,12.93,44.648,12.93z"/>
				<path fill="#FF6633" d="M48.284,14.888c0.125,0,0.227-0.101,0.227-0.227v-0.529c0-0.251-0.454-0.251-0.454,0v0.529
					C48.057,14.786,48.159,14.888,48.284,14.888z"/>
				<path fill="#FF6633" d="M31.045,28.339c0.125,0,0.227-0.102,0.227-0.228v-2.996c0-0.251-0.454-0.251-0.454,0v2.996
					C30.817,28.236,30.919,28.339,31.045,28.339z"/>
				<path fill="#FF6633" d="M35.589,15.817c0.125,0,0.226-0.102,0.226-0.228v-2.997c0-0.251-0.454-0.251-0.454,0v2.997
					C35.361,15.715,35.463,15.817,35.589,15.817z"/>
				<path fill="#FF6633" d="M50.102,15.817c0.125,0,0.228-0.102,0.228-0.228v-2.997c0-0.251-0.456-0.251-0.456,0v2.997
					C49.874,15.715,49.977,15.817,50.102,15.817z"/>
				<path fill="#FF6633" d="M31.045,24.278c0.125,0,0.227-0.102,0.227-0.227v-1.992c0-0.251-0.454-0.251-0.454,0v1.992
					C30.817,24.176,30.919,24.278,31.045,24.278z"/>
				<path fill="#FF6633" d="M30.122,26.462c0.126,0,0.228-0.101,0.228-0.227v-3.049c0-0.25-0.455-0.25-0.455,0v3.049
					C29.895,26.361,29.997,26.462,30.122,26.462z"/>
				<path fill="#FF6633" d="M39.195,16.793c0.125,0,0.226-0.102,0.226-0.227v-0.633v-2.66c0-0.251-0.454-0.251-0.454,0v2.66v0.633
					C38.968,16.691,39.069,16.793,39.195,16.793z"/>
				<path fill="#FF6633" d="M46.466,12.5c0.125,0,0.228-0.102,0.228-0.228v-0.53c0-0.251-0.454-0.251-0.454,0v0.53
					C46.24,12.398,46.341,12.5,46.466,12.5z"/>
				<path fill="#FF6633" d="M46.466,16.793c0.125,0,0.228-0.102,0.228-0.227v-0.633v-2.66c0-0.251-0.454-0.251-0.454,0v2.66v0.633
					C46.24,16.691,46.341,16.793,46.466,16.793z"/>
				<path fill="#FF6633" d="M30.122,22.319c0.126,0,0.228-0.102,0.228-0.227v-0.888c0-0.252-0.455-0.252-0.455,0v0.888
					C29.895,22.217,29.997,22.319,30.122,22.319z"/>
				<path fill="#FF6633" d="M29.226,30.196c0.126,0,0.228-0.102,0.228-0.228v-2.735c0-0.251-0.454-0.251-0.454,0v2.735
					C29,30.094,29.101,30.196,29.226,30.196z"/>
				<path fill="#FF6633" d="M29.226,26.031c0.126,0,0.228-0.102,0.228-0.227v-0.581c0-0.251-0.454-0.251-0.454,0v0.581
					C29,25.928,29.101,26.031,29.226,26.031z"/>
				<path fill="#FF6633" d="M33.543,16.496v1.891v0.574c0,0.125,0.102,0.227,0.226,0.227c0.127,0,0.228-0.102,0.228-0.227v-0.574
					v-1.891C33.998,16.245,33.543,16.245,33.543,16.496z"/>
				<path fill="#FF6633" d="M34.685,16.662c0.125,0,0.228-0.102,0.228-0.227v-0.502v-1.964c0-0.251-0.453-0.251-0.453,0v1.963v0.501
					C34.458,16.56,34.559,16.662,34.685,16.662z"/>
				<path fill="#FF6633" d="M33.749,15.268c0.126,0,0.228-0.102,0.228-0.227v-1.289c0-0.251-0.454-0.251-0.454,0v1.289
					C33.523,15.167,33.625,15.268,33.749,15.268z"/>
				<path fill="#FF6633" d="M36.497,13.5c0.125,0,0.226-0.101,0.226-0.227v-1.289c0-0.251-0.454-0.251-0.454,0v1.288
					C36.269,13.399,36.371,13.5,36.497,13.5z"/>
				<path fill="#FF6633" d="M38.286,13.5c0.125,0,0.228-0.101,0.228-0.227v-2.61c0-0.251-0.456-0.251-0.456,0v2.61
					C38.059,13.399,38.161,13.5,38.286,13.5z"/>
				<path fill="#FF6633" d="M47.375,13.5c0.125,0,0.228-0.101,0.228-0.227v-2.61c0-0.251-0.456-0.251-0.456,0v2.61
					C47.147,13.399,47.25,13.5,47.375,13.5z"/>
				<path fill="#FF6633" d="M40.103,11.969c0.126,0,0.228-0.102,0.228-0.228v-1.023c0-0.251-0.454-0.251-0.454,0v1.023
					C39.877,11.867,39.978,11.969,40.103,11.969z"/>
				<path fill="#FF6633" d="M45.557,11.969c0.125,0,0.228-0.102,0.228-0.228v-1.023c0-0.251-0.454-0.251-0.454,0v1.023
					C45.331,11.867,45.432,11.969,45.557,11.969z"/>
				<path fill="#FF6633" d="M49.192,13.5c0.127,0,0.228-0.101,0.228-0.227v-1.289c0-0.251-0.453-0.251-0.453,0v1.288
					C48.966,13.399,49.067,13.5,49.192,13.5z"/>
				<path fill="#FF6633" d="M52.834,17.618c0.125,0,0.227-0.101,0.227-0.227v-1.14c0-0.251-0.454-0.251-0.454,0v1.14
					C52.606,17.517,52.708,17.618,52.834,17.618z"/>
				<path fill="#FF6633" d="M53.742,22.679c0.125,0,0.227-0.101,0.227-0.227v-2.413c0-0.251-0.455-0.251-0.455,0v2.413
					C53.514,22.579,53.617,22.679,53.742,22.679z"/>
				<path fill="#FF6633" d="M53.742,19.423c0.125,0,0.227-0.102,0.227-0.227v-0.53c0-0.251-0.455-0.251-0.455,0v0.53
					C53.514,19.32,53.617,19.423,53.742,19.423z"/>
				<path fill="#FF6633" d="M54.651,28.339c0.125,0,0.226-0.102,0.226-0.228v-2.996c0-0.251-0.454-0.251-0.454,0v2.996
					C54.424,28.236,54.524,28.339,54.651,28.339z"/>
				<path fill="#FF6633" d="M54.651,24.278c0.125,0,0.226-0.102,0.226-0.227v-1.992c0-0.251-0.454-0.251-0.454,0v1.992
					C54.424,24.176,54.524,24.278,54.651,24.278z"/>
				<path fill="#FF6633" d="M31.045,21.115c0.125,0,0.227-0.102,0.227-0.227v-2.5v-0.373c0-0.251-0.454-0.251-0.454,0v0.373v2.5
					C30.817,21.013,30.919,21.115,31.045,21.115z"/>
				<path fill="#FF6633" d="M54.651,21.115c0.125,0,0.226-0.102,0.226-0.227v-2.5v-0.373c0-0.251-0.454-0.251-0.454,0v0.373v2.5
					C54.424,21.013,54.524,21.115,54.651,21.115z"/>
				<path fill="#FF6633" d="M55.574,26.462c0.125,0,0.226-0.101,0.226-0.227v-3.049c0-0.25-0.454-0.25-0.454,0v3.049
					C55.346,26.361,55.448,26.462,55.574,26.462z"/>
				<path fill="#FF6633" d="M55.574,22.319c0.125,0,0.226-0.102,0.226-0.227v-0.888c0-0.252-0.454-0.252-0.454,0v0.888
					C55.346,22.217,55.448,22.319,55.574,22.319z"/>
				<path fill="#FF6633" d="M56.241,27.233v2.735c0,0.126,0.102,0.228,0.228,0.228s0.227-0.102,0.227-0.228v-2.735
					C56.695,26.981,56.241,26.981,56.241,27.233z"/>
				<path fill="#FF6633" d="M56.241,25.222v0.581c0,0.125,0.102,0.227,0.228,0.227s0.227-0.102,0.227-0.227v-0.581
					C56.695,24.971,56.241,24.971,56.241,25.222z"/>
				<path fill="#FF6633" d="M51.925,19.188c0.125,0,0.226-0.102,0.226-0.227v-0.574v-1.891c0-0.251-0.454-0.251-0.454,0v1.891v0.574
					C51.697,19.086,51.801,19.188,51.925,19.188z"/>
				<path fill="#FF6633" d="M51.012,16.662c0.125,0,0.226-0.102,0.226-0.227v-0.502v-1.964c0-0.251-0.454-0.251-0.454,0v1.963v0.501
					C50.784,16.56,50.885,16.662,51.012,16.662z"/>
				<path fill="#FF6633" d="M51.945,15.268c0.125,0,0.228-0.102,0.228-0.227v-1.289c0-0.251-0.455-0.251-0.455,0v1.289
					C51.717,15.167,51.821,15.268,51.945,15.268z"/>
				<path fill="#FF6633" d="M47.603,18.386v-2.454v-1.753c0-0.252-0.456-0.252-0.456,0v1.753v2.454v11.266
					c0.182,0.283,0.333,0.58,0.456,0.887V18.386z"/>
				<path fill="#FF6633" d="M46.693,29.073V18.386v-0.995c0-0.252-0.454-0.252-0.454,0v0.995v10.217
					c0.062,0.056,0.135,0.099,0.197,0.159C46.534,28.859,46.605,28.97,46.693,29.073z"/>
				<path fill="#FF6633" d="M45.785,18.386v-2.454v-3.304c0-0.251-0.454-0.251-0.454,0v3.304v2.454v9.573
					c0.155,0.086,0.307,0.176,0.454,0.279V18.386z"/>
				<path fill="#FF6633" d="M44.875,18.386v-2.454v-2.381c0-0.251-0.454-0.251-0.454,0v2.381v2.454v9.175
					c0.154,0.05,0.306,0.099,0.454,0.164V18.386z"/>
				<path fill="#FF6633" d="M43.967,18.386v-2.454v-3.928c0-0.251-0.455-0.251-0.455,0v3.928v2.454v8.968
					c0.154,0.021,0.303,0.042,0.455,0.077V18.386z"/>
				<path fill="#FF6633" d="M43.058,18.386v-2.454V9.127c0-0.25-0.455-0.25-0.455,0v6.805v2.454v8.926
					c0.151-0.007,0.302-0.005,0.455,0.001V18.386z"/>
				<path fill="#FF6633" d="M42.148,18.386v-2.454v-3.928c0-0.251-0.453-0.251-0.453,0v3.928v2.454v9.048
					c0.15-0.036,0.301-0.054,0.453-0.074V18.386z"/>
				<path fill="#FF6633" d="M41.24,18.386v-2.454V13.57c0-0.251-0.456-0.251-0.456,0v2.363v2.455v9.348
					c0.148-0.065,0.302-0.111,0.456-0.161V18.386z"/>
				<path fill="#FF6633" d="M40.331,18.386v-2.454v-3.304c0-0.251-0.454-0.251-0.454,0v3.304v2.454v9.872
					c0.145-0.106,0.299-0.192,0.454-0.28V18.386z"/>
				<path fill="#FF6633" d="M39.421,28.637v-10.25v-0.995c0-0.252-0.454-0.252-0.454,0v0.995V29.11
					c0.081-0.095,0.143-0.198,0.232-0.288C39.269,28.75,39.35,28.702,39.421,28.637z"/>
				<path fill="#FF6633" d="M38.514,18.386v-2.454v-1.753c0-0.252-0.456-0.252-0.456,0v1.753v2.454v12.235
					c0.119-0.319,0.269-0.628,0.456-0.922V18.386z"/>
			</g>
			<circle fill="#FF6633" cx="42.846" cy="32.393" r="0.851"/>
			<path fill="#FF6633" d="M42.83,36.459L42.83,36.459c1.092,0,2.117-0.43,2.886-1.209c1.565-1.59,1.543-4.16-0.045-5.729
				c-0.767-0.751-1.777-1.164-2.844-1.164c-1.093,0-2.118,0.431-2.884,1.21c-0.759,0.77-1.172,1.789-1.165,2.868
				c0.008,1.082,0.438,2.098,1.212,2.858C40.752,36.045,41.761,36.459,42.83,36.459z M40.17,29.79
				c0.706-0.719,1.649-1.114,2.656-1.114c0.984,0,1.915,0.38,2.62,1.072c1.465,1.446,1.485,3.814,0.042,5.279
				c-0.708,0.719-1.652,1.114-2.659,1.114c-0.984,0-1.914-0.381-2.616-1.074c-0.713-0.701-1.108-1.638-1.117-2.635
				C39.088,31.437,39.472,30.499,40.17,29.79z"/>
		</g>
	</g>
</g>
</svg>
