<?xml version="1.0" encoding="utf-8"?>
<!-- Generator: Adobe Illustrator 15.1.0, SVG Export Plug-In . SVG Version: 6.00 Build 0)  -->
<!DOCTYPE svg PUBLIC "-//W3C//DTD SVG 1.1//EN" "http://www.w3.org/Graphics/SVG/1.1/DTD/svg11.dtd">
<svg version="1.1" id="Layer_1" xmlns="http://www.w3.org/2000/svg" xmlns:xlink="http://www.w3.org/1999/xlink" x="0px" y="0px"
	 width="13px" height="11.938px" viewBox="0 0 13 11.938" enable-background="new 0 0 13 11.938" xml:space="preserve">
<g>
	<path fill="#AFB2B7" d="M2.862,11.938H0.327v-8.11h2.535V11.938z M1.531,2.814H1.513C0.596,2.814,0,2.193,0,1.408
		C0,0.607,0.612,0,1.548,0s1.51,0.605,1.528,1.406C3.076,2.191,2.483,2.814,1.531,2.814 M13,11.938h-2.872V7.742
		c0-1.099-0.45-1.849-1.438-1.849c-0.756,0-1.177,0.505-1.373,0.994C7.243,7.062,7.255,7.305,7.255,7.549v4.389H4.409
		c0,0,0.035-7.435,0-8.11h2.846v1.273C7.424,4.544,8.332,3.75,9.784,3.75c1.8,0,3.216,1.167,3.216,3.679V11.938z"/>
</g>
</svg>
