<?xml version="1.0" encoding="utf-8"?>
<!-- Generator: Adobe Illustrator 14.0.0, SVG Export Plug-In . SVG Version: 6.00 Build 43363)  -->
<!DOCTYPE svg PUBLIC "-//W3C//DTD SVG 1.1//EN" "http://www.w3.org/Graphics/SVG/1.1/DTD/svg11.dtd">
<svg version="1.1" id="Layer_1" xmlns="http://www.w3.org/2000/svg" xmlns:xlink="http://www.w3.org/1999/xlink" x="0px" y="0px"
	 width="13px" height="16.018px" viewBox="0 0 13 16.018" enable-background="new 0 0 13 16.018" xml:space="preserve">
<path fill="#FFFFFF" d="M12.986,5.739c-0.004-0.024-0.008-0.044-0.014-0.068c-0.026-0.094-0.066-0.182-0.134-0.249l-5.26-5.262
	C7.512,0.093,7.424,0.053,7.33,0.028c-0.024-0.006-0.044-0.01-0.069-0.014C7.237,0.011,7.216,0,7.19,0H0.547
	C0.245,0,0,0.245,0,0.547V15.47c0,0.303,0.245,0.548,0.547,0.548h11.905c0.303,0,0.548-0.245,0.548-0.548V5.81
	C13,5.785,12.989,5.763,12.986,5.739z M7.738,1.869l3.393,3.394H7.738V1.869z M1.095,14.923V1.095h5.548V5.81
	c0,0.303,0.245,0.547,0.547,0.547h4.715v8.566H1.095z"/>
</svg>
