<?xml version="1.0" encoding="utf-8"?>
<!-- Generator: Adobe Illustrator 15.1.0, SVG Export Plug-In . SVG Version: 6.00 Build 0)  -->
<!DOCTYPE svg PUBLIC "-//W3C//DTD SVG 1.1//EN" "http://www.w3.org/Graphics/SVG/1.1/DTD/svg11.dtd">
<svg version="1.1" id="Layer_1" xmlns="http://www.w3.org/2000/svg" xmlns:xlink="http://www.w3.org/1999/xlink" x="0px" y="0px"
	 width="13px" height="10.565px" viewBox="0 0 13 10.565" enable-background="new 0 0 13 10.565" xml:space="preserve">
<g>
	<path fill="#AFB2B7" d="M11.67,2.631c0.005,0.114,0.008,0.229,0.008,0.345c0,3.524-2.683,7.589-7.589,7.589
		c-1.506,0-2.908-0.442-4.089-1.198c0.209,0.024,0.422,0.037,0.637,0.037c1.249,0,2.399-0.427,3.312-1.142
		C2.782,8.241,1.797,7.469,1.458,6.41C1.62,6.441,1.788,6.458,1.96,6.458c0.243,0,0.479-0.032,0.702-0.094
		c-1.22-0.245-2.14-1.322-2.14-2.615c0-0.011,0-0.022,0.001-0.033c0.358,0.2,0.771,0.32,1.207,0.333
		C1.016,3.57,0.545,2.753,0.545,1.829c0-0.489,0.131-0.947,0.36-1.341c1.315,1.613,3.281,2.675,5.497,2.786
		C6.357,3.079,6.334,2.876,6.334,2.667C6.334,1.194,7.528,0,9.001,0c0.768,0,1.46,0.324,1.947,0.842
		c0.607-0.12,1.178-0.341,1.693-0.647C12.442,0.818,12.02,1.34,11.469,1.67C12.008,1.606,12.522,1.462,13,1.25
		C12.643,1.786,12.191,2.255,11.67,2.631"/>
</g>
</svg>
