<?xml version="1.0" encoding="utf-8"?>
<!-- Generator: Adobe Illustrator 14.0.0, SVG Export Plug-In . SVG Version: 6.00 Build 43363)  -->
<!DOCTYPE svg PUBLIC "-//W3C//DTD SVG 1.1//EN" "http://www.w3.org/Graphics/SVG/1.1/DTD/svg11.dtd">
<svg version="1.1" id="Layer_1" xmlns="http://www.w3.org/2000/svg" xmlns:xlink="http://www.w3.org/1999/xlink" x="0px" y="0px"
	 width="14px" height="14px" viewBox="0 0 14 14" enable-background="new 0 0 14 14" xml:space="preserve">
<g>
	<g>
		<path fill="#FFFFFF" d="M3.002,14C1.347,14,0,12.653,0,10.997s1.347-3.002,3.002-3.002c1.656,0,3.003,1.346,3.003,3.002
			S4.658,14,3.002,14L3.002,14z M3.002,9.195c-0.993,0-1.801,0.809-1.801,1.802c0,0.994,0.808,1.802,1.801,1.802
			c0.994,0,1.802-0.808,1.802-1.802C4.804,10.004,3.996,9.195,3.002,9.195L3.002,9.195z"/>
	</g>
	<g>
		<path fill="#FFFFFF" d="M8.107,11.598c-0.332,0-0.601-0.269-0.601-0.601c0-2.482-2.021-4.504-4.504-4.504
			c-0.332,0-0.6-0.269-0.6-0.601c0-0.332,0.269-0.601,0.6-0.601c3.146,0,5.706,2.56,5.706,5.705
			C8.708,11.329,8.439,11.598,8.107,11.598L8.107,11.598z"/>
	</g>
	<g>
		<path fill="#FFFFFF" d="M10.735,11.599c-0.331,0-0.601-0.269-0.601-0.601c0-3.932-3.199-7.132-7.132-7.132
			c-0.332,0-0.6-0.269-0.6-0.6c0-0.332,0.269-0.601,0.6-0.601c4.595,0,8.333,3.739,8.333,8.333
			C11.336,11.33,11.067,11.599,10.735,11.599L10.735,11.599z"/>
	</g>
	<g>
		<path fill="#FFFFFF" d="M13.399,11.598c-0.332,0-0.601-0.269-0.601-0.601c0-5.402-4.395-9.796-9.796-9.796
			c-0.332,0-0.6-0.269-0.6-0.601S2.671,0,3.002,0C9.066,0,14,4.933,14,10.997C14,11.329,13.731,11.598,13.399,11.598L13.399,11.598z
			"/>
	</g>
</g>
</svg>
