<?xml version="1.0" encoding="utf-8"?>
<!-- Generator: Adobe Illustrator 15.1.0, SVG Export Plug-In . SVG Version: 6.00 Build 0)  -->
<!DOCTYPE svg PUBLIC "-//W3C//DTD SVG 1.1//EN" "http://www.w3.org/Graphics/SVG/1.1/DTD/svg11.dtd">
<svg version="1.1" id="Layer_1" xmlns="http://www.w3.org/2000/svg" xmlns:xlink="http://www.w3.org/1999/xlink" x="0px" y="0px"
	 width="13px" height="15.248px" viewBox="0 0 13 15.248" enable-background="new 0 0 13 15.248" xml:space="preserve">
<g>
	<path fill="#FFFFFF" d="M12.377,5.481H10.92V4.42C10.92,1.983,8.937,0,6.5,0S2.08,1.983,2.08,4.42v1.061H0.623
		C0.279,5.481,0,5.76,0,6.104v8.521c0,0.344,0.279,0.623,0.623,0.623h11.754c0.344,0,0.623-0.278,0.623-0.623V6.104
		C13,5.76,12.722,5.481,12.377,5.481z M3.325,4.42c0-1.751,1.424-3.175,3.175-3.175S9.675,2.669,9.675,4.42v1.061h-6.35V4.42z
		 M11.755,14.002H1.246V6.727h10.509V14.002z"/>
	<path fill="#FFFFFF" d="M6.5,11.753c0.344,0,0.623-0.278,0.623-0.623V9.599c0-0.344-0.278-0.623-0.623-0.623
		S5.877,9.255,5.877,9.599v1.531C5.877,11.475,6.156,11.753,6.5,11.753z"/>
</g>
</svg>
