<?xml version="1.0" encoding="utf-8"?>
<!-- Generator: Adobe Illustrator 15.1.0, SVG Export Plug-In . SVG Version: 6.00 Build 0)  -->
<!DOCTYPE svg PUBLIC "-//W3C//DTD SVG 1.1//EN" "http://www.w3.org/Graphics/SVG/1.1/DTD/svg11.dtd">
<svg version="1.1" id="Layer_1" xmlns="http://www.w3.org/2000/svg" xmlns:xlink="http://www.w3.org/1999/xlink" x="0px" y="0px"
	 width="13px" height="15.248px" viewBox="0 0 13 15.248" enable-background="new 0 0 13 15.248" xml:space="preserve">
<g>
	<path fill="#FFFFFF" d="M12.377,15.248H0.623C0.279,15.248,0,14.969,0,14.625V0.623C0,0.279,0.279,0,0.623,0h11.754
		C12.722,0,13,0.279,13,0.623v14.002C13,14.969,12.722,15.248,12.377,15.248z M1.246,14.002h10.509V1.246H1.246V14.002z"/>
</g>
<g>
	<path fill="#FFFFFF" d="M9.127,4.508H3.874c-0.344,0-0.623-0.279-0.623-0.623c0-0.344,0.278-0.623,0.623-0.623h5.253
		c0.344,0,0.623,0.279,0.623,0.623C9.75,4.229,9.471,4.508,9.127,4.508z"/>
</g>
<g>
	<path fill="#FFFFFF" d="M9.127,8.309H3.874c-0.344,0-0.623-0.278-0.623-0.623s0.278-0.623,0.623-0.623h5.253
		c0.344,0,0.623,0.278,0.623,0.623S9.471,8.309,9.127,8.309z"/>
</g>
<g>
	<path fill="#FFFFFF" d="M9.127,12.11H3.874c-0.344,0-0.623-0.278-0.623-0.623s0.278-0.623,0.623-0.623h5.253
		c0.344,0,0.623,0.278,0.623,0.623S9.471,12.11,9.127,12.11z"/>
</g>
</svg>
