<?xml version="1.0" encoding="utf-8"?>
<!-- Generator: Adobe Illustrator 16.0.0, SVG Export Plug-In . SVG Version: 6.00 Build 0)  -->
<!DOCTYPE svg PUBLIC "-//W3C//DTD SVG 1.1//EN" "http://www.w3.org/Graphics/SVG/1.1/DTD/svg11.dtd">
<svg version="1.1" id="Layer_1" xmlns="http://www.w3.org/2000/svg" xmlns:xlink="http://www.w3.org/1999/xlink" x="0px" y="0px"
	 width="175px" height="31.043px" viewBox="0 0 175 31.043" enable-background="new 0 0 175 31.043" xml:space="preserve">
<polygon fill="#FFFFFF" points="4.819,9.967 2.841,9.967 2.841,17.506 0.296,17.506 0.296,0.19 2.841,0.19 2.841,7.352 4.819,7.352 
	4.819,0.19 7.364,0.19 7.364,17.506 4.819,17.506 "/>
<rect x="9.248" y="0.19" fill="#FFFFFF" width="2.544" height="17.316"/>
<polygon fill="#FFFFFF" points="12.781,2.805 12.781,0.19 20.132,0.19 20.132,2.805 17.729,2.805 17.729,17.506 15.184,17.506 
	15.184,2.805 "/>
<g>
	<path fill="#FFFFFF" d="M27.906,0.001c3.062-0.07,3.557,2.663,3.557,4.594l-2.497,0.236c0-1.154-0.165-2.498-1.013-2.498
		c-0.66,0.024-0.872,0.73-0.872,1.72c0,1.178,1.014,2.498,2.003,3.935c1.178,1.767,2.379,3.487,2.379,5.348
		c0,2.31-0.753,4.359-3.533,4.359c-3.275,0-3.699-2.474-3.699-5.042l2.498-0.235c0,1.437,0.141,2.944,1.202,2.944
		c0.754,0,1.036-0.824,1.036-1.908c0-1.154-1.084-2.544-2.05-4.005c-1.201-1.767-2.332-3.534-2.332-5.396
		C24.584,2.169,25.503,0.049,27.906,0.001"/>
	<path fill="#FFFFFF" d="M36.057,17.695c-3.416,0-3.393-3.746-3.393-3.746V3.748c0,0-0.023-3.746,3.393-3.746
		s3.392,3.746,3.392,3.746V13.95C39.449,13.949,39.473,17.695,36.057,17.695 M36.057,2.476c-0.896,0-0.848,1.272-0.848,1.272V13.95
		c0,0-0.048,1.271,0.848,1.271c0.895,0,0.848-1.271,0.848-1.271V3.748C36.905,3.748,36.952,2.476,36.057,2.476"/>
	<polygon fill="#FFFFFF" points="43.854,8.483 43.642,7.682 43.501,7.682 43.501,8.483 43.501,17.506 41.168,17.506 41.168,0.19 
		43.43,0.19 45.904,9.213 46.116,10.014 46.257,10.014 46.257,9.213 46.257,0.19 48.59,0.19 48.59,17.506 46.328,17.506 	"/>
	<path fill="#FFFFFF" d="M54.549,6.41V3.748c0,0,0.048-1.271-0.848-1.271s-0.848,1.271-0.848,1.271v10.414
		c0,0-0.047,1.271,0.848,1.271c0.896,0,0.848-1.271,0.848-1.271v-3.134h-1.013V8.884h3.557v8.623h-1.507l-0.306-0.823
		c-0.471,0.589-1.178,1.013-1.979,1.013c-3.227,0-2.992-3.747-2.992-3.747V3.748c0,0-0.023-3.746,3.393-3.746
		c3.417,0,3.392,3.746,3.392,3.746V6.41H54.549z"/>
	<path fill="#FFFFFF" d="M62.111,0.001c3.062-0.07,3.558,2.663,3.558,4.594l-2.497,0.236c0-1.154-0.165-2.498-1.013-2.498
		c-0.66,0.024-0.872,0.73-0.872,1.72c0,1.178,1.013,2.498,2.003,3.935c1.177,1.767,2.379,3.487,2.379,5.348
		c0,2.31-0.753,4.359-3.534,4.359c-3.275,0-3.699-2.474-3.699-5.042l2.497-0.235c0,1.437,0.142,2.944,1.202,2.944
		c0.754,0,1.037-0.824,1.037-1.908c0-1.154-1.084-2.544-2.049-4.005c-1.202-1.767-2.333-3.534-2.333-5.396
		C58.789,2.169,59.708,0.049,62.111,0.001"/>
	<path fill="#FFFFFF" d="M72.665,17.506h-2.002V0.19h2.002c4.712,0.024,5.065,1.885,5.065,8.67
		C77.73,15.622,77.377,17.483,72.665,17.506 M73.207,14.962c1.791,0,1.908-0.448,1.885-6.125c0.023-5.654-0.094-6.102-1.885-6.102
		V14.962z"/>
	<polygon fill="#FFFFFF" points="79.426,0.19 85.245,0.19 85.245,2.805 81.97,2.805 81.97,7.352 84.326,7.352 84.326,10.132 
		81.97,10.132 81.97,14.891 85.245,14.891 85.245,17.506 79.426,17.506 	"/>
	<path fill="#FFFFFF" d="M93.277,11.569v2.379c0,0,0.023,3.747-3.393,3.747c-3.417,0-3.393-3.747-3.393-3.747v-10.2
		c0,0-0.023-3.746,3.393-3.746s3.393,3.746,3.393,3.746v2.38h-2.379v-2.38c0,0,0.095-1.271-0.967-1.271
		c-0.895,0-0.895,1.271-0.895,1.271v10.201c0,0,0,1.273,0.895,1.273c1.062,0,0.967-1.273,0.967-1.273V11.57L93.277,11.569
		L93.277,11.569z"/>
	<path fill="#FFFFFF" d="M98.036,17.695c-3.415,0-3.394-3.746-3.394-3.746V3.748c0,0-0.021-3.746,3.394-3.746
		c3.416,0,3.394,3.746,3.394,3.746V13.95C101.43,13.949,101.452,17.695,98.036,17.695 M98.036,2.476
		c-0.896,0-0.849,1.272-0.849,1.272V13.95c0,0-0.047,1.271,0.849,1.271s0.849-1.271,0.849-1.271V3.748
		C98.885,3.748,98.932,2.476,98.036,2.476"/>
	<polygon fill="#FFFFFF" points="105.834,8.483 105.622,7.682 105.48,7.682 105.48,8.483 105.48,17.506 103.148,17.506 
		103.148,0.19 105.41,0.19 107.884,9.213 108.096,10.014 108.236,10.014 108.236,9.213 108.236,0.19 110.568,0.19 110.568,17.506 
		108.309,17.506 	"/>
	<path fill="#FFFFFF" d="M115.609,0.001c3.063-0.07,3.559,2.663,3.559,4.594l-2.498,0.236c0-1.154-0.164-2.498-1.013-2.498
		c-0.659,0.024-0.871,0.73-0.871,1.72c0,1.178,1.013,2.498,2.002,3.935c1.179,1.767,2.38,3.487,2.38,5.348
		c0,2.31-0.753,4.359-3.534,4.359c-3.274,0-3.698-2.474-3.698-5.042l2.498-0.235c0,1.437,0.142,2.944,1.2,2.944
		c0.755,0,1.036-0.824,1.036-1.908c0-1.154-1.083-2.544-2.049-4.005c-1.201-1.767-2.332-3.534-2.332-5.396
		C112.289,2.169,113.207,0.049,115.609,0.001"/>
	<polygon fill="#FFFFFF" points="119.639,2.805 119.639,0.19 126.988,0.19 126.988,2.805 124.586,2.805 124.586,17.506 
		122.041,17.506 122.041,2.805 	"/>
	<path fill="#FFFFFF" d="M132.523,17.506l-1.317-7.304h-0.685v7.304h-2.545V0.19h2.545c3.017,0,4.334,1.744,4.334,4.995
		c0,1.72-0.445,3.275-1.412,3.934l1.625,8.387H132.523L132.523,17.506z M130.521,2.711v5.136c0.707,0,1.886-0.095,1.886-2.568
		C132.407,2.805,131.229,2.711,130.521,2.711"/>
	<path fill="#FFFFFF" d="M143.244,0.19v13.759c0,0,0.023,3.746-3.393,3.746s-3.394-3.746-3.394-3.746V0.19h2.545v13.759
		c0,0-0.048,1.273,0.849,1.273c0.896,0,0.849-1.273,0.849-1.273V0.19H143.244z"/>
	<path fill="#FFFFFF" d="M151.725,11.569v2.379c0,0,0.023,3.747-3.393,3.747s-3.393-3.747-3.393-3.747v-10.2
		c0,0-0.023-3.746,3.393-3.746s3.393,3.746,3.393,3.746v2.38h-2.379v-2.38c0,0,0.094-1.271-0.966-1.271
		c-0.896,0-0.896,1.271-0.896,1.271v10.201c0,0,0,1.273,0.896,1.273c1.06,0,0.966-1.273,0.966-1.273V11.57L151.725,11.569
		L151.725,11.569z"/>
	<polygon fill="#FFFFFF" points="152.359,2.805 152.359,0.19 159.711,0.19 159.711,2.805 157.309,2.805 157.309,17.506 
		154.764,17.506 154.764,2.805 	"/>
	<polygon fill="#FFFFFF" points="160.7,0.19 166.52,0.19 166.52,2.805 163.244,2.805 163.244,7.352 165.602,7.352 165.602,10.132 
		163.244,10.132 163.244,14.891 166.52,14.891 166.52,17.506 160.7,17.506 	"/>
	<path fill="#FFFFFF" d="M169.936,17.506h-2.004V0.19h2.004C174.646,0.214,175,2.075,175,8.86
		C175,15.622,174.646,17.483,169.936,17.506 M170.477,14.962c1.791,0,1.909-0.448,1.885-6.125c0.024-5.654-0.094-6.102-1.885-6.102
		V14.962z"/>
	<polygon fill="#FFFFFF" points="2.855,29.366 0.806,29.366 0.806,28.961 1.479,28.829 1.479,25.2 0.604,25.2 0.437,25.872 
		0,25.872 0,24.661 3.663,24.661 3.663,25.872 3.226,25.872 3.057,25.2 2.184,25.2 2.184,28.829 2.855,28.961 	"/>
	<path fill="#FFFFFF" d="M5.098,26.219c0.208-0.174,0.679-0.483,1.176-0.483c0.739,0,1.075,0.47,1.075,1.209v1.884l0.504,0.166
		v0.371H6.241v-0.371l0.437-0.16v-1.821c0-0.47-0.148-0.705-0.584-0.705c-0.572,0-0.995,0.536-0.995,0.536v1.984l0.437,0.166v0.371
		h-1.68v-0.371l0.571-0.166v-4.101l-0.571-0.136v-0.369l1.243-0.033L5.098,26.219L5.098,26.219z"/>
	<path fill="#FFFFFF" d="M8.987,27.684c0,0.738,0.396,1.21,0.975,1.21c0.672,0,1.128-0.37,1.128-0.37l0.235,0.352
		c0,0-0.625,0.558-1.432,0.558c-1.075,0-1.613-0.706-1.613-1.813c0-1.076,0.672-1.883,1.646-1.883c0.974,0,1.412,0.571,1.412,1.579
		c0,0.167-0.034,0.354-0.034,0.354L8.987,27.684z M10.626,27.18c0-0.504-0.195-0.922-0.733-0.922s-0.839,0.418-0.88,0.922H10.626z"
		/>
	<path fill="#FFFFFF" d="M13.641,26.375h0.8l0.141-1.043h0.538l-0.141,1.043h0.974l0.141-1.043h0.539l-0.141,1.043h0.746v0.437
		H16.43l-0.127,0.974h0.767v0.438h-0.827l-0.148,1.144h-0.537l0.147-1.144H14.73l-0.148,1.144h-0.538l0.147-1.144h-0.719v-0.438
		h0.779l0.128-0.974H13.64L13.641,26.375L13.641,26.375z M14.79,27.786h0.975l0.127-0.975h-0.974L14.79,27.786z"/>
	<polygon fill="#FFFFFF" points="20.903,29.366 18.155,29.366 18.155,28.793 19.189,28.793 19.189,25.433 18.047,26.172 
		17.765,25.689 19.331,24.661 19.895,24.661 19.895,28.793 20.903,28.793 	"/>
	<path fill="#FFFFFF" d="M23.676,28.693c0,0,0.302,0.181,0.739,0.168c0.491-0.007,1.035-0.241,1.028-0.719
		c-0.021-1.035-2.399-0.585-2.426-2.211c-0.013-0.94,0.753-1.324,1.593-1.339c0.638-0.012,1.418,0.27,1.418,0.27l-0.034,1.143
		h-0.437l-0.229-0.719c0,0-0.342-0.127-0.712-0.121c-0.604,0.008-0.9,0.315-0.894,0.652c0.021,1.021,2.399,0.631,2.42,2.145
		c0.02,1.008-0.814,1.457-1.754,1.479c-0.705,0.006-1.384-0.275-1.384-0.275v-1.177h0.538L23.676,28.693z"/>
	<path fill="#FFFFFF" d="M30.071,27.517c0,1.142-0.672,1.915-1.68,1.915c-1.008,0-1.612-0.604-1.612-1.814
		c0-1.143,0.705-1.882,1.713-1.882C29.5,25.736,30.071,26.441,30.071,27.517 M27.484,27.583c0,0.808,0.269,1.312,0.941,1.312
		c0.672,0,0.94-0.472,0.94-1.345c0-0.738-0.235-1.276-0.907-1.276S27.484,26.709,27.484,27.583"/>
	<path fill="#FFFFFF" d="M33.926,28.829l0.571,0.133v0.369l-1.109,0.035l-0.067-0.472c-0.162,0.142-0.692,0.538-1.243,0.538
		c-0.74,0-1.075-0.465-1.075-1.203V26.34l-0.571-0.135v-0.369l1.243-0.033v2.357c0,0.471,0.168,0.699,0.604,0.699
		c0.571,0,0.975-0.531,0.975-0.531V26.34l-0.571-0.135v-0.369l1.243-0.033V28.829z"/>
	<path fill="#FFFFFF" d="M36.061,26.293c0.168-0.188,0.558-0.559,1.015-0.559c0.336,0,0.604,0.102,0.604,0.102l-0.033,0.975H37.21
		l-0.101-0.504c-0.505,0-0.827,0.328-0.975,0.523v1.996l0.672,0.168v0.369H34.89v-0.369l0.572-0.168V26.34l-0.572-0.135v-0.369
		l1.109-0.033L36.061,26.293z"/>
	<path fill="#FFFFFF" d="M40.394,26.913l-0.101-0.572c0,0-0.269-0.066-0.605-0.066c-0.639,0-1.008,0.404-1.008,1.244
		c0,0.906,0.403,1.377,1.041,1.377c0.639,0,1.042-0.402,1.042-0.402l0.235,0.402c0,0-0.605,0.538-1.344,0.538
		c-1.109,0-1.681-0.706-1.681-1.849c0-1.076,0.672-1.849,1.747-1.849c0.605,0,1.143,0.269,1.143,0.269l-0.034,0.908H40.394z"/>
	<path fill="#FFFFFF" d="M42.066,27.684c0,0.738,0.396,1.21,0.975,1.21c0.671,0,1.128-0.37,1.128-0.37l0.235,0.352
		c0,0-0.625,0.558-1.432,0.558c-1.075,0-1.613-0.706-1.613-1.813c0-1.076,0.672-1.883,1.646-1.883c0.974,0,1.411,0.571,1.411,1.579
		c0,0.167-0.033,0.354-0.033,0.354L42.066,27.684z M43.705,27.18c0-0.504-0.195-0.922-0.732-0.922c-0.537,0-0.84,0.418-0.88,0.922
		H43.705z"/>
	<path fill="#FFFFFF" d="M47.19,25.836v-0.403c0-0.806,0.437-1.312,1.243-1.312c0.639,0,1.008,0.235,1.008,0.235v0.841h-0.47
		l-0.101-0.537c0,0-0.168-0.033-0.403-0.033c-0.47,0-0.604,0.268-0.604,0.672v0.537h0.887l-0.02,0.504h-0.867v2.486l0.652,0.168
		v0.369H46.62v-0.369l0.571-0.168V26.34h-0.605v-0.438L47.19,25.836z"/>
	<path fill="#FFFFFF" d="M52.592,27.517c0,1.142-0.672,1.915-1.68,1.915c-1.008,0-1.613-0.604-1.613-1.814
		c0-1.143,0.706-1.882,1.714-1.882C52.021,25.736,52.592,26.441,52.592,27.517 M50.004,27.583c0,0.808,0.269,1.312,0.941,1.312
		c0.672,0,0.94-0.472,0.94-1.345c0-0.738-0.235-1.276-0.907-1.276C50.307,26.273,50.004,26.709,50.004,27.583"/>
	<path fill="#FFFFFF" d="M54.256,26.293c0.168-0.188,0.558-0.559,1.014-0.559c0.336,0,0.605,0.102,0.605,0.102l-0.033,0.975h-0.438
		l-0.101-0.504c-0.504,0-0.827,0.328-0.975,0.523v1.996L55,28.995v0.369h-1.916v-0.369l0.572-0.168V26.34l-0.572-0.135v-0.369
		l1.109-0.033L54.256,26.293z"/>
	<polygon fill="#FFFFFF" points="59.589,29.366 57.674,29.366 57.674,28.961 58.246,28.829 58.246,25.2 57.674,25.064 
		57.674,24.694 59.589,24.661 59.589,25.064 58.951,25.2 58.951,26.676 61.202,26.676 61.202,25.2 60.564,25.064 60.564,24.694 
		62.479,24.661 62.479,25.064 61.908,25.2 61.908,28.829 62.479,28.961 62.479,29.366 60.564,29.366 60.564,28.961 61.202,28.829 
		61.202,27.213 58.951,27.213 58.951,28.829 59.589,28.961 	"/>
	<path fill="#FFFFFF" d="M64.217,28.829l0.503,0.166v0.371h-1.747v-0.371l0.572-0.166V26.34l-0.572-0.135v-0.369l1.244-0.033V28.829
		z M63.848,24.223c0.268,0,0.437,0.135,0.437,0.471c0,0.303-0.235,0.471-0.437,0.471c-0.269,0-0.437-0.168-0.437-0.471
		C63.411,24.392,63.612,24.223,63.848,24.223"/>
	<path fill="#FFFFFF" d="M66.393,25.836h0.975v0.504h-0.975v2.156c0,0.311,0.147,0.41,0.336,0.41c0.161,0,0.35-0.074,0.523-0.168
		l0.182,0.355c-0.303,0.223-0.604,0.337-0.941,0.337c-0.403,0-0.772-0.224-0.772-0.976V26.34h-0.672v-0.438l0.672-0.066v-0.846
		l0.672-0.136V25.836L66.393,25.836z"/>
	<path fill="#FFFFFF" d="M70.174,28.693c0,0,0.302,0.181,0.739,0.168c0.491-0.007,1.035-0.241,1.028-0.719
		c-0.02-1.035-2.399-0.585-2.426-2.211c-0.013-0.94,0.753-1.324,1.592-1.339c0.639-0.012,1.418,0.27,1.418,0.27l-0.034,1.143h-0.437
		l-0.229-0.719c0,0-0.343-0.127-0.712-0.121c-0.604,0.008-0.901,0.315-0.894,0.652c0.02,1.021,2.399,0.631,2.419,2.145
		c0.02,1.008-0.813,1.457-1.754,1.479c-0.706,0.006-1.384-0.275-1.384-0.275v-1.177h0.538L70.174,28.693z"/>
	<path fill="#FFFFFF" d="M76.57,27.517c0,1.142-0.672,1.915-1.68,1.915c-1.008,0-1.613-0.604-1.613-1.814
		c0-1.143,0.706-1.882,1.714-1.882C75.999,25.736,76.57,26.441,76.57,27.517 M73.982,27.583c0,0.808,0.269,1.312,0.941,1.312
		c0.672,0,0.94-0.472,0.94-1.345c0-0.738-0.235-1.276-0.907-1.276S73.982,26.709,73.982,27.583"/>
	<path fill="#FFFFFF" d="M78.234,26.28c0.161-0.141,0.692-0.544,1.25-0.544c0.739,0,1.075,0.47,1.075,1.209v1.884l0.504,0.166v0.371
		H79.45v-0.371l0.437-0.166v-1.815c0-0.47-0.168-0.705-0.604-0.705c-0.571,0-0.975,0.536-0.975,0.536v1.984l0.437,0.166v0.371h-1.68
		v-0.371l0.571-0.166V26.34l-0.571-0.135v-0.369l1.109-0.033L78.234,26.28z"/>
	<path fill="#FFFFFF" d="M84.985,26.206l-0.652,0.094c0,0,0.182,0.242,0.182,0.68c0,0.906-0.604,1.311-1.479,1.311
		c-0.302,0-0.504-0.061-0.504-0.061l-0.034,0.632h1.042c0.874,0,1.344,0.335,1.344,0.974c0,0.74-0.572,1.211-1.747,1.211
		c-0.941,0-1.613-0.235-1.613-0.976c0-0.604,0.706-0.84,0.706-0.84s-0.403-0.034-0.403-0.383c0-0.222,0.35-0.759,0.35-0.759
		s-0.518-0.236-0.518-1.043c0-0.873,0.604-1.311,1.479-1.311c0.437,0,0.672,0.128,0.672,0.128l1.175-0.026V26.206L84.985,26.206z
		 M82.633,29.366c0,0-0.437,0.2-0.437,0.604c0,0.471,0.403,0.57,1.041,0.57c0.673,0,1.009-0.201,1.009-0.639
		s-0.336-0.537-0.874-0.537h-0.739V29.366z M82.331,27.012c0,0.471,0.235,0.807,0.739,0.807c0.538,0,0.773-0.234,0.773-0.807
		c0-0.504-0.235-0.807-0.74-0.807C82.566,26.206,82.331,26.475,82.331,27.012"/>
	<polygon fill="#FFFFFF" points="86.657,26.206 86.153,26.273 86.724,28.76 87.604,25.836 88.242,25.735 89.075,28.76 
		89.613,26.307 89.143,26.206 89.143,25.836 90.654,25.803 90.654,26.206 90.266,26.273 89.445,29.366 88.673,29.366 88.034,27.282 
		87.873,26.635 87.732,27.282 87.093,29.366 86.32,29.366 85.481,26.307 85.145,26.206 85.145,25.836 86.657,25.803 	"/>
	<path fill="#FFFFFF" d="M92.083,26.293c0.169-0.188,0.56-0.559,1.017-0.559c0.336,0,0.604,0.102,0.604,0.102l-0.034,0.975h-0.437
		l-0.102-0.504c-0.505,0-0.826,0.328-0.974,0.523v1.996l0.671,0.168v0.369h-1.915v-0.369l0.571-0.168V26.34l-0.571-0.135v-0.369
		l1.108-0.033L92.083,26.293z"/>
	<path fill="#FFFFFF" d="M95.24,28.829l0.505,0.166v0.371h-1.748v-0.371l0.571-0.166V26.34l-0.571-0.135v-0.369l1.243-0.033V28.829z
		 M94.87,24.223c0.271,0,0.438,0.135,0.438,0.471c0,0.303-0.235,0.471-0.438,0.471c-0.269,0-0.437-0.168-0.437-0.471
		C94.434,24.392,94.637,24.223,94.87,24.223"/>
	<path fill="#FFFFFF" d="M97.416,25.836h0.975v0.504h-0.975v2.156c0,0.311,0.148,0.41,0.336,0.41c0.161,0,0.352-0.074,0.523-0.168
		l0.184,0.355c-0.305,0.223-0.605,0.337-0.941,0.337c-0.402,0-0.771-0.224-0.771-0.976V26.34h-0.673v-0.438l0.673-0.066v-0.846
		l0.671-0.136L97.416,25.836L97.416,25.836z"/>
	<path fill="#FFFFFF" d="M100.062,28.829l0.504,0.166v0.371h-1.748v-0.371l0.572-0.166V26.34l-0.572-0.135v-0.369l1.244-0.033
		V28.829z M99.691,24.223c0.271,0,0.438,0.135,0.438,0.471c0,0.303-0.233,0.471-0.438,0.471c-0.269,0-0.437-0.168-0.437-0.471
		C99.256,24.392,99.458,24.223,99.691,24.223"/>
	<path fill="#FFFFFF" d="M102.198,26.28c0.161-0.141,0.692-0.544,1.25-0.544c0.739,0,1.075,0.47,1.075,1.209v1.884l0.504,0.166
		v0.371h-1.612v-0.371l0.437-0.166v-1.815c0-0.47-0.168-0.705-0.604-0.705c-0.572,0-0.976,0.536-0.976,0.536v1.984l0.438,0.166
		v0.371h-1.682v-0.371l0.572-0.166V26.34l-0.572-0.135v-0.369l1.109-0.033L102.198,26.28z"/>
	<path fill="#FFFFFF" d="M108.95,26.206l-0.652,0.096c0,0,0.181,0.24,0.181,0.679c0,0.907-0.604,1.312-1.478,1.312
		c-0.303,0-0.504-0.062-0.504-0.062l-0.034,0.632h1.042c0.874,0,1.345,0.336,1.345,0.975c0,0.738-0.572,1.209-1.748,1.209
		c-0.939,0-1.612-0.234-1.612-0.975c0-0.604,0.706-0.84,0.706-0.84s-0.402-0.033-0.402-0.383c0-0.223,0.35-0.76,0.35-0.76
		s-0.519-0.235-0.519-1.043c0-0.873,0.604-1.31,1.479-1.31c0.437,0,0.672,0.128,0.672,0.128l1.177-0.027v0.369H108.95z
		 M106.598,29.366c0,0-0.437,0.2-0.437,0.604c0,0.471,0.403,0.57,1.041,0.57c0.673,0,1.009-0.201,1.009-0.639
		s-0.336-0.537-0.874-0.537h-0.739V29.366z M106.296,27.012c0,0.471,0.233,0.807,0.738,0.807c0.536,0,0.772-0.234,0.772-0.807
		c0-0.504-0.236-0.807-0.738-0.807C106.529,26.206,106.296,26.475,106.296,27.012"/>
	<path fill="#FFFFFF" d="M110.613,28.959l0.552-0.127l1.53-4.14l0.674-0.032l1.492,4.172l0.557,0.127v0.404h-1.949v-0.404
		l0.625-0.127l-0.255-0.744h-1.747l-0.263,0.744l0.632,0.127v0.404h-1.848V28.959z M112.273,27.549h1.385l-0.68-2.022
		L112.273,27.549z"/>
	<path fill="#FFFFFF" d="M116.848,26.28c0.16-0.141,0.691-0.544,1.25-0.544c0.738,0,1.075,0.47,1.075,1.209v1.884l0.503,0.166v0.371
		h-1.611v-0.371l0.437-0.166v-1.815c0-0.47-0.168-0.705-0.604-0.705c-0.57,0-0.974,0.536-0.974,0.536v1.984l0.437,0.166v0.371h-1.68
		v-0.371l0.57-0.166V26.34l-0.57-0.135v-0.369l1.107-0.033L116.848,26.28z"/>
	<path fill="#FFFFFF" d="M121.648,25.736c0.781,0,1.244,0.269,1.244,1.042v2.051l0.537,0.133v0.369l-1.041,0.035l-0.143-0.472
		c-0.229,0.229-0.631,0.538-1.104,0.538c-0.637,0-1.006-0.37-1.006-1.01c0-0.771,0.604-1.041,1.545-1.041h0.537v-0.537
		c0-0.403-0.234-0.604-0.639-0.604c-0.402,0-0.68,0.1-0.68,0.1l-0.094,0.504h-0.438l-0.032-0.84
		C120.34,26.004,121.079,25.736,121.648,25.736 M121.75,27.819c-0.671,0-0.928,0.168-0.928,0.571c0,0.303,0.189,0.504,0.49,0.504
		c0.504,0,0.908-0.538,0.908-0.538v-0.537H121.75z"/>
	<polygon fill="#FFFFFF" points="125.016,28.829 125.688,28.995 125.688,29.366 123.758,29.366 123.758,28.995 124.329,28.829 
		124.329,24.728 123.758,24.592 123.758,24.223 125.016,24.19 	"/>
	<path fill="#FFFFFF" d="M127.324,26.206l-0.471,0.067l0.807,2.353l0.738-2.317l-0.469-0.103v-0.369l1.592-0.032v0.401l-0.437,0.067
		l-0.954,2.661c-0.355,0.936-0.706,2.043-1.814,2.043c-0.168,0-0.43-0.033-0.43-0.033l0.061-0.471h0.336
		c0.471,0,0.771-0.443,1.068-1.096l-1.203-3.07l-0.403-0.102v-0.369l1.579-0.033V26.206z"/>
	<path fill="#FFFFFF" d="M130.293,28.29l0.074,0.578c0,0,0.27,0.073,0.591,0.062c0.403-0.015,0.753-0.128,0.739-0.53
		c-0.026-0.74-1.854-0.391-1.875-1.602c-0.014-0.705,0.519-1.047,1.229-1.062c0.53-0.007,1.149,0.202,1.149,0.202l-0.021,0.906
		h-0.437l-0.108-0.524c0,0-0.273-0.093-0.576-0.079c-0.311,0.014-0.58,0.107-0.564,0.449c0.027,0.732,1.854,0.438,1.875,1.579
		c0.013,0.772-0.646,1.136-1.418,1.163c-0.572,0.027-1.123-0.148-1.123-0.148l-0.008-0.994H130.293z"/>
	<path fill="#FFFFFF" d="M134.148,28.829l0.504,0.166v0.371h-1.748v-0.371l0.572-0.166V26.34l-0.572-0.135v-0.369l1.244-0.033
		V28.829z M133.779,24.223c0.269,0,0.437,0.135,0.437,0.471c0,0.303-0.235,0.471-0.437,0.471c-0.271,0-0.438-0.168-0.438-0.471
		C133.342,24.392,133.544,24.223,133.779,24.223"/>
	<path fill="#FFFFFF" d="M135.626,28.29l0.074,0.578c0,0,0.269,0.073,0.591,0.062c0.402-0.015,0.752-0.128,0.738-0.53
		c-0.025-0.74-1.854-0.391-1.875-1.602c-0.014-0.705,0.519-1.047,1.23-1.062c0.53-0.007,1.148,0.202,1.148,0.202l-0.02,0.906h-0.438
		l-0.108-0.524c0,0-0.274-0.093-0.577-0.079c-0.31,0.014-0.578,0.107-0.563,0.449c0.026,0.732,1.854,0.438,1.875,1.579
		c0.012,0.772-0.646,1.136-1.418,1.163c-0.572,0.027-1.123-0.148-1.123-0.148l-0.007-0.994H135.626z"/>
	<path fill="#FFFFFF" d="M141.288,25.736c0.78,0,1.244,0.269,1.244,1.042v2.051l0.536,0.133v0.369l-1.041,0.035l-0.141-0.472
		c-0.229,0.229-0.633,0.538-1.104,0.538c-0.639,0-1.008-0.37-1.008-1.01c0-0.771,0.604-1.041,1.545-1.041h0.539v-0.537
		c0-0.403-0.236-0.604-0.639-0.604c-0.404,0-0.68,0.1-0.68,0.1l-0.094,0.504h-0.438l-0.032-0.84
		C139.979,26.004,140.718,25.736,141.288,25.736 M141.391,27.819c-0.673,0-0.929,0.168-0.929,0.571c0,0.303,0.188,0.504,0.49,0.504
		c0.504,0,0.907-0.538,0.907-0.538v-0.537H141.391z"/>
	<path fill="#FFFFFF" d="M144.667,26.28c0.16-0.141,0.69-0.544,1.249-0.544c0.74,0,1.076,0.47,1.076,1.209v1.884l0.504,0.166v0.371
		h-1.613v-0.371l0.438-0.166v-1.815c0-0.47-0.168-0.705-0.604-0.705c-0.571,0-0.976,0.536-0.976,0.536v1.984l0.438,0.166v0.371
		h-1.681v-0.371l0.571-0.166V26.34l-0.571-0.135v-0.369l1.108-0.033L144.667,26.28z"/>
	<path fill="#FFFFFF" d="M151.048,28.829l0.571,0.133v0.369l-1.143,0.035l-0.055-0.385c-0.193,0.195-0.544,0.451-1.055,0.451
		c-0.975,0-1.411-0.706-1.411-1.748c0-1.143,0.571-1.948,1.78-1.948c0.248,0,0.464,0.048,0.64,0.106v-1.114l-0.571-0.136v-0.369
		l1.242-0.033L151.048,28.829L151.048,28.829z M150.377,26.409c0,0-0.234-0.136-0.707-0.136c-0.777,0-1.008,0.604-1.008,1.345
		c0,0.738,0.234,1.276,0.84,1.276c0.572,0,0.875-0.504,0.875-0.504V26.409z"/>
	<polygon fill="#FFFFFF" points="156.172,29.366 154.123,29.366 154.123,28.961 154.795,28.829 154.795,25.2 153.921,25.2 
		153.753,25.872 153.316,25.872 153.316,24.661 156.979,24.661 156.979,25.872 156.542,25.872 156.374,25.2 155.501,25.2 
		155.501,28.829 156.172,28.961 	"/>
	<path fill="#FFFFFF" d="M158.441,26.293c0.168-0.188,0.56-0.559,1.016-0.559c0.336,0,0.605,0.102,0.605,0.102l-0.035,0.975h-0.438
		l-0.1-0.504c-0.506,0-0.827,0.328-0.975,0.523v1.996l0.67,0.168v0.369h-1.914v-0.369l0.571-0.168V26.34l-0.571-0.135v-0.369
		l1.109-0.033L158.441,26.293z"/>
	<path fill="#FFFFFF" d="M161.062,27.684c0,0.738,0.396,1.21,0.975,1.21c0.672,0,1.129-0.37,1.129-0.37l0.234,0.352
		c0,0-0.625,0.558-1.433,0.558c-1.073,0-1.612-0.706-1.612-1.813c0-1.076,0.672-1.883,1.646-1.883s1.411,0.571,1.411,1.579
		c0,0.167-0.033,0.354-0.033,0.354L161.062,27.684z M162.7,27.18c0-0.504-0.194-0.922-0.732-0.922c-0.536,0-0.839,0.418-0.879,0.922
		H162.7z"/>
	<path fill="#FFFFFF" d="M165.044,26.28c0.161-0.141,0.692-0.544,1.25-0.544c0.739,0,1.076,0.47,1.076,1.209v1.884l0.504,0.166
		v0.371h-1.612v-0.371l0.437-0.166v-1.815c0-0.47-0.169-0.705-0.604-0.705c-0.57,0-0.975,0.536-0.975,0.536v1.984l0.438,0.166v0.371
		h-1.681v-0.371l0.571-0.166V26.34l-0.571-0.135v-0.369l1.108-0.033L165.044,26.28z"/>
	<path fill="#FFFFFF" d="M171.426,28.829l0.571,0.133v0.369l-1.142,0.035l-0.055-0.385c-0.195,0.195-0.545,0.451-1.056,0.451
		c-0.976,0-1.411-0.706-1.411-1.748c0-1.143,0.57-1.948,1.779-1.948c0.25,0,0.465,0.048,0.641,0.106v-1.114l-0.572-0.136v-0.369
		l1.243-0.033L171.426,28.829L171.426,28.829z M170.755,26.409c0,0-0.235-0.136-0.707-0.136c-0.778,0-1.008,0.604-1.008,1.345
		c0,0.738,0.235,1.276,0.84,1.276c0.572,0,0.875-0.504,0.875-0.504V26.409z"/>
	<path fill="#FFFFFF" d="M172.902,28.29l0.074,0.578c0,0,0.269,0.073,0.59,0.062c0.404-0.015,0.754-0.128,0.74-0.53
		c-0.027-0.74-1.854-0.391-1.875-1.602c-0.015-0.705,0.518-1.047,1.229-1.062c0.53-0.007,1.147,0.202,1.147,0.202l-0.02,0.906
		h-0.438l-0.107-0.524c0,0-0.274-0.093-0.578-0.079c-0.309,0.014-0.578,0.107-0.562,0.449c0.026,0.732,1.854,0.438,1.875,1.579
		c0.013,0.772-0.646,1.136-1.418,1.163c-0.572,0.027-1.123-0.148-1.123-0.148l-0.008-0.994H172.902z"/>
</g>
</svg>
