<?xml version="1.0" encoding="utf-8"?>
<!-- Generator: Adobe Illustrator 15.1.0, SVG Export Plug-In . SVG Version: 6.00 Build 0)  -->
<!DOCTYPE svg PUBLIC "-//W3C//DTD SVG 1.1//EN" "http://www.w3.org/Graphics/SVG/1.1/DTD/svg11.dtd">
<svg version="1.1" id="Layer_1" xmlns="http://www.w3.org/2000/svg" xmlns:xlink="http://www.w3.org/1999/xlink" x="0px" y="0px"
	 width="10px" height="8.34px" viewBox="0 0 10 8.34" enable-background="new 0 0 10 8.34" xml:space="preserve">
<path fill="#FF6633" d="M9.944,4.445c0.034-0.082,0.05-0.168,0.052-0.254C9.996,4.184,10,4.178,10,4.17S9.996,4.157,9.996,4.15
	C9.994,4.063,9.979,3.977,9.944,3.896C9.912,3.818,9.863,3.75,9.808,3.689C9.801,3.681,9.798,3.67,9.79,3.662L6.338,0.211
	c-0.28-0.281-0.736-0.281-1.017,0s-0.28,0.735,0,1.016l2.225,2.225H0.719C0.322,3.452,0,3.773,0,4.17s0.322,0.719,0.719,0.719h6.827
	L5.321,7.114c-0.28,0.281-0.28,0.735,0,1.016C5.462,8.271,5.646,8.34,5.83,8.34c0.184,0,0.368-0.07,0.508-0.21L9.79,4.679
	C9.798,4.671,9.8,4.66,9.808,4.652C9.863,4.59,9.912,4.523,9.944,4.445z"/>
</svg>
