<?xml version="1.0" encoding="utf-8"?>
<!-- Generator: Adobe Illustrator 15.1.0, SVG Export Plug-In . SVG Version: 6.00 Build 0)  -->
<!DOCTYPE svg PUBLIC "-//W3C//DTD SVG 1.1//EN" "http://www.w3.org/Graphics/SVG/1.1/DTD/svg11.dtd">
<svg version="1.1" id="Layer_1" xmlns="http://www.w3.org/2000/svg" xmlns:xlink="http://www.w3.org/1999/xlink" x="0px" y="0px"
	 width="66px" height="72.349px" viewBox="0 0 66 72.349" enable-background="new 0 0 66 72.349" xml:space="preserve">
<g>
	<g>
		<path fill="#FF6633" d="M7.641,10.45h24.598c0.457,0,0.828,0.371,0.828,0.829s-0.371,0.829-0.828,0.829H7.641
			c-0.457,0-0.828-0.371-0.828-0.829S7.184,10.45,7.641,10.45z M7.641,13.694h24.598c0.457,0,0.828,0.371,0.828,0.829
			s-0.371,0.829-0.828,0.829H7.641c-0.457,0-0.828-0.371-0.828-0.829S7.184,13.694,7.641,13.694z M7.641,16.939h24.598
			c0.457,0,0.828,0.371,0.828,0.829s-0.371,0.829-0.828,0.829H7.641c-0.457,0-0.828-0.371-0.828-0.829S7.184,16.939,7.641,16.939z
			 M7.641,20.184h37.977c0.458,0,0.829,0.371,0.829,0.828c0,0.458-0.371,0.829-0.829,0.829H7.641c-0.457,0-0.828-0.371-0.828-0.829
			C6.812,20.555,7.184,20.184,7.641,20.184z M45.617,28.331H7.641c-0.457,0-0.828-0.371-0.828-0.829s0.371-0.829,0.828-0.829h37.977
			c0.458,0,0.829,0.371,0.829,0.829S46.075,28.331,45.617,28.331z M45.617,25.086H7.641c-0.457,0-0.828-0.372-0.828-0.829
			c0-0.458,0.371-0.829,0.828-0.829h37.977c0.458,0,0.829,0.371,0.829,0.829C46.446,24.714,46.075,25.086,45.617,25.086z"/>
	</g>
	<g>
		<g>
			<path fill="#FF6633" d="M53.005,14.472c-0.005-0.077-0.02-0.15-0.045-0.22c-0.009-0.025-0.015-0.052-0.026-0.077
				c-0.041-0.088-0.093-0.17-0.161-0.239L39.078,0.243c-0.067-0.068-0.15-0.12-0.238-0.162c-0.024-0.011-0.05-0.018-0.074-0.026
				c-0.071-0.025-0.146-0.041-0.226-0.045C38.523,0.008,38.51,0,38.492,0H0.829C0.372,0,0,0.371,0,0.828v64.37
				c0,0.458,0.372,0.829,0.829,0.829H37.46c-0.272-0.536-0.514-1.09-0.729-1.657H1.657V1.657h36.007v12.866
				c0,0.458,0.371,0.829,0.828,0.829h12.866v26.69C51.634,42.027,51.906,42,52.186,42c0.28,0,0.554,0.027,0.83,0.042V14.523
				C53.016,14.505,53.007,14.49,53.005,14.472z M39.321,13.694V2.829l10.865,10.866H39.321z"/>
		</g>
		<g>
			<path fill="#FF6633" d="M7.641,12.107h24.598c0.457,0,0.828-0.371,0.828-0.829s-0.371-0.829-0.828-0.829H7.641
				c-0.457,0-0.828,0.371-0.828,0.829S7.184,12.107,7.641,12.107z"/>
		</g>
		<g>
			<path fill="#FF6633" d="M7.641,15.352h24.598c0.457,0,0.828-0.371,0.828-0.829s-0.371-0.829-0.828-0.829H7.641
				c-0.457,0-0.828,0.371-0.828,0.829S7.184,15.352,7.641,15.352z"/>
		</g>
		<g>
			<path fill="#FF6633" d="M7.641,18.596h24.598c0.457,0,0.828-0.371,0.828-0.829s-0.371-0.829-0.828-0.829H7.641
				c-0.457,0-0.828,0.371-0.828,0.829S7.184,18.596,7.641,18.596z"/>
		</g>
		<g>
			<path fill="#FF6633" d="M45.617,20.184H7.641c-0.457,0-0.828,0.371-0.828,0.828c0,0.458,0.371,0.829,0.828,0.829h37.977
				c0.458,0,0.829-0.371,0.829-0.829C46.446,20.555,46.075,20.184,45.617,20.184z"/>
		</g>
		<g>
			<path fill="#FF6633" d="M45.617,23.429H7.641c-0.457,0-0.828,0.371-0.828,0.829c0,0.457,0.371,0.829,0.828,0.829h37.977
				c0.458,0,0.829-0.372,0.829-0.829C46.446,23.8,46.075,23.429,45.617,23.429z"/>
		</g>
		<g>
			<path fill="#FF6633" d="M45.617,26.673H7.641c-0.457,0-0.828,0.371-0.828,0.829s0.371,0.829,0.828,0.829h37.977
				c0.458,0,0.829-0.371,0.829-0.829S46.075,26.673,45.617,26.673z"/>
		</g>
		<g>
			<path fill="#FF6633" d="M41.535,37.265c-0.458,0-0.829,0.371-0.829,0.828c0,0.458,0.371,0.829,0.829,0.829h1.107
				c0.458,0,0.829-0.371,0.829-0.829c0-0.457-0.371-0.828-0.829-0.828H41.535z"/>
		</g>
		<g>
			<path fill="#FF6633" d="M10.375,37.193c-0.457,0-0.829,0.371-0.829,0.828c0,0.458,0.372,0.829,0.829,0.829h1.105
				c0.458,0,0.829-0.371,0.829-0.829c0-0.457-0.371-0.828-0.829-0.828H10.375z"/>
		</g>
		<g>
			<path fill="#FF6633" d="M37.376,51.218H7.641c-0.457,0-0.828,0.371-0.828,0.828c0,0.458,0.371,0.829,0.828,0.829h29.026
				C36.874,52.308,37.109,51.755,37.376,51.218z"/>
		</g>
		<g>
			<path fill="#FF6633" d="M36.179,54.462H7.641c-0.457,0-0.828,0.371-0.828,0.828c0,0.458,0.371,0.829,0.828,0.829h28.208
				C35.93,55.557,36.04,55.005,36.179,54.462z"/>
		</g>
		<g>
			<path fill="#FF6633" d="M6.812,48.802c0,0.458,0.371,0.829,0.828,0.829h30.628c0.368-0.575,0.763-1.133,1.198-1.657H7.641
				C7.184,47.974,6.812,48.345,6.812,48.802z"/>
		</g>
		<g>
			<path fill="#FF6633" d="M7.641,57.706c-0.457,0-0.828,0.371-0.828,0.828c0,0.458,0.371,0.829,0.828,0.829h28.054
				c-0.015-0.276-0.043-0.55-0.043-0.829s0.028-0.552,0.043-0.828H7.641z"/>
		</g>
		<g>
			<path fill="#FF6633" d="M45.617,30.476H7.641c-0.457,0-0.828,0.371-0.828,0.829v13.579c0,0.457,0.371,0.828,0.828,0.828h34.112
				c0.765-0.622,1.585-1.177,2.453-1.657H8.47V32.133h36.319v11.629c0.536-0.27,1.09-0.508,1.657-0.719V31.305
				C46.446,30.847,46.075,30.476,45.617,30.476z"/>
		</g>
		<g>
			<path fill="#FF6633" d="M13.363,36.147v3.892c0,0.458,0.371,0.829,0.829,0.829c0.457,0,0.828-0.371,0.828-0.829v-3.892
				c0-0.457-0.371-0.828-0.828-0.828C13.734,35.319,13.363,35.69,13.363,36.147z"/>
		</g>
		<g>
			<path fill="#FF6633" d="M16.421,34.483v7.221c0,0.457,0.371,0.828,0.828,0.828c0.458,0,0.829-0.371,0.829-0.828v-7.221
				c0-0.458-0.371-0.829-0.829-0.829C16.792,33.655,16.421,34.025,16.421,34.483z"/>
		</g>
		<g>
			<path fill="#FF6633" d="M19.479,36.705v2.777c0,0.458,0.371,0.829,0.828,0.829c0.458,0,0.829-0.371,0.829-0.829v-2.777
				c0-0.458-0.371-0.829-0.829-0.829C19.851,35.876,19.479,36.247,19.479,36.705z"/>
		</g>
		<g>
			<path fill="#FF6633" d="M22.537,34.483v7.221c0,0.457,0.371,0.828,0.828,0.828c0.458,0,0.829-0.371,0.829-0.828v-7.221
				c0-0.458-0.371-0.829-0.829-0.829C22.908,33.655,22.537,34.025,22.537,34.483z"/>
		</g>
		<g>
			<path fill="#FF6633" d="M25.594,35.176v5.836c0,0.457,0.371,0.828,0.828,0.828c0.458,0,0.829-0.371,0.829-0.828v-5.836
				c0-0.457-0.371-0.828-0.829-0.828C25.965,34.348,25.594,34.719,25.594,35.176z"/>
		</g>
		<g>
			<path fill="#FF6633" d="M28.651,34.483v7.221c0,0.457,0.371,0.828,0.828,0.828c0.458,0,0.829-0.371,0.829-0.828v-7.221
				c0-0.458-0.371-0.829-0.829-0.829C29.022,33.655,28.651,34.025,28.651,34.483z"/>
		</g>
		<g>
			<path fill="#FF6633" d="M31.71,36.705v2.777c0,0.458,0.371,0.829,0.828,0.829c0.458,0,0.829-0.371,0.829-0.829v-2.777
				c0-0.458-0.371-0.829-0.829-0.829C32.081,35.876,31.71,36.247,31.71,36.705z"/>
		</g>
		<g>
			<path fill="#FF6633" d="M34.768,34.483v7.221c0,0.457,0.371,0.828,0.828,0.828s0.828-0.371,0.828-0.828v-7.221
				c0-0.458-0.371-0.829-0.828-0.829S34.768,34.025,34.768,34.483z"/>
		</g>
		<g>
			<path fill="#FF6633" d="M37.824,36.147v3.892c0,0.458,0.371,0.829,0.829,0.829c0.457,0,0.828-0.371,0.828-0.829v-3.892
				c0-0.457-0.371-0.828-0.828-0.828C38.195,35.319,37.824,35.69,37.824,36.147z"/>
		</g>
	</g>
</g>
<g>
	<g>
		<path fill="#FF6633" d="M52.187,72.349c-7.617,0-13.812-6.197-13.812-13.814c0-7.616,6.195-13.813,13.812-13.813
			S66,50.918,66,58.534C66,66.151,59.804,72.349,52.187,72.349z M52.187,46.378c-6.703,0-12.155,5.453-12.155,12.156
			s5.452,12.157,12.155,12.157s12.157-5.454,12.157-12.157S58.89,46.378,52.187,46.378z"/>
	</g>
	<g>
		<path fill="#FF6633" d="M52.187,61.618c-1.7,0-3.083-1.384-3.083-3.084s1.383-3.084,3.083-3.084s3.085,1.384,3.085,3.084
			S53.887,61.618,52.187,61.618z M52.187,57.107c-0.786,0-1.426,0.64-1.426,1.427s0.64,1.427,1.426,1.427
			c0.788,0,1.428-0.64,1.428-1.427S52.975,57.107,52.187,57.107z"/>
	</g>
	<g>
		<path fill="#FF6633" d="M61.195,55.557c-0.322,0-0.629-0.189-0.763-0.506c-1.403-3.319-4.641-5.465-8.246-5.465
			c-0.457,0-0.828-0.371-0.828-0.828s0.371-0.829,0.828-0.829c4.272,0,8.109,2.542,9.771,6.477c0.179,0.422-0.019,0.908-0.44,1.086
			C61.412,55.536,61.303,55.557,61.195,55.557z"/>
	</g>
</g>
</svg>
