<?xml version="1.0" encoding="utf-8"?>
<!-- Generator: Adobe Illustrator 14.0.0, SVG Export Plug-In . SVG Version: 6.00 Build 43363)  -->
<!DOCTYPE svg PUBLIC "-//W3C//DTD SVG 1.1//EN" "http://www.w3.org/Graphics/SVG/1.1/DTD/svg11.dtd">
<svg version="1.1" id="Layer_1" xmlns="http://www.w3.org/2000/svg" xmlns:xlink="http://www.w3.org/1999/xlink" x="0px" y="0px"
	 width="265px" height="47.188px" viewBox="0 0 265 47.188" enable-background="new 0 0 265 47.188" xml:space="preserve">
<polygon fill="#333333" points="7.299,15.092 4.303,15.092 4.303,26.508 0.45,26.508 0.45,0.286 4.303,0.286 4.303,11.132 
	7.299,11.132 7.299,0.286 11.152,0.286 11.152,26.508 7.299,26.508 "/>
<rect x="14.004" y="0.286" fill="#333333" width="3.853" height="26.221"/>
<polygon fill="#333333" points="19.355,4.247 19.355,0.286 30.486,0.286 30.486,4.247 26.847,4.247 26.847,26.508 22.994,26.508 
	22.994,4.247 "/>
<g>
	<path fill="#333333" d="M42.258,0.002c4.638-0.107,5.387,4.032,5.387,6.956l-3.781,0.357c0-1.749-0.25-3.782-1.534-3.782
		c-0.999,0.036-1.319,1.106-1.319,2.604c0,1.784,1.533,3.781,3.032,5.957c1.785,2.676,3.604,5.28,3.604,8.099
		c0,3.496-1.142,6.6-5.351,6.6c-4.959,0-5.601-3.746-5.601-7.635l3.781-0.356c0,2.176,0.214,4.459,1.819,4.459
		c1.142,0,1.569-1.249,1.569-2.889c0-1.748-1.642-3.853-3.104-6.065c-1.819-2.675-3.531-5.351-3.531-8.17
		C37.228,3.284,38.62,0.073,42.258,0.002"/>
	<path fill="#333333" d="M54.601,26.794c-5.172,0-5.137-5.673-5.137-5.673V5.674c0,0-0.036-5.672,5.137-5.672
		c5.173,0,5.137,5.672,5.137,5.672v15.447C59.737,21.121,59.773,26.794,54.601,26.794 M54.601,3.748
		c-1.355,0-1.284,1.926-1.284,1.926v15.447c0,0-0.072,1.927,1.284,1.927s1.285-1.927,1.285-1.927V5.674
		C55.884,5.674,55.956,3.748,54.601,3.748"/>
	<polygon fill="#333333" points="66.408,12.844 66.086,11.631 65.873,11.631 65.873,12.844 65.873,26.508 62.341,26.508 
		62.341,0.286 65.766,0.286 69.511,13.95 69.833,15.163 70.047,15.163 70.047,13.95 70.047,0.286 73.579,0.286 73.579,26.508 
		70.154,26.508 	"/>
	<path fill="#333333" d="M82.604,9.705V5.674c0,0,0.072-1.926-1.285-1.926c-1.356,0-1.284,1.926-1.284,1.926v15.769
		c0,0-0.072,1.926,1.284,1.926c1.355,0,1.285-1.926,1.285-1.926v-4.745h-1.534V13.45h5.387v13.058h-2.283l-0.463-1.249
		c-0.713,0.893-1.785,1.534-2.998,1.534c-4.887,0-4.53-5.673-4.53-5.673V5.673c0,0-0.036-5.672,5.137-5.672
		c5.172,0,5.137,5.672,5.137,5.672v4.031L82.604,9.705L82.604,9.705z"/>
	<path fill="#333333" d="M94.054,0.002c4.638-0.107,5.387,4.032,5.387,6.956L95.66,7.315c0-1.749-0.25-3.782-1.534-3.782
		c-0.999,0.036-1.319,1.106-1.319,2.604c0,1.784,1.533,3.781,3.032,5.957c1.784,2.676,3.604,5.28,3.604,8.099
		c0,3.496-1.142,6.6-5.351,6.6c-4.959,0-5.601-3.746-5.601-7.635l3.781-0.356c0,2.176,0.214,4.459,1.82,4.459
		c1.142,0,1.57-1.249,1.57-2.889c0-1.748-1.642-3.853-3.104-6.065c-1.82-2.675-3.533-5.351-3.533-8.17
		C89.024,3.284,90.416,0.073,94.054,0.002"/>
	<path fill="#FF6633" d="M110.036,26.509h-3.032V0.287h3.032c7.135,0.036,7.67,2.854,7.67,13.128
		C117.706,23.654,117.17,26.473,110.036,26.509 M110.855,22.655c2.712,0,2.889-0.678,2.854-9.276c0.036-8.562-0.142-9.24-2.854-9.24
		V22.655z"/>
	<polygon fill="#FF6633" points="120.273,0.286 129.086,0.286 129.086,4.247 124.126,4.247 124.126,11.132 127.694,11.132 
		127.694,15.342 124.126,15.342 124.126,22.547 129.086,22.547 129.086,26.508 120.273,26.508 	"/>
	<path fill="#FF6633" d="M141.249,17.518v3.603c0,0,0.036,5.673-5.137,5.673c-5.172,0-5.137-5.673-5.137-5.673V5.674
		c0,0-0.036-5.672,5.137-5.672c5.173,0,5.137,5.672,5.137,5.672v3.604h-3.603V5.674c0,0,0.143-1.926-1.462-1.926
		c-1.356,0-1.356,1.926-1.356,1.926v15.447c0,0,0,1.927,1.356,1.927c1.604,0,1.462-1.927,1.462-1.927v-3.603H141.249z"/>
	<path fill="#FF6633" d="M148.456,26.794c-5.173,0-5.138-5.673-5.138-5.673V5.674c0,0-0.035-5.672,5.138-5.672
		c5.171,0,5.136,5.672,5.136,5.672v15.447C153.592,21.121,153.627,26.794,148.456,26.794 M148.456,3.748
		c-1.356,0-1.285,1.926-1.285,1.926v15.447c0,0-0.071,1.927,1.285,1.927c1.355,0,1.283-1.927,1.283-1.927V5.674
		C149.739,5.674,149.812,3.748,148.456,3.748"/>
	<polygon fill="#FF6633" points="160.263,12.844 159.942,11.631 159.729,11.631 159.729,12.844 159.729,26.508 156.195,26.508 
		156.195,0.286 159.621,0.286 163.366,13.95 163.688,15.163 163.901,15.163 163.901,13.95 163.901,0.286 167.433,0.286 
		167.433,26.508 164.007,26.508 	"/>
	<path fill="#FF6633" d="M175.067,0.002c4.638-0.107,5.387,4.032,5.387,6.956l-3.782,0.357c0-1.749-0.248-3.782-1.533-3.782
		c-0.999,0.036-1.32,1.106-1.32,2.604c0,1.784,1.534,3.781,3.032,5.957c1.784,2.676,3.604,5.28,3.604,8.099
		c0,3.496-1.142,6.6-5.352,6.6c-4.958,0-5.601-3.746-5.601-7.635l3.781-0.356c0,2.176,0.214,4.459,1.818,4.459
		c1.143,0,1.569-1.249,1.569-2.889c0-1.748-1.64-3.853-3.103-6.065c-1.819-2.675-3.532-5.351-3.532-8.17
		C170.037,3.284,171.429,0.073,175.067,0.002"/>
	<polygon fill="#FF6633" points="181.166,4.247 181.166,0.286 192.297,0.286 192.297,4.247 188.658,4.247 188.658,26.508 
		184.806,26.508 184.806,4.247 	"/>
	<path fill="#FF6633" d="M200.68,26.509l-1.996-11.06h-1.036v11.06h-3.853V0.287h3.853c4.567,0,6.563,2.641,6.563,7.563
		c0,2.604-0.677,4.959-2.139,5.958l2.46,12.701H200.68z M197.647,4.104v7.777c1.071,0,2.855-0.143,2.855-3.889
		C200.503,4.247,198.719,4.104,197.647,4.104"/>
	<path fill="#FF6633" d="M216.912,0.286v20.834c0,0,0.035,5.673-5.137,5.673c-5.173,0-5.137-5.673-5.137-5.673V0.286h3.853v20.834
		c0,0-0.072,1.927,1.284,1.927c1.355,0,1.285-1.927,1.285-1.927V0.286H216.912z"/>
	<path fill="#FF6633" d="M229.754,17.518v3.603c0,0,0.036,5.673-5.137,5.673s-5.137-5.673-5.137-5.673V5.674
		c0,0-0.036-5.672,5.137-5.672s5.137,5.672,5.137,5.672v3.604h-3.603V5.674c0,0,0.143-1.926-1.463-1.926
		c-1.355,0-1.355,1.926-1.355,1.926v15.447c0,0,0,1.927,1.355,1.927c1.605,0,1.463-1.927,1.463-1.927v-3.603H229.754z"/>
	<polygon fill="#FF6633" points="230.716,4.247 230.716,0.286 241.847,0.286 241.847,4.247 238.209,4.247 238.209,26.508 
		234.355,26.508 234.355,4.247 	"/>
	<polygon fill="#FF6633" points="243.346,0.286 252.157,0.286 252.157,4.247 247.199,4.247 247.199,11.132 250.766,11.132 
		250.766,15.342 247.199,15.342 247.199,22.547 252.157,22.547 252.157,26.508 243.346,26.508 	"/>
	<path fill="#FF6633" d="M257.329,26.509h-3.032V0.287h3.032c7.136,0.036,7.67,2.854,7.67,13.128
		C264.999,23.654,264.464,26.473,257.329,26.509 M258.149,22.655c2.712,0,2.891-0.678,2.854-9.276
		c0.036-8.562-0.143-9.24-2.854-9.24V22.655z"/>
	<polygon fill="#333333" points="4.326,44.466 1.222,44.466 1.222,43.854 2.239,43.651 2.239,38.156 0.916,38.156 0.662,39.173 
		0,39.173 0,37.342 5.546,37.342 5.546,39.173 4.885,39.173 4.63,38.156 3.307,38.156 3.307,43.651 4.325,43.854 4.325,44.466 	"/>
	<path fill="#333333" d="M7.721,39.702c0.315-0.265,1.028-0.732,1.78-0.732c1.12,0,1.629,0.712,1.629,1.831v2.85l0.763,0.255v0.561
		H9.451v-0.561l0.662-0.244v-2.758c0-0.712-0.224-1.067-0.885-1.067c-0.865,0-1.506,0.813-1.506,0.813v3.002l0.662,0.254v0.561
		H5.839v-0.561l0.865-0.254v-6.208l-0.865-0.202v-0.56l1.882-0.052V39.702z"/>
	<path fill="#333333" d="M13.609,41.921c0,1.119,0.601,1.832,1.476,1.832c1.018,0,1.709-0.561,1.709-0.561l0.356,0.529
		c0,0-0.947,0.845-2.167,0.845c-1.628,0-2.442-1.069-2.442-2.748c0-1.627,1.017-2.849,2.493-2.849c1.476,0,2.137,0.865,2.137,2.391
		c0,0.255-0.051,0.539-0.051,0.539L13.609,41.921z M16.092,41.158c0-0.763-0.295-1.395-1.11-1.395c-0.813,0-1.272,0.632-1.333,1.395
		H16.092z"/>
	<path fill="#333333" d="M20.658,39.936h1.211l0.214-1.577h0.814l-0.214,1.577h1.476l0.214-1.577h0.814l-0.214,1.577h1.129v0.662
		h-1.221l-0.194,1.476h1.16v0.662h-1.251l-0.224,1.73h-0.814l0.224-1.73h-1.476l-0.223,1.73h-0.814l0.224-1.73h-1.088v-0.662h1.18
		l0.194-1.476h-1.119L20.658,39.936L20.658,39.936z M22.398,42.072h1.476l0.193-1.475h-1.475L22.398,42.072z"/>
	<polygon fill="#333333" points="31.653,44.466 27.492,44.466 27.492,43.601 29.059,43.601 29.059,38.513 27.329,39.631 
		26.902,38.898 29.273,37.342 30.127,37.342 30.127,43.601 31.654,43.601 31.654,44.466 	"/>
	<path fill="#333333" d="M35.853,43.447c0,0,0.457,0.274,1.119,0.255c0.743-0.011,1.567-0.366,1.557-1.089
		c-0.031-1.566-3.633-0.887-3.674-3.347c-0.02-1.425,1.14-2.006,2.412-2.027c0.967-0.018,2.147,0.408,2.147,0.408l-0.051,1.729
		h-0.661l-0.346-1.089c0,0-0.519-0.193-1.079-0.183c-0.916,0.01-1.364,0.479-1.353,0.987c0.031,1.547,3.633,0.957,3.664,3.247
		c0.03,1.524-1.231,2.208-2.656,2.238c-1.068,0.01-2.096-0.418-2.096-0.418v-1.781h0.814L35.853,43.447z"/>
	<path fill="#333333" d="M45.537,41.667c0,1.73-1.018,2.901-2.544,2.901s-2.442-0.917-2.442-2.749c0-1.729,1.068-2.849,2.595-2.849
		C44.672,38.97,45.537,40.038,45.537,41.667 M41.619,41.768c0,1.224,0.407,1.985,1.425,1.985s1.424-0.712,1.424-2.034
		c0-1.12-0.355-1.935-1.373-1.935S41.619,40.445,41.619,41.768"/>
	<path fill="#333333" d="M51.375,43.65l0.865,0.203v0.56l-1.679,0.053l-0.102-0.713c-0.245,0.214-1.048,0.815-1.882,0.815
		c-1.12,0-1.628-0.704-1.628-1.823v-2.859l-0.865-0.202v-0.561l1.882-0.051v3.57c0,0.713,0.255,1.06,0.916,1.06
		c0.865,0,1.476-0.805,1.476-0.805v-3.012l-0.865-0.204v-0.56l1.882-0.051V43.65z"/>
	<path fill="#333333" d="M54.607,39.814c0.255-0.285,0.845-0.845,1.536-0.845c0.509,0,0.916,0.152,0.916,0.152l-0.051,1.476h-0.661
		l-0.152-0.762c-0.764,0-1.252,0.498-1.476,0.792v3.022l1.018,0.255v0.561h-2.9v-0.561l0.865-0.255v-3.765l-0.865-0.204v-0.56
		l1.679-0.051L54.607,39.814z"/>
	<path fill="#333333" d="M61.169,40.751l-0.152-0.865c0,0-0.407-0.102-0.916-0.102c-0.967,0-1.526,0.611-1.526,1.883
		c0,1.373,0.61,2.086,1.577,2.086c0.967,0,1.578-0.61,1.578-0.61l0.356,0.61c0,0-0.916,0.815-2.035,0.815
		c-1.679,0-2.544-1.07-2.544-2.799c0-1.628,1.018-2.798,2.646-2.798c0.916,0,1.73,0.406,1.73,0.406l-0.051,1.374L61.169,40.751
		L61.169,40.751z"/>
	<path fill="#333333" d="M63.699,41.921c0,1.119,0.601,1.832,1.476,1.832c1.017,0,1.709-0.561,1.709-0.561l0.356,0.529
		c0,0-0.947,0.845-2.167,0.845c-1.628,0-2.442-1.069-2.442-2.748c0-1.627,1.018-2.849,2.493-2.849c1.476,0,2.137,0.865,2.137,2.391
		c0,0.255-0.051,0.539-0.051,0.539L63.699,41.921z M66.183,41.158c0-0.763-0.295-1.395-1.109-1.395
		c-0.814,0-1.272,0.632-1.333,1.395H66.183z"/>
	<path fill="#333333" d="M71.46,39.122v-0.609c0-1.222,0.662-1.985,1.882-1.985c0.967,0,1.527,0.355,1.527,0.355v1.272h-0.712
		l-0.153-0.815c0,0-0.254-0.05-0.611-0.05c-0.711,0-0.916,0.406-0.916,1.018v0.813h1.343l-0.031,0.764h-1.312v3.765l0.987,0.255
		v0.56h-2.869v-0.56l0.865-0.255v-3.765h-0.916v-0.662L71.46,39.122z"/>
	<path fill="#333333" d="M79.639,41.667c0,1.73-1.018,2.901-2.544,2.901c-1.526,0-2.442-0.917-2.442-2.749
		c0-1.729,1.068-2.849,2.595-2.849C78.775,38.97,79.639,40.038,79.639,41.667 M75.722,41.768c0,1.224,0.407,1.985,1.425,1.985
		s1.424-0.712,1.424-2.034c0-1.12-0.356-1.935-1.373-1.935C76.179,39.784,75.722,40.445,75.722,41.768"/>
	<path fill="#333333" d="M82.16,39.814c0.255-0.285,0.845-0.845,1.536-0.845c0.509,0,0.916,0.152,0.916,0.152l-0.05,1.476h-0.662
		l-0.152-0.762c-0.763,0-1.251,0.498-1.476,0.792v3.022l1.018,0.255v0.561h-2.901v-0.561l0.865-0.255v-3.765l-0.865-0.204v-0.56
		l1.679-0.051L82.16,39.814z"/>
	<polygon fill="#333333" points="90.236,44.466 87.335,44.466 87.335,43.854 88.201,43.651 88.201,38.156 87.335,37.953 
		87.335,37.394 90.236,37.342 90.236,37.952 89.27,38.155 89.27,40.395 92.679,40.395 92.679,38.155 91.712,37.952 91.712,37.393 
		94.613,37.34 94.613,37.951 93.748,38.155 93.748,43.649 94.613,43.853 94.613,44.464 91.712,44.464 91.712,43.853 92.679,43.649 
		92.679,41.208 89.27,41.208 89.27,43.649 90.236,43.853 	"/>
	<path fill="#333333" d="M97.243,43.65l0.763,0.255v0.561h-2.646v-0.561l0.865-0.255v-3.765l-0.865-0.204v-0.56l1.882-0.052V43.65z
		 M96.684,36.68c0.406,0,0.662,0.203,0.662,0.712c0,0.459-0.356,0.712-0.662,0.712c-0.407,0-0.662-0.253-0.662-0.712
		C96.022,36.935,96.327,36.68,96.684,36.68"/>
	<path fill="#333333" d="M100.538,39.122h1.476v0.764h-1.476v3.267c0,0.468,0.223,0.62,0.509,0.62c0.244,0,0.529-0.111,0.793-0.254
		l0.274,0.539c-0.458,0.336-0.916,0.509-1.424,0.509c-0.611,0-1.17-0.336-1.17-1.476v-3.205h-1.017v-0.662l1.017-0.102V37.84
		l1.018-0.203L100.538,39.122L100.538,39.122z"/>
	<path fill="#333333" d="M106.264,43.447c0,0,0.457,0.274,1.119,0.255c0.743-0.011,1.567-0.366,1.557-1.089
		c-0.031-1.566-3.633-0.887-3.674-3.347c-0.02-1.425,1.141-2.006,2.412-2.027c0.967-0.018,2.147,0.408,2.147,0.408l-0.051,1.729
		h-0.661l-0.346-1.089c0,0-0.519-0.193-1.079-0.183c-0.916,0.01-1.364,0.479-1.353,0.987c0.031,1.547,3.633,0.957,3.664,3.247
		c0.03,1.524-1.231,2.208-2.656,2.238c-1.068,0.01-2.096-0.418-2.096-0.418v-1.781h0.814L106.264,43.447z"/>
	<path fill="#333333" d="M115.948,41.667c0,1.73-1.018,2.901-2.544,2.901s-2.442-0.917-2.442-2.749c0-1.729,1.068-2.849,2.595-2.849
		C115.084,38.97,115.948,40.038,115.948,41.667 M112.031,41.768c0,1.224,0.407,1.985,1.425,1.985s1.424-0.712,1.424-2.034
		c0-1.12-0.355-1.935-1.373-1.935C112.488,39.784,112.031,40.445,112.031,41.768"/>
	<path fill="#333333" d="M118.468,39.795c0.244-0.214,1.048-0.824,1.893-0.824c1.119,0,1.628,0.711,1.628,1.831v2.85l0.764,0.254
		v0.561h-2.442v-0.561l0.661-0.254v-2.748c0-0.712-0.254-1.067-0.916-1.067c-0.865,0-1.476,0.813-1.476,0.813v3.002l0.662,0.254
		v0.561h-2.544v-0.561l0.865-0.254v-3.766l-0.865-0.202v-0.561l1.679-0.051L118.468,39.795z"/>
	<path fill="#333333" d="M128.692,39.681l-0.987,0.145c0,0,0.274,0.365,0.274,1.027c0,1.373-0.916,1.984-2.239,1.984
		c-0.458,0-0.763-0.092-0.763-0.092l-0.051,0.957h1.577c1.323,0,2.035,0.508,2.035,1.477c0,1.119-0.865,1.831-2.646,1.831
		c-1.425,0-2.442-0.356-2.442-1.476c0-0.916,1.068-1.271,1.068-1.271s-0.611-0.053-0.611-0.58c0-0.336,0.529-1.149,0.529-1.149
		s-0.783-0.357-0.783-1.578c0-1.323,0.916-1.984,2.239-1.984c0.661,0,1.017,0.194,1.017,0.194l1.781-0.042L128.692,39.681
		L128.692,39.681z M125.131,44.466c0,0-0.662,0.305-0.662,0.915c0,0.711,0.611,0.864,1.577,0.864c1.019,0,1.527-0.306,1.527-0.967
		c0-0.662-0.509-0.815-1.323-0.815h-1.119V44.466z M124.673,40.902c0,0.712,0.355,1.222,1.119,1.222c0.814,0,1.17-0.356,1.17-1.222
		c0-0.763-0.356-1.222-1.119-1.222C125.029,39.681,124.673,40.09,124.673,40.902"/>
	<polygon fill="#333333" points="131.223,39.682 130.46,39.784 131.325,43.55 132.657,39.122 133.624,38.969 134.886,43.55 
		135.7,39.836 134.988,39.682 134.988,39.122 137.277,39.071 137.277,39.682 136.688,39.782 135.446,44.464 134.275,44.464 
		133.309,41.31 133.063,40.332 132.851,41.31 131.883,44.464 130.713,44.464 129.44,39.834 128.932,39.682 128.932,39.121 
		131.222,39.07 131.222,39.682 	"/>
	<path fill="#333333" d="M139.441,39.814c0.254-0.285,0.846-0.845,1.538-0.845c0.507,0,0.915,0.152,0.915,0.152l-0.053,1.476h-0.661
		l-0.152-0.762c-0.764,0-1.252,0.498-1.475,0.792v3.022l1.016,0.255v0.561h-2.899v-0.561l0.865-0.255v-3.765l-0.865-0.204v-0.56
		l1.679-0.051L139.441,39.814z"/>
	<path fill="#333333" d="M144.222,43.65l0.764,0.255v0.561h-2.647v-0.561l0.865-0.255v-3.765l-0.865-0.204v-0.56l1.883-0.052
		L144.222,43.65L144.222,43.65z M143.662,36.68c0.407,0,0.661,0.203,0.661,0.712c0,0.459-0.356,0.712-0.661,0.712
		c-0.408,0-0.662-0.253-0.662-0.712C143,36.935,143.306,36.68,143.662,36.68"/>
	<path fill="#333333" d="M147.516,39.122h1.476v0.764h-1.476v3.267c0,0.468,0.225,0.62,0.509,0.62c0.243,0,0.53-0.111,0.793-0.254
		l0.276,0.539c-0.46,0.336-0.916,0.509-1.425,0.509c-0.61,0-1.17-0.336-1.17-1.476v-3.205h-1.019v-0.662l1.019-0.102V37.84
		l1.016-0.203L147.516,39.122L147.516,39.122z"/>
	<path fill="#333333" d="M151.523,43.65l0.763,0.255v0.561h-2.646v-0.561l0.865-0.255v-3.765l-0.865-0.204v-0.56l1.883-0.052V43.65
		L151.523,43.65z M150.964,36.68c0.407,0,0.662,0.203,0.662,0.712c0,0.459-0.356,0.712-0.662,0.712
		c-0.407,0-0.662-0.253-0.662-0.712C150.302,36.935,150.607,36.68,150.964,36.68"/>
	<path fill="#333333" d="M154.757,39.795c0.245-0.214,1.049-0.824,1.894-0.824c1.119,0,1.627,0.711,1.627,1.831v2.85l0.764,0.254
		v0.561h-2.442v-0.561l0.661-0.254v-2.748c0-0.712-0.254-1.067-0.915-1.067c-0.865,0-1.476,0.813-1.476,0.813v3.002l0.661,0.254
		v0.561h-2.544v-0.561l0.865-0.254v-3.766l-0.865-0.202v-0.561l1.679-0.051L154.757,39.795z"/>
	<path fill="#333333" d="M164.981,39.681l-0.987,0.145c0,0,0.273,0.365,0.273,1.027c0,1.373-0.915,1.984-2.238,1.984
		c-0.458,0-0.764-0.092-0.764-0.092l-0.052,0.957h1.579c1.323,0,2.034,0.508,2.034,1.477c0,1.119-0.864,1.831-2.646,1.831
		c-1.424,0-2.442-0.356-2.442-1.476c0-0.916,1.069-1.271,1.069-1.271s-0.609-0.053-0.609-0.58c0-0.336,0.528-1.149,0.528-1.149
		s-0.783-0.357-0.783-1.578c0-1.323,0.915-1.984,2.238-1.984c0.661,0,1.019,0.194,1.019,0.194l1.78-0.042L164.981,39.681
		L164.981,39.681z M161.418,44.466c0,0-0.659,0.305-0.659,0.915c0,0.711,0.61,0.864,1.575,0.864c1.02,0,1.527-0.306,1.527-0.967
		c0-0.662-0.508-0.815-1.322-0.815h-1.121V44.466z M160.962,40.902c0,0.712,0.355,1.222,1.119,1.222c0.812,0,1.17-0.356,1.17-1.222
		c0-0.763-0.357-1.222-1.119-1.222C161.317,39.681,160.962,40.09,160.962,40.902"/>
	<path fill="#333333" d="M167.5,43.854l0.836-0.193l2.317-6.268l1.019-0.052l2.26,6.319l0.844,0.193v0.611h-2.951v-0.611
		l0.947-0.193l-0.387-1.13h-2.646l-0.397,1.13l0.957,0.193v0.611H167.5V43.854z M170.015,41.717h2.096l-1.027-3.062L170.015,41.717z
		"/>
	<path fill="#333333" d="M176.938,39.795c0.245-0.214,1.05-0.824,1.894-0.824c1.12,0,1.629,0.711,1.629,1.831v2.85l0.763,0.254
		v0.561h-2.441v-0.561l0.66-0.254v-2.748c0-0.712-0.255-1.067-0.914-1.067c-0.866,0-1.476,0.813-1.476,0.813v3.002l0.66,0.254v0.561
		h-2.544v-0.561l0.865-0.254v-3.766l-0.865-0.202v-0.561l1.679-0.051L176.938,39.795z"/>
	<path fill="#333333" d="M184.211,38.97c1.182,0,1.883,0.406,1.883,1.577v3.104l0.814,0.203v0.56l-1.578,0.053l-0.214-0.713
		c-0.346,0.347-0.955,0.815-1.668,0.815c-0.967,0-1.525-0.561-1.525-1.527c0-1.17,0.916-1.578,2.341-1.578h0.813v-0.813
		c0-0.61-0.355-0.916-0.967-0.916c-0.61,0-1.028,0.152-1.028,0.152l-0.143,0.764h-0.661l-0.051-1.272
		C182.229,39.376,183.348,38.97,184.211,38.97 M184.364,42.124c-1.017,0-1.405,0.255-1.405,0.865c0,0.458,0.286,0.763,0.744,0.763
		c0.763,0,1.373-0.814,1.373-0.814v-0.813H184.364z"/>
	<polygon fill="#333333" points="189.308,43.65 190.325,43.905 190.325,44.466 187.404,44.466 187.404,43.905 188.27,43.65 
		188.27,37.443 187.404,37.239 187.404,36.68 189.308,36.629 	"/>
	<path fill="#333333" d="M192.806,39.682l-0.713,0.103l1.223,3.561l1.119-3.51l-0.711-0.153v-0.561l2.411-0.051v0.609l-0.661,0.102
		l-1.445,4.03c-0.539,1.415-1.068,3.095-2.747,3.095c-0.255,0-0.651-0.053-0.651-0.053l0.091-0.711h0.509
		c0.712,0,1.17-0.673,1.618-1.659l-1.821-4.651l-0.61-0.152v-0.561l2.392-0.05v0.612H192.806z"/>
	<path fill="#333333" d="M197.301,42.837l0.112,0.875c0,0,0.407,0.112,0.895,0.091c0.611-0.02,1.14-0.193,1.119-0.802
		c-0.04-1.12-2.808-0.592-2.839-2.424c-0.021-1.068,0.784-1.587,1.863-1.607c0.803-0.011,1.739,0.307,1.739,0.307l-0.03,1.372
		h-0.661l-0.164-0.794c0,0-0.417-0.142-0.875-0.121c-0.468,0.019-0.876,0.162-0.855,0.681c0.042,1.109,2.81,0.661,2.84,2.392
		c0.019,1.169-0.978,1.719-2.147,1.76c-0.865,0.04-1.699-0.224-1.699-0.224l-0.01-1.507h0.713V42.837z"/>
	<path fill="#333333" d="M203.14,43.65l0.763,0.255v0.561h-2.646v-0.561l0.865-0.255v-3.765l-0.865-0.204v-0.56l1.883-0.052
		L203.14,43.65L203.14,43.65z M202.58,36.68c0.407,0,0.661,0.203,0.661,0.712c0,0.459-0.356,0.712-0.661,0.712
		c-0.408,0-0.662-0.253-0.662-0.712C201.918,36.935,202.224,36.68,202.58,36.68"/>
	<path fill="#333333" d="M205.376,42.837l0.112,0.875c0,0,0.407,0.112,0.895,0.091c0.611-0.02,1.14-0.193,1.119-0.802
		c-0.04-1.12-2.807-0.592-2.839-2.424c-0.021-1.068,0.784-1.587,1.863-1.607c0.803-0.011,1.739,0.307,1.739,0.307l-0.029,1.372
		h-0.662l-0.165-0.794c0,0-0.416-0.142-0.874-0.121c-0.469,0.019-0.876,0.162-0.854,0.681c0.041,1.109,2.808,0.661,2.839,2.392
		c0.019,1.169-0.977,1.719-2.147,1.76c-0.865,0.04-1.699-0.224-1.699-0.224l-0.01-1.507h0.713V42.837z"/>
	<path fill="#333333" d="M213.95,38.97c1.182,0,1.884,0.406,1.884,1.577v3.104l0.812,0.203v0.56l-1.576,0.053l-0.214-0.713
		c-0.347,0.347-0.956,0.815-1.669,0.815c-0.966,0-1.525-0.561-1.525-1.527c0-1.17,0.916-1.578,2.341-1.578h0.813v-0.813
		c0-0.61-0.356-0.916-0.966-0.916c-0.61,0-1.029,0.152-1.029,0.152l-0.142,0.764h-0.662l-0.05-1.272
		C211.968,39.376,213.087,38.97,213.95,38.97 M214.104,42.124c-1.018,0-1.405,0.255-1.405,0.865c0,0.458,0.286,0.763,0.743,0.763
		c0.763,0,1.374-0.814,1.374-0.814v-0.813H214.104z"/>
	<path fill="#333333" d="M219.066,39.795c0.243-0.214,1.047-0.824,1.892-0.824c1.12,0,1.63,0.711,1.63,1.831v2.85l0.763,0.254v0.561
		h-2.442v-0.561l0.661-0.254v-2.748c0-0.712-0.255-1.067-0.915-1.067c-0.866,0-1.478,0.813-1.478,0.813v3.002l0.662,0.254v0.561
		h-2.543v-0.561l0.864-0.254v-3.766l-0.864-0.202v-0.561l1.68-0.051L219.066,39.795z"/>
	<path fill="#333333" d="M228.729,43.65l0.863,0.203v0.56l-1.729,0.053l-0.082-0.581c-0.295,0.296-0.823,0.682-1.597,0.682
		c-1.477,0-2.137-1.069-2.137-2.646c0-1.729,0.865-2.95,2.696-2.95c0.376,0,0.702,0.071,0.968,0.162v-1.688l-0.865-0.204v-0.56
		l1.882-0.051V43.65z M227.713,39.988c0,0-0.356-0.204-1.069-0.204c-1.181,0-1.526,0.917-1.526,2.035
		c0,1.119,0.356,1.934,1.271,1.934c0.865,0,1.324-0.763,1.324-0.763V39.988z"/>
	<polygon fill="#333333" points="236.49,44.466 233.387,44.466 233.387,43.854 234.403,43.651 234.403,38.156 233.08,38.156 
		232.826,39.173 232.165,39.173 232.165,37.342 237.711,37.342 237.711,39.173 237.05,39.173 236.795,38.156 235.472,38.156 
		235.472,43.651 236.489,43.854 236.489,44.466 	"/>
	<path fill="#333333" d="M239.927,39.814c0.254-0.285,0.846-0.845,1.537-0.845c0.508,0,0.915,0.152,0.915,0.152l-0.052,1.476h-0.661
		l-0.152-0.762c-0.764,0-1.252,0.498-1.476,0.792v3.022l1.016,0.255v0.561h-2.898v-0.561l0.864-0.255v-3.765l-0.864-0.204v-0.56
		l1.679-0.051L239.927,39.814z"/>
	<path fill="#333333" d="M243.893,41.921c0,1.119,0.603,1.832,1.477,1.832c1.017,0,1.709-0.561,1.709-0.561l0.355,0.529
		c0,0-0.945,0.845-2.168,0.845c-1.628,0-2.441-1.069-2.441-2.748c0-1.627,1.018-2.849,2.493-2.849c1.477,0,2.137,0.865,2.137,2.391
		c0,0.255-0.052,0.539-0.052,0.539L243.893,41.921z M246.375,41.158c0-0.763-0.295-1.395-1.109-1.395
		c-0.813,0-1.271,0.632-1.332,1.395H246.375z"/>
	<path fill="#333333" d="M249.924,39.795c0.244-0.214,1.048-0.824,1.892-0.824c1.121,0,1.63,0.711,1.63,1.831v2.85l0.764,0.254
		v0.561h-2.442v-0.561l0.66-0.254v-2.748c0-0.712-0.255-1.067-0.915-1.067c-0.865,0-1.478,0.813-1.478,0.813v3.002l0.662,0.254
		v0.561h-2.543v-0.561l0.864-0.254v-3.766l-0.864-0.202v-0.561l1.68-0.051L249.924,39.795z"/>
	<path fill="#333333" d="M259.587,43.65l0.864,0.203v0.56l-1.729,0.053l-0.082-0.581c-0.295,0.296-0.823,0.682-1.597,0.682
		c-1.477,0-2.137-1.069-2.137-2.646c0-1.729,0.865-2.95,2.696-2.95c0.377,0,0.703,0.071,0.967,0.162v-1.688l-0.864-0.204v-0.56
		l1.882-0.051V43.65z M258.569,39.988c0,0-0.354-0.204-1.068-0.204c-1.18,0-1.526,0.917-1.526,2.035
		c0,1.119,0.356,1.934,1.272,1.934c0.865,0,1.322-0.763,1.322-0.763V39.988z"/>
	<path fill="#333333" d="M261.823,42.837l0.112,0.875c0,0,0.407,0.112,0.895,0.091c0.61-0.02,1.14-0.193,1.119-0.802
		c-0.04-1.12-2.808-0.592-2.839-2.424c-0.021-1.068,0.784-1.587,1.863-1.607c0.803-0.011,1.739,0.307,1.739,0.307l-0.03,1.372
		h-0.661l-0.164-0.794c0,0-0.417-0.142-0.874-0.121c-0.469,0.019-0.876,0.162-0.854,0.681c0.041,1.109,2.808,0.661,2.839,2.392
		c0.019,1.169-0.977,1.719-2.147,1.76c-0.865,0.04-1.699-0.224-1.699-0.224l-0.011-1.507h0.713V42.837z"/>
</g>
</svg>
