<?xml version="1.0" encoding="utf-8"?>
<!-- Generator: Adobe Illustrator 15.1.0, SVG Export Plug-In . SVG Version: 6.00 Build 0)  -->
<!DOCTYPE svg PUBLIC "-//W3C//DTD SVG 1.1//EN" "http://www.w3.org/Graphics/SVG/1.1/DTD/svg11.dtd">
<svg version="1.1" id="Layer_1" xmlns="http://www.w3.org/2000/svg" xmlns:xlink="http://www.w3.org/1999/xlink" x="0px" y="0px"
	 width="56px" height="76.04px" viewBox="0 0 56 76.04" enable-background="new 0 0 56 76.04" xml:space="preserve">
<path fill="#FF6633" d="M55.072,44.193v3.285H55.04c-0.159,6.913-2.881,13.416-7.746,18.362c-0.715,0.726-1.467,1.395-2.244,2.022
	c0.542-0.464,1.077-0.938,1.587-1.455c4.847-4.928,7.513-11.442,7.513-18.35c0-0.098-0.011-0.194-0.015-0.293
	c0.004-0.097,0.015-0.19,0.015-0.287V36.803c0-0.508-0.917-0.508-0.917,0v10.676h-0.033c-0.154,6.427-2.69,12.473-7.217,17.074
	c-0.673,0.681-1.377,1.309-2.107,1.897c0.496-0.426,0.984-0.859,1.452-1.33c4.503-4.58,6.985-10.641,6.985-17.062
	c0-0.098-0.014-0.194-0.017-0.293c0.001-0.097,0.017-0.191,0.017-0.287v-6.996c0-0.509-0.92-0.509-0.92,0v6.996h-0.029
	c-0.158,5.941-2.504,11.527-6.692,15.786c-0.625,0.638-1.287,1.218-1.967,1.769c0.444-0.386,0.893-0.774,1.312-1.199
	c4.165-4.239,6.458-9.839,6.458-15.774c0-0.098-0.014-0.195-0.014-0.293c0.003-0.095,0.014-0.188,0.014-0.285V29.056
	c0-0.508-0.918-0.508-0.918,0v18.422h-0.032c-0.156,5.458-2.319,10.585-6.163,14.497c-0.583,0.592-1.203,1.134-1.832,1.646
	c0.396-0.347,0.799-0.695,1.176-1.079c3.826-3.889,5.933-9.032,5.933-14.485c0-0.098-0.016-0.196-0.016-0.294
	c0.004-0.094,0.016-0.188,0.016-0.284V19.102c0-0.508-0.92-0.508-0.92,0v28.375h-0.032c-0.155,4.971-2.128,9.643-5.637,13.208
	c-0.533,0.538-1.089,1.033-1.664,1.498c0.343-0.304,0.686-0.603,1.007-0.931c3.485-3.545,5.408-8.23,5.408-13.196
	c0-0.099-0.016-0.197-0.016-0.298c0-0.093,0.012-0.187,0.012-0.28V22.443c0-0.508-0.917-0.508-0.917,0v25.035h-0.032
	c-0.153,4.486-1.94,8.701-5.11,11.918c-0.482,0.492-0.993,0.942-1.522,1.37c0.294-0.259,0.591-0.518,0.872-0.801
	c3.143-3.197,4.875-7.424,4.875-11.906c0-0.098-0.015-0.197-0.015-0.295c0.003-0.095,0.015-0.188,0.015-0.285V19.102v-2.013
	c0-0.508-0.917-0.508-0.917,0v2.013v28.375h-0.031c-0.153,4-1.755,7.757-4.58,10.629c-0.441,0.448-0.909,0.856-1.391,1.245
	c0.251-0.221,0.5-0.437,0.735-0.678c2.805-2.852,4.351-6.623,4.351-10.618c0-0.098-0.013-0.195-0.017-0.293
	c0.004-0.094,0.017-0.188,0.017-0.284v-0.001V19.102v-4.318c0-0.509-0.92-0.509-0.92,0v4.318v28.375h-0.029
	c-0.155,3.516-1.569,6.815-4.057,9.341c-0.397,0.406-0.82,0.773-1.258,1.127c0.204-0.184,0.414-0.363,0.604-0.559
	c2.465-2.505,3.822-5.819,3.822-9.33c0-0.098-0.014-0.195-0.014-0.294c0-0.095,0.014-0.188,0.014-0.285V19.102V14.14v-3.545
	c0-0.509-0.917-0.509-0.917,0v3.545v4.962v28.375h-0.035c-0.149,3.028-1.378,5.87-3.521,8.052c-0.357,0.365-0.74,0.693-1.132,1.006
	c0.159-0.146,0.324-0.284,0.477-0.439c2.123-2.158,3.29-5.014,3.29-8.039c0-0.098-0.012-0.196-0.013-0.295
	c0.003-0.094,0.013-0.188,0.013-0.284v-3.345v-6.5V19.102V14.14v-0.762c0-0.507-0.918-0.507-0.918,0v0.762v4.962v18.53v6.5v3.345
	h-0.068c-0.149,2.543-1.155,4.933-2.96,6.765c-1.973,2.004-4.61,3.12-7.424,3.143c-2.814,0.023-5.472-1.055-7.479-3.031
	c-1.833-1.806-2.915-4.163-3.104-6.704c0.001-0.06,0.019-0.114,0.022-0.172h-0.062V19.102V14.14v-0.762c0-0.507-0.918-0.507-0.918,0
	v0.762v4.962v28.376c0,0.093,0.012,0.184,0.015,0.276c-0.001,0.101-0.015,0.2-0.015,0.301v0.001c0,3.096,1.216,5.993,3.421,8.162
	c0.132,0.131,0.276,0.244,0.411,0.37c-0.365-0.289-0.722-0.593-1.06-0.925c-2.231-2.194-3.507-5.083-3.66-8.187H15.62V19.102V14.14
	v-3.545c0-0.509-0.918-0.509-0.918,0v3.545v4.962v28.376c0,0.093,0.012,0.187,0.015,0.277c-0.002,0.101-0.015,0.199-0.015,0.3v0.001
	c0,3.593,1.41,6.956,3.97,9.472c0.173,0.173,0.361,0.328,0.544,0.489c-0.411-0.328-0.812-0.67-1.191-1.043
	c-2.586-2.543-4.054-5.896-4.212-9.497h-0.031V19.102v-3.884c0-0.506-0.917-0.506-0.917,0v3.884v28.375v0.01
	c0.001,0.088,0.01,0.175,0.013,0.264c-0.002,0.103-0.015,0.203-0.015,0.305c0,4.088,1.602,7.916,4.517,10.782
	c0.22,0.215,0.453,0.408,0.683,0.61c-0.456-0.364-0.901-0.747-1.325-1.162c-2.94-2.895-4.602-6.713-4.76-10.809H11.94V19.102v-2.028
	c0-0.508-0.918-0.508-0.918,0v2.028v28.376c0,0.1,0.013,0.198,0.013,0.298c-0.002,0.092-0.013,0.186-0.013,0.279v0.001
	c0,4.584,1.799,8.878,5.069,12.093c0.262,0.26,0.543,0.493,0.82,0.731c-0.508-0.399-0.999-0.824-1.465-1.284
	c-3.295-3.24-5.153-7.524-5.311-12.118h-0.03V22.146c0-0.509-0.918-0.509-0.918,0v25.332v0.001c0,0.094,0.011,0.186,0.014,0.279
	c-0.003,0.1-0.014,0.197-0.014,0.298c0,5.08,1.994,9.841,5.615,13.402c0.31,0.306,0.639,0.582,0.966,0.862
	c-0.555-0.44-1.097-0.906-1.612-1.415c-3.645-3.588-5.697-8.338-5.854-13.428H8.266V19.102v-0.021c0-0.507-0.918-0.507-0.918,0
	v0.021v28.375c0,0.094,0.013,0.188,0.015,0.28c-0.001,0.1-0.015,0.197-0.015,0.298c0,5.577,2.188,10.802,6.163,14.713
	c0.36,0.354,0.74,0.673,1.118,0.994c-0.607-0.48-1.198-0.993-1.761-1.547c-3.999-3.938-6.246-9.153-6.407-14.738H6.43V29.209
	c0-0.508-0.918-0.508-0.918,0v18.27v0.002c0,0.095,0.013,0.188,0.013,0.279c-0.004,0.101-0.013,0.199-0.013,0.297
	c0,6.074,2.384,11.764,6.711,16.023c0.405,0.4,0.833,0.759,1.261,1.12c-0.657-0.521-1.297-1.072-1.905-1.673
	c-4.355-4.287-6.797-9.966-6.954-16.049H4.593v-6.996c0-0.509-0.918-0.468-0.918,0.04v6.958c0,0.094,0.013,0.188,0.014,0.279
	c0,0.1-0.014,0.195-0.014,0.297v0.002c0,6.567,2.58,12.725,7.263,17.333c0.449,0.442,0.926,0.846,1.402,1.247
	c-0.708-0.56-1.393-1.155-2.049-1.8C5.584,60.205,2.947,54.061,2.787,47.48h-0.03V36.817c0-0.51-0.921-0.51-0.921,0v10.667
	c0,0.095,0.012,0.186,0.015,0.279c0,0.098-0.015,0.198-0.015,0.296v0.001c0,7.068,2.775,13.688,7.812,18.645
	c0.496,0.487,1.017,0.929,1.54,1.371c-0.75-0.599-1.484-1.235-2.184-1.925C3.94,61.169,1.109,54.557,0.951,47.481H0.917v-3.316
	c0-0.509-0.917-0.509-0.917,0v3.318c0,0.093,0.012,0.186,0.012,0.279C0.012,47.859,0,47.955,0,48.056
	c0,7.564,2.967,14.651,8.356,19.955c11.005,10.827,28.765,10.687,39.593-0.314c5.185-5.271,8.041-12.243,8.041-19.634
	c0-0.098-0.015-0.195-0.015-0.296c0-0.095,0.015-0.191,0.015-0.288v-3.285C55.99,43.685,55.072,43.685,55.072,44.193 M33.101,74.019
	c-0.076,0.014-0.15,0.028-0.224,0.041c-6.311,1.145-12.949,0.035-18.636-3.316c-0.131-0.145-0.186-0.347-0.082-0.521
	c0.125-0.22,0.411-0.297,0.625-0.167c0.282,0.164,0.579,0.293,0.861,0.445c0.207,0.111,0.417,0.218,0.627,0.324
	c0.565,0.283,1.136,0.547,1.717,0.785c0.204,0.084,0.415,0.165,0.624,0.245c0.59,0.226,1.185,0.437,1.788,0.618
	c0.207,0.062,0.416,0.115,0.621,0.171c0.612,0.169,1.225,0.323,1.845,0.446c0.211,0.04,0.428,0.07,0.643,0.108
	c0.611,0.104,1.225,0.2,1.844,0.262c0.245,0.025,0.49,0.032,0.737,0.052c0.585,0.041,1.17,0.08,1.758,0.082
	c0.05,0,0.094,0.007,0.144,0.007c0.648,0,1.295-0.027,1.944-0.076c0.245-0.019,0.489-0.054,0.733-0.079
	c0.544-0.056,1.091-0.127,1.632-0.219c0.263-0.046,0.529-0.089,0.79-0.143c0.755-0.149,1.503-0.319,2.242-0.536
	c0.133-0.036,0.26-0.079,0.396-0.119c0.669-0.206,1.332-0.438,1.986-0.701c0.092-0.036,0.186-0.065,0.278-0.104
	c0.646-0.27,1.284-0.573,1.912-0.896c0.277-0.141,0.55-0.289,0.821-0.442c0.139-0.077,0.278-0.146,0.417-0.225
	c0.213-0.131,0.496-0.055,0.629,0.166c0.115,0.202,0.046,0.448-0.136,0.586c-0.13,0.076-0.26,0.162-0.394,0.235
	c-0.292,0.166-0.587,0.328-0.888,0.479c-0.562,0.29-1.132,0.561-1.708,0.81c-0.132,0.057-0.264,0.116-0.4,0.172
	c-0.697,0.286-1.407,0.532-2.123,0.76c-0.144,0.047-0.293,0.09-0.441,0.134C34.834,73.65,33.969,73.854,33.101,74.019
	 M15.084,68.633c0.128-0.221,0.411-0.294,0.627-0.164c0.204,0.119,0.425,0.2,0.634,0.312c0.457,0.252,0.926,0.476,1.394,0.693
	c0.391,0.184,0.777,0.38,1.177,0.541c0.769,0.307,1.55,0.57,2.341,0.795c0.45,0.128,0.9,0.225,1.353,0.328
	c0.456,0.102,0.914,0.195,1.373,0.271c0.463,0.077,0.925,0.148,1.393,0.199c0.535,0.058,1.071,0.083,1.607,0.104
	c0.337,0.014,0.67,0.048,1.007,0.048c0.285,0,0.569-0.032,0.85-0.041c0.609-0.022,1.216-0.054,1.826-0.119
	c0.396-0.044,0.783-0.108,1.174-0.172c0.595-0.095,1.185-0.212,1.774-0.351c0.326-0.079,0.651-0.148,0.973-0.24
	c0.916-0.257,1.823-0.551,2.707-0.92c0.011-0.003,0.022-0.009,0.03-0.014c0.912-0.378,1.798-0.827,2.667-1.324
	c0.073-0.042,0.15-0.068,0.222-0.11c0.222-0.13,0.502-0.055,0.628,0.166c0.118,0.202,0.052,0.452-0.136,0.591
	c-0.123,0.07-0.241,0.149-0.366,0.221c-0.275,0.152-0.547,0.3-0.824,0.442c-0.521,0.267-1.046,0.517-1.579,0.747
	c-0.127,0.055-0.256,0.114-0.382,0.166c-0.651,0.265-1.311,0.495-1.971,0.707c-0.145,0.045-0.288,0.085-0.429,0.128
	c-0.798,0.234-1.604,0.425-2.417,0.577c-0.066,0.015-0.131,0.026-0.202,0.037c-5.882,1.067-12.071,0.035-17.365-3.094
	C15.038,69.016,14.98,68.812,15.084,68.633 M16.009,67.046c0.129-0.22,0.409-0.293,0.627-0.165c0.203,0.116,0.416,0.197,0.621,0.307
	c0.396,0.216,0.798,0.409,1.199,0.599c0.429,0.199,0.854,0.402,1.29,0.574c0.659,0.258,1.33,0.488,2.009,0.681
	c0.424,0.122,0.852,0.216,1.281,0.311c0.413,0.093,0.824,0.177,1.24,0.248c0.433,0.07,0.868,0.138,1.307,0.185
	c0.479,0.052,0.964,0.074,1.45,0.095c0.321,0.014,0.642,0.044,0.961,0.044c0.263,0,0.524-0.028,0.792-0.037
	c0.558-0.021,1.123-0.048,1.681-0.109c0.361-0.041,0.719-0.1,1.075-0.157c0.56-0.09,1.113-0.196,1.664-0.33
	c0.291-0.07,0.588-0.133,0.878-0.216c1.738-0.484,3.422-1.189,5.024-2.1c0.059-0.034,0.124-0.058,0.184-0.091
	c0.221-0.132,0.5-0.056,0.627,0.164c0.121,0.206,0.051,0.459-0.138,0.596c-0.067,0.037-0.131,0.079-0.196,0.115
	c-1.66,0.951-3.412,1.674-5.213,2.186c-0.303,0.086-0.607,0.155-0.912,0.23c-0.579,0.138-1.16,0.25-1.745,0.345
	c-0.357,0.058-0.713,0.12-1.07,0.163c-0.722,0.083-1.447,0.126-2.172,0.141c-0.505,0.011-1.006-0.009-1.508-0.029
	c-0.467-0.021-0.934-0.044-1.398-0.092c-0.466-0.049-0.927-0.114-1.393-0.19c-0.421-0.068-0.841-0.156-1.259-0.25
	c-0.458-0.101-0.914-0.191-1.368-0.319c-0.751-0.215-1.49-0.467-2.223-0.757c-0.424-0.17-0.838-0.375-1.258-0.571
	c-0.406-0.19-0.811-0.385-1.211-0.602c-0.256-0.139-0.503-0.29-0.757-0.438C15.961,67.431,15.904,67.227,16.009,67.046 M16.94,65.46
	c0.13-0.22,0.408-0.296,0.628-0.165c0.137,0.08,0.284,0.134,0.422,0.21c0.523,0.291,1.061,0.556,1.602,0.797
	c0.185,0.081,0.363,0.181,0.547,0.256c0.723,0.297,1.462,0.54,2.205,0.749c0.263,0.076,0.532,0.134,0.796,0.196
	c0.535,0.129,1.072,0.236,1.612,0.321c0.284,0.045,0.569,0.092,0.858,0.126c0.667,0.075,1.337,0.119,2.007,0.13
	c0.123,0.002,0.249,0.018,0.37,0.018h0.052h0.118c0.784-0.006,1.555-0.067,2.317-0.158c0.188-0.023,0.372-0.059,0.556-0.087
	c0.676-0.101,1.353-0.23,2.021-0.4c0.149-0.037,0.3-0.073,0.445-0.113c1.695-0.466,3.315-1.143,4.833-2.025
	c0.014-0.006,0.022-0.011,0.033-0.017c0.221-0.132,0.5-0.056,0.629,0.164c0.122,0.21,0.049,0.469-0.146,0.604
	c-0.052,0.028-0.1,0.061-0.152,0.09c-1.543,0.886-3.17,1.558-4.845,2.031c-0.262,0.075-0.529,0.136-0.795,0.2
	c-0.552,0.135-1.107,0.24-1.667,0.33c-0.312,0.051-0.625,0.107-0.94,0.145c-0.709,0.082-1.423,0.127-2.14,0.14
	c-0.408,0.004-0.819-0.018-1.229-0.035c-0.448-0.021-0.892-0.041-1.338-0.087c-0.419-0.044-0.836-0.104-1.254-0.173
	c-0.401-0.064-0.799-0.148-1.198-0.235c-0.412-0.091-0.824-0.174-1.228-0.29c-0.697-0.198-1.384-0.432-2.062-0.703
	c-0.386-0.149-0.755-0.336-1.132-0.513c-0.385-0.179-0.771-0.365-1.148-0.568c-0.23-0.127-0.454-0.263-0.683-0.396
	C16.896,65.854,16.833,65.643,16.94,65.46 M17.863,63.87c0.128-0.22,0.406-0.295,0.628-0.166c0.129,0.076,0.265,0.126,0.395,0.196
	c0.471,0.259,0.947,0.497,1.432,0.712c0.174,0.079,0.344,0.172,0.52,0.244c0.66,0.269,1.335,0.491,2.012,0.685
	c0.234,0.066,0.464,0.115,0.696,0.172c0.504,0.12,1.009,0.221,1.514,0.301c0.249,0.039,0.489,0.079,0.738,0.108
	c0.644,0.074,1.294,0.119,1.942,0.127c0.085,0.002,0.167,0.011,0.248,0.011h0.004h0.152c0.718-0.005,1.428-0.062,2.127-0.146
	c0.146-0.018,0.285-0.046,0.425-0.067c0.648-0.094,1.295-0.216,1.931-0.379c0.113-0.03,0.23-0.058,0.343-0.09
	c1.562-0.427,3.053-1.049,4.453-1.861h0.001c0.219-0.131,0.502-0.055,0.627,0.165c0.128,0.219,0.055,0.497-0.164,0.626
	c0,0-0.005,0.004-0.006,0.004c-1.483,0.86-3.05,1.504-4.661,1.948c-0.121,0.034-0.247,0.064-0.369,0.096
	c-0.663,0.171-1.335,0.298-2.01,0.398c-0.151,0.022-0.303,0.054-0.457,0.072c-0.79,0.098-1.584,0.152-2.377,0.154h-0.02
	c-0.085,0-0.166-0.01-0.248-0.011c-0.684-0.01-1.365-0.055-2.041-0.134c-0.26-0.029-0.52-0.074-0.779-0.114
	c-0.53-0.083-1.057-0.188-1.582-0.314c-0.247-0.059-0.494-0.113-0.739-0.182c-0.712-0.203-1.42-0.436-2.11-0.719
	c-0.181-0.075-0.356-0.17-0.54-0.25c-0.513-0.229-1.015-0.479-1.513-0.754c-0.157-0.087-0.31-0.182-0.465-0.275
	C17.816,64.284,17.754,64.062,17.863,63.87 M18.789,62.284c0.127-0.222,0.405-0.296,0.627-0.165c0.125,0.072,0.259,0.122,0.383,0.19
	c0.393,0.215,0.789,0.408,1.188,0.59c0.191,0.086,0.371,0.188,0.56,0.264c0.591,0.239,1.187,0.438,1.794,0.607
	c0.218,0.063,0.437,0.11,0.658,0.163c0.444,0.107,0.891,0.197,1.339,0.267c0.227,0.035,0.451,0.074,0.682,0.1
	c0.579,0.066,1.166,0.108,1.75,0.113c0.076,0,0.148,0.011,0.22,0.011h0.009c0.042,0,0.086,0,0.132-0.001
	c0.65-0.006,1.291-0.057,1.927-0.133c0.125-0.018,0.248-0.04,0.373-0.058c0.589-0.087,1.181-0.201,1.757-0.35
	c0.1-0.025,0.2-0.049,0.294-0.077c1.412-0.387,2.762-0.947,4.025-1.684l0.005-0.003c0.22-0.131,0.502-0.055,0.628,0.165
	c0.13,0.218,0.055,0.496-0.164,0.627c-0.003,0.002-0.007,0.007-0.013,0.009c-1.342,0.778-2.763,1.363-4.219,1.767
	c-0.118,0.032-0.232,0.06-0.351,0.091c-0.592,0.151-1.194,0.267-1.794,0.355c-0.149,0.023-0.298,0.051-0.445,0.07
	c-0.71,0.087-1.421,0.136-2.134,0.139h-0.031c-0.104,0-0.204-0.014-0.31-0.016c-0.587-0.009-1.17-0.047-1.751-0.114
	c-0.252-0.029-0.502-0.069-0.754-0.109c-0.46-0.071-0.917-0.163-1.375-0.273c-0.237-0.056-0.478-0.109-0.713-0.177
	c-0.636-0.181-1.268-0.388-1.886-0.641c-0.193-0.079-0.375-0.178-0.567-0.265c-0.433-0.196-0.863-0.406-1.286-0.639
	c-0.15-0.086-0.297-0.177-0.446-0.267C18.745,62.7,18.678,62.476,18.789,62.284 M19.714,60.698c0.127-0.222,0.409-0.295,0.629-0.165
	c0.122,0.068,0.248,0.116,0.37,0.184c0.313,0.171,0.636,0.328,0.959,0.475c0.228,0.104,0.454,0.216,0.684,0.311
	c0.482,0.193,0.97,0.357,1.465,0.499c0.217,0.062,0.437,0.108,0.654,0.161c0.371,0.087,0.743,0.162,1.117,0.221
	c0.222,0.036,0.442,0.073,0.662,0.098c0.488,0.057,0.975,0.089,1.462,0.097c0.094,0.001,0.184,0.012,0.277,0.012h0.029h0.093
	c0.579-0.004,1.147-0.051,1.713-0.118c0.119-0.015,0.237-0.038,0.355-0.056c0.523-0.078,1.045-0.177,1.559-0.311
	c0.085-0.021,0.171-0.042,0.253-0.067c1.267-0.344,2.476-0.85,3.607-1.509c0.214-0.122,0.491-0.053,0.621,0.165
	c0.129,0.22,0.055,0.5-0.163,0.63c-1.212,0.706-2.492,1.232-3.809,1.599c-0.096,0.025-0.199,0.051-0.296,0.075
	c-0.539,0.138-1.085,0.243-1.632,0.325c-0.13,0.019-0.256,0.042-0.384,0.059c-0.626,0.077-1.254,0.118-1.882,0.122
	c-0.146,0.001-0.288-0.014-0.438-0.016c-0.5-0.011-1.002-0.04-1.501-0.098c-0.181-0.023-0.361-0.049-0.54-0.075
	c-0.492-0.075-0.981-0.172-1.471-0.292c-0.141-0.035-0.287-0.064-0.43-0.103c-0.602-0.168-1.199-0.37-1.785-0.609
	c-0.149-0.059-0.288-0.137-0.436-0.202c-0.408-0.182-0.813-0.383-1.211-0.603c-0.139-0.076-0.273-0.16-0.409-0.242
	C19.67,61.121,19.603,60.892,19.714,60.698 M20.642,59.107c0.129-0.221,0.414-0.295,0.629-0.165c0.109,0.063,0.23,0.108,0.34,0.168
	c0.254,0.14,0.513,0.266,0.773,0.386c0.25,0.115,0.495,0.231,0.75,0.329c0.386,0.151,0.778,0.286,1.171,0.4
	c0.208,0.06,0.414,0.104,0.623,0.153c0.307,0.071,0.612,0.136,0.921,0.183c0.208,0.034,0.417,0.069,0.625,0.092
	c0.396,0.045,0.792,0.068,1.188,0.078c0.113,0.003,0.218,0.018,0.331,0.018h0.026h0.081c0.502-0.003,0.999-0.043,1.489-0.102
	c0.108-0.016,0.215-0.034,0.319-0.05c0.458-0.068,0.912-0.155,1.364-0.271c0.072-0.019,0.149-0.037,0.224-0.058
	c1.11-0.301,2.173-0.744,3.17-1.322c0.216-0.12,0.489-0.05,0.615,0.167c0.126,0.22,0.052,0.502-0.166,0.628
	c-1.073,0.626-2.209,1.094-3.38,1.416c-0.071,0.019-0.146,0.037-0.224,0.058c-0.489,0.124-0.979,0.22-1.479,0.293
	c-0.106,0.014-0.212,0.036-0.319,0.05c-0.552,0.068-1.108,0.104-1.665,0.109c-0.104,0.002-0.207-0.008-0.312-0.009
	c-0.508-0.01-1.018-0.038-1.525-0.101c-0.071-0.008-0.139-0.021-0.21-0.029c-0.548-0.075-1.095-0.184-1.635-0.323
	c-0.038-0.012-0.079-0.019-0.115-0.029c-0.567-0.152-1.124-0.344-1.673-0.568c-0.117-0.049-0.229-0.111-0.346-0.162
	c-0.37-0.165-0.736-0.347-1.095-0.542c-0.125-0.069-0.251-0.147-0.369-0.221C20.595,59.539,20.528,59.305,20.642,59.107
	 M21.569,57.521c0.129-0.221,0.405-0.294,0.627-0.166c0.106,0.062,0.22,0.104,0.325,0.162c0.183,0.099,0.369,0.188,0.557,0.275
	c0.272,0.13,0.55,0.253,0.834,0.361c0.296,0.112,0.595,0.219,0.895,0.306c0.181,0.051,0.367,0.091,0.548,0.134
	c0.262,0.062,0.529,0.115,0.795,0.159c0.174,0.026,0.351,0.056,0.524,0.075c0.373,0.043,0.742,0.066,1.113,0.072
	c0.065,0.001,0.133,0.009,0.2,0.009h0.002h0.093c0.441-0.004,0.878-0.037,1.312-0.09c0.062-0.008,0.122-0.021,0.186-0.029
	c0.436-0.062,0.868-0.145,1.293-0.257c0.031-0.008,0.062-0.015,0.09-0.023c0.978-0.26,1.91-0.646,2.785-1.157
	c0.216-0.116,0.485-0.047,0.609,0.169c0.126,0.218,0.052,0.501-0.165,0.628c-0.945,0.551-1.949,0.964-2.978,1.244
	c-0.041,0.011-0.085,0.021-0.127,0.031c-0.452,0.119-0.913,0.207-1.375,0.272c-0.068,0.011-0.138,0.026-0.209,0.034
	c-0.492,0.062-0.987,0.094-1.487,0.098c-0.073,0-0.146-0.008-0.22-0.008c-0.471-0.007-0.939-0.031-1.405-0.09
	c-0.031-0.004-0.062-0.008-0.097-0.014c-1.049-0.142-2.082-0.416-3.073-0.827c-0.024-0.009-0.046-0.021-0.071-0.03
	c-0.4-0.17-0.791-0.372-1.174-0.587c-0.097-0.054-0.187-0.11-0.286-0.168C21.522,57.966,21.453,57.723,21.569,57.521"/>
<path fill="#FF6633" d="M7.807,17.548c0.252,0,0.459-0.203,0.459-0.458v-2.305c0-0.509-0.918-0.509-0.918,0v2.305
	C7.348,17.344,7.555,17.548,7.807,17.548"/>
<path fill="#FF6633" d="M5.972,27.782c0.253,0,0.458-0.204,0.458-0.459v-4.88c0-0.508-0.918-0.508-0.918,0v4.88
	C5.512,27.58,5.719,27.782,5.972,27.782"/>
<path fill="#FF6633" d="M5.972,21.196c0.253,0,0.458-0.206,0.458-0.459v-1.072c0-0.507-0.918-0.507-0.918,0v1.072
	C5.512,20.99,5.719,21.196,5.972,21.196"/>
<path fill="#FF6633" d="M16.921,12.029c0.253,0,0.46-0.204,0.46-0.459v-1.071c0-0.508-0.919-0.508-0.919,0v1.071
	C16.462,11.823,16.669,12.029,16.921,12.029"/>
<path fill="#FF6633" d="M20.614,7.199c0.252,0,0.458-0.206,0.458-0.46V5.666c0-0.506-0.918-0.506-0.918,0v1.072
	C20.155,6.993,20.359,7.199,20.614,7.199"/>
<path fill="#FF6633" d="M26.129,5.05c0.252,0,0.457-0.203,0.457-0.459V1.686c0-0.509-0.917-0.509-0.917,0v2.905
	C25.668,4.846,25.873,5.05,26.129,5.05"/>
<path fill="#FF6633" d="M29.804,5.05c0.253,0,0.46-0.203,0.46-0.459V1.686c0-0.509-0.92-0.509-0.92,0v2.905
	C29.343,4.846,29.55,5.05,29.804,5.05"/>
<path fill="#FF6633" d="M31.641,8.068c0.252,0,0.458-0.205,0.458-0.459V4.704c0-0.509-0.918-0.509-0.918,0v2.905
	C31.181,7.863,31.388,8.068,31.641,8.068"/>
<path fill="#FF6633" d="M38.993,12.029c0.252,0,0.458-0.204,0.458-0.459v-1.071c0-0.508-0.918-0.508-0.918,0v1.071
	C38.532,11.823,38.739,12.029,38.993,12.029"/>
<path fill="#FF6633" d="M4.135,39.226c0.252,0,0.458-0.206,0.458-0.461v-6.057c0-0.508-0.918-0.508-0.918,0v6.057
	C3.674,39.018,3.88,39.226,4.135,39.226"/>
<path fill="#FF6633" d="M13.322,13.906c0.252,0,0.457-0.205,0.457-0.46V7.387c0-0.508-0.917-0.508-0.917,0v6.059
	C12.862,13.701,13.067,13.906,13.322,13.906"/>
<path fill="#FF6633" d="M42.668,13.906c0.252,0,0.46-0.205,0.46-0.46V7.387c0-0.508-0.92-0.508-0.92,0v6.059
	C42.208,13.701,42.414,13.906,42.668,13.906"/>
<path fill="#FF6633" d="M4.135,31.013c0.252,0,0.458-0.206,0.458-0.458v-4.028c0-0.509-0.918-0.509-0.918,0v4.028
	C3.674,30.808,3.88,31.013,4.135,31.013"/>
<path fill="#FF6633" d="M2.268,35.43c0.255,0,0.46-0.203,0.46-0.459v-6.165c0-0.507-0.918-0.507-0.918,0v6.165
	C1.81,35.227,2.015,35.43,2.268,35.43"/>
<path fill="#FF6633" d="M20.614,15.879c0.252,0,0.458-0.205,0.458-0.459v-1.281V8.761c0-0.509-0.918-0.509-0.918,0v5.377v1.281
	C20.155,15.674,20.359,15.879,20.614,15.879"/>
<path fill="#FF6633" d="M35.317,7.199c0.252,0,0.46-0.206,0.46-0.46V5.666c0-0.506-0.918-0.506-0.918,0v1.072
	C34.859,6.993,35.063,7.199,35.317,7.199"/>
<path fill="#FF6633" d="M35.317,15.879c0.252,0,0.46-0.205,0.46-0.459v-1.281V8.761c0-0.509-0.918-0.509-0.918,0v5.377v1.281
	C34.859,15.674,35.063,15.879,35.317,15.879"/>
<path fill="#FF6633" d="M2.268,27.053c0.255,0,0.46-0.206,0.46-0.459v-1.796c0-0.509-0.918-0.509-0.918,0v1.796
	C1.81,26.848,2.015,27.053,2.268,27.053"/>
<path fill="#FF6633" d="M0.456,42.979c0.255,0,0.46-0.205,0.46-0.461v-5.53c0-0.508-0.917-0.508-0.917,0v5.53
	C0,42.773,0.204,42.979,0.456,42.979"/>
<path fill="#FF6633" d="M0.456,34.559c0.255,0,0.46-0.206,0.46-0.459v-1.173c0-0.508-0.917-0.508-0.917,0V34.1
	C0,34.352,0.204,34.559,0.456,34.559"/>
<path fill="#FF6633" d="M9.186,15.279v3.824v1.161c0,0.253,0.207,0.459,0.458,0.459c0.256,0,0.46-0.208,0.46-0.459v-1.161v-3.824
	C10.105,14.771,9.186,14.771,9.186,15.279"/>
<path fill="#FF6633" d="M11.494,15.614c0.254,0,0.46-0.204,0.46-0.459v-1.015v-3.972c0-0.508-0.917-0.508-0.917,0v3.97v1.015
	C11.037,15.409,11.241,15.614,11.494,15.614"/>
<path fill="#FF6633" d="M9.603,12.795c0.255,0,0.46-0.205,0.46-0.459V9.731c0-0.509-0.918-0.509-0.918,0v2.605
	C9.145,12.591,9.352,12.795,9.603,12.795"/>
<path fill="#FF6633" d="M15.159,9.221c0.252,0,0.458-0.204,0.458-0.459V6.157c0-0.509-0.918-0.509-0.918,0V8.76
	C14.698,9.017,14.904,9.221,15.159,9.221"/>
<path fill="#FF6633" d="M18.777,9.221c0.252,0,0.46-0.204,0.46-0.459V3.482c0-0.508-0.921-0.508-0.921,0v5.279
	C18.316,9.017,18.523,9.221,18.777,9.221"/>
<path fill="#FF6633" d="M37.154,9.221c0.252,0,0.46-0.204,0.46-0.459V3.482c0-0.508-0.921-0.508-0.921,0v5.279
	C36.694,9.017,36.901,9.221,37.154,9.221"/>
<path fill="#FF6633" d="M22.451,6.126c0.255,0,0.46-0.206,0.46-0.46v-2.07c0-0.508-0.918-0.508-0.918,0v2.07
	C21.993,5.921,22.197,6.126,22.451,6.126"/>
<path fill="#FF6633" d="M33.478,6.126c0.255,0,0.46-0.206,0.46-0.46v-2.07c0-0.508-0.917-0.508-0.917,0v2.07
	C33.02,5.921,33.224,6.126,33.478,6.126"/>
<path fill="#FF6633" d="M40.829,9.221c0.256,0,0.46-0.204,0.46-0.459V6.157c0-0.509-0.917-0.509-0.917,0V8.76
	C40.371,9.017,40.575,9.221,40.829,9.221"/>
<path fill="#FF6633" d="M48.192,17.548c0.254,0,0.458-0.203,0.458-0.458v-2.305c0-0.509-0.918-0.509-0.918,0v2.305
	C47.732,17.344,47.939,17.548,48.192,17.548"/>
<path fill="#FF6633" d="M50.027,27.782c0.253,0,0.459-0.204,0.459-0.459v-4.88c0-0.508-0.919-0.508-0.919,0v4.88
	C49.567,27.58,49.775,27.782,50.027,27.782"/>
<path fill="#FF6633" d="M50.027,21.196c0.253,0,0.459-0.206,0.459-0.459v-1.072c0-0.507-0.919-0.507-0.919,0v1.072
	C49.567,20.99,49.775,21.196,50.027,21.196"/>
<path fill="#FF6633" d="M51.866,39.226c0.255,0,0.458-0.206,0.458-0.461v-6.057c0-0.508-0.917-0.508-0.917,0v6.057
	C51.408,39.018,51.611,39.226,51.866,39.226"/>
<path fill="#FF6633" d="M51.866,31.013c0.255,0,0.458-0.206,0.458-0.458v-4.028c0-0.509-0.917-0.509-0.917,0v4.028
	C51.408,30.808,51.611,31.013,51.866,31.013"/>
<path fill="#FF6633" d="M4.135,24.619c0.252,0,0.458-0.206,0.458-0.459v-5.056V18.35c0-0.508-0.918-0.508-0.918,0v0.754v5.056
	C3.674,24.413,3.88,24.619,4.135,24.619"/>
<path fill="#FF6633" d="M51.866,24.619c0.255,0,0.458-0.206,0.458-0.459v-5.056V18.35c0-0.508-0.917-0.508-0.917,0v0.754v5.056
	C51.408,24.413,51.611,24.619,51.866,24.619"/>
<path fill="#FF6633" d="M53.732,35.43c0.252,0,0.458-0.203,0.458-0.459v-6.165c0-0.507-0.918-0.507-0.918,0v6.165
	C53.271,35.227,53.479,35.43,53.732,35.43"/>
<path fill="#FF6633" d="M53.732,27.053c0.252,0,0.458-0.206,0.458-0.459v-1.796c0-0.509-0.918-0.509-0.918,0v1.796
	C53.271,26.848,53.479,27.053,53.732,27.053"/>
<path fill="#FF6633" d="M55.08,36.989v5.53c0,0.256,0.207,0.461,0.46,0.461c0.254,0,0.459-0.205,0.459-0.461v-5.53
	C56,36.48,55.08,36.48,55.08,36.989"/>
<path fill="#FF6633" d="M55.08,32.924v1.173c0,0.253,0.207,0.459,0.46,0.459c0.254,0,0.459-0.206,0.459-0.459v-1.173
	C56,32.416,55.08,32.416,55.08,32.924"/>
<path fill="#FF6633" d="M46.354,20.723c0.254,0,0.458-0.206,0.458-0.459v-1.161v-3.824c0-0.508-0.918-0.508-0.918,0v3.824v1.161
	C45.893,20.517,46.103,20.723,46.354,20.723"/>
<path fill="#FF6633" d="M44.507,15.614c0.252,0,0.457-0.204,0.457-0.459v-1.015v-3.972c0-0.508-0.917-0.508-0.917,0v3.97v1.015
	C44.047,15.409,44.251,15.614,44.507,15.614"/>
<path fill="#FF6633" d="M46.395,12.795c0.253,0,0.46-0.205,0.46-0.459V9.731c0-0.509-0.921-0.509-0.921,0v2.605
	C45.934,12.591,46.144,12.795,46.395,12.795"/>
<path fill="#FF6633" d="M37.615,19.102v-4.963v-3.544c0-0.51-0.921-0.51-0.921,0v3.544v4.963v22.78
	c0.369,0.573,0.673,1.173,0.921,1.794V19.102z"/>
<path fill="#FF6633" d="M35.776,40.708V19.101V17.09c0-0.509-0.918-0.509-0.918,0v2.011v20.66c0.125,0.113,0.272,0.199,0.399,0.321
	C35.454,40.277,35.598,40.502,35.776,40.708"/>
<path fill="#FF6633" d="M33.938,19.102v-4.963V7.458c0-0.507-0.917-0.507-0.917,0v6.681v4.963v19.356
	c0.314,0.175,0.621,0.356,0.917,0.565V19.102z"/>
<path fill="#FF6633" d="M32.099,19.102v-4.963V9.324c0-0.508-0.918-0.508-0.918,0v4.815v4.963v18.552
	c0.311,0.101,0.618,0.201,0.918,0.331V19.102z"/>
<path fill="#FF6633" d="M30.264,19.102v-4.963V6.196c0-0.509-0.92-0.509-0.92,0v7.943v4.963v18.132
	c0.311,0.043,0.613,0.086,0.92,0.158V19.102z"/>
<path fill="#FF6633" d="M28.425,19.102v-4.963V0.38c0-0.507-0.918-0.507-0.918,0v13.759v4.963v18.047
	c0.306-0.013,0.61-0.009,0.918,0.003V19.102z"/>
<path fill="#FF6633" d="M26.585,19.102v-4.963V6.196c0-0.509-0.917-0.509-0.917,0v7.943v4.963v18.296
	c0.304-0.073,0.61-0.108,0.917-0.151V19.102z"/>
<path fill="#FF6633" d="M24.749,19.102v-4.963V9.363c0-0.51-0.92-0.51-0.92,0v4.777v4.962v18.902c0.3-0.133,0.611-0.225,0.92-0.325
	V19.102z"/>
<path fill="#FF6633" d="M22.911,19.102v-4.963V7.458c0-0.507-0.918-0.507-0.918,0v6.681v4.963v19.96
	c0.293-0.215,0.604-0.39,0.918-0.567V19.102z"/>
<path fill="#FF6633" d="M21.072,39.827V19.102v-2.014c0-0.508-0.918-0.508-0.918,0v2.014v21.682
	c0.164-0.191,0.289-0.401,0.469-0.585C20.764,40.058,20.927,39.96,21.072,39.827"/>
<path fill="#FF6633" d="M19.237,19.102v-4.963v-3.544c0-0.51-0.921-0.51-0.921,0v3.544v4.963v24.74
	c0.24-0.646,0.543-1.271,0.921-1.866V19.102z"/>
<path fill="#FF6633" d="M27.996,45.703c0.95,0,1.72,0.772,1.72,1.72c0,0.95-0.77,1.72-1.72,1.72s-1.72-0.77-1.72-1.72
	C26.276,46.476,27.046,45.703,27.996,45.703"/>
<path fill="#FF6633" d="M27.964,55.645L27.964,55.645c2.208,0,4.281-0.869,5.836-2.444c3.166-3.215,3.122-8.411-0.092-11.585
	c-1.55-1.519-3.592-2.354-5.751-2.354c-2.21,0-4.281,0.87-5.831,2.446c-1.534,1.557-2.37,3.617-2.355,5.799
	c0.017,2.188,0.888,4.241,2.451,5.78C23.762,54.808,25.803,55.645,27.964,55.645 M22.585,42.16c1.428-1.453,3.334-2.254,5.371-2.254
	c1.99,0,3.873,0.769,5.297,2.167c2.962,2.926,3.003,7.716,0.086,10.678c-1.431,1.452-3.34,2.252-5.377,2.252
	c-1.991,0-3.87-0.771-5.29-2.172c-1.443-1.419-2.242-3.312-2.26-5.327C20.399,45.49,21.174,43.594,22.585,42.16"/>
</svg>
