<?xml version="1.0" encoding="utf-8"?>
<!-- Generator: Adobe Illustrator 14.0.0, SVG Export Plug-In . SVG Version: 6.00 Build 43363)  -->
<!DOCTYPE svg PUBLIC "-//W3C//DTD SVG 1.1//EN" "http://www.w3.org/Graphics/SVG/1.1/DTD/svg11.dtd">
<svg version="1.1" id="Layer_1" xmlns="http://www.w3.org/2000/svg" xmlns:xlink="http://www.w3.org/1999/xlink" x="0px" y="0px"
	 width="164px" height="50.553px" viewBox="0 0 164 50.553" enable-background="new 0 0 164 50.553" xml:space="preserve">
<rect x="43.429" y="19.63" fill="#333333" width="4.307" height="29.308"/>
<polygon fill="#333333" points="58.062,48.938 55.311,30.517 55.152,29.279 54.913,29.279 54.913,30.517 54.913,48.938 
	50.926,48.938 50.926,19.63 56.189,19.63 58.741,33.029 58.94,34.584 59.021,34.584 59.22,33.029 61.771,19.63 67.035,19.63 
	67.035,48.938 63.048,48.938 63.048,30.517 63.048,29.279 62.809,29.279 62.649,30.517 59.897,48.938 "/>
<polygon fill="#333333" points="77.36,48.938 74.608,30.517 74.449,29.279 74.209,29.279 74.209,30.517 74.209,48.938 
	70.222,48.938 70.222,19.63 75.486,19.63 78.038,33.029 78.236,34.584 78.316,34.584 78.516,33.029 81.068,19.63 86.331,19.63 
	86.331,48.938 82.345,48.938 82.345,30.517 82.345,29.279 82.105,29.279 81.946,30.517 79.193,48.938 "/>
<polygon fill="#333333" points="89.52,19.63 99.368,19.63 99.368,24.055 93.826,24.055 93.826,31.752 97.812,31.752 97.812,36.457 
	93.826,36.457 93.826,44.512 99.368,44.512 99.368,48.938 89.52,48.938 "/>
<g>
	<path fill="#333333" d="M109.456,48.938l-2.233-12.361h-1.155v12.361h-4.309V19.629h4.309c5.104,0,7.337,2.952,7.337,8.455
		c0,2.91-0.758,5.543-2.393,6.659l2.751,14.196L109.456,48.938L109.456,48.938z M106.067,23.897v8.692
		c1.195,0,3.189-0.159,3.189-4.346C109.257,24.058,107.263,23.897,106.067,23.897"/>
	<path fill="#333333" d="M121.496,19.311c5.185-0.119,6.022,4.506,6.022,7.775l-4.229,0.399c0-1.954-0.277-4.227-1.714-4.227
		c-1.117,0.041-1.475,1.235-1.475,2.912c0,1.994,1.714,4.227,3.388,6.659c1.995,2.99,4.028,5.901,4.028,9.052
		c0,3.909-1.277,7.377-5.982,7.377c-5.541,0-6.26-4.187-6.26-8.532l4.227-0.399c0,2.433,0.239,4.984,2.033,4.984
		c1.277,0,1.755-1.396,1.755-3.23c0-1.954-1.833-4.307-3.469-6.778c-2.033-2.991-3.948-5.981-3.948-9.131
		C115.875,22.979,117.43,19.392,121.496,19.311"/>
	<rect x="129.829" y="19.63" fill="#333333" width="4.307" height="29.308"/>
	<path fill="#333333" d="M142.787,49.256c-5.781,0-5.741-6.339-5.741-6.339V25.65c0,0-0.039-6.34,5.741-6.34
		c5.781,0,5.743,6.34,5.743,6.34v17.267C148.53,42.917,148.57,49.256,142.787,49.256 M142.787,23.499
		c-1.515,0-1.435,2.152-1.435,2.152v17.267c0,0-0.08,2.154,1.435,2.154c1.516,0,1.437-2.154,1.437-2.154V25.65
		C144.224,25.65,144.303,23.499,142.787,23.499"/>
	<polygon fill="#333333" points="155.985,33.667 155.625,32.311 155.387,32.311 155.387,33.667 155.387,48.938 151.438,48.938 
		151.438,19.63 155.267,19.63 159.453,34.901 159.812,36.258 160.052,36.258 160.052,34.901 160.052,19.63 164,19.63 164,48.938 
		160.171,48.938 	"/>
	<polygon fill="#333333" points="45.92,9.93 44.994,9.93 44.994,13.457 43.803,13.457 43.803,5.355 44.994,5.355 44.994,8.707 
		45.92,8.707 45.92,5.356 47.11,5.356 47.11,13.458 45.92,13.458 	"/>
	<rect x="49.731" y="5.357" fill="#333333" width="1.19" height="8.102"/>
	<polygon fill="#333333" points="53.125,6.58 53.125,5.356 56.563,5.356 56.563,6.58 55.439,6.58 55.439,13.458 54.249,13.458 
		54.249,6.58 	"/>
	<path fill="#333333" d="M63.682,5.269c1.433-0.033,1.665,1.245,1.665,2.148l-1.168,0.11c0-0.539-0.078-1.167-0.475-1.167
		c-0.309,0.011-0.407,0.341-0.407,0.804c0,0.552,0.474,1.169,0.937,1.842c0.551,0.827,1.113,1.632,1.113,2.502
		c0,1.08-0.353,2.039-1.652,2.039c-1.533,0-1.731-1.158-1.731-2.358l1.168-0.11c0,0.672,0.066,1.378,0.562,1.378
		c0.352,0,0.484-0.386,0.484-0.893c0-0.541-0.508-1.19-0.959-1.874c-0.562-0.827-1.091-1.653-1.091-2.524
		C62.128,6.281,62.558,5.29,63.682,5.269"/>
	<path fill="#333333" d="M69.234,13.545c-1.598,0-1.587-1.752-1.587-1.752V7.021c0,0-0.011-1.752,1.587-1.752
		c1.598,0,1.587,1.752,1.587,1.752v4.772C70.822,11.793,70.833,13.545,69.234,13.545 M69.234,6.426
		c-0.418,0-0.397,0.595-0.397,0.595v4.772c0,0-0.022,0.595,0.397,0.595c0.419,0,0.397-0.595,0.397-0.595V7.021
		C69.631,7.021,69.653,6.426,69.234,6.426"/>
	<polygon fill="#333333" points="74.623,9.236 74.523,8.861 74.458,8.861 74.458,9.236 74.458,13.457 73.366,13.457 73.366,5.356 
		74.424,5.356 75.582,9.578 75.681,9.953 75.747,9.953 75.747,9.578 75.747,5.356 76.838,5.356 76.838,13.458 75.781,13.458 	"/>
	<path fill="#333333" d="M81.366,8.267V7.021c0,0,0.021-0.595-0.397-0.595c-0.418,0-0.397,0.595-0.397,0.595v4.871
		c0,0-0.021,0.596,0.397,0.596s0.397-0.596,0.397-0.596v-1.466h-0.474V9.424h1.665v4.033h-0.705l-0.144-0.385
		c-0.221,0.275-0.551,0.475-0.927,0.475c-1.509,0-1.399-1.753-1.399-1.753V7.021c0,0-0.011-1.751,1.587-1.751
		c1.598,0,1.587,1.751,1.587,1.751v1.246H81.366z"/>
	<path fill="#333333" d="M86.645,5.269c1.433-0.033,1.664,1.245,1.664,2.148l-1.168,0.11c0-0.539-0.078-1.167-0.475-1.167
		c-0.309,0.011-0.407,0.341-0.407,0.804c0,0.552,0.473,1.169,0.937,1.842c0.551,0.827,1.113,1.632,1.113,2.502
		c0,1.08-0.353,2.039-1.653,2.039c-1.532,0-1.729-1.158-1.729-2.358l1.169-0.11c0,0.672,0.064,1.378,0.561,1.378
		c0.354,0,0.485-0.386,0.485-0.893c0-0.541-0.507-1.19-0.959-1.874c-0.562-0.827-1.091-1.653-1.091-2.524
		C85.089,6.281,85.52,5.29,86.645,5.269"/>
	<path fill="#333333" d="M95.062,13.458h-0.936V5.356h0.936c2.204,0.011,2.37,0.882,2.37,4.057
		C97.432,12.576,97.266,13.446,95.062,13.458 M95.314,12.267c0.838,0,0.894-0.209,0.883-2.866c0.011-2.645-0.044-2.854-0.883-2.854
		V12.267z"/>
	<polygon fill="#333333" points="99.965,5.356 102.688,5.356 102.688,6.58 101.154,6.58 101.154,8.708 102.258,8.708 
		102.258,10.007 101.154,10.007 101.154,12.234 102.688,12.234 102.688,13.458 99.965,13.458 	"/>
	<path fill="#333333" d="M108.186,10.68v1.114c0,0,0.011,1.753-1.587,1.753c-1.599,0-1.588-1.753-1.588-1.753V7.021
		c0,0-0.011-1.751,1.588-1.751c1.598,0,1.587,1.751,1.587,1.751v1.113h-1.114V7.021c0,0,0.045-0.595-0.452-0.595
		c-0.418,0-0.418,0.595-0.418,0.595v4.772c0,0,0,0.595,0.418,0.595c0.497,0,0.452-0.595,0.452-0.595V10.68H108.186z"/>
	<path fill="#333333" d="M112.151,13.545c-1.599,0-1.587-1.752-1.587-1.752V7.021c0,0-0.012-1.752,1.587-1.752
		s1.587,1.752,1.587,1.752v4.772C113.738,11.793,113.75,13.545,112.151,13.545 M112.151,6.426c-0.418,0-0.397,0.595-0.397,0.595
		v4.772c0,0-0.021,0.595,0.397,0.595s0.398-0.595,0.398-0.595V7.021C112.55,7.021,112.57,6.426,112.151,6.426"/>
	<polygon fill="#333333" points="117.54,9.236 117.44,8.861 117.375,8.861 117.375,9.236 117.375,13.457 116.283,13.457 
		116.283,5.356 117.341,5.356 118.5,9.578 118.599,9.953 118.664,9.953 118.664,9.578 118.664,5.356 119.756,5.356 119.756,13.458 
		118.697,13.458 	"/>
	<path fill="#333333" d="M123.854,5.269c1.433-0.033,1.663,1.245,1.663,2.148l-1.167,0.11c0-0.539-0.078-1.167-0.475-1.167
		c-0.31,0.011-0.408,0.341-0.408,0.804c0,0.552,0.474,1.169,0.937,1.842c0.552,0.827,1.113,1.632,1.113,2.502
		c0,1.08-0.354,2.039-1.652,2.039c-1.532,0-1.73-1.158-1.73-2.358l1.168-0.11c0,0.672,0.065,1.378,0.562,1.378
		c0.352,0,0.485-0.386,0.485-0.893c0-0.541-0.508-1.19-0.959-1.874c-0.562-0.827-1.091-1.653-1.091-2.524
		C122.299,6.281,122.729,5.29,123.854,5.269"/>
	<polygon fill="#333333" points="127.479,6.58 127.479,5.356 130.917,5.356 130.917,6.58 129.792,6.58 129.792,13.458 
		128.602,13.458 128.602,6.58 	"/>
	<path fill="#333333" d="M135.247,13.458l-0.618-3.417h-0.319v3.417h-1.191V5.356h1.191c1.411,0,2.028,0.816,2.028,2.336
		c0,0.805-0.209,1.533-0.661,1.841l0.76,3.924H135.247z M134.31,6.536v2.402c0.33,0,0.882-0.044,0.882-1.201
		C135.191,6.58,134.64,6.536,134.31,6.536"/>
	<path fill="#333333" d="M142.002,5.356v6.436c0,0,0.011,1.753-1.588,1.753c-1.598,0-1.587-1.753-1.587-1.753V5.356h1.19v6.436
		c0,0-0.021,0.596,0.396,0.596c0.419,0,0.397-0.596,0.397-0.596V5.356H142.002z"/>
	<path fill="#333333" d="M147.709,10.68v1.114c0,0,0.011,1.753-1.587,1.753s-1.587-1.753-1.587-1.753V7.021
		c0,0-0.011-1.751,1.587-1.751s1.587,1.751,1.587,1.751v1.113h-1.112V7.021c0,0,0.042-0.595-0.452-0.595
		c-0.42,0-0.42,0.595-0.42,0.595v4.772c0,0,0,0.595,0.42,0.595c0.494,0,0.452-0.595,0.452-0.595V10.68H147.709z"/>
	<polygon fill="#333333" points="149.746,6.58 149.746,5.356 153.185,5.356 153.185,6.58 152.06,6.58 152.06,13.458 150.869,13.458 
		150.869,6.58 	"/>
	<polygon fill="#333333" points="155.388,5.356 158.11,5.356 158.11,6.58 156.579,6.58 156.579,8.708 157.681,8.708 157.681,10.007 
		156.579,10.007 156.579,12.234 158.11,12.234 158.11,13.458 155.388,13.458 	"/>
	<path fill="#333333" d="M161.448,13.458h-0.937V5.356h0.937c2.204,0.011,2.369,0.882,2.369,4.057
		C163.817,12.576,163.653,13.446,161.448,13.458 M161.703,12.267c0.836,0,0.891-0.209,0.881-2.866
		c0.01-2.645-0.043-2.854-0.881-2.854V12.267z"/>
	<path fill="#FF6633" d="M36.613,29.381v2.185h-0.021c-0.105,4.596-1.916,8.919-5.149,12.207c-0.476,0.482-0.976,0.928-1.492,1.345
		c0.361-0.309,0.716-0.624,1.055-0.967C34.229,40.874,36,36.543,36,31.95c0-0.064-0.007-0.129-0.01-0.194
		c0.002-0.064,0.01-0.127,0.01-0.19v-7.098c0-0.338-0.609-0.338-0.609,0v7.098h-0.022c-0.103,4.272-1.789,8.291-4.798,11.351
		c-0.447,0.453-0.916,0.87-1.4,1.262c0.329-0.283,0.654-0.571,0.965-0.885c2.994-3.045,4.644-7.073,4.644-11.343
		c0-0.064-0.009-0.129-0.011-0.194c0.001-0.064,0.011-0.128,0.011-0.19v-4.652c0-0.338-0.612-0.338-0.612,0v4.652h-0.019
		c-0.105,3.949-1.665,7.663-4.449,10.494c-0.416,0.424-0.855,0.81-1.308,1.176c0.295-0.257,0.594-0.515,0.872-0.797
		c2.769-2.818,4.293-6.541,4.293-10.487c0-0.064-0.009-0.13-0.009-0.194c0.002-0.063,0.009-0.126,0.009-0.189v-12.25
		c0-0.338-0.61-0.338-0.61,0v12.247h-0.021c-0.104,3.628-1.542,7.037-4.097,9.638c-0.388,0.394-0.8,0.754-1.218,1.095
		c0.264-0.23,0.531-0.462,0.782-0.718c2.544-2.585,3.944-6.005,3.944-9.63c0-0.064-0.011-0.131-0.011-0.195
		c0.003-0.062,0.011-0.125,0.011-0.188V12.7c0-0.338-0.612-0.338-0.612,0v18.865h-0.021c-0.104,3.305-1.416,6.41-3.748,8.781
		c-0.354,0.357-0.724,0.687-1.106,0.995c0.228-0.202,0.456-0.4,0.67-0.618c2.317-2.357,3.595-5.472,3.595-8.773
		c0-0.065-0.01-0.131-0.01-0.198c0-0.062,0.008-0.123,0.008-0.186V14.921c0-0.337-0.609-0.337-0.609,0v16.644h-0.021
		c-0.102,2.982-1.29,5.784-3.397,7.923c-0.32,0.328-0.66,0.627-1.012,0.911c0.196-0.172,0.393-0.344,0.58-0.532
		c2.089-2.126,3.241-4.936,3.241-7.916c0-0.064-0.01-0.131-0.01-0.195c0.001-0.063,0.01-0.126,0.01-0.189V12.7v-1.338
		c0-0.338-0.61-0.338-0.61,0V12.7v18.865h-0.021c-0.102,2.659-1.167,5.157-3.045,7.066c-0.293,0.298-0.604,0.569-0.925,0.827
		c0.167-0.146,0.333-0.29,0.488-0.45c1.865-1.896,2.893-4.403,2.893-7.06c0-0.064-0.009-0.13-0.012-0.194
		c0.003-0.062,0.012-0.126,0.012-0.188v-0.001V12.7V9.829c0-0.338-0.612-0.338-0.612,0V12.7v18.865h-0.019
		c-0.103,2.337-1.043,4.53-2.697,6.209c-0.264,0.271-0.545,0.515-0.836,0.75c0.136-0.122,0.275-0.241,0.402-0.371
		c1.639-1.666,2.541-3.869,2.541-6.203c0-0.064-0.009-0.13-0.009-0.195c0-0.063,0.009-0.126,0.009-0.189V12.7V9.401V7.044
		c0-0.338-0.609-0.338-0.609,0v2.356V12.7v18.865h-0.023c-0.1,2.014-0.917,3.902-2.342,5.353c-0.237,0.243-0.492,0.461-0.752,0.669
		c0.106-0.097,0.215-0.189,0.317-0.293c1.412-1.434,2.188-3.333,2.188-5.344c0-0.064-0.008-0.131-0.009-0.196
		c0.002-0.062,0.009-0.125,0.009-0.188v-2.224V25.02V12.7V9.401V8.894c0-0.337-0.61-0.337-0.61,0v0.507V12.7v12.319v4.321v2.224
		h-0.045c-0.099,1.69-0.768,3.279-1.968,4.498c-1.312,1.332-3.065,2.073-4.936,2.089c-1.871,0.015-3.638-0.701-4.972-2.016
		c-1.219-1.2-1.938-2.768-2.063-4.457c0.001-0.04,0.013-0.076,0.015-0.114h-0.042V12.7V9.401V8.894c0-0.337-0.61-0.337-0.61,0v0.507
		V12.7v18.866c0,0.062,0.008,0.122,0.01,0.183c-0.001,0.067-0.01,0.134-0.01,0.2v0.001c0,2.059,0.808,3.984,2.274,5.426
		c0.088,0.088,0.184,0.163,0.273,0.247c-0.243-0.192-0.48-0.395-0.705-0.615c-1.483-1.459-2.332-3.379-2.433-5.442h-0.022V12.7
		V9.401V7.044c0-0.338-0.61-0.338-0.61,0v2.356V12.7v18.866c0,0.062,0.008,0.123,0.01,0.184c-0.002,0.067-0.01,0.133-0.01,0.199
		v0.001c0,2.389,0.938,4.624,2.64,6.297c0.115,0.115,0.24,0.219,0.361,0.325c-0.273-0.218-0.54-0.445-0.792-0.693
		c-1.72-1.69-2.695-3.92-2.8-6.313H9.163V12.7v-2.582c0-0.337-0.609-0.337-0.609,0V12.7v18.865v0.006
		c0.001,0.059,0.007,0.117,0.008,0.176c-0.001,0.068-0.01,0.135-0.01,0.202c0,2.718,1.065,5.264,3.003,7.168
		c0.146,0.144,0.301,0.271,0.454,0.406c-0.304-0.242-0.6-0.497-0.881-0.772c-1.955-1.925-3.06-4.463-3.165-7.186H7.938V12.7v-1.349
		c0-0.337-0.61-0.337-0.61,0V12.7v18.866c0,0.065,0.009,0.132,0.009,0.197c-0.002,0.062-0.009,0.124-0.009,0.186v0.001
		c0,3.048,1.196,5.902,3.37,8.039c0.174,0.173,0.361,0.328,0.545,0.487c-0.338-0.267-0.665-0.549-0.974-0.854
		c-2.19-2.154-3.426-5.002-3.53-8.056h-0.02V14.724c0-0.338-0.611-0.338-0.611,0v16.841v0.001c0,0.062,0.007,0.122,0.009,0.185
		c-0.002,0.067-0.009,0.132-0.009,0.198c0,3.378,1.326,6.543,3.733,8.91c0.206,0.203,0.424,0.388,0.642,0.573
		c-0.369-0.293-0.729-0.603-1.071-0.94c-2.423-2.386-3.788-5.543-3.893-8.927H5.496V12.7v-0.014c0-0.337-0.61-0.337-0.61,0V12.7
		v18.865c0,0.062,0.009,0.124,0.01,0.186c-0.001,0.067-0.01,0.132-0.01,0.198c0,3.708,1.455,7.182,4.097,9.781
		c0.239,0.235,0.492,0.448,0.744,0.661c-0.404-0.319-0.796-0.66-1.171-1.028c-2.659-2.617-4.153-6.085-4.259-9.798H4.275V19.419
		c0-0.337-0.61-0.337-0.61,0v12.146v0.001c0,0.062,0.009,0.124,0.009,0.186c-0.002,0.066-0.009,0.133-0.009,0.197
		c0,4.038,1.585,7.82,4.461,10.652c0.27,0.267,0.554,0.505,0.838,0.745C8.528,43,8.102,42.634,7.698,42.234
		c-2.896-2.85-4.519-6.625-4.623-10.669H3.054v-4.652c0-0.338-0.61-0.311-0.61,0.027v4.626c0,0.062,0.008,0.124,0.009,0.186
		c0,0.066-0.009,0.13-0.009,0.197v0.001c0,4.366,1.715,8.46,4.828,11.523c0.298,0.295,0.616,0.562,0.932,0.829
		c-0.47-0.372-0.926-0.768-1.362-1.196c-3.129-3.08-4.882-7.165-4.988-11.54h-0.02v-7.089c0-0.339-0.612-0.339-0.612,0v7.09
		c0,0.063,0.008,0.124,0.01,0.187c0,0.064-0.01,0.132-0.01,0.196v0.001c0,4.699,1.845,9.1,5.193,12.396
		c0.33,0.324,0.676,0.617,1.024,0.911c-0.499-0.397-0.987-0.821-1.452-1.279c-3.366-3.312-5.248-7.708-5.354-12.411H0.609v-2.205
		c0-0.338-0.609-0.338-0.609,0v2.205c0,0.062,0.008,0.124,0.008,0.187C0.008,31.818,0,31.882,0,31.948
		c0,5.029,1.973,9.74,5.556,13.267c7.316,7.198,19.124,7.104,26.322-0.209c3.447-3.504,5.346-8.14,5.346-13.053
		c0-0.065-0.01-0.13-0.01-0.196c0-0.063,0.01-0.128,0.01-0.191v-2.185C37.224,29.043,36.613,29.043,36.613,29.381 M22.006,49.209
		c-0.05,0.009-0.1,0.019-0.148,0.027c-4.196,0.761-8.609,0.023-12.39-2.204c-0.087-0.097-0.124-0.23-0.054-0.348
		c0.083-0.146,0.273-0.197,0.416-0.111c0.188,0.109,0.385,0.195,0.573,0.297c0.137,0.073,0.277,0.145,0.417,0.215
		c0.376,0.188,0.755,0.364,1.142,0.522c0.136,0.056,0.276,0.109,0.415,0.163c0.393,0.15,0.788,0.29,1.189,0.411
		c0.137,0.041,0.276,0.076,0.413,0.113c0.407,0.112,0.815,0.215,1.227,0.297c0.14,0.026,0.284,0.047,0.427,0.072
		c0.406,0.069,0.814,0.133,1.226,0.174c0.163,0.017,0.326,0.021,0.49,0.034c0.389,0.027,0.778,0.053,1.169,0.055
		c0.033,0,0.062,0.005,0.095,0.005c0.431,0,0.861-0.019,1.293-0.051c0.163-0.013,0.325-0.036,0.488-0.053
		c0.361-0.037,0.725-0.084,1.085-0.146c0.175-0.03,0.352-0.059,0.525-0.095c0.502-0.1,0.999-0.213,1.49-0.356
		c0.089-0.024,0.173-0.053,0.264-0.079c0.445-0.138,0.886-0.291,1.32-0.467c0.061-0.023,0.124-0.043,0.185-0.069
		c0.429-0.179,0.854-0.381,1.271-0.596c0.184-0.094,0.366-0.192,0.546-0.294c0.092-0.052,0.185-0.097,0.277-0.149
		c0.142-0.087,0.33-0.036,0.418,0.11c0.077,0.135,0.031,0.298-0.09,0.39c-0.087,0.051-0.173,0.107-0.262,0.156
		c-0.194,0.11-0.391,0.219-0.59,0.319c-0.374,0.192-0.752,0.372-1.135,0.538c-0.088,0.037-0.176,0.077-0.266,0.113
		c-0.463,0.19-0.936,0.354-1.411,0.506c-0.096,0.031-0.195,0.06-0.293,0.089C23.159,48.965,22.583,49.1,22.006,49.209
		 M10.028,45.629c0.085-0.147,0.273-0.196,0.417-0.109c0.136,0.079,0.282,0.133,0.422,0.208c0.303,0.167,0.615,0.315,0.926,0.461
		c0.26,0.122,0.517,0.253,0.783,0.359c0.511,0.204,1.03,0.379,1.556,0.528c0.299,0.086,0.599,0.149,0.899,0.218
		c0.304,0.068,0.608,0.13,0.913,0.181c0.308,0.052,0.615,0.099,0.926,0.133c0.355,0.038,0.712,0.056,1.068,0.069
		c0.224,0.009,0.445,0.032,0.669,0.032c0.189,0,0.378-0.021,0.565-0.027c0.405-0.016,0.809-0.036,1.213-0.079
		c0.264-0.029,0.521-0.072,0.781-0.114c0.396-0.063,0.788-0.142,1.18-0.233c0.216-0.052,0.433-0.099,0.646-0.16
		c0.609-0.171,1.212-0.365,1.8-0.611c0.007-0.001,0.015-0.006,0.02-0.009c0.606-0.252,1.195-0.55,1.773-0.881
		c0.048-0.027,0.1-0.045,0.147-0.072c0.148-0.087,0.333-0.037,0.417,0.11c0.078,0.134,0.035,0.3-0.09,0.392
		c-0.082,0.048-0.16,0.1-0.243,0.147c-0.183,0.102-0.364,0.199-0.547,0.294c-0.347,0.178-0.695,0.344-1.05,0.497
		c-0.085,0.036-0.17,0.075-0.254,0.11c-0.433,0.176-0.871,0.329-1.31,0.47c-0.097,0.03-0.191,0.057-0.285,0.085
		c-0.53,0.156-1.066,0.282-1.607,0.384c-0.043,0.01-0.087,0.018-0.134,0.024c-3.911,0.709-8.025,0.023-11.544-2.057
		C9.997,45.883,9.959,45.748,10.028,45.629 M10.643,44.573c0.086-0.146,0.272-0.194,0.417-0.109
		c0.135,0.077,0.276,0.131,0.413,0.204c0.263,0.143,0.53,0.272,0.797,0.397c0.285,0.133,0.568,0.268,0.857,0.382
		c0.438,0.172,0.884,0.324,1.336,0.453c0.282,0.081,0.566,0.143,0.852,0.206c0.274,0.062,0.547,0.117,0.824,0.165
		c0.288,0.047,0.578,0.091,0.87,0.122c0.318,0.035,0.641,0.05,0.963,0.063c0.213,0.009,0.427,0.029,0.639,0.029
		c0.175,0,0.349-0.019,0.527-0.024c0.371-0.015,0.746-0.032,1.117-0.073c0.24-0.026,0.478-0.066,0.715-0.104
		c0.372-0.06,0.74-0.131,1.106-0.22c0.193-0.046,0.391-0.088,0.583-0.143c1.156-0.322,2.275-0.791,3.34-1.396
		c0.039-0.022,0.083-0.038,0.123-0.061c0.146-0.087,0.332-0.036,0.417,0.109c0.08,0.137,0.034,0.306-0.092,0.396
		c-0.044,0.024-0.087,0.052-0.13,0.076c-1.104,0.633-2.269,1.113-3.466,1.453c-0.201,0.057-0.403,0.103-0.606,0.152
		c-0.385,0.092-0.771,0.167-1.16,0.23c-0.237,0.038-0.474,0.08-0.711,0.108c-0.48,0.055-0.962,0.083-1.444,0.093
		c-0.335,0.008-0.669-0.006-1.002-0.02c-0.311-0.014-0.621-0.029-0.929-0.062c-0.31-0.031-0.617-0.075-0.926-0.126
		c-0.28-0.045-0.559-0.104-0.837-0.166c-0.304-0.067-0.607-0.128-0.909-0.212c-0.499-0.144-0.99-0.311-1.478-0.504
		c-0.282-0.113-0.558-0.249-0.836-0.38c-0.27-0.126-0.539-0.255-0.805-0.399c-0.17-0.093-0.334-0.193-0.503-0.292
		C10.612,44.83,10.573,44.693,10.643,44.573 M11.262,43.52c0.086-0.146,0.271-0.197,0.417-0.11c0.091,0.054,0.189,0.09,0.281,0.141
		c0.348,0.192,0.705,0.369,1.065,0.529c0.123,0.054,0.241,0.12,0.363,0.17c0.481,0.197,0.972,0.359,1.466,0.498
		c0.175,0.051,0.354,0.089,0.529,0.131c0.355,0.085,0.713,0.156,1.072,0.213c0.189,0.03,0.378,0.061,0.57,0.084
		c0.444,0.05,0.889,0.079,1.334,0.086c0.082,0.001,0.165,0.012,0.246,0.012h0.035h0.079c0.521-0.003,1.034-0.044,1.541-0.104
		c0.125-0.017,0.247-0.039,0.37-0.058c0.449-0.067,0.899-0.153,1.343-0.267c0.099-0.024,0.2-0.049,0.296-0.075
		c1.127-0.31,2.204-0.76,3.213-1.347c0.01-0.004,0.015-0.007,0.022-0.012c0.147-0.087,0.333-0.036,0.418,0.109
		c0.081,0.14,0.033,0.312-0.097,0.401c-0.035,0.019-0.066,0.04-0.101,0.06c-1.026,0.59-2.107,1.036-3.221,1.351
		c-0.174,0.05-0.352,0.09-0.529,0.133c-0.367,0.09-0.736,0.16-1.108,0.22c-0.208,0.034-0.415,0.071-0.625,0.097
		c-0.471,0.054-0.946,0.084-1.422,0.092c-0.271,0.003-0.545-0.011-0.817-0.022c-0.298-0.014-0.593-0.028-0.889-0.058
		c-0.279-0.03-0.556-0.07-0.834-0.115c-0.267-0.043-0.531-0.099-0.796-0.156c-0.274-0.061-0.547-0.116-0.816-0.193
		c-0.463-0.132-0.92-0.286-1.371-0.467c-0.256-0.1-0.501-0.224-0.752-0.341c-0.256-0.119-0.513-0.243-0.764-0.379
		c-0.153-0.084-0.302-0.174-0.454-0.263C11.233,43.781,11.191,43.641,11.262,43.52 M11.876,42.462
		c0.085-0.146,0.27-0.195,0.417-0.11c0.086,0.051,0.176,0.084,0.262,0.131c0.313,0.172,0.63,0.33,0.952,0.474
		c0.116,0.053,0.229,0.113,0.345,0.162c0.438,0.179,0.888,0.326,1.338,0.455c0.156,0.044,0.309,0.076,0.462,0.114
		c0.335,0.08,0.671,0.146,1.007,0.2c0.165,0.025,0.325,0.052,0.49,0.072c0.429,0.049,0.861,0.079,1.291,0.084
		c0.057,0.001,0.111,0.007,0.165,0.007h0.003h0.101c0.477-0.003,0.949-0.041,1.414-0.098c0.097-0.012,0.189-0.03,0.283-0.044
		c0.431-0.062,0.861-0.144,1.283-0.252c0.075-0.021,0.153-0.038,0.228-0.06c1.039-0.284,2.03-0.698,2.96-1.238h0.001
		c0.146-0.087,0.333-0.036,0.417,0.109c0.085,0.146,0.036,0.331-0.109,0.417c0,0-0.003,0.003-0.004,0.003
		c-0.986,0.571-2.028,1-3.099,1.295c-0.08,0.022-0.164,0.043-0.245,0.063c-0.441,0.113-0.887,0.198-1.336,0.265
		c-0.101,0.016-0.201,0.036-0.303,0.049c-0.525,0.064-1.054,0.101-1.581,0.102h-0.013c-0.056,0-0.11-0.006-0.165-0.007
		c-0.455-0.006-0.907-0.036-1.356-0.089c-0.173-0.02-0.346-0.049-0.518-0.076c-0.353-0.055-0.703-0.124-1.051-0.209
		c-0.164-0.039-0.329-0.075-0.491-0.121c-0.474-0.135-0.944-0.289-1.403-0.478c-0.12-0.05-0.236-0.113-0.359-0.166
		c-0.341-0.152-0.675-0.317-1.006-0.501c-0.104-0.058-0.206-0.121-0.31-0.184C11.844,42.738,11.803,42.589,11.876,42.462
		 M12.491,41.407c0.084-0.146,0.27-0.196,0.417-0.109c0.083,0.049,0.172,0.081,0.255,0.127c0.261,0.143,0.524,0.271,0.789,0.393
		c0.127,0.057,0.247,0.124,0.373,0.175c0.393,0.159,0.789,0.291,1.192,0.404c0.145,0.042,0.291,0.072,0.438,0.108
		c0.295,0.071,0.592,0.131,0.89,0.177c0.15,0.023,0.3,0.049,0.453,0.066c0.385,0.044,0.775,0.071,1.163,0.075
		c0.05,0,0.099,0.007,0.146,0.007h0.006c0.027,0,0.057,0,0.087-0.001c0.432-0.003,0.858-0.037,1.281-0.088
		c0.083-0.012,0.165-0.026,0.248-0.038c0.392-0.058,0.785-0.134,1.168-0.232c0.066-0.017,0.133-0.032,0.195-0.052
		c0.939-0.257,1.836-0.63,2.676-1.119l0.003-0.002c0.146-0.087,0.333-0.036,0.417,0.109c0.086,0.146,0.036,0.33-0.109,0.418
		c-0.001,0.001-0.005,0.004-0.008,0.005c-0.892,0.519-1.837,0.907-2.805,1.175c-0.078,0.021-0.155,0.04-0.233,0.061
		c-0.394,0.101-0.793,0.177-1.193,0.236c-0.099,0.016-0.198,0.034-0.296,0.047c-0.472,0.058-0.945,0.091-1.418,0.092h-0.021
		c-0.069,0-0.136-0.009-0.206-0.011c-0.39-0.005-0.778-0.03-1.164-0.075c-0.168-0.02-0.333-0.046-0.501-0.073
		c-0.306-0.047-0.609-0.108-0.915-0.182c-0.158-0.037-0.317-0.072-0.474-0.117c-0.423-0.12-0.843-0.258-1.254-0.426
		c-0.128-0.053-0.25-0.118-0.377-0.177c-0.288-0.13-0.574-0.27-0.854-0.424c-0.1-0.058-0.197-0.118-0.297-0.178
		C12.462,41.685,12.417,41.535,12.491,41.407 M13.106,40.354c0.085-0.147,0.272-0.196,0.418-0.109
		c0.081,0.045,0.165,0.077,0.246,0.122c0.208,0.113,0.422,0.218,0.638,0.315c0.151,0.069,0.302,0.144,0.455,0.206
		c0.321,0.129,0.645,0.238,0.974,0.332c0.144,0.041,0.291,0.072,0.435,0.107c0.247,0.058,0.494,0.107,0.743,0.146
		c0.147,0.023,0.294,0.049,0.44,0.064c0.324,0.038,0.647,0.06,0.972,0.064c0.062,0.001,0.123,0.008,0.185,0.008h0.019h0.062
		c0.385-0.003,0.763-0.033,1.139-0.078c0.079-0.01,0.158-0.025,0.236-0.037c0.348-0.052,0.695-0.118,1.037-0.207
		c0.056-0.014,0.114-0.027,0.168-0.044c0.842-0.229,1.646-0.565,2.398-1.004c0.142-0.081,0.326-0.034,0.412,0.11
		c0.086,0.146,0.037,0.332-0.108,0.418c-0.806,0.47-1.657,0.819-2.532,1.063c-0.063,0.017-0.132,0.034-0.197,0.05
		c-0.358,0.092-0.722,0.162-1.085,0.216c-0.087,0.013-0.17,0.028-0.255,0.04c-0.417,0.051-0.833,0.078-1.251,0.08
		c-0.098,0.001-0.191-0.009-0.292-0.01c-0.333-0.008-0.666-0.027-0.998-0.065c-0.12-0.015-0.24-0.032-0.358-0.05
		c-0.327-0.05-0.652-0.114-0.978-0.194c-0.094-0.022-0.19-0.042-0.286-0.068c-0.4-0.111-0.797-0.245-1.187-0.404
		c-0.099-0.039-0.191-0.091-0.29-0.135c-0.271-0.121-0.541-0.254-0.806-0.4c-0.092-0.051-0.181-0.106-0.271-0.161
		C13.077,40.635,13.032,40.482,13.106,40.354 M13.723,39.296c0.085-0.146,0.275-0.196,0.418-0.11
		c0.073,0.043,0.153,0.072,0.226,0.112c0.169,0.093,0.341,0.177,0.514,0.257c0.166,0.076,0.329,0.153,0.498,0.219
		c0.257,0.101,0.518,0.19,0.779,0.266c0.139,0.04,0.275,0.069,0.414,0.103c0.204,0.047,0.407,0.09,0.612,0.121
		c0.139,0.023,0.277,0.046,0.416,0.062c0.264,0.029,0.527,0.045,0.79,0.052c0.075,0.001,0.145,0.011,0.22,0.011h0.017h0.054
		c0.334-0.001,0.664-0.028,0.99-0.067c0.072-0.01,0.143-0.022,0.212-0.033c0.304-0.045,0.606-0.103,0.907-0.18
		c0.048-0.012,0.099-0.024,0.148-0.038c0.738-0.2,1.445-0.494,2.107-0.879c0.144-0.08,0.325-0.033,0.409,0.111
		c0.084,0.146,0.035,0.334-0.11,0.417c-0.713,0.417-1.469,0.728-2.248,0.941c-0.047,0.013-0.098,0.025-0.149,0.038
		c-0.325,0.083-0.651,0.146-0.983,0.195c-0.071,0.009-0.141,0.024-0.212,0.033c-0.367,0.045-0.737,0.069-1.107,0.072
		c-0.069,0.001-0.137-0.005-0.207-0.006c-0.338-0.006-0.677-0.025-1.014-0.066c-0.047-0.006-0.092-0.014-0.14-0.02
		c-0.364-0.05-0.728-0.122-1.087-0.215c-0.025-0.008-0.052-0.013-0.076-0.02c-0.377-0.102-0.747-0.229-1.113-0.378
		c-0.077-0.032-0.152-0.074-0.229-0.107c-0.246-0.11-0.489-0.23-0.728-0.36c-0.083-0.047-0.167-0.099-0.245-0.147
		C13.692,39.583,13.647,39.427,13.723,39.296 M14.34,38.241c0.086-0.147,0.27-0.196,0.417-0.11c0.07,0.041,0.146,0.069,0.216,0.107
		c0.122,0.066,0.245,0.125,0.37,0.184c0.181,0.086,0.365,0.168,0.555,0.24c0.197,0.074,0.396,0.145,0.595,0.203
		c0.121,0.033,0.244,0.06,0.365,0.089c0.174,0.041,0.352,0.076,0.528,0.105c0.116,0.018,0.233,0.037,0.349,0.05
		c0.248,0.028,0.493,0.045,0.74,0.048c0.043,0.001,0.088,0.007,0.133,0.007h0.002h0.062c0.294-0.003,0.584-0.025,0.872-0.06
		c0.041-0.006,0.081-0.015,0.124-0.02c0.29-0.042,0.577-0.097,0.86-0.171c0.021-0.006,0.041-0.01,0.06-0.017
		c0.65-0.173,1.27-0.43,1.852-0.769c0.144-0.077,0.322-0.031,0.405,0.112c0.083,0.145,0.035,0.333-0.109,0.417
		c-0.629,0.367-1.295,0.641-1.98,0.827c-0.027,0.008-0.056,0.015-0.084,0.021c-0.301,0.08-0.607,0.139-0.914,0.182
		c-0.045,0.008-0.092,0.018-0.139,0.022c-0.327,0.041-0.656,0.062-0.989,0.065c-0.048,0-0.097-0.006-0.146-0.006
		c-0.313-0.004-0.624-0.021-0.934-0.06c-0.021-0.003-0.042-0.005-0.064-0.009c-0.697-0.095-1.384-0.276-2.043-0.55
		c-0.017-0.006-0.031-0.015-0.047-0.021c-0.266-0.113-0.526-0.247-0.78-0.39c-0.064-0.036-0.125-0.074-0.19-0.112
		C14.309,38.537,14.262,38.375,14.34,38.241"/>
	<path fill="#FF6633" d="M5.19,11.667c0.167,0,0.305-0.135,0.305-0.304V9.83c0-0.338-0.61-0.338-0.61,0v1.533
		C4.885,11.531,5.022,11.667,5.19,11.667"/>
	<path fill="#FF6633" d="M3.971,18.471c0.168,0,0.304-0.136,0.304-0.305v-3.245c0-0.338-0.61-0.338-0.61,0v3.245
		C3.665,18.336,3.802,18.471,3.971,18.471"/>
	<path fill="#FF6633" d="M3.971,14.092c0.168,0,0.304-0.137,0.304-0.305v-0.713c0-0.337-0.61-0.337-0.61,0v0.713
		C3.665,13.955,3.802,14.092,3.971,14.092"/>
	<path fill="#FF6633" d="M11.25,7.997c0.169,0,0.306-0.135,0.306-0.305V6.98c0-0.338-0.611-0.338-0.611,0v0.711
		C10.944,7.861,11.082,7.997,11.25,7.997"/>
	<path fill="#FF6633" d="M13.705,4.786c0.167,0,0.304-0.137,0.304-0.306V3.768c0-0.337-0.61-0.337-0.61,0V4.48
		C13.4,4.649,13.536,4.786,13.705,4.786"/>
	<path fill="#FF6633" d="M17.371,3.358c0.168,0,0.304-0.135,0.304-0.305V1.121c0-0.338-0.61-0.338-0.61,0v1.932
		C17.065,3.223,17.201,3.358,17.371,3.358"/>
	<path fill="#FF6633" d="M19.814,3.358c0.168,0,0.306-0.135,0.306-0.305V1.121c0-0.338-0.612-0.338-0.612,0v1.932
		C19.508,3.223,19.646,3.358,19.814,3.358"/>
	<path fill="#FF6633" d="M21.036,5.365c0.167,0,0.304-0.137,0.304-0.306V3.127c0-0.338-0.61-0.338-0.61,0v1.932
		C20.729,5.228,20.867,5.365,21.036,5.365"/>
	<path fill="#FF6633" d="M25.923,7.997c0.168,0,0.305-0.135,0.305-0.305V6.98c0-0.338-0.61-0.338-0.61,0v0.711
		C25.617,7.861,25.754,7.997,25.923,7.997"/>
	<path fill="#FF6633" d="M2.749,26.078c0.167,0,0.304-0.137,0.304-0.306v-4.027c0-0.338-0.61-0.338-0.61,0v4.027
		C2.443,25.94,2.58,26.078,2.749,26.078"/>
	<path fill="#FF6633" d="M8.857,9.246c0.168,0,0.304-0.137,0.304-0.306V4.912c0-0.338-0.61-0.338-0.61,0v4.028
		C8.551,9.109,8.688,9.246,8.857,9.246"/>
	<path fill="#FF6633" d="M28.366,9.246c0.168,0,0.306-0.137,0.306-0.306V4.912c0-0.338-0.612-0.338-0.612,0v4.028
		C28.06,9.109,28.198,9.246,28.366,9.246"/>
	<path fill="#FF6633" d="M2.749,20.619c0.167,0,0.304-0.137,0.304-0.305v-2.677c0-0.338-0.61-0.338-0.61,0v2.677
		C2.443,20.482,2.58,20.619,2.749,20.619"/>
	<path fill="#FF6633" d="M1.508,23.555c0.169,0,0.306-0.135,0.306-0.305v-4.098c0-0.337-0.61-0.337-0.61,0v4.098
		C1.204,23.42,1.34,23.555,1.508,23.555"/>
	<path fill="#FF6633" d="M13.705,10.557c0.167,0,0.304-0.137,0.304-0.305V9.4V5.825c0-0.338-0.61-0.338-0.61,0V9.4v0.852
		C13.4,10.42,13.536,10.557,13.705,10.557"/>
	<path fill="#FF6633" d="M23.479,4.786c0.167,0,0.306-0.137,0.306-0.306V3.768c0-0.337-0.61-0.337-0.61,0V4.48
		C23.175,4.649,23.311,4.786,23.479,4.786"/>
	<path fill="#FF6633" d="M23.479,10.557c0.167,0,0.306-0.137,0.306-0.305V9.4V5.825c0-0.338-0.61-0.338-0.61,0V9.4v0.852
		C23.175,10.42,23.311,10.557,23.479,10.557"/>
	<path fill="#FF6633" d="M1.508,17.986c0.169,0,0.306-0.137,0.306-0.305v-1.195c0-0.338-0.61-0.338-0.61,0v1.195
		C1.204,17.849,1.34,17.986,1.508,17.986"/>
	<path fill="#FF6633" d="M0.303,28.574c0.17,0,0.306-0.137,0.306-0.307v-3.676c0-0.338-0.609-0.338-0.609,0v3.676
		C0,28.437,0.136,28.574,0.303,28.574"/>
	<path fill="#FF6633" d="M0.303,22.976c0.17,0,0.306-0.137,0.306-0.305v-0.78c0-0.338-0.609-0.338-0.609,0v0.78
		C0,22.838,0.136,22.976,0.303,22.976"/>
	<path fill="#FF6633" d="M6.107,10.159v2.542v0.771c0,0.168,0.137,0.306,0.304,0.306c0.17,0,0.306-0.138,0.306-0.306v-0.771v-2.542
		C6.719,9.82,6.107,9.82,6.107,10.159"/>
	<path fill="#FF6633" d="M7.642,10.381c0.168,0,0.306-0.136,0.306-0.305V9.401V6.761c0-0.337-0.609-0.337-0.609,0V9.4v0.674
		C7.337,10.244,7.473,10.381,7.642,10.381"/>
	<path fill="#FF6633" d="M6.384,8.507c0.17,0,0.306-0.137,0.306-0.305V6.47c0-0.338-0.61-0.338-0.61,0v1.732
		C6.08,8.372,6.217,8.507,6.384,8.507"/>
	<path fill="#FF6633" d="M10.078,6.13c0.168,0,0.305-0.135,0.305-0.305V4.093c0-0.338-0.61-0.338-0.61,0v1.731
		C9.772,5.995,9.908,6.13,10.078,6.13"/>
	<path fill="#FF6633" d="M12.483,6.13c0.167,0,0.306-0.135,0.306-0.305V2.316c0-0.338-0.612-0.338-0.612,0v3.509
		C12.177,5.995,12.314,6.13,12.483,6.13"/>
	<path fill="#FF6633" d="M24.701,6.13c0.167,0,0.306-0.135,0.306-0.305V2.316c0-0.338-0.612-0.338-0.612,0v3.509
		C24.395,5.995,24.532,6.13,24.701,6.13"/>
	<path fill="#FF6633" d="M14.926,4.073c0.169,0,0.306-0.136,0.306-0.306V2.392c0-0.338-0.61-0.338-0.61,0v1.376
		C14.622,3.937,14.757,4.073,14.926,4.073"/>
	<path fill="#FF6633" d="M22.257,4.073c0.169,0,0.306-0.136,0.306-0.306V2.392c0-0.338-0.609-0.338-0.609,0v1.376
		C21.953,3.937,22.088,4.073,22.257,4.073"/>
	<path fill="#FF6633" d="M27.144,6.13c0.17,0,0.306-0.135,0.306-0.305V4.093c0-0.338-0.609-0.338-0.609,0v1.731
		C26.839,5.995,26.975,6.13,27.144,6.13"/>
	<path fill="#FF6633" d="M32.039,11.667c0.169,0,0.305-0.135,0.305-0.304V9.83c0-0.338-0.61-0.338-0.61,0v1.533
		C31.733,11.531,31.871,11.667,32.039,11.667"/>
	<path fill="#FF6633" d="M33.259,18.471c0.168,0,0.305-0.136,0.305-0.305v-3.245c0-0.338-0.611-0.338-0.611,0v3.245
		C32.953,18.336,33.091,18.471,33.259,18.471"/>
	<path fill="#FF6633" d="M33.259,14.092c0.168,0,0.305-0.137,0.305-0.305v-0.713c0-0.337-0.611-0.337-0.611,0v0.713
		C32.953,13.955,33.091,14.092,33.259,14.092"/>
	<path fill="#FF6633" d="M34.481,26.078c0.17,0,0.305-0.137,0.305-0.306v-4.027c0-0.338-0.61-0.338-0.61,0v4.027
		C34.177,25.94,34.312,26.078,34.481,26.078"/>
	<path fill="#FF6633" d="M34.481,20.619c0.17,0,0.305-0.137,0.305-0.305v-2.677c0-0.338-0.61-0.338-0.61,0v2.677
		C34.177,20.482,34.312,20.619,34.481,20.619"/>
	<path fill="#FF6633" d="M2.749,16.367c0.167,0,0.304-0.137,0.304-0.305v-3.361V12.2c0-0.338-0.61-0.338-0.61,0v0.501v3.361
		C2.443,16.23,2.58,16.367,2.749,16.367"/>
	<path fill="#FF6633" d="M34.481,16.367c0.17,0,0.305-0.137,0.305-0.305v-3.361V12.2c0-0.338-0.61-0.338-0.61,0v0.501v3.361
		C34.177,16.23,34.312,16.367,34.481,16.367"/>
	<path fill="#FF6633" d="M35.722,23.555c0.167,0,0.304-0.135,0.304-0.305v-4.098c0-0.337-0.61-0.337-0.61,0v4.098
		C35.416,23.42,35.553,23.555,35.722,23.555"/>
	<path fill="#FF6633" d="M35.722,17.986c0.167,0,0.304-0.137,0.304-0.305v-1.195c0-0.338-0.61-0.338-0.61,0v1.195
		C35.416,17.849,35.553,17.986,35.722,17.986"/>
	<path fill="#FF6633" d="M36.618,24.591v3.676c0,0.17,0.138,0.307,0.306,0.307c0.169,0,0.305-0.137,0.305-0.307v-3.676
		C37.229,24.253,36.618,24.253,36.618,24.591"/>
	<path fill="#FF6633" d="M36.618,21.889v0.78c0,0.168,0.138,0.305,0.306,0.305c0.169,0,0.305-0.137,0.305-0.305v-0.78
		C37.229,21.551,36.618,21.551,36.618,21.889"/>
	<path fill="#FF6633" d="M30.817,13.777c0.168,0,0.304-0.137,0.304-0.305V12.7v-2.542c0-0.338-0.61-0.338-0.61,0V12.7v0.772
		C30.511,13.641,30.65,13.777,30.817,13.777"/>
	<path fill="#FF6633" d="M29.589,10.381c0.167,0,0.303-0.136,0.303-0.305V9.401V6.761c0-0.337-0.609-0.337-0.609,0V9.4v0.674
		C29.283,10.244,29.419,10.381,29.589,10.381"/>
	<path fill="#FF6633" d="M30.844,8.507c0.169,0,0.306-0.137,0.306-0.305V6.47c0-0.338-0.612-0.338-0.612,0v1.732
		C30.538,8.372,30.677,8.507,30.844,8.507"/>
	<path fill="#FF6633" d="M25.007,12.7V9.4V7.044c0-0.339-0.612-0.339-0.612,0V9.4V12.7v15.144c0.245,0.381,0.447,0.78,0.612,1.192
		V12.7z"/>
	<path fill="#FF6633" d="M23.785,27.063V12.699v-1.337c0-0.338-0.61-0.338-0.61,0v1.337v13.734c0.083,0.076,0.181,0.133,0.265,0.214
		C23.57,26.777,23.666,26.927,23.785,27.063"/>
	<path fill="#FF6633" d="M22.563,12.7V9.4V4.959c0-0.337-0.609-0.337-0.609,0V9.4V12.7v12.869c0.208,0.116,0.413,0.236,0.609,0.375
		V12.7z"/>
	<path fill="#FF6633" d="M21.34,12.7V9.4V6.199c0-0.338-0.61-0.338-0.61,0V9.4V12.7v12.334c0.207,0.067,0.411,0.134,0.61,0.22V12.7z
		"/>
	<path fill="#FF6633" d="M20.12,12.7V9.4V4.12c0-0.338-0.612-0.338-0.612,0V9.4V12.7v12.055c0.207,0.029,0.408,0.058,0.612,0.105
		V12.7z"/>
	<path fill="#FF6633" d="M18.897,12.7V9.4V0.253c0-0.337-0.61-0.337-0.61,0V9.4V12.7v11.999c0.204-0.009,0.405-0.006,0.61,0.001
		V12.7z"/>
	<path fill="#FF6633" d="M17.675,12.7V9.4V4.12c0-0.338-0.61-0.338-0.61,0V9.4V12.7v12.164c0.202-0.049,0.405-0.072,0.61-0.1V12.7z"
		/>
	<path fill="#FF6633" d="M16.454,12.7V9.4V6.226c0-0.339-0.612-0.339-0.612,0v3.176v3.299v12.566
		c0.199-0.088,0.406-0.149,0.612-0.216V12.7z"/>
	<path fill="#FF6633" d="M15.232,12.7V9.4V4.959c0-0.337-0.61-0.337-0.61,0V9.4V12.7v13.27c0.195-0.143,0.401-0.259,0.61-0.377V12.7
		z"/>
	<path fill="#FF6633" d="M14.009,26.479V12.7v-1.339c0-0.337-0.61-0.337-0.61,0V12.7v14.415c0.108-0.127,0.192-0.267,0.312-0.389
		C13.804,26.632,13.913,26.566,14.009,26.479"/>
	<path fill="#FF6633" d="M12.79,12.7V9.4V7.044c0-0.339-0.612-0.339-0.612,0V9.4V12.7v16.447c0.159-0.43,0.361-0.844,0.612-1.24
		V12.7z"/>
	<path fill="#FF6633" d="M18.612,30.385c0.631,0,1.144,0.513,1.144,1.143c0,0.632-0.512,1.144-1.144,1.144s-1.143-0.512-1.143-1.144
		C17.469,30.897,17.981,30.385,18.612,30.385"/>
	<path fill="#FF6633" d="M18.591,36.993L18.591,36.993c1.468,0,2.847-0.577,3.88-1.624c2.105-2.138,2.076-5.593-0.061-7.702
		c-1.031-1.01-2.388-1.564-3.823-1.564c-1.469,0-2.846,0.578-3.876,1.626c-1.02,1.035-1.575,2.405-1.565,3.855
		c0.011,1.455,0.59,2.819,1.629,3.843C15.798,36.438,17.154,36.993,18.591,36.993 M15.015,28.029
		c0.949-0.966,2.217-1.498,3.57-1.498c1.323,0,2.575,0.511,3.522,1.44c1.969,1.944,1.996,5.129,0.057,7.099
		c-0.951,0.965-2.22,1.497-3.574,1.497c-1.324,0-2.573-0.513-3.517-1.444c-0.959-0.942-1.49-2.201-1.502-3.541
		C13.562,30.243,14.077,28.982,15.015,28.029"/>
</g>
</svg>
