<?xml version="1.0" encoding="utf-8"?>
<!-- Generator: Adobe Illustrator 15.1.0, SVG Export Plug-In . SVG Version: 6.00 Build 0)  -->
<!DOCTYPE svg PUBLIC "-//W3C//DTD SVG 1.1//EN" "http://www.w3.org/Graphics/SVG/1.1/DTD/svg11.dtd">
<svg version="1.1" id="Layer_1" xmlns="http://www.w3.org/2000/svg" xmlns:xlink="http://www.w3.org/1999/xlink" x="0px" y="0px"
	 width="46.329px" height="44.012px" viewBox="0 0 46.329 44.012" enable-background="new 0 0 46.329 44.012" xml:space="preserve">
<g>
	<path fill="#AFB2B7" d="M26.322,12.922c0,0.689,0.559,1.248,1.248,1.248s1.248-0.559,1.248-1.248c0-5.375-4.85-6.886-7.485-6.943
		c-2.68-0.362-4.483-1.173-5.218-2.345c-0.598-0.956-0.305-1.904-0.283-1.97c0.228-0.644-0.104-1.352-0.747-1.587
		c-0.646-0.239-1.364,0.095-1.602,0.741c-0.049,0.135-0.326,0.972-0.203,2.074c-0.009,0.062-0.036,0.117-0.036,0.181v28.494
		c-1.409-1.208-3.297-1.955-5.376-1.955c-4.339,0-7.868,3.23-7.868,7.2s3.529,7.2,7.868,7.2c4.341,0,7.872-3.23,7.872-7.2V6.708
		c1.3,0.87,3.082,1.459,5.337,1.756c0.047,0.006,0.099,0.01,0.146,0.011C21.745,8.483,26.322,8.686,26.322,12.922z M7.868,41.516
		c-2.962,0-5.372-2.11-5.372-4.704s2.41-4.704,5.372-4.704c2.964,0,5.376,2.11,5.376,4.704S10.832,41.516,7.868,41.516z"/>
	<path fill="#AFB2B7" d="M36.186,13.586h8.896c0.689,0,1.248-0.559,1.248-1.248s-0.559-1.248-1.248-1.248h-8.896
		c-0.689,0-1.248,0.559-1.248,1.248S35.496,13.586,36.186,13.586z"/>
	<path fill="#AFB2B7" d="M45.081,20.694H23.599c-0.689,0-1.248,0.559-1.248,1.248s0.559,1.248,1.248,1.248h21.482
		c0.689,0,1.248-0.559,1.248-1.248S45.771,20.694,45.081,20.694z"/>
	<path fill="#AFB2B7" d="M1.536,13.586H5.96c0.689,0,1.248-0.559,1.248-1.248S6.649,11.09,5.96,11.09H1.536
		c-0.689,0-1.248,0.559-1.248,1.248S0.847,13.586,1.536,13.586z"/>
	<path fill="#AFB2B7" d="M1.536,23.19H5.96c0.689,0,1.248-0.559,1.248-1.248s-0.559-1.248-1.248-1.248H1.536
		c-0.689,0-1.248,0.559-1.248,1.248S0.847,23.19,1.536,23.19z"/>
	<path fill="#AFB2B7" d="M45.081,30.298H23.599c-0.689,0-1.248,0.559-1.248,1.248s0.559,1.248,1.248,1.248h21.482
		c0.689,0,1.248-0.559,1.248-1.248S45.771,30.298,45.081,30.298z"/>
</g>
</svg>
