<?xml version="1.0" encoding="utf-8"?>
<!-- Generator: Adobe Illustrator 15.1.0, SVG Export Plug-In . SVG Version: 6.00 Build 0)  -->
<!DOCTYPE svg PUBLIC "-//W3C//DTD SVG 1.1//EN" "http://www.w3.org/Graphics/SVG/1.1/DTD/svg11.dtd">
<svg version="1.1" id="Layer_1" xmlns="http://www.w3.org/2000/svg" xmlns:xlink="http://www.w3.org/1999/xlink" x="0px" y="0px"
	 width="12.35px" height="18.718px" viewBox="4.326 -0.296 12.35 18.718" enable-background="new 4.326 -0.296 12.35 18.718"
	 xml:space="preserve">
<g>
	<path fill="#AFB2B7" d="M7.968,18.422c-0.065,0-0.131-0.015-0.192-0.046c-0.175-0.089-0.267-0.287-0.221-0.478l1.448-6.051H4.75
		c-0.16,0-0.306-0.089-0.378-0.231c-0.073-0.142-0.06-0.312,0.034-0.442L12.551-0.12c0.117-0.163,0.331-0.22,0.514-0.142
		c0.183,0.079,0.286,0.275,0.248,0.471L11.837,7.85h4.414c0.166,0,0.316,0.096,0.386,0.247s0.045,0.328-0.062,0.454l-8.283,9.722
		C8.208,18.37,8.089,18.422,7.968,18.422z M5.581,10.998h3.96c0.13,0,0.253,0.06,0.333,0.161c0.081,0.103,0.11,0.236,0.08,0.362
		l-1.161,4.851L15.33,8.7h-4.008c-0.127,0-0.247-0.057-0.328-0.154c-0.081-0.098-0.114-0.227-0.09-0.351l1.208-6.254L5.581,10.998z"
		/>
</g>
</svg>
