<?xml version="1.0" encoding="utf-8"?>
<!-- Generator: Adobe Illustrator 22.0.1, SVG Export Plug-In . SVG Version: 6.00 Build 0)  -->
<svg version="1.1" id="Layer_1" xmlns="http://www.w3.org/2000/svg" xmlns:xlink="http://www.w3.org/1999/xlink" x="0px" y="0px"
	 width="15.9px" height="20.8px" viewBox="0 0 15.9 20.8" style="enable-background:new 0 0 15.9 20.8;" xml:space="preserve">
<style type="text/css">
	.st0{fill:none;stroke:#7A7A7A;stroke-width:0.75;stroke-linecap:round;stroke-linejoin:round;stroke-miterlimit:10;}
</style>
<polyline class="st0" points="11.3,18.6 11.3,14.5 15.6,14.5 "/>
<polygon class="st0" points="15.6,14.5 15.6,0.4 2.1,0.4 2.1,18.6 11.3,18.6 "/>
<polyline class="st0" points="2.1,1.7 0.4,1.7 0.4,20.4 10.1,20.4 14.3,20.4 14.3,15.8 "/>
<line class="st0" x1="4.9" y1="10.5" x2="12.7" y2="10.5"/>
<line class="st0" x1="4.9" y1="12.5" x2="10.3" y2="12.5"/>
<line class="st0" x1="4.9" y1="14.5" x2="7.6" y2="14.5"/>
<polyline class="st0" points="12.3,10.5 12.3,4.1 10.9,4.1 10.9,9.1 "/>
<polyline class="st0" points="9.5,10.5 9.5,5.5 8.1,5.5 8.1,9.1 "/>
<polyline class="st0" points="6.7,10.5 6.7,6.8 5.3,6.8 5.3,9.1 "/>
<rect x="5.6" y="0.4" class="st0" width="6.5" height="1.8"/>
</svg>
