<?xml version="1.0" encoding="utf-8"?>
<!-- Generator: Adobe Illustrator 22.0.1, SVG Export Plug-In . SVG Version: 6.00 Build 0)  -->
<svg version="1.1" id="Layer_1" xmlns="http://www.w3.org/2000/svg" xmlns:xlink="http://www.w3.org/1999/xlink" x="0px" y="0px"
	 width="21.2px" height="24.7px" viewBox="0 0 21.2 24.7" style="enable-background:new 0 0 21.2 24.7;" xml:space="preserve">
<style type="text/css">
	.st0{fill:none;stroke:#7A7A7A;stroke-width:0.654;stroke-linecap:round;stroke-linejoin:round;stroke-miterlimit:10;}
</style>
<path class="st0" d="M7.4,17.1C5,16,3.3,13.5,3.3,10.6c0-4,3.3-7.3,7.3-7.3s7.3,3.3,7.3,7.3c0,2.9-1.7,5.3-4.1,6.5"/>
<path class="st0" d="M10.6,4.8c3.2,0,5.8,2.6,5.8,5.8"/>
<path class="st0" d="M13.8,17.1V18c0,0.6-0.5,1.1-1.1,1.1H8.5c-0.6,0-1.1-0.5-1.1-1.1v-0.8"/>
<polyline class="st0" points="13,19.1 13,20.2 8.2,20.2 8.2,19.1 "/>
<polyline class="st0" points="13,20.2 13,21.4 8.2,21.4 8.2,20.2 "/>
<polyline class="st0" points="13,21.4 13,22.5 8.2,22.5 8.2,21.4 "/>
<path class="st0" d="M12.4,22.5c0,1-0.8,1.8-1.8,1.8s-1.8-0.8-1.8-1.8"/>
<polyline class="st0" points="9.7,11.3 8.8,12 7.9,11.3 "/>
<polyline class="st0" points="11.5,11.3 10.6,12 9.7,11.3 "/>
<polyline class="st0" points="13.3,11.3 12.4,12 11.5,11.3 "/>
<path class="st0" d="M8.8,12c0,0,0.9,1.7,0.9,7"/>
<path class="st0" d="M12.4,12c0,0-0.9,1.7-0.9,7"/>
<line class="st0" x1="10.6" y1="1.9" x2="10.6" y2="0.3"/>
<line class="st0" x1="16.7" y1="4.4" x2="17.8" y2="3.3"/>
<line class="st0" x1="19.3" y1="10.6" x2="20.9" y2="10.6"/>
<line class="st0" x1="16.8" y1="16.7" x2="17.9" y2="17.8"/>
<line class="st0" x1="4.5" y1="16.8" x2="3.4" y2="17.9"/>
<line class="st0" x1="1.9" y1="10.6" x2="0.3" y2="10.6"/>
<line class="st0" x1="4.4" y1="4.5" x2="3.3" y2="3.4"/>
</svg>
