<?xml version="1.0" encoding="utf-8"?>
<!-- Generator: Adobe Illustrator 15.1.0, SVG Export Plug-In . SVG Version: 6.00 Build 0)  -->
<!DOCTYPE svg PUBLIC "-//W3C//DTD SVG 1.1//EN" "http://www.w3.org/Graphics/SVG/1.1/DTD/svg11.dtd">
<svg version="1.1" id="Layer_1" xmlns="http://www.w3.org/2000/svg" xmlns:xlink="http://www.w3.org/1999/xlink" x="0px" y="0px"
	 width="19.001px" height="19px" viewBox="412.366 270.292 19.001 19" enable-background="new 412.366 270.292 19.001 19"
	 xml:space="preserve">
<g>
	<g>
		<path fill="#AFB2B7" d="M418.724,279.674c-0.183,0-0.33-0.147-0.33-0.33v-5.472c0-0.182,0.147-0.33,0.33-0.33
			s0.33,0.147,0.33,0.33v5.472C419.054,279.526,418.905,279.674,418.724,279.674z"/>
	</g>
	<g>
		<path fill="#AFB2B7" d="M421.459,276.938h-5.471c-0.183,0-0.33-0.147-0.33-0.33s0.147-0.33,0.33-0.33h5.471
			c0.183,0,0.33,0.148,0.33,0.33S421.642,276.938,421.459,276.938z"/>
	</g>
	<g>
		<path fill="#AFB2B7" d="M418.684,282.925c-1.688,0-3.272-0.657-4.467-1.85c-1.192-1.193-1.851-2.779-1.851-4.467
			c0-1.687,0.657-3.273,1.851-4.466s2.779-1.85,4.467-1.85s3.273,0.657,4.467,1.85c2.463,2.462,2.463,6.47,0,8.933
			C421.957,282.268,420.37,282.925,418.684,282.925z M418.684,270.952c-1.511,0-2.932,0.588-4,1.657
			c-1.067,1.069-1.656,2.489-1.656,4c0,1.511,0.589,2.932,1.656,4c1.068,1.068,2.489,1.657,4,1.657c1.512,0,2.933-0.588,4-1.657
			c2.205-2.206,2.205-5.794,0-8C421.615,271.54,420.194,270.952,418.684,270.952z"/>
	</g>
	<g>
		<path fill="#AFB2B7" d="M429.21,289.292c-0.087,0-0.171-0.035-0.232-0.097l-7.268-7.267c-0.129-0.128-0.129-0.337,0-0.466
			s0.337-0.129,0.466,0l7.034,7.034l1.36-1.36l-7.033-7.033c-0.129-0.129-0.129-0.338,0-0.467c0.129-0.128,0.338-0.128,0.467,0
			l7.268,7.267c0.128,0.129,0.128,0.337,0,0.466l-1.827,1.827C429.382,289.257,429.298,289.292,429.21,289.292z"/>
	</g>
	<g>
		<path fill="#AFB2B7" d="M424.716,284.798c-0.085,0-0.169-0.032-0.232-0.097c-0.13-0.129-0.13-0.338,0-0.467l1.826-1.827
			c0.13-0.128,0.338-0.128,0.467,0c0.129,0.129,0.129,0.338,0,0.467l-1.826,1.827C424.885,284.766,424.801,284.798,424.716,284.798z
			"/>
	</g>
</g>
</svg>
