<?xml version="1.0" encoding="utf-8"?>
<!-- Generator: Adobe Illustrator 15.1.0, SVG Export Plug-In . SVG Version: 6.00 Build 0)  -->
<!DOCTYPE svg PUBLIC "-//W3C//DTD SVG 1.1//EN" "http://www.w3.org/Graphics/SVG/1.1/DTD/svg11.dtd">
<svg version="1.1" id="Layer_1" xmlns="http://www.w3.org/2000/svg" xmlns:xlink="http://www.w3.org/1999/xlink" x="0px" y="0px"
	 width="18px" height="18px" viewBox="394.754 309.861 18 18" enable-background="new 394.754 309.861 18 18" xml:space="preserve">
<g>
	<path fill="#AEB2B7" d="M403.754,327.861c-4.963,0-9-4.037-9-9s4.037-9,9-9s9,4.037,9,9S408.717,327.861,403.754,327.861z
		 M403.754,310.515c-4.602,0-8.346,3.744-8.346,8.347c0,4.602,3.744,8.346,8.346,8.346c4.603,0,8.346-3.744,8.346-8.346
		C412.1,314.259,408.355,310.515,403.754,310.515z"/>
</g>
<g>
	<path fill="#AEB2B7" d="M403.754,320.694c-1.011,0-1.834-0.822-1.834-1.833c0-1.012,0.823-1.833,1.834-1.833
		s1.834,0.821,1.834,1.833C405.588,319.872,404.765,320.694,403.754,320.694z M403.754,317.682c-0.65,0-1.18,0.529-1.18,1.18
		s0.528,1.18,1.18,1.18s1.18-0.529,1.18-1.18C404.934,318.21,404.404,317.682,403.754,317.682z"/>
</g>
<g>
	<path fill="#AEB2B7" d="M409.771,316.646c-0.129,0-0.249-0.075-0.303-0.2c-0.973-2.302-3.217-3.789-5.716-3.789
		c-0.181,0-0.327-0.146-0.327-0.327s0.146-0.327,0.327-0.327c2.762,0,5.242,1.645,6.318,4.188c0.069,0.166-0.007,0.357-0.175,0.428
		C409.857,316.638,409.814,316.646,409.771,316.646z"/>
</g>
</svg>
