<?xml version="1.0" encoding="utf-8"?>
<!-- Generator: Adobe Illustrator 15.1.0, SVG Export Plug-In . SVG Version: 6.00 Build 0)  -->
<!DOCTYPE svg PUBLIC "-//W3C//DTD SVG 1.1//EN" "http://www.w3.org/Graphics/SVG/1.1/DTD/svg11.dtd">
<svg version="1.1" id="Layer_1" xmlns="http://www.w3.org/2000/svg" xmlns:xlink="http://www.w3.org/1999/xlink" x="0px" y="0px"
	 width="18px" height="18px" viewBox="0 0 18 18" enable-background="new 0 0 18 18" xml:space="preserve">
<g>
	<path fill="#C95632" d="M9,18c-4.963,0-9-4.037-9-9s4.037-9,9-9s9,4.037,9,9S13.963,18,9,18z M9,0.653
		c-4.602,0-8.346,3.744-8.346,8.348c0,4.602,3.744,8.346,8.346,8.346c4.604,0,8.346-3.744,8.346-8.346
		C17.346,4.397,13.602,0.653,9,0.653z"/>
</g>
<g>
	<path fill="#C95632" d="M9,10.833c-1.011,0-1.834-0.822-1.834-1.833c0-1.013,0.823-1.833,1.834-1.833S10.834,7.987,10.834,9
		C10.834,10.011,10.011,10.833,9,10.833z M9,7.82c-0.65,0-1.18,0.529-1.18,1.181c0,0.65,0.527,1.18,1.18,1.18s1.18-0.529,1.18-1.18
		C10.18,8.349,9.65,7.82,9,7.82z"/>
</g>
<g>
	<path fill="#C95632" d="M15.018,6.785c-0.13,0-0.249-0.075-0.304-0.2c-0.973-2.303-3.217-3.789-5.716-3.789
		c-0.181,0-0.327-0.146-0.327-0.327s0.146-0.327,0.327-0.327c2.762,0,5.242,1.646,6.318,4.188c0.068,0.166-0.008,0.356-0.176,0.428
		C15.104,6.776,15.061,6.785,15.018,6.785z"/>
</g>
</svg>
