<?xml version="1.0" encoding="utf-8"?>
<!-- Generator: Adobe Illustrator 15.1.0, SVG Export Plug-In . SVG Version: 6.00 Build 0)  -->
<!DOCTYPE svg PUBLIC "-//W3C//DTD SVG 1.1//EN" "http://www.w3.org/Graphics/SVG/1.1/DTD/svg11.dtd">
<svg version="1.1" id="Layer_1" xmlns="http://www.w3.org/2000/svg" xmlns:xlink="http://www.w3.org/1999/xlink" x="0px" y="0px"
	 width="17px" height="18.889px" viewBox="0 0 17 18.889" enable-background="new 0 0 17 18.889" xml:space="preserve">
<g>
	<path fill="#C95632" d="M1.61,6.762c-0.188,0-0.345,0.153-0.345,0.345v11.438c0,0.189,0.154,0.343,0.345,0.343
		c0.191,0,0.347-0.152,0.347-0.343V7.107C1.955,6.916,1.801,6.762,1.61,6.762z"/>
	<path fill="#C95632" d="M6.205,13.575c-0.19,0-0.345,0.154-0.345,0.343v4.628c0,0.189,0.152,0.343,0.345,0.343
		c0.19,0,0.344-0.152,0.344-0.343v-4.628C6.549,13.729,6.396,13.575,6.205,13.575z"/>
	<path fill="#C95632" d="M10.799,9.508c-0.19,0-0.345,0.154-0.345,0.343v8.695c0,0.189,0.154,0.343,0.345,0.343
		s0.345-0.152,0.345-0.343V9.85C11.144,9.662,10.989,9.508,10.799,9.508z"/>
	<path fill="#C95632" d="M2.874,5.546H1.955V0.343C1.955,0.155,1.801,0,1.61,0C1.419,0,1.264,0.153,1.264,0.343v5.203H0.345
		C0.155,5.546,0,5.7,0,5.888c0,0.189,0.153,0.345,0.345,0.345h2.527c0.189,0,0.345-0.154,0.345-0.345
		C3.219,5.7,3.065,5.546,2.874,5.546z"/>
	<path fill="#C95632" d="M7.468,12.345H6.549V0.344c0-0.188-0.153-0.343-0.345-0.343c-0.189,0-0.346,0.153-0.346,0.343v12.002H4.94
		c-0.19,0-0.346,0.153-0.346,0.345c0,0.188,0.153,0.343,0.346,0.343h2.525c0.189,0,0.346-0.154,0.346-0.343
		C7.813,12.499,7.657,12.345,7.468,12.345z"/>
	<path fill="#C95632" d="M15.394,15.745c-0.188,0-0.345,0.154-0.345,0.343v2.458c0,0.189,0.155,0.343,0.345,0.343
		c0.19,0,0.346-0.152,0.346-0.343v-2.458C15.737,15.899,15.584,15.745,15.394,15.745z"/>
	<path fill="#C95632" d="M16.657,14.431h-0.92V0.344c0-0.188-0.153-0.343-0.346-0.343c-0.189,0-0.345,0.153-0.345,0.343v14.088
		h-0.919c-0.189,0-0.346,0.154-0.346,0.345c0,0.188,0.154,0.343,0.346,0.343h2.525c0.19,0,0.347-0.154,0.347-0.343
		C17.001,14.586,16.848,14.431,16.657,14.431z"/>
	<path fill="#C95632" d="M12.063,8.177h-0.92V0.344c0-0.188-0.154-0.343-0.345-0.343s-0.345,0.153-0.345,0.343v7.834h-0.92
		c-0.189,0-0.344,0.154-0.344,0.343c0,0.189,0.152,0.345,0.344,0.345h2.527c0.189,0,0.346-0.154,0.346-0.345
		C12.407,8.332,12.253,8.177,12.063,8.177z"/>
</g>
</svg>
