<?xml version="1.0" encoding="utf-8"?>
<!-- Generator: Adobe Illustrator 15.1.0, SVG Export Plug-In . SVG Version: 6.00 Build 0)  -->
<!DOCTYPE svg PUBLIC "-//W3C//DTD SVG 1.1//EN" "http://www.w3.org/Graphics/SVG/1.1/DTD/svg11.dtd">
<svg version="1.1" id="Layer_1" xmlns="http://www.w3.org/2000/svg" xmlns:xlink="http://www.w3.org/1999/xlink" x="0px" y="0px"
	 width="18px" height="17.957px" viewBox="0 0 18 17.957" enable-background="new 0 0 18 17.957" xml:space="preserve">
<g>
	<path fill="#C95632" d="M9,0C4.037,0,0,4.037,0,9s4.037,9,9,9s9-4.037,9-9S13.963,0,9,0z M9,17.346
		c-4.602,0-8.346-3.744-8.346-8.346c0-4.604,3.744-8.348,8.346-8.348c4.604,0,8.346,3.744,8.346,8.348
		C17.346,13.602,13.602,17.346,9,17.346z"/>
	<path fill="#C95632" d="M12.67,10.502L9.327,8.8V3.536c0-0.183-0.146-0.327-0.327-0.327S8.673,3.354,8.673,3.536V9
		c0,0.017,0.007,0.029,0.012,0.047C8.688,9.068,8.69,9.092,8.699,9.111c0.007,0.021,0.019,0.037,0.03,0.057
		C8.74,9.186,8.75,9.204,8.761,9.219c0.019,0.018,0.036,0.03,0.057,0.043c0.012,0.009,0.02,0.02,0.036,0.029l3.521,1.793
		c0.047,0.021,0.098,0.036,0.146,0.036c0.119,0,0.232-0.065,0.293-0.181C12.896,10.779,12.831,10.584,12.67,10.502z"/>
</g>
</svg>
