<?xml version="1.0" encoding="utf-8"?>
<!-- Generator: Adobe Illustrator 22.0.1, SVG Export Plug-In . SVG Version: 6.00 Build 0)  -->
<svg version="1.1" id="Layer_1" xmlns="http://www.w3.org/2000/svg" xmlns:xlink="http://www.w3.org/1999/xlink" x="0px" y="0px"
	 width="19px" height="20px" viewBox="0 0 19 20" style="enable-background:new 0 0 19 20;" xml:space="preserve">
<style type="text/css">
	.st0{fill:#FFFFFF;}
</style>
<g>
	<g>
		<path class="st0" d="M13.2,14.3h-0.1l-1.9-1c-0.3-0.1-0.4-0.4-0.4-0.7v-0.7v-0.1c0-0.1,0.1-0.1,0.2-0.2c0.2-0.3,0.4-0.7,0.5-1.1
			c0-0.1,0.1-0.1,0.1-0.2C11.8,10.2,12,10,12,9.8V9c0-0.1,0-0.3-0.1-0.3c0,0-0.1-0.1-0.1-0.2V7.4c0-0.2,0-0.7-0.4-1.2
			c-0.4-0.4-1-0.6-1.8-0.6S8.1,5.8,7.8,6.2C7.3,6.7,7.4,7.3,7.4,7.3v1.1c0,0.1,0,0.1-0.1,0.2c0,0.1-0.1,0.3-0.1,0.4v0.8
			c0,0.2,0.1,0.3,0.2,0.4l0.1,0.1C7.7,11,8,11.5,8.2,11.7c0,0,0.1,0.1,0.1,0.2v0.7c0,0.3-0.1,0.5-0.4,0.7l-1.8,1
			c-0.1,0.1-0.3,0-0.3-0.1c-0.1-0.1,0-0.3,0.1-0.3l1.8-1c0.1-0.1,0.2-0.2,0.2-0.3V12c-0.2-0.3-0.5-0.8-0.7-1.4
			C7,10.4,6.9,10.1,6.9,9.8V9c0-0.2,0.1-0.4,0.2-0.6v-1c0-0.2,0-0.9,0.5-1.5c0.5-0.5,1.2-0.8,2.2-0.8s1.7,0.3,2.2,0.8
			c0.5,0.6,0.5,1.3,0.5,1.5v0.9c0.1,0.2,0.2,0.4,0.2,0.6v0.8c0,0.4-0.2,0.7-0.5,0.9c-0.1,0.4-0.3,0.8-0.6,1.2l-0.1,0.1v0.6
			c0,0.1,0.1,0.2,0.2,0.3l1.9,1c0.1,0.1,0.2,0.2,0.1,0.3C13.4,14.3,13.3,14.3,13.2,14.3z"/>
	</g>
	<g>
		<path class="st0" d="M3,5.6c-0.1,0-0.2,0-0.2-0.1c-0.1-0.1,0-0.3,0.1-0.3l5.8-3.3C8.8,1.8,9,1.9,9,2c0.1,0,0,0.1-0.1,0.2L3,5.6
			L3,5.6z"/>
	</g>
	<g>
		<path class="st0" d="M2.2,13.5c-0.1,0-0.2-0.1-0.2-0.2V6.6c0-0.1,0.1-0.2,0.2-0.2s0.2,0.1,0.2,0.2v6.7C2.5,13.4,2.4,13.5,2.2,13.5
			z"/>
	</g>
	<g>
		<path class="st0" d="M8.8,18.2H8.7l-5.8-3.4c-0.1-0.1-0.2-0.2-0.1-0.3s0.2-0.2,0.3-0.1l5.8,3.4C9,17.8,9.1,18,9,18.1
			C9,18.2,8.9,18.2,8.8,18.2z"/>
	</g>
	<g>
		<path class="st0" d="M10.3,18.2c-0.1,0-0.2,0-0.2-0.1c-0.1-0.1,0-0.3,0.1-0.3l5.8-3.4c0.1-0.1,0.3,0,0.3,0.1
			c0.1,0.1,0,0.3-0.1,0.3L10.3,18.2C10.4,18.2,10.3,18.2,10.3,18.2z"/>
	</g>
	<g>
		<path class="st0" d="M16.9,13.5c-0.1,0-0.2-0.1-0.2-0.2V6.7c0-0.1,0.1-0.2,0.2-0.2s0.2,0.1,0.2,0.2v6.6
			C17.1,13.4,17,13.5,16.9,13.5z"/>
	</g>
	<g>
		<path class="st0" d="M16.1,5.6H16l-5.8-3.3C10,2.1,10,2,10.1,1.8c0.1-0.1,0.2-0.2,0.3-0.1L16.2,5c0.1,0.1,0.2,0.2,0.1,0.3
			C16.3,5.5,16.2,5.6,16.1,5.6z"/>
	</g>
	<g>
		<path class="st0" d="M9.6,2.6C9,2.6,8.5,2.1,8.5,1.5S9,0.4,9.6,0.4s1.1,0.5,1.1,1.1C10.7,2.1,10.2,2.6,9.6,2.6z M9.6,0.9
			C9.2,0.9,9,1.2,9,1.5s0.3,0.6,0.6,0.6s0.6-0.3,0.6-0.6C10.2,1.2,9.9,0.9,9.6,0.9z"/>
	</g>
	<g>
		<path class="st0" d="M9.6,19.5c-0.6,0-1.1-0.5-1.1-1.1s0.5-1.1,1.1-1.1s1.1,0.5,1.1,1.1C10.7,19,10.2,19.5,9.6,19.5z M9.6,17.8
			C9.2,17.8,9,18,9,18.4C9,18.7,9.2,19,9.6,19c0.3,0,0.6-0.3,0.6-0.6C10.2,18.1,9.9,17.8,9.6,17.8z"/>
	</g>
	<g>
		<path class="st0" d="M16.9,6.8c-0.6,0-1.1-0.5-1.1-1.1s0.5-1.1,1.2-1.1c0.3,0,0.5,0.1,0.7,0.3C17.8,5.1,18,5.4,18,5.7
			C18,6.3,17.5,6.8,16.9,6.8z M16.9,5.1c-0.4,0-0.6,0.3-0.6,0.6c0,0.3,0.3,0.6,0.6,0.6c0.3,0,0.6-0.3,0.6-0.6c0-0.2-0.1-0.3-0.2-0.4
			C17.2,5.2,17,5.1,16.9,5.1z"/>
	</g>
	<g>
		<path class="st0" d="M2.2,6.8c-0.6,0-1.1-0.5-1.1-1.1s0.5-1.1,1.1-1.1c0.3,0,0.5,0.1,0.7,0.3c0.2,0.2,0.3,0.5,0.3,0.8
			C3.3,6.3,2.8,6.8,2.2,6.8z M2.3,5.1c-0.4,0-0.6,0.3-0.6,0.6C1.7,6,2,6.3,2.3,6.3S2.9,6,2.9,5.7c0-0.2-0.1-0.3-0.2-0.5
			C2.5,5.2,2.4,5.1,2.3,5.1z"/>
	</g>
	<g>
		<path class="st0" d="M16.9,15.3c-0.6,0-1.1-0.5-1.1-1.1s0.5-1.1,1.1-1.1c0.3,0,0.5,0.1,0.8,0.3c0.2,0.2,0.3,0.5,0.3,0.8
			C18,14.8,17.5,15.3,16.9,15.3z M16.9,13.6c-0.4,0-0.6,0.3-0.6,0.6s0.3,0.6,0.6,0.6c0.3,0,0.6-0.3,0.6-0.6c0-0.2-0.1-0.3-0.2-0.4
			C17.2,13.6,17,13.6,16.9,13.6z"/>
	</g>
	<g>
		<path class="st0" d="M2.2,15.3c-0.6,0-1.1-0.5-1.1-1.1s0.5-1.1,1.1-1.1c0.3,0,0.6,0.1,0.8,0.3c0.2,0.2,0.3,0.5,0.3,0.8
			C3.3,14.8,2.8,15.3,2.2,15.3z M2.3,13.6c-0.4,0-0.6,0.3-0.6,0.6s0.3,0.6,0.6,0.6s0.6-0.3,0.6-0.6c0-0.2-0.1-0.3-0.2-0.5
			C2.5,13.6,2.4,13.6,2.3,13.6z"/>
	</g>
</g>
</svg>
