<?xml version="1.0" encoding="utf-8"?>
<!-- Generator: Adobe Illustrator 15.1.0, SVG Export Plug-In . SVG Version: 6.00 Build 0)  -->
<!DOCTYPE svg PUBLIC "-//W3C//DTD SVG 1.1//EN" "http://www.w3.org/Graphics/SVG/1.1/DTD/svg11.dtd">
<svg version="1.1" id="Layer_1" xmlns="http://www.w3.org/2000/svg" xmlns:xlink="http://www.w3.org/1999/xlink" x="0px" y="0px"
	 width="17px" height="18.888px" viewBox="343.494 309.418 17 18.888" enable-background="new 343.494 309.418 17 18.888"
	 xml:space="preserve">
<g>
	<path fill="#AEB2B7" d="M345.104,316.18c-0.189,0-0.345,0.153-0.345,0.344v11.439c0,0.189,0.154,0.343,0.345,0.343
		c0.191,0,0.346-0.153,0.346-0.343v-11.439C345.448,316.333,345.294,316.18,345.104,316.18z"/>
	<path fill="#AEB2B7" d="M349.698,322.992c-0.19,0-0.345,0.154-0.345,0.343v4.628c0,0.189,0.153,0.343,0.345,0.343
		c0.19,0,0.344-0.153,0.344-0.343v-4.628C350.042,323.146,349.889,322.992,349.698,322.992z"/>
	<path fill="#AEB2B7" d="M354.292,318.925c-0.19,0-0.345,0.154-0.345,0.343v8.695c0,0.189,0.154,0.343,0.345,0.343
		s0.345-0.153,0.345-0.343v-8.695C354.637,319.079,354.482,318.925,354.292,318.925z"/>
	<path fill="#AEB2B7" d="M346.367,314.963h-0.919v-5.203c0-0.188-0.154-0.343-0.345-0.343c-0.191,0-0.346,0.153-0.346,0.343v5.203
		h-0.919c-0.19,0-0.345,0.154-0.345,0.343c0,0.189,0.154,0.344,0.345,0.344h2.527c0.19,0,0.345-0.154,0.345-0.344
		C346.712,315.117,346.559,314.963,346.367,314.963z"/>
	<path fill="#AEB2B7" d="M350.961,321.763h-0.919v-12.002c0-0.188-0.153-0.343-0.345-0.343c-0.189,0-0.346,0.153-0.346,0.343v12.002
		h-0.918c-0.19,0-0.345,0.153-0.345,0.344c0,0.188,0.153,0.343,0.345,0.343h2.526c0.19,0,0.345-0.154,0.345-0.343
		C351.307,321.916,351.15,321.763,350.961,321.763z"/>
	<path fill="#AEB2B7" d="M358.887,325.162c-0.188,0-0.345,0.154-0.345,0.343v2.458c0,0.189,0.155,0.343,0.345,0.343
		c0.19,0,0.346-0.153,0.346-0.343v-2.458C359.23,325.316,359.077,325.162,358.887,325.162z"/>
	<path fill="#AEB2B7" d="M360.15,323.849h-0.92v-14.088c0-0.188-0.153-0.343-0.345-0.343c-0.19,0-0.345,0.153-0.345,0.343v14.088
		h-0.919c-0.19,0-0.345,0.154-0.345,0.344c0,0.188,0.154,0.343,0.345,0.343h2.526c0.19,0,0.346-0.154,0.346-0.343
		C360.494,324.003,360.341,323.849,360.15,323.849z"/>
	<path fill="#AEB2B7" d="M355.557,317.595h-0.92v-7.834c0-0.188-0.154-0.343-0.345-0.343s-0.345,0.153-0.345,0.343v7.834h-0.92
		c-0.189,0-0.344,0.154-0.344,0.343c0,0.189,0.153,0.344,0.344,0.344h2.527c0.19,0,0.346-0.154,0.346-0.344
		C355.9,317.749,355.746,317.595,355.557,317.595z"/>
</g>
</svg>
