<?xml version="1.0" encoding="utf-8"?>
<!-- Generator: Adobe Illustrator 15.1.0, SVG Export Plug-In . SVG Version: 6.00 Build 0)  -->
<!DOCTYPE svg PUBLIC "-//W3C//DTD SVG 1.1//EN" "http://www.w3.org/Graphics/SVG/1.1/DTD/svg11.dtd">
<svg version="1.1" id="Layer_1" xmlns="http://www.w3.org/2000/svg" xmlns:xlink="http://www.w3.org/1999/xlink" x="0px" y="0px"
	 width="14.638px" height="18.156px" viewBox="544.929 312.341 14.638 18.156"
	 enable-background="new 544.929 312.341 14.638 18.156" xml:space="preserve">
<path fill="#FF6633" d="M559.567,318.843c0-0.125-0.068-0.233-0.169-0.291l-6.112-6.113c-0.059-0.058-0.135-0.082-0.213-0.088
	c-0.01-0.001-0.015-0.01-0.024-0.01h-7.784c-0.185,0-0.335,0.15-0.335,0.335v17.486c0,0.185,0.15,0.335,0.335,0.335h13.951
	c0.185,0,0.335-0.15,0.335-0.335v-11.279C559.552,318.869,559.567,318.859,559.567,318.843z M553.383,313.485l5.023,5.023h-5.023
	V313.485z M545.599,329.828v-16.816h7.114v5.832c0,0.185,0.15,0.335,0.335,0.335h5.832v10.649H545.599z"/>
</svg>
