<?xml version="1.0" encoding="utf-8"?>
<!-- Generator: Adobe Illustrator 15.1.0, SVG Export Plug-In . SVG Version: 6.00 Build 0)  -->
<!DOCTYPE svg PUBLIC "-//W3C//DTD SVG 1.1//EN" "http://www.w3.org/Graphics/SVG/1.1/DTD/svg11.dtd">
<svg version="1.1" id="Layer_1" xmlns="http://www.w3.org/2000/svg" xmlns:xlink="http://www.w3.org/1999/xlink" x="0px" y="0px"
	 width="15.999px" height="18.287px" viewBox="504.069 312.282 15.999 18.287"
	 enable-background="new 504.069 312.282 15.999 18.287" xml:space="preserve">
<g>
	<path fill="#AEB2B7" d="M518.757,313.584c-0.848-0.84-1.977-1.302-3.177-1.302c-1.096,0-2.129,0.39-2.947,1.097
		c-0.124-0.093-0.299-0.088-0.412,0.024c-0.113,0.111-0.117,0.284-0.023,0.408c-0.939,1.066-1.282,2.472-1.021,3.783
		c-0.003,0.004-0.009,0.006-0.012,0.011l-6.627,7.747c-0.107,0.125-0.1,0.311,0.018,0.427l0.717,0.709l-0.76,0.751
		c-0.33,0.327-0.483,0.785-0.434,1.29c0.047,0.481,0.278,0.948,0.648,1.315l0.144,0.142c0.392,0.388,0.907,0.583,1.423,0.583
		s1.031-0.194,1.424-0.583l3.746-3.708c0.537-0.532,1.391-0.554,1.901-0.046c0.511,0.506,0.489,1.35-0.047,1.881l-1.557,1.539
		c-0.124,0.123-0.124,0.321,0,0.444s0.325,0.123,0.449,0l1.556-1.54c0.785-0.776,0.807-2.02,0.048-2.771
		c-0.76-0.751-2.017-0.731-2.802,0.046l-3.746,3.708c-0.536,0.531-1.41,0.532-1.947,0l-0.143-0.14
		c-0.527-0.522-0.627-1.309-0.215-1.716l0.759-0.752l0.718,0.709c0.062,0.062,0.143,0.093,0.225,0.093
		c0.073,0,0.146-0.024,0.205-0.074l7.827-6.561c0.003-0.002,0.005-0.006,0.007-0.009c0.287,0.057,0.581,0.085,0.879,0.085
		c1.095,0,2.126-0.388,2.943-1.092c0.061,0.056,0.138,0.086,0.215,0.086c0.082,0,0.163-0.031,0.225-0.092
		c0.122-0.121,0.123-0.312,0.006-0.438C520.501,317.896,520.434,315.244,518.757,313.584z M506.68,326.992l-1.469-1.454l4.516-5.279
		c0.258,0.478,0.582,0.913,0.975,1.3c0.39,0.387,0.833,0.707,1.314,0.961L506.68,326.992z M512.521,322.097
		c-0.024-0.023-0.052-0.048-0.084-0.063c-0.477-0.234-0.909-0.543-1.288-0.918c-0.408-0.404-0.731-0.87-0.974-1.381l1.211-1.417
		c0.22,0.566,0.556,1.1,1.017,1.556c0.454,0.449,0.987,0.786,1.569,1.007L512.521,322.097z M512.854,319.428
		c-1.429-1.414-1.496-3.667-0.214-5.165l3.842,3.802c0.062,0.062,0.144,0.092,0.225,0.092s0.162-0.031,0.225-0.092
		c0.124-0.123,0.124-0.322,0-0.445l-3.842-3.802c0.696-0.585,1.568-0.907,2.492-0.907c1.03,0,1.999,0.396,2.728,1.119
		c1.429,1.413,1.497,3.667,0.214,5.165l-0.794-0.786c-0.125-0.123-0.325-0.123-0.449,0s-0.124,0.321,0,0.444l0.795,0.786
		c-0.696,0.585-1.568,0.907-2.492,0.907C514.55,320.546,513.581,320.149,512.854,319.428z"/>
	<path fill="#AEB2B7" d="M516.613,314.098c-0.083,0.082-0.083,0.214,0,0.296c0.082,0.082,0.217,0.082,0.299,0
		c0.084-0.082,0.083-0.214,0-0.296C516.83,314.016,516.695,314.016,516.613,314.098z"/>
	<path fill="#AEB2B7" d="M514.944,314.01c-0.083,0.082-0.083,0.214,0,0.297c0.083,0.082,0.217,0.082,0.3,0
		c0.083-0.083,0.083-0.215,0-0.297S515.027,313.928,514.944,314.01z"/>
</g>
</svg>
