<?xml version="1.0" encoding="utf-8"?>
<!-- Generator: Adobe Illustrator 22.0.1, SVG Export Plug-In . SVG Version: 6.00 Build 0)  -->
<svg version="1.1" id="Layer_1" xmlns="http://www.w3.org/2000/svg" xmlns:xlink="http://www.w3.org/1999/xlink" x="0px" y="0px"
	 width="15px" height="15px" viewBox="0 0 15 15" style="enable-background:new 0 0 15 15;" xml:space="preserve">
<style type="text/css">
	.st0{fill:#8B26B2;}
</style>
<g>
	<path class="st0" d="M4.8,8c0-0.1,0-0.2,0-0.2c0,0,0-0.1,0-0.1V0.8l1.5,1.4c0.1,0.1,0.3,0.1,0.4,0c0.1-0.1,0.1-0.3,0-0.3L4.8,0.1
		C4.7,0,4.6,0,4.5,0c-0.1,0-0.2,0.1-0.2,0.2v6.6C3.9,6.4,3.2,6.1,2.4,6.1C1.1,6.1,0,7,0,8c0,1.1,1.1,1.9,2.4,1.9
		C3.8,9.9,4.8,9.1,4.8,8z M2.4,9.5C1.4,9.5,0.5,8.8,0.5,8c0-0.8,0.9-1.4,1.9-1.4c1.1,0,1.9,0.6,1.9,1.4C4.3,8.8,3.5,9.5,2.4,9.5z"/>
	<path class="st0" d="M15,5.3c0-0.1-0.1-0.2-0.3-0.2H7.9c-0.1,0-0.3,0.1-0.3,0.2v6.6c-0.4-0.5-1.1-0.7-1.9-0.7
		c-1.3,0-2.4,0.9-2.4,1.9S4.4,15,5.8,15s2.4-0.9,2.4-1.9c0-0.1,0-0.2,0-0.2c0,0,0-0.1,0-0.1V5.5h6.3v6.4c-0.4-0.5-1.1-0.7-1.9-0.7
		c-1.3,0-2.4,0.9-2.4,1.9c0,1.1,1.1,1.9,2.4,1.9c1.3,0,2.4-0.9,2.4-1.9c0-0.1,0-0.2,0-0.2c0,0,0-0.1,0-0.1L15,5.3L15,5.3z M5.8,14.5
		c-1.1,0-1.9-0.6-1.9-1.4s0.9-1.4,1.9-1.4c1.1,0,1.9,0.6,1.9,1.4C7.7,13.9,6.8,14.5,5.8,14.5z M12.6,14.5c-1.1,0-1.9-0.6-1.9-1.4
		s0.9-1.4,1.9-1.4c1.1,0,1.9,0.6,1.9,1.4C14.5,13.9,13.6,14.5,12.6,14.5z"/>
</g>
</svg>
