<?xml version="1.0" encoding="utf-8"?>
<!-- Generator: Adobe Illustrator 15.1.0, SVG Export Plug-In . SVG Version: 6.00 Build 0)  -->
<!DOCTYPE svg PUBLIC "-//W3C//DTD SVG 1.1//EN" "http://www.w3.org/Graphics/SVG/1.1/DTD/svg11.dtd">
<svg version="1.1" id="Layer_1" xmlns="http://www.w3.org/2000/svg" xmlns:xlink="http://www.w3.org/1999/xlink" x="0px" y="0px"
	 width="19.336px" height="18.301px" viewBox="0 0 19.336 18.301" enable-background="new 0 0 19.336 18.301" xml:space="preserve">
<g>
	<path fill="#FF6633" d="M13.043,3.229c0-0.092-0.043-0.18-0.115-0.236c-0.07-0.061-0.166-0.08-0.256-0.062L6.641,4.245
		C6.5,4.276,6.401,4.399,6.401,4.543v5.941C5.997,10.129,5.424,9.903,4.79,9.903c-1.225,0-2.223,0.826-2.223,1.846
		c0,1.018,0.998,1.846,2.223,1.846s2.223-0.828,2.223-1.846c0-0.08-0.018-0.156-0.027-0.234c0.006-0.023,0.027-0.041,0.027-0.066
		v-4.73l5.42-1.182V9.17c-0.404-0.355-0.977-0.582-1.611-0.582c-1.225,0-2.223,0.828-2.223,1.846s0.998,1.844,2.223,1.844
		c1.227,0,2.225-0.826,2.225-1.844c0-0.08-0.018-0.156-0.029-0.232c0.008-0.025,0.029-0.043,0.029-0.068V3.229H13.043z M4.79,12.983
		c-0.889,0-1.611-0.555-1.611-1.232c0-0.682,0.723-1.236,1.611-1.236s1.611,0.555,1.611,1.236
		C6.401,12.428,5.678,12.983,4.79,12.983z M10.821,11.668c-0.891,0-1.611-0.555-1.611-1.234s0.723-1.232,1.611-1.232
		s1.611,0.553,1.611,1.232S11.709,11.668,10.821,11.668z M7.01,6.092V4.79l5.422-1.184v1.305L7.01,6.092z"/>
	<path fill="#FF6633" d="M19.086,10.209l-0.939-0.941c-0.334-0.332-0.877-0.332-1.209,0l-5.254,5.254
		c-0.014,0.014-0.012,0.035-0.021,0.051s-0.031,0.018-0.039,0.035l-1.539,3.258c-0.055,0.115-0.031,0.256,0.061,0.346
		c0.059,0.059,0.137,0.09,0.217,0.09c0.043,0,0.088-0.01,0.129-0.029l3.258-1.539c0.018-0.008,0.021-0.029,0.037-0.041
		c0.014-0.01,0.035-0.006,0.049-0.02l5.254-5.252C19.418,11.084,19.418,10.542,19.086,10.209z M13.538,16.104l-1.285-1.285
		l4.117-4.117l1.287,1.285L13.538,16.104z M11.94,15.37l1.047,1.047L11,17.354L11.94,15.37z M18.657,10.989l-0.568,0.566
		l-1.287-1.287l0.568-0.566c0.096-0.096,0.254-0.094,0.346,0l0.939,0.939C18.749,10.735,18.749,10.893,18.657,10.989z"/>
	<path fill="#FF6633" d="M0.61,15.059V1.12c0-0.281,0.229-0.512,0.51-0.512h15c0.281,0,0.51,0.23,0.51,0.512v7.031l0.609-0.609V1.12
		C17.239,0.502,16.737,0,16.12,0h-15C0.502,0,0,0.502,0,1.12v13.939c0,0.617,0.502,1.119,1.119,1.119h8.201l0.289-0.611H1.12
		C0.836,15.567,0.61,15.34,0.61,15.059z"/>
</g>
</svg>
