<?xml version="1.0" encoding="utf-8"?>
<!-- Generator: Adobe Illustrator 22.0.1, SVG Export Plug-In . SVG Version: 6.00 Build 0)  -->
<svg version="1.1" id="Layer_1" xmlns="http://www.w3.org/2000/svg" xmlns:xlink="http://www.w3.org/1999/xlink" x="0px" y="0px"
	 width="16px" height="15.1px" viewBox="0 0 16 15.1" style="enable-background:new 0 0 16 15.1;" xml:space="preserve">
<style type="text/css">
	.st0{fill:#AEB2B7;}
	.st1{fill:#7A7A7A;}
</style>
<g>
	<path class="st0" d="M359.8,391.3h-4.1c-0.1,0-0.2-0.1-0.2-0.2v-4.4h-2.7v4.4c0,0.1-0.1,0.2-0.2,0.2h-4.1c-0.1,0-0.2-0.1-0.2-0.2
		v-7h-1.7c-0.1,0-0.2-0.1-0.2-0.1c0-0.1,0-0.2,0.1-0.3l7.6-7.4c0.1-0.1,0.2-0.1,0.3,0l2.2,2v-1.7c0-0.1,0.1-0.2,0.2-0.2h1.8
		c0.1,0,0.2,0.1,0.2,0.2v3.8l3.5,3.3c0.1,0.1,0.1,0.2,0.1,0.3s-0.1,0.2-0.2,0.2h-2v7C360,391.1,359.9,391.3,359.8,391.3z
		 M355.9,390.8h3.6v-7c0-0.1,0.1-0.2,0.2-0.2h1.6l-3.1-2.9c0,0-0.1-0.1-0.1-0.2v-3.7h-1.3v2c0,0.1-0.1,0.2-0.1,0.2
		c-0.1,0-0.2,0-0.3,0l-2.4-2.2l-7,6.8h1.3c0.1,0,0.2,0.1,0.2,0.2v7h3.6v-4.4c0-0.1,0.1-0.2,0.2-0.2h3.2c0.1,0,0.2,0.1,0.2,0.2
		L355.9,390.8L355.9,390.8L355.9,390.8z"/>
</g>
<g id="Document">
	<path class="st1" d="M14.1,13.6V3.3c0-1.6-1.4-2.9-3.1-2.9H3.1c-0.7,0-1.2,0.5-1.2,1.1v12c0,0.6,0.5,1.1,1.2,1.1h9.8
		C13.6,14.7,14.1,14.2,14.1,13.6z M3.1,1.2h7.1v2.7h3.1v9.7c0,0.2-0.2,0.4-0.4,0.4H3.1c-0.2,0-0.4-0.2-0.4-0.4v-12
		C2.7,1.3,2.9,1.2,3.1,1.2z M13.3,3.1h-2.2V1.2C12.2,1.2,13.2,2,13.3,3.1z"/>
</g>
</svg>
