<?xml version="1.0" encoding="utf-8"?>
<!-- Generator: Adobe Illustrator 15.1.0, SVG Export Plug-In . SVG Version: 6.00 Build 0)  -->
<!DOCTYPE svg PUBLIC "-//W3C//DTD SVG 1.1//EN" "http://www.w3.org/Graphics/SVG/1.1/DTD/svg11.dtd">
<svg version="1.1" id="Layer_1" xmlns="http://www.w3.org/2000/svg" xmlns:xlink="http://www.w3.org/1999/xlink" x="0px" y="0px"
	 width="16px" height="18.287px" viewBox="0 0 16 18.287" enable-background="new 0 0 16 18.287" xml:space="preserve">
<g>
	<path fill="#C95632" d="M14.687,1.302C13.839,0.462,12.71,0,11.509,0C10.414,0,9.38,0.39,8.562,1.097
		C8.439,1.004,8.263,1.009,8.15,1.121c-0.111,0.11-0.117,0.283-0.021,0.407C7.189,2.595,6.845,4.001,7.107,5.312
		c-0.004,0.004-0.01,0.006-0.012,0.011l-6.627,7.747c-0.107,0.125-0.102,0.312,0.018,0.428l0.717,0.709l-0.76,0.751
		c-0.33,0.327-0.482,0.785-0.434,1.29c0.047,0.48,0.277,0.947,0.646,1.314L0.8,17.704c0.393,0.388,0.908,0.583,1.424,0.583
		s1.031-0.194,1.424-0.583l3.746-3.708c0.537-0.532,1.391-0.555,1.9-0.046c0.512,0.506,0.49,1.35-0.047,1.881L7.691,17.37
		c-0.125,0.123-0.125,0.32,0,0.443c0.123,0.123,0.324,0.123,0.449,0l1.555-1.54c0.785-0.775,0.809-2.02,0.049-2.771
		s-2.018-0.731-2.803,0.046l-3.746,3.708c-0.535,0.531-1.408,0.532-1.945,0l-0.145-0.14C0.58,16.595,0.478,15.808,0.89,15.4
		l0.76-0.752l0.719,0.709c0.061,0.062,0.143,0.094,0.225,0.094c0.072,0,0.145-0.024,0.205-0.074l7.826-6.562
		c0.004-0.002,0.006-0.006,0.008-0.009c0.287,0.057,0.58,0.085,0.879,0.085c1.094,0,2.125-0.388,2.943-1.092
		c0.061,0.056,0.137,0.086,0.215,0.086c0.082,0,0.162-0.031,0.225-0.092c0.121-0.121,0.123-0.312,0.006-0.438
		C16.431,5.614,16.363,2.962,14.687,1.302z M2.609,14.71L1.14,13.256l4.516-5.279c0.26,0.479,0.582,0.913,0.977,1.3
		c0.389,0.388,0.832,0.707,1.312,0.961L2.609,14.71z M8.451,9.814C8.427,9.792,8.398,9.767,8.367,9.752
		C7.89,9.518,7.458,9.209,7.08,8.834C6.671,8.43,6.347,7.964,6.105,7.453l1.211-1.417c0.221,0.565,0.557,1.1,1.018,1.556
		C8.787,8.041,9.32,8.378,9.902,8.599L8.451,9.814z M8.783,7.146C7.355,5.731,7.289,3.479,8.57,1.98l3.842,3.803
		c0.062,0.062,0.145,0.092,0.225,0.092c0.082,0,0.162-0.031,0.225-0.092c0.125-0.123,0.125-0.322,0-0.445L9.019,1.536
		c0.697-0.585,1.568-0.907,2.492-0.907c1.031,0,2,0.396,2.729,1.119c1.43,1.413,1.496,3.667,0.215,5.165L13.66,6.127
		c-0.125-0.123-0.324-0.123-0.449,0c-0.123,0.123-0.123,0.321,0,0.443l0.795,0.786c-0.695,0.585-1.568,0.907-2.492,0.907
		C10.48,8.264,9.511,7.867,8.783,7.146z"/>
	<path fill="#C95632" d="M12.542,1.815c-0.082,0.082-0.082,0.214,0,0.296s0.217,0.082,0.299,0c0.084-0.082,0.084-0.214,0-0.296
		C12.759,1.733,12.625,1.733,12.542,1.815z"/>
	<path fill="#C95632" d="M10.875,1.728c-0.084,0.082-0.084,0.214,0,0.297c0.082,0.082,0.217,0.082,0.299,0
		c0.084-0.083,0.084-0.215,0-0.297C11.091,1.646,10.957,1.646,10.875,1.728z"/>
</g>
</svg>
