<?xml version="1.0" encoding="utf-8"?>
<!-- Generator: Adobe Illustrator 22.0.1, SVG Export Plug-In . SVG Version: 6.00 Build 0)  -->
<svg version="1.1" id="Layer_1" xmlns="http://www.w3.org/2000/svg" xmlns:xlink="http://www.w3.org/1999/xlink" x="0px" y="0px"
	 width="19px" height="20.2px" viewBox="0 0 19 20.2" style="enable-background:new 0 0 19 20.2;" xml:space="preserve">
<style type="text/css">
	.st0{fill:#8B26B2;}
</style>
<g>
	<path class="st0" d="M9.5,15.6c-0.2,0-0.4-0.2-0.4-0.4V0.4C9.1,0.2,9.3,0,9.5,0s0.4,0.2,0.4,0.4v14.9C9.9,15.5,9.7,15.6,9.5,15.6z"
		/>
</g>
<g>
	<g>
		<path class="st0" d="M18.6,20.2H0.4C0.2,20.2,0,20,0,19.8v-4.6c0-0.2,0.2-0.4,0.4-0.4c0.2,0,0.4,0.2,0.4,0.4v4.2h17.5v-4.2
			c0-0.2,0.2-0.4,0.4-0.4c0.2,0,0.4,0.2,0.4,0.4v4.6C19,20,18.8,20.2,18.6,20.2z"/>
	</g>
</g>
<g>
	<path class="st0" d="M9.5,15.6c-0.1,0-0.2,0-0.3-0.1l-4.4-4.4c-0.1-0.1-0.1-0.4,0-0.5c0.1-0.1,0.4-0.1,0.5,0l4.2,4.2l4.2-4.2
		c0.1-0.1,0.4-0.1,0.5,0c0.1,0.1,0.1,0.4,0,0.5l-4.4,4.4C9.7,15.6,9.6,15.6,9.5,15.6z"/>
</g>
</svg>
