<?xml version="1.0" encoding="utf-8"?>
<!-- Generator: Adobe Illustrator 16.0.0, SVG Export Plug-In . SVG Version: 6.00 Build 0)  -->
<!DOCTYPE svg PUBLIC "-//W3C//DTD SVG 1.1//EN" "http://www.w3.org/Graphics/SVG/1.1/DTD/svg11.dtd">
<svg version="1.1" id="Layer_1" xmlns="http://www.w3.org/2000/svg" xmlns:xlink="http://www.w3.org/1999/xlink" x="0px" y="0px"
	 width="100px" height="100px" viewBox="0 0 100 100" enable-background="new 0 0 100 100" xml:space="preserve">
<g id="Document">
	<path fill="#AEB2B7" d="M83.359,79.15V24.276c0-8.54-7.492-15.486-16.702-15.486H24.538c-3.604,0-6.536,2.718-6.536,6.061v64.3
		c0,3.342,2.933,6.061,6.536,6.061h52.285C80.427,85.211,83.359,82.493,83.359,79.15z M24.538,12.83h38.125v14.309h16.338V79.15
		c0,1.115-0.978,2.021-2.178,2.021H24.538c-1.201,0-2.18-0.905-2.18-2.021v-64.3C22.358,13.737,23.337,12.83,24.538,12.83z
		 M78.936,23.099H67.02V12.848C73.23,13.017,78.311,17.448,78.936,23.099z"/>
</g>
</svg>
