<?xml version="1.0" encoding="utf-8"?>
<!-- Generator: Adobe Illustrator 22.0.1, SVG Export Plug-In . SVG Version: 6.00 Build 0)  -->
<svg version="1.1" id="Layer_1" xmlns="http://www.w3.org/2000/svg" xmlns:xlink="http://www.w3.org/1999/xlink" x="0px" y="0px"
	 width="18px" height="18px" viewBox="0 0 18 18" style="enable-background:new 0 0 18 18;" xml:space="preserve">
<style type="text/css">
	.st0{fill:#7A7A7A;}
</style>
<g>
	<path class="st0" d="M9,18c-5,0-9-4-9-9s4-9,9-9s9,4,9,9S14,18,9,18z M9,0.7C4.4,0.7,0.7,4.4,0.7,9s3.7,8.3,8.3,8.3
		c4.6,0,8.3-3.7,8.3-8.3S13.6,0.7,9,0.7z"/>
</g>
<g>
	<path class="st0" d="M9,10.8C8,10.8,7.2,10,7.2,9C7.2,8,8,7.2,9,7.2S10.8,8,10.8,9S10,10.8,9,10.8z M9,7.8C8.4,7.8,7.8,8.4,7.8,9
		c0,0.7,0.5,1.2,1.2,1.2s1.2-0.5,1.2-1.2S9.6,7.8,9,7.8z"/>
</g>
<g>
	<path class="st0" d="M15,6.8c-0.1,0-0.2-0.1-0.3-0.2c-1-2.3-3.2-3.8-5.7-3.8c-0.2,0-0.3-0.1-0.3-0.3S8.8,2.1,9,2.1
		c2.8,0,5.2,1.6,6.3,4.2c0.1,0.2,0,0.4-0.2,0.4C15.1,6.8,15.1,6.8,15,6.8z"/>
</g>
</svg>
