<?xml version="1.0" encoding="utf-8"?>
<!-- Generator: Adobe Illustrator 22.0.1, SVG Export Plug-In . SVG Version: 6.00 Build 0)  -->
<svg version="1.1" id="Layer_1" xmlns="http://www.w3.org/2000/svg" xmlns:xlink="http://www.w3.org/1999/xlink" x="0px" y="0px"
	 width="20.2px" height="13px" viewBox="0 0 20.2 13" style="enable-background:new 0 0 20.2 13;" xml:space="preserve">
<style type="text/css">
	.st0{fill:#7A7A7A;}
</style>
<g>
	<path class="st0" d="M10.1,13C5.8,13,1.9,10.5,0,6.6V6.5V6.4C1.9,2.5,5.8,0,10.1,0s8.2,2.5,10.1,6.4c0,0.1,0,0.2,0,0.3
		C18.3,10.5,14.4,13,10.1,13z M0.7,6.5c1.8,3.6,5.4,5.9,9.4,5.9s7.7-2.3,9.4-5.9c-1.8-3.6-5.4-5.9-9.4-5.9S2.4,2.9,0.7,6.5z"/>
</g>
<g>
	<path class="st0" d="M10.1,11.4c-2.7,0-4.9-2.2-4.9-4.9s2.2-4.9,4.9-4.9S15,3.8,15,6.5S12.8,11.4,10.1,11.4z M10.1,2.3
		c-2.3,0-4.2,1.9-4.2,4.2s1.9,4.2,4.2,4.2s4.2-1.9,4.2-4.2S12.4,2.3,10.1,2.3z"/>
</g>
<g>
	<path class="st0" d="M7.4,5.5L7.4,5.5C7.1,5.3,7,5.2,7.1,5c0.6-1.2,1.7-1.9,3-1.9c0.2,0,0.3,0.1,0.3,0.3s-0.1,0.3-0.3,0.3
		c-1,0-2,0.6-2.4,1.5C7.6,5.4,7.5,5.5,7.4,5.5z"/>
</g>
</svg>
