<?xml version="1.0" encoding="utf-8"?>
<!-- Generator: Adobe Illustrator 15.1.0, SVG Export Plug-In . SVG Version: 6.00 Build 0)  -->
<!DOCTYPE svg PUBLIC "-//W3C//DTD SVG 1.1//EN" "http://www.w3.org/Graphics/SVG/1.1/DTD/svg11.dtd">
<svg version="1.1" id="Layer_1" xmlns="http://www.w3.org/2000/svg" xmlns:xlink="http://www.w3.org/1999/xlink" x="0px" y="0px"
	 width="20px" height="18.454px" viewBox="520.205 381.748 20 18.454" enable-background="new 520.205 381.748 20 18.454"
	 xml:space="preserve">
<g>
	<path fill="#AEB2B7" d="M534.295,386.615h-4.447c-0.168,0-0.31,0.124-0.333,0.29l-0.591,4.226
		c-0.287-0.216-0.662-0.339-1.073-0.339c-0.957,0-1.794,0.625-1.904,1.424c-0.052,0.357,0.054,0.706,0.294,0.982
		c0.296,0.341,0.768,0.536,1.294,0.536c0.956,0,1.793-0.625,1.905-1.426c0.007-0.05,0.004-0.099,0.005-0.147
		c0.01-0.024,0.021-0.047,0.025-0.075l0.671-4.799h3.769l-0.537,3.843c-0.288-0.216-0.663-0.339-1.074-0.339
		c-0.957,0-1.794,0.625-1.905,1.424c-0.05,0.357,0.056,0.706,0.295,0.982c0.297,0.341,0.769,0.536,1.294,0.536
		c0.956,0,1.793-0.625,1.904-1.426c0.007-0.048,0.004-0.096,0.005-0.144c0.012-0.025,0.022-0.05,0.026-0.079l0.712-5.089
		c0.013-0.097-0.016-0.194-0.08-0.267S534.392,386.615,534.295,386.615z M528.771,392.216c-0.063,0.458-0.632,0.847-1.238,0.847
		c-0.331,0-0.617-0.111-0.787-0.306c-0.077-0.09-0.164-0.24-0.135-0.447c0.062-0.458,0.631-0.845,1.238-0.845
		c0.331,0,0.617,0.111,0.786,0.305C528.715,391.859,528.801,392.009,528.771,392.216z M533.219,392.216
		c-0.063,0.458-0.632,0.847-1.238,0.847c-0.331,0-0.617-0.111-0.786-0.306c-0.078-0.09-0.165-0.24-0.137-0.447
		c0.064-0.458,0.633-0.845,1.239-0.845c0.331,0,0.617,0.111,0.786,0.305C533.161,391.859,533.248,392.009,533.219,392.216z"/>
	<path fill="#AEB2B7" d="M534.554,381.748c-1.618,0-3.217,0.689-4.349,1.864c-1.132-1.175-2.73-1.864-4.349-1.864
		c-3.169,0-5.651,2.482-5.651,5.651c0,3.912,3.533,7.038,8.409,11.351l1.354,1.354c0.062,0.063,0.148,0.099,0.237,0.099
		c0.09,0,0.175-0.035,0.237-0.099l1.339-1.339c4.891-4.325,8.424-7.451,8.424-11.364
		C540.205,384.23,537.723,381.748,534.554,381.748z M531.32,398.274l-1.115,1.115l-1.131-1.129
		c-5.234-4.631-8.196-7.418-8.196-10.86c0-2.792,2.188-4.979,4.979-4.979c1.525,0,3.095,0.732,4.092,1.91
		c0.128,0.151,0.386,0.151,0.514,0c0.997-1.178,2.565-1.91,4.092-1.91c2.792,0,4.979,2.188,4.979,4.979
		C539.532,390.841,536.57,393.629,531.32,398.274z"/>
</g>
</svg>
