<?xml version="1.0" encoding="utf-8"?>
<!-- Generator: Adobe Illustrator 22.0.1, SVG Export Plug-In . SVG Version: 6.00 Build 0)  -->
<svg version="1.1" id="Layer_1" xmlns="http://www.w3.org/2000/svg" xmlns:xlink="http://www.w3.org/1999/xlink" x="0px" y="0px"
	 width="15.7px" height="14.9px" viewBox="0 0 15.7 14.9" style="enable-background:new 0 0 15.7 14.9;" xml:space="preserve">
<style type="text/css">
	.st0{fill:#8B26B2;}
</style>
<g>
	<path class="st0" d="M8.9,4.4c0,0.2,0.2,0.4,0.4,0.4c0.2,0,0.4-0.2,0.4-0.4C9.7,2.6,8.1,2,7.2,2C6.3,1.9,5.7,1.6,5.4,1.2
		C5.2,0.9,5.3,0.6,5.4,0.6c0.1-0.2,0-0.5-0.3-0.5c-0.2-0.1-0.5,0-0.5,0.2c0,0-0.1,0.3-0.1,0.7c0,0,0,0,0,0.1v9.6
		C4,10.3,3.4,10,2.7,10C1.2,10,0,11.1,0,12.4c0,1.3,1.2,2.4,2.7,2.4c1.5,0,2.7-1.1,2.7-2.4V2.3c0.4,0.3,1,0.5,1.8,0.6c0,0,0,0,0,0
		C7.4,2.9,8.9,2.9,8.9,4.4z M2.7,14c-1,0-1.8-0.7-1.8-1.6c0-0.9,0.8-1.6,1.8-1.6c1,0,1.8,0.7,1.8,1.6C4.5,13.3,3.7,14,2.7,14z"/>
	<path class="st0" d="M12.2,4.6h3c0.2,0,0.4-0.2,0.4-0.4c0-0.2-0.2-0.4-0.4-0.4h-3c-0.2,0-0.4,0.2-0.4,0.4C11.8,4.4,12,4.6,12.2,4.6
		z"/>
	<path class="st0" d="M15.2,7H8C7.7,7,7.6,7.2,7.6,7.4S7.7,7.8,8,7.8h7.3c0.2,0,0.4-0.2,0.4-0.4S15.5,7,15.2,7z"/>
	<path class="st0" d="M0.5,4.6H2c0.2,0,0.4-0.2,0.4-0.4c0-0.2-0.2-0.4-0.4-0.4H0.5c-0.2,0-0.4,0.2-0.4,0.4C0.1,4.4,0.3,4.6,0.5,4.6z
		"/>
	<path class="st0" d="M0.5,7.8H2c0.2,0,0.4-0.2,0.4-0.4S2.2,7,2,7H0.5C0.3,7,0.1,7.2,0.1,7.4S0.3,7.8,0.5,7.8z"/>
	<path class="st0" d="M15.2,10.2H8c-0.2,0-0.4,0.2-0.4,0.4c0,0.2,0.2,0.4,0.4,0.4h7.3c0.2,0,0.4-0.2,0.4-0.4
		C15.7,10.4,15.5,10.2,15.2,10.2z"/>
</g>
</svg>
