<?xml version="1.0" encoding="utf-8"?>
<!-- Generator: Adobe Illustrator 22.0.1, SVG Export Plug-In . SVG Version: 6.00 Build 0)  -->
<svg version="1.1" id="Layer_1" xmlns="http://www.w3.org/2000/svg" xmlns:xlink="http://www.w3.org/1999/xlink" x="0px" y="0px"
	 width="19px" height="20px" viewBox="0 0 19 20" style="enable-background:new 0 0 19 20;" xml:space="preserve">
<style type="text/css">
	.st0{fill:none;stroke:#7A7A7A;stroke-width:0.5;stroke-linecap:round;stroke-linejoin:round;stroke-miterlimit:10;}
</style>
<g>
	<path class="st0" d="M13.2,14.1l-1.9-1C11.1,13,11,12.8,11,12.6v-0.7c0-0.1,0.1-0.1,0.2-0.2c0.3-0.3,0.5-0.7,0.6-1.2
		c0.3-0.1,0.5-0.4,0.5-0.7V9c0-0.2-0.1-0.4-0.2-0.5V7.4c0-0.1,0.1-0.8-0.4-1.3c-0.4-0.5-1.1-0.7-2-0.7S8,5.6,7.6,6
		C7.1,6.6,7.1,7.3,7.2,7.4v1.1C7,8.6,7,8.8,7,9v0.8c0,0.2,0.1,0.5,0.3,0.6c0.2,0.7,0.6,1.3,0.7,1.5v0.7c0,0.2-0.1,0.4-0.3,0.5
		l-1.8,1"/>
	<line class="st0" x1="3" y1="5.3" x2="8.8" y2="2"/>
	<line class="st0" x1="2.2" y1="13.3" x2="2.2" y2="6.6"/>
	<line class="st0" x1="8.8" y1="18" x2="3" y2="14.6"/>
	<line class="st0" x1="16.1" y1="14.6" x2="10.3" y2="18"/>
	<line class="st0" x1="16.9" y1="6.7" x2="16.9" y2="13.3"/>
	<line class="st0" x1="10.3" y1="2" x2="16.1" y2="5.3"/>
	<path class="st0" d="M10.4,1.5c0,0.5-0.4,0.9-0.9,0.9C9.1,2.4,8.7,2,8.7,1.5s0.4-0.9,0.9-0.9C10,0.7,10.4,1.1,10.4,1.5z"/>
	<path class="st0" d="M10.4,18.4c0,0.5-0.4,0.9-0.9,0.9s-0.9-0.4-0.9-0.9s0.4-0.9,0.9-0.9S10.4,17.9,10.4,18.4z"/>
	<path class="st0" d="M17.7,5.7c0,0.5-0.4,0.9-0.9,0.9s-0.9-0.4-0.9-0.9s0.4-0.9,0.9-0.9C17.3,4.8,17.7,5.2,17.7,5.7z"/>
	<path class="st0" d="M3.1,5.7c0,0.5-0.4,0.9-0.9,0.9S1.3,6.2,1.3,5.7s0.4-0.9,0.9-0.9C2.7,4.8,3.1,5.2,3.1,5.7z"/>
	<path class="st0" d="M17.7,14.2c0,0.5-0.4,0.9-0.9,0.9s-0.9-0.4-0.9-0.9s0.4-0.9,0.9-0.9C17.3,13.3,17.7,13.7,17.7,14.2z"/>
	<path class="st0" d="M3.1,14.2c0,0.5-0.4,0.9-0.9,0.9s-0.9-0.4-0.9-0.9s0.4-0.9,0.9-0.9S3.1,13.7,3.1,14.2z"/>
</g>
</svg>
