<?xml version="1.0" encoding="utf-8"?>
<!-- Generator: Adobe Illustrator 15.1.0, SVG Export Plug-In . SVG Version: 6.00 Build 0)  -->
<!DOCTYPE svg PUBLIC "-//W3C//DTD SVG 1.1//EN" "http://www.w3.org/Graphics/SVG/1.1/DTD/svg11.dtd">
<svg version="1.1" id="Layer_1" xmlns="http://www.w3.org/2000/svg" xmlns:xlink="http://www.w3.org/1999/xlink" x="0px" y="0px"
	 width="19.337px" height="18.302px" viewBox="523.375 312.282 19.337 18.302"
	 enable-background="new 523.375 312.282 19.337 18.302" xml:space="preserve">
<g>
	<path fill="#AEB2B7" d="M536.418,315.512c0-0.092-0.042-0.18-0.114-0.237c-0.072-0.059-0.166-0.079-0.256-0.061l-6.031,1.314
		c-0.142,0.031-0.241,0.155-0.241,0.299v5.941c-0.405-0.356-0.976-0.582-1.611-0.582c-1.226,0-2.224,0.827-2.224,1.846
		c0,1.018,0.998,1.845,2.224,1.845c1.225,0,2.222-0.827,2.222-1.845c0-0.08-0.017-0.156-0.028-0.234
		c0.007-0.024,0.028-0.042,0.028-0.068V319l5.421-1.182v3.636c-0.405-0.356-0.977-0.582-1.612-0.582
		c-1.225,0-2.223,0.828-2.223,1.845c0,1.018,0.998,1.845,2.223,1.845c1.226,0,2.224-0.827,2.224-1.845
		c0-0.08-0.017-0.156-0.028-0.233c0.006-0.024,0.028-0.042,0.028-0.068V315.512z M528.165,325.267c-0.89,0-1.612-0.555-1.612-1.234
		c0-0.681,0.723-1.235,1.612-1.235c0.889,0,1.611,0.555,1.611,1.235C529.776,324.712,529.053,325.267,528.165,325.267z
		 M534.195,323.951c-0.889,0-1.611-0.554-1.611-1.234s0.723-1.233,1.611-1.233c0.89,0,1.612,0.553,1.612,1.233
		S535.084,323.951,534.195,323.951z M530.386,318.376v-1.303l5.421-1.183v1.303L530.386,318.376z"/>
	<path fill="#AEB2B7" d="M542.461,322.493l-0.94-0.941c-0.333-0.332-0.876-0.332-1.209,0l-5.253,5.253
		c-0.014,0.014-0.011,0.035-0.021,0.051c-0.011,0.015-0.031,0.018-0.039,0.035l-1.54,3.258c-0.055,0.116-0.031,0.255,0.06,0.346
		c0.059,0.059,0.138,0.09,0.217,0.09c0.044,0,0.088-0.01,0.13-0.029l3.258-1.54c0.018-0.008,0.021-0.029,0.036-0.04
		s0.036-0.007,0.05-0.021l5.254-5.252C542.794,323.367,542.793,322.825,542.461,322.493z M536.913,328.388l-1.286-1.286l4.118-4.118
		l1.286,1.287L536.913,328.388z M535.314,327.652l1.047,1.047l-1.985,0.939L535.314,327.652z M542.031,323.271l-0.568,0.567
		l-1.286-1.287l0.567-0.567c0.096-0.094,0.254-0.093,0.347,0l0.939,0.941C542.124,323.019,542.124,323.177,542.031,323.271z"/>
	<path fill="#AEB2B7" d="M523.984,327.343v-13.941c0-0.281,0.229-0.51,0.51-0.51h15.001c0.28,0,0.509,0.229,0.509,0.51v7.033
		l0.61-0.611v-6.422c0-0.617-0.502-1.119-1.119-1.119h-15.001c-0.617,0-1.119,0.502-1.119,1.119v13.941
		c0,0.616,0.502,1.118,1.119,1.118h8.202l0.288-0.61h-8.49C524.212,327.851,523.984,327.623,523.984,327.343z"/>
</g>
</svg>
