<?xml version="1.0" encoding="utf-8"?>
<!-- Generator: Adobe Illustrator 15.1.0, SVG Export Plug-In . SVG Version: 6.00 Build 0)  -->
<!DOCTYPE svg PUBLIC "-//W3C//DTD SVG 1.1//EN" "http://www.w3.org/Graphics/SVG/1.1/DTD/svg11.dtd">
<svg version="1.1" id="Layer_1" xmlns="http://www.w3.org/2000/svg" xmlns:xlink="http://www.w3.org/1999/xlink" x="0px" y="0px"
	 width="20px" height="18.454px" viewBox="0 0 20 18.454" enable-background="new 0 0 20 18.454" xml:space="preserve">
<g>
	<path fill="#C95632" d="M14.09,4.867H9.643c-0.168,0-0.31,0.123-0.333,0.289L8.719,9.382c-0.287-0.217-0.662-0.34-1.073-0.34
		c-0.957,0-1.794,0.625-1.903,1.424c-0.053,0.357,0.054,0.707,0.294,0.982c0.296,0.342,0.768,0.537,1.294,0.537
		c0.956,0,1.793-0.625,1.905-1.428c0.007-0.049,0.004-0.098,0.005-0.146c0.01-0.023,0.021-0.047,0.024-0.074l0.671-4.799h3.77
		L13.168,9.38c-0.288-0.215-0.663-0.338-1.074-0.338c-0.957,0-1.794,0.625-1.904,1.424c-0.051,0.357,0.056,0.705,0.295,0.982
		c0.297,0.34,0.769,0.535,1.294,0.535c0.956,0,1.793-0.625,1.903-1.426c0.008-0.049,0.004-0.096,0.005-0.145
		c0.013-0.025,0.022-0.049,0.026-0.078l0.712-5.09c0.013-0.096-0.016-0.193-0.08-0.266C14.281,4.906,14.187,4.867,14.09,4.867z
		 M8.566,10.466c-0.063,0.459-0.633,0.848-1.238,0.848c-0.331,0-0.617-0.111-0.787-0.307c-0.077-0.09-0.164-0.24-0.135-0.447
		c0.062-0.457,0.631-0.844,1.237-0.844c0.331,0,0.617,0.111,0.786,0.305C8.51,10.111,8.596,10.259,8.566,10.466z M13.014,10.466
		c-0.062,0.459-0.632,0.848-1.237,0.848c-0.331,0-0.617-0.111-0.786-0.307c-0.078-0.09-0.165-0.24-0.138-0.447
		c0.064-0.457,0.634-0.844,1.239-0.844c0.331,0,0.617,0.111,0.786,0.305C12.956,10.111,13.043,10.259,13.014,10.466z"/>
	<path fill="#C95632" d="M14.349,0C12.73,0,11.132,0.687,10,1.863C8.868,0.689,7.27,0,5.651,0C2.482,0,0,2.482,0,5.65
		c0,3.912,3.533,7.037,8.409,11.352l1.354,1.354c0.062,0.062,0.148,0.1,0.237,0.1c0.09,0,0.175-0.035,0.237-0.1l1.339-1.34
		C16.467,12.691,20,9.566,20,5.652C20,2.482,17.518,0,14.349,0z M11.115,16.525L10,17.64l-1.131-1.129
		C3.635,11.88,0.673,9.093,0.673,5.652c0-2.793,2.188-4.98,4.979-4.98c1.524,0,3.095,0.732,4.092,1.91
		c0.128,0.152,0.386,0.152,0.514,0c0.997-1.178,2.565-1.91,4.092-1.91c2.792,0,4.979,2.189,4.979,4.98
		C19.327,9.091,16.365,11.88,11.115,16.525z"/>
</g>
</svg>
