<?xml version="1.0" encoding="utf-8"?>
<!-- Generator: Adobe Illustrator 22.0.1, SVG Export Plug-In . SVG Version: 6.00 Build 0)  -->
<svg version="1.1" id="Layer_1" xmlns="http://www.w3.org/2000/svg" xmlns:xlink="http://www.w3.org/1999/xlink" x="0px" y="0px"
	 width="20px" height="19px" viewBox="0 0 20 19" style="enable-background:new 0 0 20 19;" xml:space="preserve">
<style type="text/css">
	.st0{fill:#7A7A7A;}
</style>
<g id="Layer_2_1_">
	<g id="Layer_1-2">
		<g id="Knowledge-base">
			<g>
				<path class="st0" d="M4.9,18.4L4.9,18.4c-0.4,0-0.6-0.2-0.8-0.4c-0.2-0.3-0.3-0.6-0.1-1l1.7-5.3L1.1,8.5
					C0.9,8.4,0.8,8.1,0.7,7.9c0-0.3,0-0.5,0.2-0.8s0.5-0.4,0.8-0.4h5.5L9,1.4c0.1-0.3,0.3-0.5,0.5-0.6s0.5-0.1,0.8-0.1
					C10.6,0.8,10.9,1,11,1.4l1.7,5.3h5.5c0.6,0,1,0.5,1,1c0,0.3-0.2,0.6-0.4,0.8l0,0l-4.4,3.2l1.7,5.3c0.2,0.5-0.1,1.1-0.6,1.3
					c-0.3,0.1-0.7,0.1-1-0.1L10,14.9l-4.5,3.3C5.3,18.4,5.1,18.4,4.9,18.4z M1.7,7.3c-0.1,0-0.3,0.1-0.3,0.2c-0.1,0-0.1,0.1-0.1,0.2
					S1.4,7.9,1.5,8l4.7,3.4c0.1,0.1,0.2,0.2,0.1,0.3l-1.8,5.5c-0.1,0.1,0,0.3,0.1,0.4s0.2,0.1,0.3,0.2c0.1,0,0.2,0,0.3-0.1l4.7-3.4
					c0.1-0.1,0.3-0.1,0.4,0l4.7,3.4c0.1,0.1,0.3,0.1,0.4,0.1c0.2-0.1,0.3-0.3,0.3-0.5l-1.8-5.5c0-0.1,0-0.3,0.1-0.3L18.5,8l0,0
					c0.1-0.1,0.1-0.2,0.1-0.3c0-0.2-0.2-0.4-0.4-0.4h-5.8c-0.1,0-0.3-0.1-0.3-0.2l-1.8-5.5c0-0.1-0.1-0.2-0.3-0.3
					c-0.1,0-0.2,0-0.3,0S9.5,1.4,9.5,1.5L7.8,7.1c0,0.1-0.2,0.2-0.3,0.2C7.5,7.3,1.7,7.3,1.7,7.3z"/>
			</g>
		</g>
	</g>
</g>
</svg>
