<?xml version="1.0" encoding="utf-8"?>
<!-- Generator: Adobe Illustrator 22.0.1, SVG Export Plug-In . SVG Version: 6.00 Build 0)  -->
<svg version="1.1" id="Layer_1" xmlns="http://www.w3.org/2000/svg" xmlns:xlink="http://www.w3.org/1999/xlink" x="0px" y="0px"
	 width="17.7px" height="16px" viewBox="0 0 17.7 16" style="enable-background:new 0 0 17.7 16;" xml:space="preserve">
<style type="text/css">
	.st0{fill:#FFFFFF;}
</style>
<title>hit-songs-deconstructed-logic-projects-icon-hover</title>
<g>
	<path class="st0" d="M1.1,12.7c-0.6,0-1.1-0.5-1.1-1.1V1.1C0,0.5,0.5,0,1.1,0h15.4c0.6,0,1.1,0.5,1.1,1.1V9c0,0.1-0.1,0.2-0.2,0.2
		c-0.1,0-0.2-0.1-0.2-0.2V1.1c0-0.4-0.3-0.7-0.7-0.7H1.1c-0.4,0-0.7,0.3-0.7,0.7v10.4c0,0.4,0.3,0.7,0.7,0.7h15.4
		c0.4,0,0.7-0.3,0.7-0.7v-1.1c0-0.1,0.1-0.2,0.2-0.2c0.1,0,0.2,0.1,0.2,0.2v1.1c0,0.6-0.5,1.1-1.1,1.1H1.1z"/>
</g>
<g>
	<path class="st0" d="M12.5,16H5.1c-0.1,0-0.2-0.1-0.2-0.2c0-0.1,0.1-0.2,0.2-0.2h7.4c0.1,0,0.2,0.1,0.2,0.2
		C12.7,15.9,12.6,16,12.5,16z"/>
</g>
<g>
	<path class="st0" d="M8.8,16c-0.1,0-0.2-0.1-0.2-0.2v-3.3c0-0.1,0.1-0.2,0.2-0.2c0.1,0,0.2,0.1,0.2,0.2v3.3C9,15.9,8.9,16,8.8,16z"
		/>
</g>
<g>
	<path class="st0" d="M8.6,6.1C8.7,6,8.9,6,9,6.1s0.1,0.3,0,0.4c-0.1,0.1-0.3,0.1-0.4,0c0,0,0,0,0,0C8.5,6.4,8.5,6.3,8.6,6.1z"/>
</g>
<g>
	<path class="st0" d="M8.8,10.5c-2.3,0-4.2-1.9-4.2-4.2s1.9-4.2,4.2-4.2C11.1,2.1,13,4,13,6.3S11.1,10.5,8.8,10.5z M8.8,2.6
		c-2.1,0-3.8,1.7-3.8,3.8s1.7,3.8,3.8,3.8s3.8-1.7,3.8-3.8S10.9,2.6,8.8,2.6z"/>
</g>
<g>
	<path class="st0" d="M8.8,9.8C8.8,9.8,8.8,9.8,8.8,9.8c-1.9,0-3.5-1.6-3.5-3.5c0-0.1,0.1-0.2,0.2-0.2s0.2,0.1,0.2,0.2
		c0,1.7,1.4,3.1,3.1,3.1C8.9,9.4,9,9.5,9,9.6C9,9.7,8.9,9.8,8.8,9.8z"/>
</g>
<g>
	<path class="st0" d="M8.8,9.1C8.8,9.1,8.8,9.1,8.8,9.1c-1.5,0-2.8-1.2-2.8-2.8c0-0.1,0.1-0.2,0.2-0.2c0,0,0,0,0,0
		c0.1,0,0.2,0.1,0.2,0.2c0,1.3,1.1,2.4,2.4,2.4C8.9,8.7,9,8.8,9,8.9C9,9,8.9,9.1,8.8,9.1z"/>
</g>
<g>
	<path class="st0" d="M8.8,8.4c-1.1,0-2-0.9-2-2c0-0.1,0.1-0.2,0.2-0.2s0.2,0.1,0.2,0.2C7.2,7.2,7.9,8,8.8,8C8.9,8,9,8.1,9,8.2
		C9,8.3,8.9,8.4,8.8,8.4z"/>
</g>
<g>
	<path class="st0" d="M12.1,6.5c-0.1,0-0.2-0.1-0.2-0.2c0-1.7-1.4-3.1-3.1-3.1c-0.1,0-0.2-0.1-0.2-0.2c0-0.1,0.1-0.2,0.2-0.2
		c1.9,0,3.5,1.6,3.5,3.5C12.3,6.5,12.2,6.5,12.1,6.5z"/>
</g>
<g>
	<path class="st0" d="M11.4,6.5c-0.1,0-0.2-0.1-0.2-0.2C11.2,5,10.1,4,8.8,4C8.7,4,8.6,3.9,8.6,3.8c0-0.1,0.1-0.2,0.2-0.2h0
		c1.5,0,2.8,1.2,2.8,2.8C11.6,6.5,11.5,6.5,11.4,6.5L11.4,6.5z"/>
</g>
<g>
	<path class="st0" d="M10.7,6.5c-0.1,0-0.2-0.1-0.2-0.2c0-0.9-0.7-1.6-1.6-1.6c-0.1,0-0.2-0.1-0.2-0.2s0.1-0.2,0.2-0.2
		c1.1,0,2,0.9,2,2C10.9,6.5,10.8,6.5,10.7,6.5z"/>
</g>
<g>
	<path class="st0" d="M8.8,7.6c-0.7,0-1.3-0.6-1.3-1.3C7.5,5.6,8.1,5,8.8,5c0.7,0,1.3,0.6,1.3,1.3C10.1,7.1,9.5,7.6,8.8,7.6z
		 M8.8,5.5c-0.5,0-0.9,0.4-0.9,0.9s0.4,0.9,0.9,0.9c0.5,0,0.9-0.4,0.9-0.9S9.3,5.5,8.8,5.5z"/>
</g>
</svg>
