<?xml version="1.0" encoding="utf-8"?>
<!-- Generator: Adobe Illustrator 15.1.0, SVG Export Plug-In . SVG Version: 6.00 Build 0)  -->
<!DOCTYPE svg PUBLIC "-//W3C//DTD SVG 1.1//EN" "http://www.w3.org/Graphics/SVG/1.1/DTD/svg11.dtd">
<svg version="1.1" id="Layer_1" xmlns="http://www.w3.org/2000/svg" xmlns:xlink="http://www.w3.org/1999/xlink" x="0px" y="0px"
	 width="115px" height="23.932px" viewBox="0 0 115 23.932" enable-background="new 0 0 115 23.932" xml:space="preserve">
<g>
	<rect x="17.714" y="7.293" fill="#FFFFFF" width="5.386" height="16.38"/>
	<rect x="24.215" y="0.887" fill="#FFFFFF" width="5.386" height="22.786"/>
	<rect x="30.714" y="0.887" fill="#FFFFFF" width="5.386" height="22.786"/>
	<path fill="#FFFFFF" d="M20.408,0c-1.724,0-3.123,1.398-3.123,3.124c0,1.724,1.398,3.124,3.123,3.124s3.124-1.399,3.124-3.124
		C23.531,1.398,22.132,0,20.408,0"/>
	<path fill="#FFFFFF" d="M8.542,18.685c-1.724,0-3.123-1.398-3.123-3.124c0-1.724,1.398-3.123,3.123-3.123
		c1.725,0,3.124,1.399,3.124,3.123C11.665,17.286,10.267,18.685,8.542,18.685 M9.115,7.072c-1.467,0-2.678,0.318-3.729,1.051V0.889
		H0v22.787h5.291v-1.498c1.275,1.179,2.646,1.721,4.334,1.721c4.111,0,7.489-3.634,7.489-8.349
		C17.114,10.546,13.608,7.072,9.115,7.072"/>
	<path fill="#FFFFFF" d="M94.062,8.981V7.292h-5.386v16.381h5.386v-7.808c0-2.008,1.051-3.093,2.964-3.093h0.637v-5.64
		C96.037,7.196,94.859,7.706,94.062,8.981"/>
	<path fill="#FFFFFF" d="M78.627,18.533c-1.725,0-3.123-1.399-3.123-3.123s1.398-3.123,3.123-3.123s3.123,1.399,3.123,3.123
		S80.352,18.533,78.627,18.533 M62.443,18.435c-1.726,0-3.122-1.398-3.122-3.123s1.396-3.124,3.122-3.124
		c1.725,0,3.123,1.399,3.123,3.124S64.168,18.435,62.443,18.435 M45.824,18.685c-1.725,0-3.124-1.399-3.124-3.125
		c0-1.724,1.398-3.122,3.124-3.122c1.724,0,3.122,1.398,3.122,3.122C48.946,17.285,47.548,18.685,45.824,18.685 M82.175,8.539
		c-0.757-0.826-2.517-1.507-3.855-1.507c-4.067,0-6.987,2.682-7.699,6.667c-0.778-3.824-4.113-6.767-8.177-6.767
		c-4.104,0-7.462,2.977-8.198,6.872c-0.713-4.048-3.899-6.732-7.848-6.732c-1.466,0-2.678,0.318-3.729,1.05V0.89h-5.386v22.786h5.29
		v-1.498c1.275,1.179,2.645,1.721,4.334,1.721c3.639,0,6.7-2.848,7.356-6.771c0.772,3.841,4.085,6.761,8.179,6.761
		c4.061,0,7.314-2.859,8.143-6.603c0.685,4.089,3.925,6.646,7.796,6.646c1.339,0,2.806-0.447,3.793-1.18v0.924h5.386v-7.169
		c0-0.294-0.002-0.58-0.008-0.861c0.006-0.28,0.008-0.566,0.008-0.86V7.319h-5.386V8.539z"/>
	<path fill="#FFFFFF" d="M106.443,18.645c-1.725,0-3.123-1.399-3.123-3.125c0-1.724,1.398-3.123,3.123-3.123
		s3.123,1.399,3.123,3.123C109.566,17.245,108.168,18.645,106.443,18.645 M109.614,0.885v7.234
		c-1.052-0.733-2.263-1.051-3.729-1.051c-4.493,0-7.999,3.473-7.999,8.477c0,4.716,3.378,8.349,7.489,8.349
		c1.688,0,3.06-0.542,4.334-1.721v1.498H115V0.885H109.614z"/>
</g>
</svg>
