<?xml version="1.0" encoding="utf-8"?>
<!-- Generator: Adobe Illustrator 15.1.0, SVG Export Plug-In . SVG Version: 6.00 Build 0)  -->
<!DOCTYPE svg PUBLIC "-//W3C//DTD SVG 1.1//EN" "http://www.w3.org/Graphics/SVG/1.1/DTD/svg11.dtd">
<svg version="1.1" id="Layer_1" xmlns="http://www.w3.org/2000/svg" xmlns:xlink="http://www.w3.org/1999/xlink" x="0px" y="0px"
	 width="69.001px" height="19.953px" viewBox="253 277.524 69.001 19.953" enable-background="new 253 277.524 69.001 19.953"
	 xml:space="preserve">
<g>
	<g>
		<path fill="#AFB2B7" d="M270.15,292.162c-0.468,1.039-0.693,1.502-1.296,2.42c-0.842,1.282-2.028,2.877-3.499,2.893
			c-1.307,0.012-1.643-0.852-3.416-0.842s-2.144,0.855-3.451,0.844c-1.471-0.014-2.596-1.455-3.438-2.735
			c-2.354-3.583-2.601-7.789-1.148-10.025c1.032-1.589,2.66-2.519,4.191-2.519c1.559,0,2.539,0.854,3.828,0.854
			c1.25,0,2.012-0.855,3.814-0.855c1.362,0,2.805,0.742,3.834,2.023C266.198,286.065,266.746,290.876,270.15,292.162L270.15,292.162
			z"/>
		<path fill="#AFB2B7" d="M264.367,280.763c0.655-0.84,1.152-2.026,0.972-3.239c-1.07,0.074-2.321,0.754-3.051,1.641
			c-0.663,0.805-1.21,1.999-0.997,3.16C262.458,282.361,263.666,281.664,264.367,280.763L264.367,280.763z"/>
	</g>
	<g>
		<path fill="#AFB2B7" d="M276.127,286.466c0,0.727-0.554,1.315-1.42,1.315c-0.831,0-1.385-0.588-1.367-1.315
			c-0.018-0.762,0.537-1.333,1.385-1.333S276.11,285.704,276.127,286.466z M273.409,297.286v-8.466h2.632v8.466H273.409z"/>
		<path fill="#AFB2B7" d="M280.489,287.833h-3.133v-2.216h8.967v2.216h-3.185v9.453h-2.649V287.833L280.489,287.833z"/>
		<path fill="#AFB2B7" d="M294.686,294.566c0,1.108,0.033,2.01,0.067,2.72h-2.284l-0.121-1.195h-0.053
			c-0.329,0.521-1.125,1.386-2.648,1.386c-1.713,0-2.978-1.072-2.978-3.688v-4.969h2.647v4.553c0,1.229,0.398,1.975,1.315,1.975
			c0.728,0,1.144-0.503,1.316-0.918c0.069-0.156,0.086-0.363,0.086-0.57v-5.039h2.649v5.746H294.686z"/>
		<path fill="#AFB2B7" d="M296.795,291.521c0-1.057-0.033-1.957-0.068-2.701h2.285l0.121,1.16h0.053
			c0.346-0.537,1.211-1.351,2.613-1.351c1.73,0,3.029,1.144,3.029,3.636v5.021h-2.632v-4.691c0-1.091-0.38-1.836-1.333-1.836
			c-0.727,0-1.159,0.503-1.333,0.987c-0.069,0.173-0.104,0.415-0.104,0.657v4.883h-2.632L296.795,291.521L296.795,291.521z"/>
		<path fill="#AFB2B7" d="M308.965,293.893c0.086,1.092,1.16,1.61,2.389,1.61c0.9,0,1.627-0.121,2.338-0.347l0.347,1.783
			c-0.865,0.347-1.922,0.537-3.063,0.537c-2.875,0-4.52-1.681-4.52-4.328c0-2.146,1.333-4.52,4.275-4.52
			c2.735,0,3.773,2.129,3.773,4.225c0,0.449-0.052,0.849-0.086,1.039H308.965L308.965,293.893z M312.062,292.092
			c0-0.641-0.276-1.713-1.487-1.713c-1.108,0-1.56,1.004-1.628,1.713H312.062z"/>
		<path fill="#AFB2B7" d="M316.062,294.982c0.484,0.295,1.488,0.642,2.269,0.642c0.796,0,1.125-0.276,1.125-0.71
			s-0.261-0.641-1.246-0.971c-1.749-0.588-2.424-1.539-2.407-2.526c0-1.593,1.352-2.787,3.445-2.787c0.986,0,1.87,0.226,2.391,0.484
			l-0.469,1.817c-0.381-0.207-1.107-0.484-1.835-0.484c-0.642,0-1.004,0.26-1.004,0.693c0,0.396,0.328,0.604,1.367,0.969
			c1.61,0.554,2.284,1.367,2.303,2.613c0,1.575-1.246,2.754-3.67,2.754c-1.108,0-2.095-0.261-2.735-0.606L316.062,294.982z"/>
	</g>
</g>
</svg>
