<?xml version="1.0" encoding="utf-8"?>
<!-- Generator: Adobe Illustrator 15.1.0, SVG Export Plug-In . SVG Version: 6.00 Build 0)  -->
<!DOCTYPE svg PUBLIC "-//W3C//DTD SVG 1.1//EN" "http://www.w3.org/Graphics/SVG/1.1/DTD/svg11.dtd">
<svg version="1.1" id="Layer_1" xmlns="http://www.w3.org/2000/svg" xmlns:xlink="http://www.w3.org/1999/xlink" x="0px" y="0px"
	 width="68.93px" height="19.953px" viewBox="0 0 68.93 19.953" enable-background="new 0 0 68.93 19.953" xml:space="preserve">
<g>
	<g>
		<path d="M17.115,14.639c-0.468,1.039-0.693,1.502-1.296,2.42c-0.842,1.282-2.028,2.877-3.499,2.893
			c-1.308,0.012-1.644-0.852-3.416-0.842c-1.773,0.01-2.145,0.855-3.451,0.844c-1.471-0.014-2.596-1.455-3.438-2.734
			C-0.34,13.636-0.587,9.43,0.866,7.193c1.032-1.589,2.66-2.519,4.191-2.519c1.559,0,2.538,0.854,3.827,0.854
			c1.25,0,2.013-0.854,3.814-0.854c1.362,0,2.805,0.742,3.834,2.023C13.162,8.541,13.71,13.353,17.115,14.639L17.115,14.639z"/>
		<path d="M11.331,3.24c0.655-0.841,1.152-2.027,0.972-3.24c-1.069,0.074-2.32,0.754-3.051,1.642
			c-0.663,0.805-1.21,1.999-0.997,3.16C9.422,4.838,10.63,4.141,11.331,3.24L11.331,3.24z"/>
	</g>
	<g>
		<path d="M23.091,8.942c0,0.728-0.554,1.315-1.42,1.315c-0.831,0-1.385-0.588-1.367-1.315c-0.018-0.762,0.537-1.333,1.386-1.333
			C22.537,7.609,23.074,8.181,23.091,8.942z M20.373,19.763v-8.466h2.632v8.466H20.373z"/>
		<path d="M27.453,10.31h-3.133V8.094h8.967v2.216h-3.185v9.453h-2.649V10.31L27.453,10.31z"/>
		<path d="M41.65,17.043c0,1.107,0.033,2.01,0.066,2.72h-2.283l-0.121-1.195H39.26c-0.33,0.521-1.125,1.386-2.648,1.386
			c-1.712,0-2.978-1.072-2.978-3.688v-4.969h2.648v4.553c0,1.229,0.396,1.975,1.314,1.975c0.729,0,1.145-0.502,1.316-0.918
			c0.068-0.156,0.086-0.363,0.086-0.57v-5.039h2.648v5.746H41.65L41.65,17.043z"/>
		<path d="M43.76,13.998c0-1.058-0.033-1.957-0.068-2.701h2.285l0.121,1.16h0.053c0.346-0.537,1.211-1.352,2.613-1.352
			c1.73,0,3.029,1.145,3.029,3.637v5.021H49.16v-4.691c0-1.091-0.379-1.836-1.332-1.836c-0.727,0-1.16,0.503-1.334,0.987
			c-0.068,0.173-0.104,0.415-0.104,0.656v4.884h-2.633L43.76,13.998L43.76,13.998z"/>
		<path d="M55.929,16.369c0.086,1.092,1.16,1.61,2.389,1.61c0.9,0,1.627-0.121,2.338-0.347l0.348,1.783
			c-0.865,0.347-1.922,0.537-3.062,0.537c-2.875,0-4.521-1.682-4.521-4.328c0-2.146,1.334-4.521,4.275-4.521
			c2.734,0,3.773,2.129,3.773,4.226c0,0.448-0.053,0.849-0.086,1.039H55.929L55.929,16.369z M59.027,14.568
			c0-0.641-0.277-1.713-1.488-1.713c-1.107,0-1.559,1.004-1.627,1.713H59.027z"/>
		<path d="M63.027,17.459c0.482,0.295,1.486,0.642,2.268,0.642c0.797,0,1.125-0.276,1.125-0.71s-0.26-0.641-1.246-0.971
			c-1.748-0.588-2.424-1.539-2.406-2.526c0-1.593,1.352-2.787,3.445-2.787c0.986,0,1.869,0.226,2.391,0.484l-0.469,1.817
			c-0.381-0.207-1.107-0.484-1.836-0.484c-0.641,0-1.004,0.26-1.004,0.693c0,0.396,0.328,0.604,1.367,0.969
			c1.611,0.554,2.285,1.367,2.303,2.613c0,1.574-1.246,2.754-3.67,2.754c-1.107,0-2.094-0.262-2.734-0.606L63.027,17.459z"/>
	</g>
</g>
</svg>
