<?xml version="1.0" encoding="utf-8"?>
<!-- Generator: Adobe Illustrator 15.1.0, SVG Export Plug-In . SVG Version: 6.00 Build 0)  -->
<!DOCTYPE svg PUBLIC "-//W3C//DTD SVG 1.1//EN" "http://www.w3.org/Graphics/SVG/1.1/DTD/svg11.dtd">
<svg version="1.1" id="Layer_1" xmlns="http://www.w3.org/2000/svg" xmlns:xlink="http://www.w3.org/1999/xlink" x="0px" y="0px"
	 width="79.999px" height="23.993px" viewBox="259.465 487.982 79.999 23.993"
	 enable-background="new 259.465 487.982 79.999 23.993" xml:space="preserve">
<g>
	<path fill="#54BA5D" d="M271.462,487.982c-6.625,0-11.997,5.37-11.997,11.996c0,6.627,5.372,11.997,11.997,11.997
		c6.626,0,11.997-5.369,11.997-11.997C283.459,493.353,278.088,487.982,271.462,487.982 M276.964,505.286
		c-0.215,0.354-0.676,0.464-1.028,0.249c-2.817-1.723-6.363-2.111-10.54-1.157c-0.402,0.093-0.803-0.16-0.895-0.562
		c-0.092-0.402,0.159-0.804,0.562-0.896c4.57-1.044,8.49-0.595,11.652,1.338C277.068,504.473,277.18,504.934,276.964,505.286
		 M278.432,502.02c-0.271,0.44-0.847,0.578-1.286,0.309c-3.224-1.981-8.141-2.556-11.955-1.398
		c-0.495,0.149-1.017-0.129-1.167-0.623c-0.149-0.494,0.13-1.016,0.624-1.167c4.357-1.321,9.774-0.682,13.477,1.595
		C278.564,501.004,278.702,501.58,278.432,502.02 M278.559,498.618c-3.867-2.296-10.246-2.508-13.938-1.387
		c-0.593,0.18-1.22-0.155-1.399-0.748c-0.18-0.594,0.155-1.221,0.748-1.4c4.237-1.286,11.282-1.038,15.734,1.605
		c0.533,0.315,0.708,1.005,0.392,1.536C279.78,498.759,279.09,498.935,278.559,498.618"/>
	<path fill="#54BA5D" d="M292.104,499.058c-2.071-0.493-2.44-0.841-2.44-1.568c0-0.688,0.648-1.151,1.612-1.151
		c0.934,0,1.86,0.353,2.831,1.076c0.029,0.021,0.066,0.031,0.103,0.025c0.036-0.006,0.068-0.025,0.089-0.056l1.011-1.426
		c0.042-0.059,0.03-0.14-0.025-0.185c-1.156-0.929-2.457-1.379-3.979-1.379c-2.236,0-3.799,1.343-3.799,3.264
		c0,2.059,1.348,2.789,3.677,3.351c1.982,0.457,2.316,0.84,2.316,1.523c0,0.758-0.676,1.229-1.765,1.229
		c-1.209,0-2.195-0.406-3.298-1.361c-0.027-0.023-0.065-0.035-0.1-0.033c-0.037,0.003-0.07,0.021-0.093,0.048l-1.134,1.35
		c-0.047,0.058-0.042,0.142,0.013,0.188c1.284,1.146,2.862,1.751,4.566,1.751c2.41,0,3.968-1.316,3.968-3.354
		C295.658,500.624,294.628,499.671,292.104,499.058"/>
	<path fill="#54BA5D" d="M301.109,497.015c-1.044,0-1.901,0.411-2.607,1.254v-0.948c0-0.075-0.061-0.137-0.136-0.137h-1.854
		c-0.075,0-0.135,0.062-0.135,0.137v10.544c0,0.075,0.061,0.136,0.135,0.136h1.854c0.075,0,0.136-0.061,0.136-0.136v-3.328
		c0.707,0.793,1.564,1.181,2.607,1.181c1.94,0,3.906-1.494,3.906-4.351C305.018,498.509,303.051,497.015,301.109,497.015
		 M302.859,501.366c0,1.454-0.896,2.47-2.18,2.47c-1.268,0-2.225-1.062-2.225-2.47s0.957-2.47,2.225-2.47
		C301.943,498.896,302.859,499.935,302.859,501.366"/>
	<path fill="#54BA5D" d="M310.053,497.015c-2.5,0-4.457,1.926-4.457,4.384c0,2.431,1.944,4.335,4.428,4.335
		c2.509,0,4.473-1.918,4.473-4.366C314.495,498.926,312.544,497.015,310.053,497.015 M310.053,503.851
		c-1.328,0-2.332-1.067-2.332-2.483c0-1.422,0.969-2.455,2.303-2.455c1.338,0,2.347,1.068,2.347,2.486
		C312.369,502.819,311.396,503.851,310.053,503.851"/>
	<path fill="#54BA5D" d="M319.833,497.184h-2.04v-2.086c0-0.074-0.062-0.136-0.136-0.136h-1.854c-0.074,0-0.137,0.062-0.137,0.136
		v2.086h-0.893c-0.073,0-0.135,0.062-0.135,0.137v1.594c0,0.075,0.062,0.136,0.135,0.136h0.893v4.125
		c0,1.667,0.83,2.512,2.466,2.512c0.666,0,1.218-0.138,1.738-0.433c0.042-0.023,0.067-0.068,0.067-0.117v-1.518
		c0-0.047-0.023-0.092-0.063-0.116c-0.04-0.025-0.091-0.026-0.132-0.006c-0.357,0.18-0.703,0.263-1.09,0.263
		c-0.594,0-0.859-0.271-0.859-0.876v-3.834h2.04c0.075,0,0.136-0.061,0.136-0.136v-1.594
		C319.969,497.245,319.908,497.184,319.833,497.184"/>
	<path fill="#54BA5D" d="M326.943,497.192v-0.257c0-0.754,0.289-1.09,0.938-1.09c0.388,0,0.697,0.077,1.045,0.193
		c0.044,0.014,0.089,0.007,0.122-0.02c0.036-0.025,0.057-0.066,0.057-0.109v-1.563c0-0.06-0.039-0.112-0.096-0.13
		c-0.367-0.108-0.838-0.222-1.542-0.222c-1.713,0-2.618,0.965-2.618,2.789v0.393h-0.892c-0.074,0-0.136,0.062-0.136,0.136v1.603
		c0,0.075,0.062,0.136,0.136,0.136h0.892v6.362c0,0.075,0.062,0.136,0.135,0.136h1.854c0.075,0,0.136-0.061,0.136-0.136v-6.362
		h1.732l2.652,6.36c-0.301,0.668-0.598,0.802-1.002,0.802c-0.326,0-0.67-0.098-1.022-0.29c-0.032-0.019-0.071-0.021-0.106-0.011
		c-0.037,0.013-0.065,0.039-0.08,0.073l-0.629,1.38c-0.03,0.063-0.006,0.142,0.058,0.175c0.655,0.354,1.249,0.508,1.981,0.508
		c1.368,0,2.125-0.639,2.793-2.354l3.219-8.315c0.016-0.042,0.011-0.089-0.016-0.126c-0.025-0.037-0.066-0.059-0.111-0.059h-1.93
		c-0.059,0-0.111,0.036-0.13,0.091l-1.978,5.649l-2.167-5.653c-0.021-0.054-0.07-0.087-0.126-0.087h-3.17V497.192z"/>
	<path fill="#54BA5D" d="M322.822,497.184h-1.855c-0.074,0-0.135,0.062-0.135,0.137v8.092c0,0.075,0.061,0.136,0.135,0.136h1.855
		c0.074,0,0.136-0.061,0.136-0.136v-8.092C322.958,497.245,322.896,497.184,322.822,497.184"/>
	<path fill="#54BA5D" d="M321.904,493.5c-0.735,0-1.331,0.595-1.331,1.33s0.596,1.331,1.331,1.331c0.734,0,1.33-0.596,1.33-1.331
		S322.639,493.5,321.904,493.5"/>
	<path fill="#54BA5D" d="M338.152,499.786c-0.733,0-1.305-0.59-1.305-1.306c0-0.717,0.578-1.312,1.312-1.312
		s1.305,0.589,1.305,1.305C339.465,499.189,338.887,499.786,338.152,499.786 M338.16,497.298c-0.669,0-1.176,0.531-1.176,1.183
		c0,0.649,0.502,1.175,1.168,1.175c0.668,0,1.175-0.531,1.175-1.183C339.327,497.822,338.825,497.298,338.16,497.298
		 M338.449,498.607l0.369,0.517h-0.312l-0.332-0.474h-0.285v0.474h-0.261v-1.37h0.61c0.318,0,0.527,0.163,0.527,0.438
		C338.768,498.416,338.637,498.553,338.449,498.607 M338.229,497.989h-0.34v0.433h0.34c0.17,0,0.271-0.083,0.271-0.217
		C338.5,498.064,338.398,497.989,338.229,497.989"/>
</g>
</svg>
