<?xml version="1.0" encoding="utf-8"?>
<!-- Generator: Adobe Illustrator 15.1.0, SVG Export Plug-In . SVG Version: 6.00 Build 0)  -->
<!DOCTYPE svg PUBLIC "-//W3C//DTD SVG 1.1//EN" "http://www.w3.org/Graphics/SVG/1.1/DTD/svg11.dtd">
<svg version="1.1" id="Layer_1" xmlns="http://www.w3.org/2000/svg" xmlns:xlink="http://www.w3.org/1999/xlink" x="0px" y="0px"
	 width="59px" height="24.62px" viewBox="270.012 488.152 59 24.62" enable-background="new 270.012 488.152 59 24.62"
	 xml:space="preserve">
<g>
	<path fill="none" d="M280.963,498.103c-0.695,0-1.06,0.553-0.942,1.73v4.71c-0.118,1.178,0.248,1.762,0.942,1.762
		c0.694,0,1.06-0.584,0.942-1.762l0.001-4.71C282.024,498.655,281.658,498.103,280.963,498.103z"/>
	<path fill="#E22F28" d="M328.66,493.462c0,0-0.344-2.412-1.396-3.475c-1.338-1.395-2.837-1.401-3.523-1.482
		c-4.844-0.349-12.071-0.354-12.297-0.354c-0.004,0-0.006,0-0.006,0h-0.016c0,0-0.002,0-0.005,0c-0.226,0-7.453,0.006-12.297,0.354
		c-0.688,0.082-2.186,0.088-3.523,1.482c-1.055,1.062-1.398,3.475-1.398,3.475s-0.352,2.833-0.352,5.666v2.656
		c0,2.832,0.352,5.665,0.352,5.665s0.343,2.412,1.398,3.475c1.337,1.396,3.095,1.351,3.877,1.496
		c2.813,0.27,11.956,0.352,11.956,0.352s7.389-0.011,12.311-0.363c0.688-0.082,2.187-0.089,3.523-1.483
		c1.053-1.062,1.396-3.475,1.396-3.475s0.352-2.833,0.352-5.665v-2.656C329.012,496.295,328.66,493.462,328.66,493.462z
		 M301.57,508.075h-2.354v-13.542h-2.473v-2.235l7.419-0.002v2.237h-2.592V508.075z M310.05,508.075h-2.237v-1.295
		c-0.849,0.972-1.566,1.463-2.352,1.463c-0.688,0-1.165-0.324-1.404-0.91c-0.146-0.356-0.248-0.913-0.248-1.73V496.3h2.237v8.714
		v0.824c0.052,0.331,0.192,0.451,0.478,0.451c0.429,0,0.815-0.372,1.289-1.04V496.3h2.237V508.075L310.05,508.075z M318.175,504.543
		c0,1.088-0.093,1.856-0.235,2.354c-0.283,0.875-0.903,1.329-1.754,1.329c-0.758,0-1.533-0.455-2.246-1.338l-0.004,1.187h-2.119
		v-15.779h2.119l-0.002,5.146c0.688-0.848,1.469-1.33,2.252-1.33c0.851,0,1.42,0.489,1.705,1.372
		c0.143,0.473,0.284,1.234,0.284,2.35V504.543L318.175,504.543z M322.859,506.289c0.523,0,0.83-0.285,0.951-0.855
		c0.021-0.115,0.018-0.624,0.018-1.479h2.236v0.334c0,0.687-0.057,1.173-0.075,1.386c-0.072,0.474-0.239,0.9-0.499,1.278
		c-0.59,0.854-1.465,1.274-2.578,1.274c-1.115,0-1.964-0.4-2.58-1.205c-0.453-0.59-0.744-1.465-0.744-2.715v-4.122
		c0-1.258,0.266-2.229,0.719-2.824c0.615-0.806,1.465-1.231,2.553-1.231c1.07,0,1.918,0.426,2.517,1.231
		c0.446,0.595,0.692,1.516,0.692,2.772l0.002,2.408h-4.244v2.114C321.818,505.742,322.127,506.289,322.859,506.289z"/>
	<path fill="#E22F28" d="M315.045,498.073c-0.352,0-0.753,0.186-1.109,0.537l-0.002,7.142c0.356,0.356,0.762,0.537,1.111,0.537
		c0.615,0,0.893-0.451,0.893-1.629v-5.063C315.938,498.419,315.66,498.073,315.045,498.073z"/>
	<path fill="#E22F28" d="M323.827,499.489c0-1.088-0.281-1.416-0.987-1.416c-0.713,0-1.015,0.3-1.015,1.4v1.303l2.002-0.002V499.489
		z"/>
	<path d="M289.795,505.249c-0.474,0.668-0.861,1.04-1.29,1.04c-0.285,0-0.425-0.12-0.477-0.451v-0.824v-8.832h-2.237v9.421
		c0,0.817,0.103,1.374,0.248,1.73c0.239,0.586,0.717,0.91,1.405,0.91c0.784,0,1.502-0.491,2.351-1.463v1.295h2.237v-11.895h-2.237
		V505.249z"/>
	<path d="M280.963,496.095c-1.066,0-1.878,0.333-2.473,1.146c-0.458,0.601-0.704,1.564-0.704,2.836l-0.002,4.229
		c0,1.265,0.219,2.138,0.677,2.731c0.595,0.812,1.56,1.241,2.502,1.241s1.924-0.431,2.52-1.241c0.451-0.595,0.659-1.468,0.659-2.731
		v-4.239c0-1.271-0.255-2.227-0.707-2.826C282.84,496.428,281.905,496.095,280.963,496.095z M280.963,506.305
		c-0.695,0-1.06-0.584-0.942-1.762v-4.71c-0.118-1.178,0.248-1.73,0.942-1.73c0.694,0,1.061,0.553,0.943,1.73l-0.001,4.71
		C282.023,505.721,281.658,506.305,280.963,506.305z"/>
	<path d="M275.782,492.178l-1.645,6.203l-1.652-6.203h-2.473c0.503,1.48,2.944,9.42,2.944,9.42v6.478h2.355v-6.478l2.944-9.42
		H275.782z"/>
</g>
</svg>
