<?xml version="1.0" encoding="utf-8"?>
<!-- Generator: Adobe Illustrator 15.1.0, SVG Export Plug-In . SVG Version: 6.00 Build 0)  -->
<!DOCTYPE svg PUBLIC "-//W3C//DTD SVG 1.1//EN" "http://www.w3.org/Graphics/SVG/1.1/DTD/svg11.dtd">
<svg version="1.1" id="Layer_1" xmlns="http://www.w3.org/2000/svg" xmlns:xlink="http://www.w3.org/1999/xlink" x="0px" y="0px"
	 width="15.336px" height="17.991px" viewBox="0 0 15.336 17.991" enable-background="new 0 0 15.336 17.991" xml:space="preserve">
<g>
	<path fill="#4F4F4F" d="M14.836,0H2.001c-0.276,0-0.5,0.224-0.5,0.5v3.495H0.5c-0.276,0-0.5,0.224-0.5,0.5s0.224,0.5,0.5,0.5h1.001
		v3.521H0.5c-0.276,0-0.5,0.224-0.5,0.5s0.224,0.5,0.5,0.5h1.001v3.521H0.5c-0.276,0-0.5,0.224-0.5,0.5s0.224,0.5,0.5,0.5h1.001
		v3.454c0,0.276,0.224,0.5,0.5,0.5h12.835c0.276,0,0.5-0.224,0.5-0.5V0.5C15.336,0.224,15.113,0,14.836,0z M2.501,14.037h1.001
		c0.276,0,0.5-0.224,0.5-0.5s-0.224-0.5-0.5-0.5H2.501V9.516h1.001c0.276,0,0.5-0.224,0.5-0.5s-0.224-0.5-0.5-0.5H2.501V4.995h1.001
		c0.276,0,0.5-0.224,0.5-0.5s-0.224-0.5-0.5-0.5H2.501V1h2.168v15.991H2.501V14.037z M14.336,16.991H5.669V1h8.667V16.991z"/>
	<path fill="#4F4F4F" d="M7.121,11.743c0,0.276,0.224,0.5,0.5,0.5h4.761c0.276,0,0.5-0.224,0.5-0.5c0-1.214-0.757-2.25-1.823-2.674
		c0.456-0.33,0.755-0.862,0.755-1.466c0-1-0.813-1.813-1.813-1.813c-1,0-1.813,0.813-1.813,1.813c0,0.604,0.3,1.137,0.756,1.467
		C7.878,9.492,7.121,10.528,7.121,11.743z M10.001,6.789c0.448,0,0.813,0.365,0.813,0.813s-0.365,0.813-0.813,0.813
		c-0.449,0-0.813-0.365-0.813-0.813S9.552,6.789,10.001,6.789z M10.001,9.862c0.864,0,1.593,0.585,1.813,1.381H8.188
		C8.408,10.447,9.137,9.862,10.001,9.862z"/>
</g>
</svg>
