<?xml version="1.0" encoding="utf-8"?>
<!-- Generator: Adobe Illustrator 15.1.0, SVG Export Plug-In . SVG Version: 6.00 Build 0)  -->
<!DOCTYPE svg PUBLIC "-//W3C//DTD SVG 1.1//EN" "http://www.w3.org/Graphics/SVG/1.1/DTD/svg11.dtd">
<svg version="1.1" id="Layer_1" xmlns="http://www.w3.org/2000/svg" xmlns:xlink="http://www.w3.org/1999/xlink" x="0px" y="0px"
	 width="17.399px" height="17.755px" viewBox="0 0 17.399 17.755" enable-background="new 0 0 17.399 17.755" xml:space="preserve">
<g>
	<path fill="#4F4F4F" d="M17.248,10.171l-0.984-1.346l0.962-1.357c0.128-0.182,0.171-0.41,0.12-0.627
		c-0.052-0.216-0.193-0.399-0.388-0.503l-1.467-0.785l0.276-1.643c0.037-0.221-0.023-0.448-0.166-0.622
		c-0.142-0.173-0.351-0.275-0.568-0.282l-1.662-0.069l-0.46-1.603c-0.124-0.434-0.651-0.673-1.053-0.499l-1.521,0.673L9.208,0.25
		c-0.3-0.321-0.854-0.322-1.158,0.017L6.956,1.521l-1.54-0.634C5.001,0.716,4.5,0.96,4.374,1.397l-0.44,1.606l-1.66,0.094
		C2.055,3.11,1.85,3.215,1.712,3.387C1.574,3.56,1.516,3.784,1.553,4.012l0.3,1.637L0.396,6.456
		C0.203,6.565,0.065,6.752,0.018,6.969c-0.047,0.215,0,0.441,0.129,0.619l0.984,1.346l-0.963,1.358
		c-0.127,0.182-0.171,0.411-0.119,0.627c0.052,0.216,0.194,0.399,0.387,0.501l1.467,0.785l-0.276,1.645
		c-0.037,0.221,0.024,0.448,0.167,0.622c0.142,0.172,0.352,0.274,0.566,0.28l1.662,0.07l0.464,1.599
		c0.125,0.435,0.66,0.673,1.053,0.498l1.522-0.672l1.127,1.258c0.148,0.159,0.356,0.25,0.572,0.25c0.221,0,0.434-0.096,0.587-0.267
		l1.093-1.254l1.54,0.635c0.094,0.039,0.193,0.058,0.294,0.058c0.344,0,0.651-0.232,0.748-0.57l0.441-1.605l1.659-0.095
		c0.221-0.012,0.426-0.118,0.563-0.291c0.138-0.173,0.196-0.398,0.157-0.623l-0.299-1.638l1.437-0.795
		c0.199-0.1,0.343-0.282,0.395-0.5C17.431,10.589,17.383,10.355,17.248,10.171z M14.921,11.31c-0.291,0.159-0.45,0.498-0.387,0.817
		l0.283,1.547l-1.581,0.09c-0.327,0.024-0.605,0.253-0.692,0.569l-0.416,1.514l-1.452-0.599c-0.304-0.126-0.671-0.039-0.88,0.205
		l-1.036,1.188l-1.06-1.183c-0.148-0.154-0.355-0.243-0.568-0.243c-0.104,0-0.206,0.021-0.306,0.062l-1.442,0.638l-0.442-1.522
		c-0.09-0.324-0.376-0.551-0.713-0.565l-1.571-0.066l0.258-1.537c0.065-0.33-0.099-0.67-0.395-0.826L1.134,10.66l0.907-1.28
		c0.191-0.267,0.19-0.629-0.007-0.906L1.106,7.206l1.371-0.76C2.769,6.288,2.928,5.95,2.866,5.628L2.583,4.082l1.58-0.09
		c0.328-0.024,0.606-0.253,0.694-0.57l0.415-1.514l1.451,0.597C7.028,2.635,7.4,2.542,7.603,2.3l1.036-1.188l1.058,1.179
		c0.218,0.232,0.568,0.314,0.878,0.185l1.44-0.638l0.44,1.531c0.092,0.322,0.378,0.547,0.712,0.561l1.571,0.065L14.48,5.534
		c-0.063,0.332,0.101,0.671,0.395,0.824l1.386,0.742l-0.907,1.28c-0.191,0.267-0.19,0.628,0.007,0.907l0.926,1.267L14.921,11.31z"/>
	<path fill="#4F4F4F" d="M9.715,8.482L9.572,8.417V6.712c0.211,0.076,0.4,0.183,0.56,0.306c0.077,0.059,0.149,0.121,0.211,0.183
		c0.001,0.002,0.003,0.003,0.004,0.005l0.001-0.001c0.105,0.06,0.225,0.096,0.354,0.096c0.401,0,0.726-0.325,0.726-0.726
		c0-0.173-0.062-0.33-0.164-0.455v0c-0.054-0.074-0.268-0.314-0.677-0.523c-0.36-0.173-0.7-0.256-1.017-0.3V4.822
		c0-0.282-0.229-0.511-0.511-0.511c-0.282,0-0.511,0.229-0.511,0.511v0.476C8.529,5.301,8.501,5.302,8.481,5.306
		c-1.097,0.2-1.94,0.96-1.94,2.099c0,0.844,0.453,1.498,1.55,1.983L8.55,9.595v1.646c-0.65-0.124-1.168-0.48-1.429-0.723
		l-0.004,0.005c-0.124-0.097-0.279-0.158-0.449-0.158c-0.405,0-0.734,0.328-0.734,0.734c0,0.248,0.124,0.465,0.312,0.599l-0.001,0
		c0.22,0.197,0.641,0.533,1.315,0.74c0.009,0.003,0.028,0.008,0.039,0.011c0.067,0.019,0.159,0.042,0.271,0.065
		c0.039,0.008,0.084,0.016,0.127,0.024c0.083,0.015,0.17,0.029,0.268,0.042c0.086,0.011,0.191,0.011,0.286,0.018v0.336
		c0,0.282,0.229,0.511,0.511,0.511c0.283,0,0.511-0.229,0.511-0.511v-0.389c0.015-0.003,0.027-0.001,0.042-0.004
		c0.012-0.002,0.025-0.007,0.036-0.01c0.088-0.02,0.171-0.043,0.251-0.07c0.082-0.025,0.162-0.056,0.242-0.089
		c0.019-0.008,0.038-0.018,0.057-0.026c0.176-0.08,0.338-0.171,0.478-0.279c0.522-0.403,0.788-0.98,0.788-1.59
		C11.466,9.473,10.918,9.03,9.715,8.482z M8.144,7.279c0-0.268,0.144-0.479,0.406-0.589v1.206C8.297,7.723,8.144,7.537,8.144,7.279z
		 M9.572,11.15V10.12c0.203,0.15,0.301,0.304,0.301,0.524C9.874,10.86,9.766,11.034,9.572,11.15z"/>
</g>
</svg>
