<?xml version="1.0" encoding="utf-8"?>
<!-- Generator: Adobe Illustrator 19.2.0, SVG Export Plug-In . SVG Version: 6.00 Build 0)  -->
<svg version="1.1" id="Layer_1" xmlns="http://www.w3.org/2000/svg" xmlns:xlink="http://www.w3.org/1999/xlink" x="0px" y="0px"
	 width="19.4px" height="18px" viewBox="0 0 19.4 18" style="enable-background:new 0 0 19.4 18;" xml:space="preserve">
<style type="text/css">
	.st0{fill:#4F4F4F;}
</style>
<path class="st0" d="M19.4,6.4C19.4,6.4,19.4,6.4,19.4,6.4c0-0.1,0-0.2-0.1-0.2c0,0,0,0,0,0l-3.1-5.7c0,0,0,0,0,0
	c0-0.1-0.1-0.1-0.1-0.1c0,0,0,0-0.1,0c0,0,0,0-0.1,0c0,0-0.1,0-0.1,0c0,0,0,0,0,0H3.6c0,0,0,0,0,0c0,0-0.1,0-0.1,0c0,0,0,0-0.1,0
	c0,0,0,0-0.1,0c-0.1,0-0.1,0.1-0.1,0.1c0,0,0,0,0,0L0.1,6.1c0,0,0,0,0,0C0,6.2,0,6.3,0,6.4c0,0,0,0,0,0c0,0,0,0,0,0.1
	c0,0.1,0,0.1,0.1,0.2c0,0,0,0,0,0L9.3,18c0,0,0,0,0,0c0,0,0,0,0.1,0.1c0,0,0,0,0,0c0,0,0,0,0.1,0c0,0,0,0,0,0c0.1,0,0.1,0,0.2,0
	s0.1,0,0.2,0c0,0,0,0,0,0c0,0,0,0,0.1,0c0,0,0,0,0,0c0,0,0,0,0.1-0.1c0,0,0,0,0,0l9.2-11.3c0,0,0,0,0,0C19.3,6.6,19.4,6.5,19.4,6.4
	C19.4,6.4,19.4,6.4,19.4,6.4z M3.5,1.9l1.4,4H1.3L3.5,1.9z M13.1,6.9l-3.4,9.3L6.4,6.9H13.1z M6.6,5.9l3.1-4.3l3.1,4.3H6.6z
	 M10.7,1.2h4.4l-1.5,4.1L10.7,1.2z M5.8,5.3L4.3,1.2h4.4L5.8,5.3z M5.3,6.9l3,8.2L1.6,6.9H5.3z M14.1,6.9h3.7l-6.7,8.2L14.1,6.9z
	 M14.5,5.9l1.4-4l2.2,4H14.5z"/>
</svg>
