<?xml version="1.0" encoding="utf-8"?>
<!-- Generator: Adobe Illustrator 19.2.0, SVG Export Plug-In . SVG Version: 6.00 Build 0)  -->
<svg version="1.1" id="Layer_1" xmlns="http://www.w3.org/2000/svg" xmlns:xlink="http://www.w3.org/1999/xlink" x="0px" y="0px"
	 width="18.8px" height="19.1px" viewBox="0 0 18.8 19.1" style="enable-background:new 0 0 18.8 19.1;" xml:space="preserve">
<style type="text/css">
	.st0{fill:#4F4F4F;}
</style>
<path class="st0" d="M18.6,0.2c-0.2-0.2-0.6-0.2-0.9,0l-1.1,1.1H9.5l-9.1,9.2C0.1,10.7,0,11,0,11.4c0,0.4,0.1,0.7,0.4,1l6.3,6.3
	c0.3,0.3,0.6,0.4,1,0.4c0.4,0,0.7-0.1,1-0.4l8.9-9.1V2.1L18.7,1C18.9,0.8,18.9,0.4,18.6,0.2z M10.3,15.3l-2.5,2.6
	c-0.1,0.1-0.2,0.1-0.2,0l-6.3-6.3c0,0-0.1-0.1-0.1-0.1s0-0.1,0.1-0.1l2.5-2.5L10.3,15.3z M13.9,5.6c-0.3,0-0.6-0.3-0.6-0.6
	c0-0.2,0.1-0.4,0.3-0.5l-0.1,0.1c-0.1,0.1-0.2,0.3-0.2,0.4c0,0.2,0.1,0.3,0.2,0.4c0.2,0.2,0.6,0.2,0.9,0l0.1-0.1
	C14.3,5.4,14.1,5.6,13.9,5.6z M14.7,3.3c-0.2-0.1-0.5-0.2-0.8-0.2c-1,0-1.8,0.8-1.8,1.8c0,1,0.8,1.8,1.8,1.8c1,0,1.8-0.8,1.8-1.8
	c0-0.3-0.1-0.6-0.2-0.8l0.8-0.8v5.8l-5.2,5.3L4.6,7.9L10,2.4h5.5L14.7,3.3z"/>
</svg>
