<?xml version="1.0" encoding="utf-8"?>
<!-- Generator: Adobe Illustrator 15.1.0, SVG Export Plug-In . SVG Version: 6.00 Build 0)  -->
<!DOCTYPE svg PUBLIC "-//W3C//DTD SVG 1.1//EN" "http://www.w3.org/Graphics/SVG/1.1/DTD/svg11.dtd">
<svg version="1.1" id="Layer_1" xmlns="http://www.w3.org/2000/svg" xmlns:xlink="http://www.w3.org/1999/xlink" x="0px" y="0px"
	 width="17.945px" height="17.946px" viewBox="17.481 0.017 17.945 17.946" enable-background="new 17.481 0.017 17.945 17.946"
	 xml:space="preserve">
<path fill="#4F4F4F" d="M35.426,9.145c0.041-2.397-0.854-4.666-2.519-6.39s-3.902-2.695-6.299-2.736l-0.157-0.001
	c-4.862,0-8.886,3.957-8.969,8.82c-0.046,2.707,1.119,5.263,3.195,7.016c1.613,1.361,3.665,2.11,5.777,2.11
	c0.262,0,0.522-0.012,0.782-0.034c1.815-0.16,3.554-0.872,4.962-2.045c0.005-0.004,0.006-0.01,0.011-0.014
	C34.207,14.199,35.38,11.749,35.426,9.145z M18.482,8.854c0.074-4.321,3.648-7.837,7.969-7.837l0.14,0.001
	c2.13,0.036,4.117,0.9,5.598,2.431c1.479,1.532,2.273,3.548,2.237,5.677c-0.039,2.196-0.986,4.262-2.599,5.74
	c-0.058-0.035-0.11-0.084-0.17-0.114l-2.707-1.352c-0.18-0.091-0.296-0.277-0.296-0.476v-0.883c0.053-0.066,0.108-0.141,0.166-0.222
	c0.349-0.493,0.629-1.035,0.834-1.614c0.429-0.232,0.701-0.679,0.701-1.179V7.894c0-0.297-0.102-0.586-0.284-0.822l-0.003-1.38
	c0.006-0.046,0.141-1.147-0.643-2.041c-0.625-0.713-1.624-1.074-2.971-1.074s-2.346,0.361-2.971,1.074
	c-0.776,0.886-0.65,1.976-0.646,1.976v1.445c-0.182,0.235-0.283,0.524-0.283,0.822v1.133c0,0.386,0.164,0.749,0.448,1.002
	c0.256,0.958,0.744,1.697,0.969,2.002v0.864c-0.001,0.195-0.107,0.375-0.277,0.468l-2.529,1.38c-0.04,0.021-0.077,0.059-0.116,0.083
	C19.381,13.283,18.443,11.131,18.482,8.854z M30.993,15.545c-2.341,1.619-5.544,1.81-8.087,0.575c-0.001,0-0.001,0-0.002-0.001
	c-0.356-0.173-0.699-0.376-1.026-0.605c-0.005-0.004-0.011-0.008-0.016-0.012l2.312-1.261c0.49-0.269,0.797-0.783,0.798-1.345
	v-1.035c0-0.117-0.041-0.23-0.116-0.32c-0.007-0.009-0.669-0.81-0.922-1.911c-0.029-0.127-0.106-0.238-0.216-0.309
	c-0.102-0.066-0.163-0.176-0.163-0.294V7.894c0-0.131,0.074-0.218,0.118-0.258c0.105-0.095,0.165-0.229,0.165-0.371l-0.004-1.705
	c-0.001-0.007-0.078-0.703,0.402-1.251c0.427-0.487,1.173-0.733,2.219-0.733c1.039,0,1.783,0.244,2.211,0.724
	c0.487,0.547,0.411,1.257,0.406,1.326v1.639c0,0.141,0.06,0.275,0.164,0.37c0.044,0.041,0.119,0.128,0.119,0.259v1.133
	c0,0.15-0.103,0.286-0.25,0.331c-0.157,0.048-0.28,0.17-0.33,0.327c-0.18,0.563-0.438,1.088-0.771,1.557
	c-0.083,0.116-0.158,0.213-0.227,0.29c-0.08,0.092-0.124,0.209-0.124,0.33v1.063c0,0.581,0.324,1.105,0.847,1.369L31,15.542
	C30.997,15.542,30.995,15.544,30.993,15.545z"/>
</svg>
