<?xml version="1.0" encoding="utf-8"?>
<!-- Generator: Adobe Illustrator 15.1.0, SVG Export Plug-In . SVG Version: 6.00 Build 0)  -->
<!DOCTYPE svg PUBLIC "-//W3C//DTD SVG 1.1//EN" "http://www.w3.org/Graphics/SVG/1.1/DTD/svg11.dtd">
<svg version="1.1" id="Layer_1" xmlns="http://www.w3.org/2000/svg" xmlns:xlink="http://www.w3.org/1999/xlink" x="0px" y="0px"
	 width="30px" height="30px" viewBox="0 0 30 30" enable-background="new 0 0 30 30" xml:space="preserve">
<circle fill="#E5E5E5" cx="15" cy="15" r="15"/>
<g>
	<g>
		<path fill="#4F4F4F" d="M11.672,20.828c-1.378,0-2.5-1.121-2.5-2.5s1.122-2.5,2.5-2.5s2.5,1.121,2.5,2.5
			S13.05,20.828,11.672,20.828z M11.672,16.828c-0.827,0-1.5,0.673-1.5,1.5s0.673,1.5,1.5,1.5s1.5-0.673,1.5-1.5
			S12.499,16.828,11.672,16.828z"/>
	</g>
	<g>
		<path fill="#4F4F4F" d="M15.922,18.828c-0.276,0-0.5-0.224-0.5-0.5c0-2.068-1.682-3.75-3.75-3.75c-0.276,0-0.5-0.224-0.5-0.5
			s0.224-0.5,0.5-0.5c2.619,0,4.75,2.131,4.75,4.75C16.422,18.604,16.198,18.828,15.922,18.828z"/>
	</g>
	<g>
		<path fill="#4F4F4F" d="M18.109,18.828c-0.276,0-0.5-0.224-0.5-0.5c0-3.274-2.664-5.938-5.938-5.938c-0.276,0-0.5-0.224-0.5-0.5
			s0.224-0.5,0.5-0.5c3.825,0,6.938,3.112,6.938,6.938C18.609,18.604,18.386,18.828,18.109,18.828z"/>
	</g>
	<g>
		<path fill="#4F4F4F" d="M20.328,18.828c-0.276,0-0.5-0.224-0.5-0.5c0-4.498-3.659-8.156-8.156-8.156c-0.276,0-0.5-0.224-0.5-0.5
			s0.224-0.5,0.5-0.5c5.049,0,9.156,4.107,9.156,9.156C20.828,18.604,20.604,18.828,20.328,18.828z"/>
	</g>
</g>
</svg>
