<?xml version="1.0" encoding="utf-8"?>
<!-- Generator: Adobe Illustrator 19.2.0, SVG Export Plug-In . SVG Version: 6.00 Build 0)  -->
<svg version="1.1" id="Layer_1" xmlns="http://www.w3.org/2000/svg" xmlns:xlink="http://www.w3.org/1999/xlink" x="0px" y="0px"
	 width="17.4px" height="17.8px" viewBox="0 0 17.4 17.8" style="enable-background:new 0 0 17.4 17.8;" xml:space="preserve">
<style type="text/css">
	.st0{fill:#4F4F4F;}
</style>
<g>
	<path class="st0" d="M17.2,10.2l-1-1.3l1-1.4c0.1-0.2,0.2-0.4,0.1-0.6c-0.1-0.2-0.2-0.4-0.4-0.5l-1.5-0.8l0.3-1.6
		c0-0.2,0-0.4-0.2-0.6C15.5,3.1,15.2,3,15,3l-1.7-0.1l-0.5-1.6c-0.1-0.4-0.7-0.7-1.1-0.5l-1.5,0.7L9.2,0.2c-0.3-0.3-0.9-0.3-1.2,0
		L7,1.5L5.4,0.9C5,0.7,4.5,1,4.4,1.4L3.9,3L2.3,3.1c-0.2,0-0.4,0.1-0.6,0.3C1.6,3.6,1.5,3.8,1.6,4l0.3,1.6L0.4,6.5
		C0.2,6.6,0.1,6.8,0,7c0,0.2,0,0.4,0.1,0.6l1,1.3l-1,1.4C0,10.5,0,10.7,0,10.9c0.1,0.2,0.2,0.4,0.4,0.5l1.5,0.8l-0.3,1.6
		c0,0.2,0,0.4,0.2,0.6c0.1,0.2,0.4,0.3,0.6,0.3L4,14.8l0.5,1.6c0.1,0.4,0.7,0.7,1.1,0.5l1.5-0.7l1.1,1.3c0.1,0.2,0.4,0.2,0.6,0.2
		c0.2,0,0.4-0.1,0.6-0.3l1.1-1.3l1.5,0.6c0.1,0,0.2,0.1,0.3,0.1c0.3,0,0.7-0.2,0.7-0.6l0.4-1.6l1.7-0.1c0.2,0,0.4-0.1,0.6-0.3
		c0.1-0.2,0.2-0.4,0.2-0.6l-0.3-1.6l1.4-0.8c0.2-0.1,0.3-0.3,0.4-0.5C17.4,10.6,17.4,10.4,17.2,10.2z M14.9,11.3
		c-0.3,0.2-0.4,0.5-0.4,0.8l0.3,1.5l-1.6,0.1c-0.3,0-0.6,0.3-0.7,0.6l-0.4,1.5l-1.5-0.6c-0.3-0.1-0.7,0-0.9,0.2l-1,1.2l-1.1-1.2
		c-0.1-0.2-0.4-0.2-0.6-0.2c-0.1,0-0.2,0-0.3,0.1l-1.4,0.6l-0.4-1.5c-0.1-0.3-0.4-0.6-0.7-0.6l-1.6-0.1l0.3-1.5
		c0.1-0.3-0.1-0.7-0.4-0.8l-1.4-0.7L2,9.4c0.2-0.3,0.2-0.6,0-0.9L1.1,7.2l1.4-0.8C2.8,6.3,2.9,6,2.9,5.6L2.6,4.1L4.2,4
		c0.3,0,0.6-0.3,0.7-0.6l0.4-1.5l1.5,0.6c0.3,0.1,0.7,0,0.9-0.2l1-1.2l1.1,1.2c0.2,0.2,0.6,0.3,0.9,0.2L12,1.8l0.4,1.5
		c0.1,0.3,0.4,0.5,0.7,0.6L14.7,4l-0.3,1.5c-0.1,0.3,0.1,0.7,0.4,0.8l1.4,0.7l-0.9,1.3c-0.2,0.3-0.2,0.6,0,0.9l0.9,1.3L14.9,11.3z"
		/>
	<path class="st0" d="M9.7,8.5L9.6,8.4V6.7C9.8,6.8,10,6.9,10.1,7c0.1,0.1,0.1,0.1,0.2,0.2c0,0,0,0,0,0l0,0c0.1,0.1,0.2,0.1,0.4,0.1
		c0.4,0,0.7-0.3,0.7-0.7c0-0.2-0.1-0.3-0.2-0.5l0,0C11.2,6,11,5.8,10.6,5.6c-0.4-0.2-0.7-0.3-1-0.3V4.8c0-0.3-0.2-0.5-0.5-0.5
		S8.5,4.5,8.5,4.8v0.5c0,0,0,0-0.1,0c-1.1,0.2-1.9,1-1.9,2.1c0,0.8,0.5,1.5,1.6,2l0.5,0.2v1.6c-0.7-0.1-1.2-0.5-1.4-0.7l0,0
		c-0.1-0.1-0.3-0.2-0.4-0.2c-0.4,0-0.7,0.3-0.7,0.7c0,0.2,0.1,0.5,0.3,0.6h0c0.2,0.2,0.6,0.5,1.3,0.7c0,0,0,0,0,0
		c0.1,0,0.2,0,0.3,0.1c0,0,0.1,0,0.1,0c0.1,0,0.2,0,0.3,0c0.1,0,0.2,0,0.3,0v0.3c0,0.3,0.2,0.5,0.5,0.5c0.3,0,0.5-0.2,0.5-0.5v-0.4
		c0,0,0,0,0,0c0,0,0,0,0,0c0.1,0,0.2,0,0.3-0.1c0.1,0,0.2-0.1,0.2-0.1c0,0,0,0,0.1,0c0.2-0.1,0.3-0.2,0.5-0.3c0.5-0.4,0.8-1,0.8-1.6
		C11.5,9.5,10.9,9,9.7,8.5z M8.1,7.3c0-0.3,0.1-0.5,0.4-0.6v1.2C8.3,7.7,8.1,7.5,8.1,7.3z M9.6,11.1v-1c0.2,0.1,0.3,0.3,0.3,0.5
		C9.9,10.9,9.8,11,9.6,11.1z"/>
</g>
</svg>
