<?xml version="1.0" encoding="utf-8"?>
<!-- Generator: Adobe Illustrator 15.1.0, SVG Export Plug-In . SVG Version: 6.00 Build 0)  -->
<!DOCTYPE svg PUBLIC "-//W3C//DTD SVG 1.1//EN" "http://www.w3.org/Graphics/SVG/1.1/DTD/svg11.dtd">
<svg version="1.1" id="Layer_1" xmlns="http://www.w3.org/2000/svg" xmlns:xlink="http://www.w3.org/1999/xlink" x="0px" y="0px"
	 width="30px" height="30px" viewBox="0 0 30 30" enable-background="new 0 0 30 30" xml:space="preserve">
<circle fill="#F6F6F6" cx="15" cy="15" r="15"/>
<g>
	<g>
		<path fill="#4F4F4F" d="M15.001,20.613c-3.309,0-6.001-2.691-6.001-6c0.001-2.361,1.395-4.511,3.548-5.476
			c0.271-0.123,0.592,0,0.715,0.272c0.122,0.273,0,0.593-0.272,0.715c-1.766,0.792-2.907,2.554-2.908,4.489
			c0,2.713,2.207,4.918,4.919,4.918c2.711,0,4.917-2.205,4.917-4.918c0-1.914-1.124-3.668-2.861-4.468
			c-0.271-0.125-0.39-0.446-0.266-0.718c0.125-0.272,0.449-0.391,0.718-0.265C19.63,10.139,21,12.278,21,14.613
			C21,17.922,18.31,20.613,15.001,20.613z"/>
	</g>
	<g>
		<path fill="#4F4F4F" d="M15.001,15.154c-0.299,0-0.541-0.242-0.541-0.541V7.904c0-0.299,0.242-0.541,0.541-0.541
			s0.541,0.242,0.541,0.541v6.709C15.542,14.913,15.3,15.154,15.001,15.154z"/>
	</g>
</g>
</svg>
