<?xml version="1.0" encoding="utf-8"?>
<!-- Generator: Adobe Illustrator 15.1.0, SVG Export Plug-In . SVG Version: 6.00 Build 0)  -->
<!DOCTYPE svg PUBLIC "-//W3C//DTD SVG 1.1//EN" "http://www.w3.org/Graphics/SVG/1.1/DTD/svg11.dtd">
<svg version="1.1" id="Layer_1" xmlns="http://www.w3.org/2000/svg" xmlns:xlink="http://www.w3.org/1999/xlink" x="0px" y="0px"
	 width="30px" height="30px" viewBox="0 0 30 30" enable-background="new 0 0 30 30" xml:space="preserve">
<circle fill="#E5E5E5" cx="15" cy="15" r="15"/>
<g>
	<g>
		<path fill="#4F4F4F" d="M15.936,23.229h-1.791c-0.25,0-0.461-0.185-0.495-0.432l-0.137-0.991c-0.792-0.176-1.532-0.48-2.208-0.91
			l-0.794,0.602c-0.197,0.151-0.479,0.133-0.655-0.045l-1.267-1.268c-0.177-0.177-0.196-0.457-0.045-0.655l0.601-0.794
			c-0.43-0.676-0.734-1.416-0.91-2.209l-0.991-0.137c-0.247-0.033-0.432-0.244-0.432-0.494v-1.792c0-0.25,0.184-0.461,0.432-0.495
			l0.991-0.137c0.176-0.792,0.48-1.533,0.91-2.209L8.543,10.47c-0.151-0.199-0.132-0.479,0.045-0.655l1.267-1.267
			c0.176-0.177,0.458-0.195,0.655-0.045l0.794,0.601c0.676-0.43,1.417-0.734,2.208-0.91l0.137-0.991
			c0.034-0.247,0.245-0.432,0.495-0.432h1.791c0.25,0,0.461,0.184,0.495,0.432l0.137,0.991c0.792,0.175,1.533,0.48,2.21,0.91
			l0.794-0.601c0.199-0.152,0.479-0.132,0.655,0.045l1.267,1.267c0.177,0.177,0.196,0.457,0.045,0.656l-0.602,0.793
			c0.43,0.676,0.735,1.417,0.91,2.209l0.991,0.137c0.247,0.034,0.432,0.246,0.432,0.495v1.792c0,0.25-0.185,0.461-0.432,0.494
			l-0.991,0.137c-0.175,0.793-0.48,1.533-0.91,2.209l0.602,0.793c0.151,0.199,0.132,0.479-0.045,0.656l-1.267,1.268
			c-0.176,0.176-0.456,0.196-0.655,0.045l-0.794-0.602c-0.677,0.43-1.418,0.734-2.21,0.91l-0.137,0.991
			C16.396,23.045,16.186,23.229,15.936,23.229z M14.581,22.229H15.5l0.126-0.913c0.029-0.217,0.196-0.389,0.412-0.426
			c0.903-0.151,1.733-0.494,2.467-1.016c0.178-0.128,0.418-0.125,0.592,0.009l0.73,0.554l0.65-0.65l-0.554-0.73
			c-0.132-0.175-0.136-0.415-0.009-0.593c0.522-0.733,0.864-1.562,1.017-2.466c0.036-0.216,0.209-0.383,0.425-0.412l0.913-0.126
			v-0.919l-0.913-0.126c-0.217-0.03-0.389-0.197-0.425-0.412c-0.152-0.903-0.494-1.733-1.017-2.466
			c-0.127-0.178-0.123-0.418,0.009-0.592l0.554-0.73l-0.65-0.651l-0.73,0.554c-0.173,0.132-0.413,0.135-0.592,0.009
			c-0.733-0.522-1.563-0.864-2.467-1.016c-0.216-0.037-0.383-0.208-0.412-0.425L15.5,7.771h-0.919l-0.126,0.914
			c-0.03,0.216-0.196,0.388-0.412,0.425c-0.903,0.152-1.733,0.494-2.466,1.016c-0.179,0.126-0.418,0.124-0.592-0.009l-0.731-0.554
			l-0.651,0.651l0.554,0.731c0.132,0.174,0.136,0.414,0.009,0.592c-0.522,0.733-0.864,1.562-1.016,2.466
			c-0.037,0.215-0.208,0.382-0.425,0.412l-0.914,0.126v0.919l0.914,0.126c0.216,0.029,0.388,0.196,0.425,0.412
			c0.152,0.903,0.494,1.732,1.016,2.466c0.127,0.179,0.124,0.418-0.009,0.592l-0.554,0.731l0.651,0.65l0.731-0.554
			c0.173-0.134,0.414-0.136,0.592-0.009c0.733,0.521,1.562,0.863,2.466,1.016c0.216,0.037,0.382,0.209,0.412,0.426L14.581,22.229z"
			/>
	</g>
	<g>
		<path fill="#4F4F4F" d="M15.041,17.545c-1.403,0-2.544-1.142-2.544-2.545c0-1.403,1.142-2.544,2.544-2.544
			c1.404,0,2.545,1.142,2.545,2.544C17.586,16.403,16.444,17.545,15.041,17.545z M15.041,13.456c-0.852,0-1.544,0.693-1.544,1.544
			s0.693,1.545,1.544,1.545c0.852,0,1.545-0.693,1.545-1.545S15.893,13.456,15.041,13.456z"/>
	</g>
</g>
</svg>
