<?xml version="1.0" encoding="utf-8"?>
<!-- Generator: Adobe Illustrator 15.1.0, SVG Export Plug-In . SVG Version: 6.00 Build 0)  -->
<!DOCTYPE svg PUBLIC "-//W3C//DTD SVG 1.1//EN" "http://www.w3.org/Graphics/SVG/1.1/DTD/svg11.dtd">
<svg version="1.1" id="Layer_1" xmlns="http://www.w3.org/2000/svg" xmlns:xlink="http://www.w3.org/1999/xlink" x="0px" y="0px"
	 width="15.972px" height="17.991px" viewBox="0 0 15.972 17.991" enable-background="new 0 0 15.972 17.991" xml:space="preserve">
<path fill="#4F4F4F" d="M15.222,9.347h-0.66L13.275,1.39C13.15,0.61,12.433,0,11.644,0H6.194c-0.79,0-1.506,0.61-1.632,1.39
	L4.044,4.6H0.5C0.224,4.6,0,4.824,0,5.1v1.666c0,0.276,0.224,0.5,0.5,0.5h0.192v3.251c0,0.414,0.336,0.75,0.75,0.75h0.424v0.13
	c0,0.414,0.336,0.75,0.75,0.75H3.17v5.344c0,0.276,0.224,0.5,0.5,0.5s0.5-0.224,0.5-0.5v-3.612h0.488v0.699
	c0,0.414,0.336,0.75,0.75,0.75h7.022c0.414,0,0.75-0.336,0.75-0.75v-0.699h0.488v3.612c0,0.276,0.224,0.5,0.5,0.5s0.5-0.224,0.5-0.5
	v-5.344h0.554c0.414,0,0.75-0.336,0.75-0.75v-1.3C15.972,9.683,15.635,9.347,15.222,9.347z M5.55,1.549C5.597,1.256,5.898,1,6.194,1
	h5.449c0.296,0,0.598,0.256,0.645,0.549l1.26,7.798H4.236l0.336-2.081h5.875c0.276,0,0.5-0.224,0.5-0.5V5.1
	c0-0.276-0.224-0.5-0.5-0.5h-5.39L5.55,1.549z M1,5.6h8.947v0.666H1V5.6z M1.692,10.267V7.266h1.867L3.223,9.347H2.617
	c-0.414,0-0.75,0.336-0.75,0.75v0.17H1.692z M5.658,13.879h1.233v0.449H5.658V13.879z M9.947,13.879v0.449H7.892v-0.449H9.947z
	 M12.18,14.328h-1.233v-0.449h1.233V14.328z M13.668,12.879H4.17v-0.732h9.498V12.879z M14.972,11.147H2.867v-0.8h12.105V11.147z"/>
</svg>
