<?xml version="1.0" encoding="utf-8"?>
<!-- Generator: Adobe Illustrator 16.0.0, SVG Export Plug-In . SVG Version: 6.00 Build 0)  -->
<!DOCTYPE svg PUBLIC "-//W3C//DTD SVG 1.1//EN" "http://www.w3.org/Graphics/SVG/1.1/DTD/svg11.dtd">
<svg version="1.1" id="Layer_1" xmlns="http://www.w3.org/2000/svg" xmlns:xlink="http://www.w3.org/1999/xlink" x="0px" y="0px"
	 width="30px" height="30px" viewBox="0 0 30 30" enable-background="new 0 0 30 30" xml:space="preserve">
<circle fill="#F6F6F6" cx="15" cy="15" r="15"/>
<g>
	<path fill="#4F4F4F" d="M14.994,8.015c-3.028,0-5.492,2.463-5.492,5.492c0,1.358,0.5,2.663,1.429,3.694
		c0.012,0.013,1.264,1.304,1.264,4.174c0,0.006,0.003,0.011,0.003,0.018v0.457v1.559c0,0.275,0.224,0.5,0.5,0.5h1.796v0.601
		c0,0.276,0.224,0.5,0.5,0.5c0.276,0,0.5-0.224,0.5-0.5v-0.601h1.797c0.275,0,0.5-0.225,0.5-0.5V21.85v-0.475
		c0-2.839,1.223-4.129,1.264-4.171c0.008-0.009,0.016-0.017,0.021-0.022c0.908-1.011,1.41-2.314,1.41-3.675
		C20.486,10.479,18.021,8.015,14.994,8.015z M16.791,21.35h-3.593v-0.555h3.593V21.35z M16.791,22.907h-3.593V22.35h3.593V22.907z
		 M18.354,16.488c-0.052,0.051-1.064,1.096-1.427,3.307h-3.87c-0.341-2.075-1.258-3.134-1.407-3.289
		c-0.741-0.824-1.149-1.89-1.149-2.999c0-2.477,2.015-4.492,4.492-4.492c2.478,0,4.491,2.015,4.491,4.492
		C19.486,14.619,19.077,15.686,18.354,16.488z"/>
	<path fill="#4F4F4F" d="M22.999,13.007h-1.241c-0.275,0-0.5,0.224-0.5,0.5c0,0.276,0.225,0.5,0.5,0.5h1.241
		c0.276,0,0.5-0.224,0.5-0.5C23.499,13.231,23.275,13.007,22.999,13.007z"/>
	<path fill="#4F4F4F" d="M20.312,7.494l-0.877,0.877c-0.194,0.195-0.194,0.512,0,0.707c0.099,0.098,0.227,0.146,0.354,0.146
		s0.256-0.049,0.354-0.146l0.877-0.877c0.194-0.195,0.194-0.512,0-0.707C20.826,7.299,20.509,7.298,20.312,7.494z"/>
	<path fill="#4F4F4F" d="M15.017,7.233c0.276,0,0.5-0.224,0.5-0.5v-1.24c0-0.276-0.225-0.5-0.5-0.5s-0.5,0.224-0.5,0.5v1.24
		C14.517,7.009,14.741,7.233,15.017,7.233z"/>
	<path fill="#4F4F4F" d="M10.232,9.202c0.128,0,0.256-0.049,0.354-0.146c0.195-0.195,0.195-0.512,0-0.707L9.709,7.472
		c-0.195-0.195-0.512-0.195-0.707,0c-0.195,0.195-0.195,0.512,0,0.707l0.876,0.877C9.976,9.153,10.104,9.202,10.232,9.202z"/>
	<path fill="#4F4F4F" d="M8.242,12.976h-1.24c-0.276,0-0.5,0.224-0.5,0.5s0.224,0.5,0.5,0.5h1.24c0.276,0,0.5-0.224,0.5-0.5
		S8.519,12.976,8.242,12.976z"/>
</g>
</svg>
