<?xml version="1.0" encoding="utf-8"?>
<!-- Generator: Adobe Illustrator 19.2.0, SVG Export Plug-In . SVG Version: 6.00 Build 0)  -->
<svg version="1.1" id="Layer_1" xmlns="http://www.w3.org/2000/svg" xmlns:xlink="http://www.w3.org/1999/xlink" x="0px" y="0px"
	 width="16.3px" height="19.9px" viewBox="0 0 16.3 19.9" style="enable-background:new 0 0 16.3 19.9;" xml:space="preserve">
<style type="text/css">
	.st0{fill:#4F4F4F;}
</style>
<g>
	<path class="st0" d="M16.2,16.8l-3.1-4.7c1.3-1.3,2.1-3.1,2.1-5c0-3.9-3.2-7.1-7.1-7.1C4.2,0,1.1,3.2,1.1,7.1c0,2,0.8,3.7,2.1,5
		l-3,4.7C0,17,0,17.2,0.1,17.4s0.3,0.2,0.5,0.2l2.7-0.6l1,2.6c0.1,0.2,0.2,0.3,0.4,0.3c0,0,0,0,0.1,0c0.2,0,0.3-0.1,0.4-0.2L8.2,15
		l2.9,4.6c0.1,0.1,0.3,0.2,0.4,0.2c0,0,0,0,0.1,0c0.2,0,0.3-0.1,0.4-0.3l1-2.6l2.7,0.6c0.2,0,0.4,0,0.5-0.2
		C16.3,17.2,16.3,17,16.2,16.8z M8.2,1c3.4,0,6.1,2.7,6.1,6.1s-2.7,6.1-6.1,6.1s-6.1-2.7-6.1-6.1S4.8,1,8.2,1z M4.9,18.3l-0.8-2.1
		c-0.1-0.2-0.3-0.4-0.6-0.3l-1.9,0.4l2.3-3.5c1,0.8,2.3,1.3,3.6,1.4L4.9,18.3z M12.8,15.9c-0.2-0.1-0.5,0.1-0.6,0.3l-0.8,2.1
		l-2.6-4.1c1.4-0.1,2.6-0.6,3.6-1.4l2.3,3.5L12.8,15.9z"/>
	<path class="st0" d="M7.7,11.6c0,0.3,0.2,0.5,0.5,0.5c1.9,0,3.6-1.1,4.5-2.8c0.1-0.2,0-0.5-0.2-0.7c-0.2-0.1-0.5,0-0.7,0.2
		c-0.7,1.4-2,2.2-3.6,2.2C7.9,11.1,7.7,11.3,7.7,11.6z"/>
	<path class="st0" d="M12.6,8C12.6,8,12.6,8,12.6,8c0.3,0,0.5-0.2,0.5-0.5c0-0.1,0-0.3,0-0.4l0-0.2c0-0.3-0.2-0.5-0.5-0.5
		c-0.3,0-0.5,0.2-0.5,0.5l0,0.2c0,0.1,0,0.2,0,0.3C12.1,7.7,12.3,7.9,12.6,8z"/>
	<path class="st0" d="M3.9,5.6c0.1,0,0.1,0.1,0.2,0.1c0.2,0,0.4-0.1,0.4-0.3c0.7-1.4,2-2.2,3.6-2.2c0.3,0,0.5-0.2,0.5-0.5
		S8.4,2.1,8.2,2.1c-1.9,0-3.6,1.1-4.5,2.8C3.6,5.1,3.7,5.4,3.9,5.6z"/>
	<path class="st0" d="M4.2,7.3l0-0.2c0-0.1,0-0.2,0-0.3c0-0.3-0.2-0.5-0.5-0.5c-0.3,0-0.5,0.2-0.5,0.5c0,0.1,0,0.3,0,0.4l0,0.2
		c0,0.3,0.2,0.5,0.5,0.5c0,0,0,0,0,0C4,7.8,4.2,7.6,4.2,7.3z"/>
</g>
</svg>
