<?xml version="1.0" encoding="utf-8"?>
<!-- Generator: Adobe Illustrator 15.1.0, SVG Export Plug-In . SVG Version: 6.00 Build 0)  -->
<!DOCTYPE svg PUBLIC "-//W3C//DTD SVG 1.1//EN" "http://www.w3.org/Graphics/SVG/1.1/DTD/svg11.dtd">
<svg version="1.1" id="Layer_1" xmlns="http://www.w3.org/2000/svg" xmlns:xlink="http://www.w3.org/1999/xlink" x="0px" y="0px"
	 width="18.293px" height="16px" viewBox="0 0 18.293 16" enable-background="new 0 0 18.293 16" xml:space="preserve">
<g>
	<path fill="#4F4F4F" d="M9.146,5.63c1.552,0,2.815-1.263,2.815-2.816C11.962,1.263,10.699,0,9.146,0S6.331,1.263,6.331,2.814
		C6.331,4.367,7.594,5.63,9.146,5.63z M9.146,1c1.001,0,1.815,0.814,1.815,1.814c0,1.001-0.814,1.816-1.815,1.816
		S7.331,3.816,7.331,2.814C7.331,1.814,8.146,1,9.146,1z"/>
	<path fill="#4F4F4F" d="M3.166,7.331c1.302,0,2.361-1.06,2.361-2.362c0-1.301-1.059-2.36-2.361-2.36
		c-1.302,0-2.361,1.059-2.361,2.36C0.805,6.271,1.864,7.331,3.166,7.331z M3.166,3.609c0.75,0,1.361,0.61,1.361,1.36
		c0,0.751-0.611,1.362-1.361,1.362S1.805,5.72,1.805,4.969C1.805,4.219,2.415,3.609,3.166,3.609z"/>
	<path fill="#4F4F4F" d="M15.128,7.331c1.302,0,2.361-1.06,2.361-2.362c0-1.301-1.059-2.36-2.361-2.36s-2.361,1.059-2.361,2.36
		C12.767,6.271,13.826,7.331,15.128,7.331z M15.128,3.609c0.75,0,1.361,0.61,1.361,1.36c0,0.751-0.61,1.362-1.361,1.362
		s-1.361-0.611-1.361-1.362C13.767,4.219,14.377,3.609,15.128,3.609z"/>
	<path fill="#4F4F4F" d="M15.128,7.842c-0.923,0-1.748,0.405-2.327,1.039c-0.455-1.603-1.912-2.786-3.655-2.786
		s-3.2,1.184-3.655,2.786C4.913,8.247,4.088,7.842,3.166,7.842C1.42,7.842,0,9.265,0,11.014l0.008,4.505
		c0.01,0.269,0.231,0.48,0.5,0.48h5.315c0.003,0,0.006-0.001,0.009-0.001S5.837,16,5.84,16h6.613c0.003,0,0.006-0.001,0.009-0.001
		S12.467,16,12.47,16h5.315c0.272,0,0.493-0.19,0.498-0.462c0.004-0.024,0.009-0.087,0.009-0.111v-4.413
		C18.293,9.265,16.873,7.842,15.128,7.842z M1,15v-3.986c0-1.198,0.972-2.172,2.166-2.172s2.165,0.974,2.165,2.172L5.332,15H1z
		 M6.331,15v-3.986V9.919c0-1.557,1.263-2.824,2.816-2.824s2.816,1.267,2.816,2.824v1.094c0,0,0,0,0,0.001v0.06l0,3.926H6.331z
		 M12.962,15v-3.986c0-1.198,0.972-2.172,2.166-2.172s2.165,0.974,2.165,2.172L17.294,15H12.962z"/>
</g>
</svg>
