<?xml version="1.0" encoding="utf-8"?>
<!-- Generator: Adobe Illustrator 19.2.0, SVG Export Plug-In . SVG Version: 6.00 Build 0)  -->
<svg version="1.1" id="Layer_1" xmlns="http://www.w3.org/2000/svg" xmlns:xlink="http://www.w3.org/1999/xlink" x="0px" y="0px"
	 width="18.1px" height="20.8px" viewBox="0 0 18.1 20.8" style="enable-background:new 0 0 18.1 20.8;" xml:space="preserve">
<style type="text/css">
	.st0{fill:#4F4F4F;}
</style>
<g>
	<path class="st0" d="M11.1,4.4l-0.9-0.1L9.8,3.5c-0.3-0.6-1.3-0.6-1.6,0L7.9,4.3L7,4.4C6.7,4.4,6.4,4.7,6.3,5
		c-0.1,0.3,0,0.7,0.2,0.9l0.6,0.6L7,7.4C6.9,7.7,7.1,8,7.4,8.2c0.2,0.1,0.3,0.2,0.5,0.2c0.1,0,0.3,0,0.4-0.1l0.8-0.4l0.8,0.4
		c0.3,0.1,0.7,0.1,0.9-0.1C11,8,11.2,7.7,11.1,7.4L11,6.5l0.6-0.6c0.2-0.2,0.3-0.6,0.2-0.9C11.7,4.7,11.4,4.4,11.1,4.4z M10.1,6
		C9.9,6.1,9.9,6.2,9.9,6.4l0.2,0.9L9.3,6.9C9.1,6.8,9,6.8,8.8,6.9L8,7.3l0.2-0.9c0-0.2,0-0.3-0.1-0.4L7.4,5.3l0.9-0.1
		c0.2,0,0.3-0.1,0.4-0.3l0.4-0.8l0.4,0.8c0.1,0.1,0.2,0.2,0.4,0.3l0.9,0.1L10.1,6z"/>
	<path class="st0" d="M14.3,8.5c3.8-2.2,3.8-5.8,3.8-6c0-0.5-0.5-1-1-1H15v-1C15,0.2,14.8,0,14.5,0h-11C3.3,0,3.1,0.2,3.1,0.5v1H1
		c-0.5,0-1,0.4-1,1c0,0.2,0,3.8,3.8,6c0.8,2.1,2.2,3.7,3.8,4.3c-0.1,1.9-1.6,2.3-1.7,2.3c0,0,0,0,0,0c0,0-0.1,0-0.1,0
		c0,0-0.1,0-0.1,0.1s0,0-0.1,0.1s0,0.1-0.1,0.1c0,0,0,0.1,0,0.1c0,0,0,0.1,0,0.1c0,0,0,0,0,0v2H4.7c-0.9,0-1.7,0.7-1.7,1.7v1.1
		c0,0.3,0.2,0.5,0.5,0.5h11c0.3,0,0.5-0.2,0.5-0.5v-1.1c0-0.9-0.7-1.7-1.7-1.7h-0.8v-2c0,0,0,0,0,0c0,0,0-0.1,0-0.1c0,0,0-0.1,0-0.1
		c0,0,0,0,0-0.1c0,0,0-0.1-0.1-0.1c0,0,0,0-0.1,0c0,0-0.1,0-0.1,0c0,0,0,0,0,0c-0.1,0-1.6-0.5-1.7-2.3C12.2,12.2,13.6,10.6,14.3,8.5
		z M17.1,2.5c0,0.1,0,2.6-2.4,4.5C14.9,6.2,15,5.4,15,4.5v-2L17.1,2.5z M1,2.5h2.1v2c0,0.9,0.1,1.7,0.3,2.5C1,5.1,1,2.6,1,2.5z
		 M14,19.2v0.6h-10v-0.6c0-0.4,0.3-0.7,0.7-0.7h8.7C13.7,18.6,14,18.9,14,19.2z M6.5,17.6v-1.5h5.1v1.5C11.6,17.6,6.5,17.6,6.5,17.6
		z M10.4,15.1H7.7c0.4-0.5,0.8-1.2,0.9-2.1c0.2,0,0.3,0,0.5,0c0.2,0,0.3,0,0.5,0C9.7,13.9,10,14.6,10.4,15.1z M9.1,12.1
		c-2.7,0-5-3.5-5-7.6V1h10v3.5C14,8.7,11.8,12.1,9.1,12.1z"/>
</g>
</svg>
