<?xml version="1.0" encoding="utf-8"?>
<!-- Generator: Adobe Illustrator 15.1.0, SVG Export Plug-In . SVG Version: 6.00 Build 0)  -->
<!DOCTYPE svg PUBLIC "-//W3C//DTD SVG 1.1//EN" "http://www.w3.org/Graphics/SVG/1.1/DTD/svg11.dtd">
<svg version="1.1" id="Layer_1" xmlns="http://www.w3.org/2000/svg" xmlns:xlink="http://www.w3.org/1999/xlink" x="0px" y="0px"
	 width="30px" height="30px" viewBox="0 0 30 30" enable-background="new 0 0 30 30" xml:space="preserve">
<circle fill="#F6F6F6" cx="15" cy="15" r="15"/>
<path fill="#4F4F4F" d="M22.849,7.016c-0.193-0.193-0.531-0.194-0.729,0l-0.899,0.9h-6.114L7.345,15.74
	C7.122,15.962,7,16.258,7,16.574c0,0.315,0.122,0.612,0.345,0.834l5.375,5.376c0.223,0.222,0.519,0.345,0.834,0.345
	c0.316,0,0.613-0.125,0.839-0.351l7.557-7.761V8.646l0.9-0.9C23.05,7.545,23.05,7.218,22.849,7.016z M15.785,19.87l-2.126,2.184
	c-0.057,0.054-0.155,0.054-0.21,0L8.076,16.68c-0.028-0.028-0.044-0.064-0.044-0.105s0.015-0.076,0.044-0.105l2.146-2.163
	L15.785,19.87z M18.808,11.593c-0.294,0-0.533-0.24-0.533-0.535c0-0.198,0.108-0.372,0.269-0.464l-0.1,0.099
	c-0.098,0.098-0.151,0.227-0.151,0.365c0,0.138,0.054,0.268,0.151,0.365c0.193,0.194,0.535,0.194,0.73,0l0.1-0.1
	C19.18,11.484,19.007,11.593,18.808,11.593z M19.488,9.648c-0.212-0.103-0.443-0.157-0.681-0.157c-0.864,0-1.566,0.703-1.566,1.566
	c0,0.864,0.702,1.567,1.566,1.567s1.566-0.703,1.566-1.567c0-0.237-0.054-0.469-0.156-0.68l0.7-0.701v4.921l-4.412,4.532
	l-5.559-5.557l4.589-4.625h4.652L19.488,9.648z"/>
</svg>
